<?xml version="1.0" encoding="utf-8" standalone="yes"?>
<!DOCTYPE svg PUBLIC "-//W3C//DTD SVG 1.1//EN" "http://www.w3.org/Graphics/SVG/1.1/DTD/svg11.dtd">
<svg width="792" height="450" viewBox="0 0 792 450" style="fill:none;stroke:none;fill-rule:evenodd;clip-rule:evenodd;stroke-linecap:round;stroke-linejoin:round;stroke-miterlimit:1.5;" version="1.1" xmlns="http://www.w3.org/2000/svg" xmlns:xlink="http://www.w3.org/1999/xlink"><g id="items" style="isolation: isolate"><g id="blend" style="mix-blend-mode: normal"><g id="g-root-sy_4_line_1hduh0jgpo003-fill" data-item-order="-58275" transform="translate(290, 197.99993896484375)"></g><g id="g-root-sy_3_line_18itxurgpnxn0-fill" data-item-order="-58269" transform="translate(290, 197.99993896484375)"></g><g id="g-root-sy_1_line_18itxurgpnxn1-fill" data-item-order="-58263" transform="translate(290, 35.99993896484375)"></g><g id="g-root-sy_2_line_18itxurgpnxn2-fill" data-item-order="-58257" transform="translate(290.00244140625, 143.99993896484375)"></g><g id="g-root-sy_0_cu_18itxurgpnxn3-fill" data-item-order="-58253" transform="translate(218, 197.99993896484375)"></g><g id="g-root-ic_pers_zofvs3gps6bx-fill" data-item-order="0" transform="translate(410, 18)"></g><g id="g-root-tx_enhanced_dgpw2rgpnyfj-fill" data-item-order="0" transform="translate(458, 24)"><g id="tx_enhanced_dgpw2rgpnyfj-fill" stroke="none" fill="#767ae5"><g><text style="font: bold 15px &quot;Open Sans Regular&quot;, sans-serif; white-space: pre;" font-weight="bold" font-size="15px" font-family="'Open Sans Regular', sans-serif"><tspan x="12" y="32" dominant-baseline="ideographic">Enhanced Asset Protection</tspan></text></g></g></g><g id="g-root-tx_provides_dgpw2rgpnyfi-fill" data-item-order="0" transform="translate(458, 60)"><g id="tx_provides_dgpw2rgpnyfi-fill" stroke="none" fill="#0d0d0d"><g><text style="font: 15px &quot;Open Sans 300&quot;, sans-serif; white-space: pre;" font-size="15px" font-family="'Open Sans 300', sans-serif"><tspan x="12" y="29" dominant-baseline="ideographic">Provides better protection from creditors </tspan><tspan x="12" y="47" dominant-baseline="ideographic">and legal claims.</tspan></text></g></g></g><g id="g-root-ic_team_1lwsckjgpqr64-fill" data-item-order="0" transform="translate(74, 120)"></g><g id="g-root-ic_lock_8vwl9fgpqqkr-fill" data-item-order="0" transform="translate(410, 126)"></g><g id="g-root-tx_privacym_mccwbngpnxmt-fill" data-item-order="0" transform="translate(458, 132)"><g id="tx_privacym_mccwbngpnxmt-fill" stroke="none" fill="#80c476"><g><text style="font: bold 15px &quot;Open Sans Regular&quot;, sans-serif; white-space: pre;" font-weight="bold" font-size="15px" font-family="'Open Sans Regular', sans-serif"><tspan x="12" y="32" dominant-baseline="ideographic">Privacy Maintenance</tspan></text></g></g></g><g id="g-root-tx_keepsown_mccwbngpnxms-fill" data-item-order="0" transform="translate(458, 168)"><g id="tx_keepsown_mccwbngpnxms-fill" stroke="none" fill="#0d0d0d"><g><text style="font: 15px &quot;Open Sans 300&quot;, sans-serif; white-space: pre;" font-size="15px" font-family="'Open Sans 300', sans-serif"><tspan x="12" y="29" dominant-baseline="ideographic">Keeps ownership details private and avoids </tspan><tspan x="12" y="47" dominant-baseline="ideographic">probate.</tspan></text></g></g></g><g id="g-root-tx_shouldia_90wdybgpnz7s-fill" data-item-order="0" transform="translate(14, 192)"><g id="tx_shouldia_90wdybgpnz7s-fill" stroke="none" fill="#0d0d0d"><g><text style="font: bold 20px &quot;Poppins 300&quot;, sans-serif; white-space: pre;" font-weight="bold" font-size="20px" font-family="'Poppins 300', sans-serif"><tspan x="15.93" y="36" dominant-baseline="ideographic">Should I adopt a </tspan><tspan x="21.14" y="60" dominant-baseline="ideographic">trust ownership </tspan><tspan x="18.35" y="84" dominant-baseline="ideographic">structure for my </tspan><tspan x="76.01" y="108" dominant-baseline="ideographic">LLC?</tspan></text></g></g></g><g id="g-root-ic_hous_18gyilfgppcsq-fill" data-item-order="0" transform="translate(410, 234)"></g><g id="g-root-tx_estatepl_qrjxczgpo00b-fill" data-item-order="0" transform="translate(458, 240)"><g id="tx_estatepl_qrjxczgpo00b-fill" stroke="none" fill="#cccd35"><g><text style="font: bold 15px &quot;Open Sans Regular&quot;, sans-serif; white-space: pre;" font-weight="bold" font-size="15px" font-family="'Open Sans Regular', sans-serif"><tspan x="12" y="32" dominant-baseline="ideographic">Estate Planning Benefits</tspan></text></g></g></g><g id="g-root-tx_offersim_zn6xlvgpnz7m-fill" data-item-order="0" transform="translate(458, 276)"><g id="tx_offersim_zn6xlvgpnz7m-fill" stroke="none" fill="#0d0d0d"><g><text style="font: 15px &quot;Open Sans 300&quot;, sans-serif; white-space: pre;" font-size="15px" font-family="'Open Sans 300', sans-serif"><tspan x="12" y="29" dominant-baseline="ideographic">Offers improved options for long-term </tspan><tspan x="12" y="47" dominant-baseline="ideographic">business and estate planning.</tspan></text></g></g></g><g id="g-root-ic_targ_90wdybgpnz7t-fill" data-item-order="0" transform="translate(410, 342)"></g><g id="g-root-tx_potentia_zn6xlvgpnz7l-fill" data-item-order="0" transform="translate(458, 348)"><g id="tx_potentia_zn6xlvgpnz7l-fill" stroke="none" fill="#ffc107"><g><text style="font: bold 15px &quot;Open Sans Regular&quot;, sans-serif; white-space: pre;" font-weight="bold" font-size="15px" font-family="'Open Sans Regular', sans-serif"><tspan x="12" y="32" dominant-baseline="ideographic">Potential Tax Advantages</tspan></text></g></g></g><g id="g-root-tx_mayprovi_1430fqbgpnyfc-fill" data-item-order="0" transform="translate(458, 384)"><g id="tx_mayprovi_1430fqbgpnyfc-fill" stroke="none" fill="#0d0d0d"><g><text style="font: 15px &quot;Open Sans 300&quot;, sans-serif; white-space: pre;" font-size="15px" font-family="'Open Sans 300', sans-serif"><tspan x="12" y="29" dominant-baseline="ideographic">May provide tax benefits depending on </tspan><tspan x="12" y="47" dominant-baseline="ideographic">the structure and state laws.</tspan></text></g></g></g><g id="g-root-sy_4_line_1hduh0jgpo003-stroke" data-item-order="-58275" transform="translate(290, 197.99993896484375)"><g id="sy_4_line_1hduh0jgpo003-stroke" fill="none" stroke-linecap="round" stroke-linejoin="round" stroke-miterlimit="4" stroke="#ffc107" stroke-width="2"><g><path d="M 116 172.000061L 57.95 172.000061C 44.7 172.000061 33.95 161.250061 33.95 148.000061L 33.95 33.950061C 33.95 20.720061 23.23 10.000061 10 10.000061"></path><path d="M 110 178.500061L 116.5 172.000061L 110 165.500061" stroke-dasharray="none"></path></g></g></g><g id="g-root-sy_3_line_18itxurgpnxn0-stroke" data-item-order="-58269" transform="translate(290, 197.99993896484375)"><g id="sy_3_line_18itxurgpnxn0-stroke" fill="none" stroke-linecap="round" stroke-linejoin="round" stroke-miterlimit="4" stroke="#cccd35" stroke-width="2"><g><path d="M 116 64.000061L 57.95 64.000061C 44.7 64.000061 33.95 53.250061 33.95 40.000061L 33.95 33.950061C 33.95 20.720061 23.23 10.000061 10 10.000061"></path><path d="M 110 70.500061L 116.5 64.000061L 110 57.500061" stroke-dasharray="none"></path></g></g></g><g id="g-root-sy_1_line_18itxurgpnxn1-stroke" data-item-order="-58263" transform="translate(290, 35.99993896484375)"><g id="sy_1_line_18itxurgpnxn1-stroke" fill="none" stroke-linecap="round" stroke-linejoin="round" stroke-miterlimit="4" stroke="#767ae5" stroke-width="2"><g><path d="M 116 10.000061L 57.95 10.000061C 44.7 10.000061 33.95 20.750061 33.95 34.000061L 33.95 148.050061C 33.95 161.280061 23.23 172.000061 10 172.000061"></path><path d="M 110 16.500061L 116.5 10.000061L 110 3.500061" stroke-dasharray="none"></path></g></g></g><g id="g-root-sy_2_line_18itxurgpnxn2-stroke" data-item-order="-58257" transform="translate(290.00244140625, 143.99993896484375)"><g id="sy_2_line_18itxurgpnxn2-stroke" fill="none" stroke-linecap="round" stroke-linejoin="round" stroke-miterlimit="4" stroke="#80c476" stroke-width="2"><g><path d="M 115.997559 10.000061L 57.947559 10.000061C 44.697559 10.000061 33.947559 20.750061 33.947559 34.000061L 33.947559 40.050061C 33.947559 53.280061 23.227559 64.000061 9.997559 64.000061"></path><path d="M 109.997559 16.500061L 116.497559 10.000061L 109.997559 3.500061" stroke-dasharray="none"></path></g></g></g><g id="g-root-sy_0_cu_18itxurgpnxn3-stroke" data-item-order="-58253" transform="translate(218, 197.99993896484375)"><g id="sy_0_cu_18itxurgpnxn3-stroke" fill="none" stroke-linecap="round" stroke-linejoin="round" stroke-miterlimit="4" stroke="#a3a3a3" stroke-width="2"><g><path d="M 82 10L 10 10"></path></g></g></g><g id="g-root-ic_pers_zofvs3gps6bx-stroke" data-item-order="0" transform="translate(410, 18)"><g id="ic_pers_zofvs3gps6bx-stroke" fill="none" stroke-linecap="round" stroke-linejoin="round" stroke-miterlimit="4" stroke="#767ae5" stroke-width="2"><g><path d="M 17.071428 17.071428C 17.071428 20.26679 19.661781 22.857143 22.857143 22.857143C 26.052504 22.857143 28.642857 20.26679 28.642857 17.071428C 28.642857 13.876067 26.052504 11.285714 22.857143 11.285714C 19.661781 11.285714 17.071428 13.876067 17.071428 17.071428M 25.428572 26.997143C 21.993437 26.204082 18.384209 27.023956 15.628821 29.223257C 12.873433 31.422558 11.273875 34.760239 11.285714 38.285713L 11.285714 42.142857L 25.428572 42.142857M 37.437141 44.637142L 37.437141 44.637142C 37.154663 44.739269 36.845337 44.739269 36.562855 44.637142L 36.562855 44.637142C 32.17485 42.898834 29.291069 38.659775 29.285713 33.940002L 29.285713 30.571428C 29.262722 30.223896 29.390781 29.883339 29.63706 29.63706C 29.883339 29.390781 30.223896 29.262722 30.571428 29.285713L 43.42857 29.285713C 43.7761 29.262722 44.116657 29.390781 44.362938 29.63706C 44.609219 29.883339 44.737274 30.223896 44.714287 30.571428L 44.714287 33.940002C 44.708931 38.659775 41.82515 42.898834 37.437141 44.637142Z"></path></g></g></g><g id="g-root-tx_enhanced_dgpw2rgpnyfj-stroke" data-item-order="0" transform="translate(458, 24)"></g><g id="g-root-tx_provides_dgpw2rgpnyfi-stroke" data-item-order="0" transform="translate(458, 60)"></g><g id="g-root-ic_team_1lwsckjgpqr64-stroke" data-item-order="0" transform="translate(74, 120)"><g id="ic_team_1lwsckjgpqr64-stroke" fill="none" stroke-linecap="round" stroke-linejoin="round" stroke-miterlimit="4" stroke="#484848" stroke-width="2"><g><path d="M 12.5 68.125C 12.5 63.982868 15.857864 60.625 20 60.625C 24.142136 60.625 27.5 63.982868 27.5 68.125ZM 32.5 68.125C 32.5 63.982868 35.857864 60.625 40 60.625C 44.142136 60.625 47.5 63.982868 47.5 68.125ZM 52.5 68.125C 52.5 63.982868 55.857868 60.625 60 60.625C 64.142136 60.625 67.5 63.982868 67.5 68.125ZM 15.01 51.875C 15.01 54.636425 17.248577 56.875 20.01 56.875C 22.771423 56.875 25.01 54.636425 25.01 51.875C 25.01 49.113575 22.771423 46.875 20.01 46.875C 17.248577 46.875 15.01 49.113575 15.01 51.875ZM 35.009998 51.875C 35.009998 54.636425 37.248577 56.875 40.009998 56.875C 42.771423 56.875 45.009998 54.636425 45.009998 51.875C 45.009998 49.113575 42.771423 46.875 40.009998 46.875C 37.248577 46.875 35.009998 49.113575 35.009998 51.875ZM 55.009998 51.875C 55.009998 54.636425 57.248577 56.875 60.009998 56.875C 62.771423 56.875 65.010002 54.636425 65.010002 51.875C 65.010002 49.113575 62.771423 46.875 60.009998 46.875C 57.248577 46.875 55.009998 49.113575 55.009998 51.875ZM 45 15.625L 37.5 15.625C 35.852501 15.625 35 16.1075 35 18.125C 35 21.3925 45 24.8575 45 28.125C 45.106022 28.815144 44.876984 29.514523 44.383255 30.008255C 43.889519 30.501986 43.190144 30.731026 42.499996 30.624998L 35 30.625M 40.009998 15.625L 40.009998 11.875M 40.009998 34.375L 40.009998 30.625M 20.01 43.125L 20.01 40.625L 60.009998 40.625L 60.009998 43.125M 40.009998 40.625L 40.009998 43.125"></path></g></g></g><g id="g-root-ic_lock_8vwl9fgpqqkr-stroke" data-item-order="0" transform="translate(410, 126)"><g id="ic_lock_8vwl9fgpqqkr-stroke" fill="none" stroke-linecap="round" stroke-linejoin="round" stroke-miterlimit="4" stroke="#80c476" stroke-width="2"><g><path d="M 17.071428 17.071428C 17.071428 20.26679 19.661781 22.857143 22.857143 22.857143C 26.052504 22.857143 28.642857 20.26679 28.642857 17.071428C 28.642857 13.876067 26.052504 11.285714 22.857143 11.285714C 19.661781 11.285714 17.071428 13.876067 17.071428 17.071428M 25.428572 26.997143C 21.993437 26.204082 18.384209 27.023956 15.628821 29.223257C 12.873433 31.422558 11.273875 34.760239 11.285714 38.285713L 11.285714 42.142857L 21.571428 42.142857M 30.571428 33.142857L 43.42857 33.142857C 43.42857 33.142857 44.714287 33.142857 44.714287 34.42857L 44.714287 43.42857C 44.714287 43.42857 44.714287 44.714287 43.42857 44.714287L 30.571428 44.714287C 30.571428 44.714287 29.285713 44.714287 29.285713 43.42857L 29.285713 34.42857C 29.285713 34.42857 29.285713 33.142857 30.571428 33.142857M 31.857143 33.142857L 31.857143 30.571428C 31.857143 27.731108 34.159679 25.428572 37 25.428572C 39.840321 25.428572 42.142857 27.731108 42.142857 30.571428L 42.142857 33.142857"></path></g></g></g><g id="g-root-tx_privacym_mccwbngpnxmt-stroke" data-item-order="0" transform="translate(458, 132)"></g><g id="g-root-tx_keepsown_mccwbngpnxms-stroke" data-item-order="0" transform="translate(458, 168)"></g><g id="g-root-tx_shouldia_90wdybgpnz7s-stroke" data-item-order="0" transform="translate(14, 192)"></g><g id="g-root-ic_hous_18gyilfgppcsq-stroke" data-item-order="0" transform="translate(410, 234)"><g id="ic_hous_18gyilfgppcsq-stroke" fill="none" stroke-linecap="round" stroke-linejoin="round" stroke-miterlimit="4" stroke="#cccd35" stroke-width="2"><g><path d="M 33.637001 34.900002C 30.128971 37.091595 27.998371 40.936653 27.999998 45.072998M 23.1805 31.408001C 26.166935 33.158543 28.001257 36.361328 28 39.822998M 13.75 29.698C 13.75 32.390388 15.932612 34.572998 18.625 34.572998C 21.317389 34.572998 23.5 32.390388 23.5 29.698002C 23.5 27.005613 21.317389 24.823002 18.625 24.823002C 15.932612 24.823002 13.75 27.005613 13.75 29.698002ZM 33.25 33.072998C 33.25 35.558281 35.264717 37.572998 37.75 37.572998C 40.235283 37.572998 42.25 35.558281 42.25 33.073002C 42.25 30.587719 40.235283 28.573002 37.75 28.573002C 35.264717 28.573002 33.25 30.587719 33.25 33.073002ZM 23.5 13.8445L 23.5 21.823C 23.5 22.237213 23.835787 22.573 24.25 22.573L 31.75 22.573C 32.164215 22.573 32.5 22.237213 32.5 21.823L 32.5 13.8445M 19.75 16.573L 27.118 11.215C 27.643867 10.832722 28.356133 10.832722 28.882 11.215L 36.25 16.573M 28 18.823L 28 45.072998"></path></g></g></g><g id="g-root-tx_estatepl_qrjxczgpo00b-stroke" data-item-order="0" transform="translate(458, 240)"></g><g id="g-root-tx_offersim_zn6xlvgpnz7m-stroke" data-item-order="0" transform="translate(458, 276)"></g><g id="g-root-ic_targ_90wdybgpnz7t-stroke" data-item-order="0" transform="translate(410, 342)"><g id="ic_targ_90wdybgpnz7t-stroke" fill="none" stroke-linecap="round" stroke-linejoin="round" stroke-miterlimit="4" stroke="#ffc107" stroke-width="2"><g><path d="M 28 11.503L 28 18.253M 11.5 28.003L 18.25 28.003M 28 44.503002L 28 37.753002M 44.5 28.003L 37.75 28.003M 16 28.003C 16 34.630417 21.372583 40.003002 28 40.003002C 34.627419 40.003002 40 34.630417 40 28.003C 40 21.375584 34.627419 16.003 28 16.003C 21.372583 16.003 16 21.375584 16 28.003ZM 28 23.503L 28 22.003M 30.25 23.5L 27.2005 23.5C 26.236567 23.500673 25.4084 24.184589 25.225481 25.131008C 25.042564 26.077425 25.55624 27.020687 26.4505 27.380501L 29.546501 28.618C 30.442837 28.976566 30.958414 29.920982 30.775286 30.868851C 30.592159 31.816717 29.761894 32.501118 28.796501 32.5L 25.75 32.5M 28 34.003002L 28 32.502998"></path></g></g></g><g id="g-root-tx_potentia_zn6xlvgpnz7l-stroke" data-item-order="0" transform="translate(458, 348)"></g><g id="g-root-tx_mayprovi_1430fqbgpnyfc-stroke" data-item-order="0" transform="translate(458, 384)"></g></g></g></svg>