<?xml version="1.0" encoding="utf-8" standalone="yes"?>
<!DOCTYPE svg PUBLIC "-//W3C//DTD SVG 1.1//EN" "http://www.w3.org/Graphics/SVG/1.1/DTD/svg11.dtd">
<svg width="913" height="722" viewBox="0 0 913 722" style="fill:none;stroke:none;fill-rule:evenodd;clip-rule:evenodd;stroke-linecap:round;stroke-linejoin:round;stroke-miterlimit:1.5;" version="1.1" xmlns="http://www.w3.org/2000/svg" xmlns:xlink="http://www.w3.org/1999/xlink"><g id="items" style="isolation: isolate"><g id="blend" style="mix-blend-mode: normal"><g id="g-root-di_4hb2flgpicjp-fill" data-item-order="-25451" transform="translate(198.060791015625, 322.662109375)"><g id="di_4hb2flgpicjp-fill" stroke="none" fill="#fff3e4"><g><path d="M 9.99924 61.337891L 133.93924 112.677891L 257.87924 61.337891L 133.93924 9.997891Z"></path></g></g></g><g id="g-root-ro_hydukxgpmjv0-fill" data-item-order="-18432" transform="translate(698, 176)"><g id="ro_hydukxgpmjv0-fill" stroke="none" fill="#e7fbf9"><g><path d="M 22 10L 190 10C 190 10 202 10 202 22L 202 94C 202 94 202 106 190 106L 22 106C 22 106 10 106 10 94L 10 22C 10 22 10 10 22 10"></path></g></g></g><g id="g-root-ro_8xr1n5gppcsi-fill" data-item-order="-17280" transform="translate(698, 384)"><g id="ro_8xr1n5gppcsi-fill" stroke="none" fill="#e7fbf9"><g><path d="M 22 10L 178 10C 178 10 190 10 190 22L 190 94C 190 94 190 106 178 106L 22 106C 22 106 10 106 10 94L 10 22C 10 22 10 10 22 10"></path></g></g></g><g id="g-root-ro_hxrdhtgpqry8-fill" data-item-order="-17280" transform="translate(698, 592)"><g id="ro_hxrdhtgpqry8-fill" stroke="none" fill="#e7fbf9"><g><path d="M 22 10L 178 10C 178 10 190 10 190 22L 190 94C 190 94 190 106 178 106L 22 106C 22 106 10 106 10 94L 10 22C 10 22 10 10 22 10"></path></g></g></g><g id="g-root-ro_hsrksxgpiayr-fill" data-item-order="-16128" transform="translate(14, 326)"><g id="ro_hsrksxgpiayr-fill" stroke="none" fill="#ffffff"><g><path d="M 22 10L 166 10C 166 10 178 10 178 22L 178 94C 178 94 178 106 166 106L 22 106C 22 106 10 106 10 94L 10 22C 10 22 10 10 22 10"></path></g></g></g><g id="g-root-ro_1d3m9shgpl6v5-fill" data-item-order="-13500" transform="translate(698, 81)"><g id="ro_1d3m9shgpl6v5-fill" stroke="none" fill="#e7fbf9"><g><path d="M 22 10L 178 10C 178 10 190 10 190 22L 190 73C 190 73 190 85 178 85L 22 85C 22 85 10 85 10 73L 10 22C 10 22 10 10 22 10"></path></g></g></g><g id="g-root-ro_1d2zspdgpiark-fill" data-item-order="-13500" transform="translate(462.0000305175781, 127)"><g id="ro_1d2zspdgpiark-fill" stroke="none" fill="#e7fbf9"><g><path d="M 22 10L 178 10C 178 10 190 10 190 22L 190 73C 190 73 190 85 178 85L 22 85C 22 85 10 85 10 73L 10 22C 10 22 10 10 22 10"></path></g></g></g><g id="g-root-ro_142zgupgpnz0v-fill" data-item-order="-13500" transform="translate(698, 289)"><g id="ro_142zgupgpnz0v-fill" stroke="none" fill="#e7fbf9"><g><path d="M 22 10L 178 10C 178 10 190 10 190 22L 190 73C 190 73 190 85 178 85L 22 85C 22 85 10 85 10 73L 10 22C 10 22 10 10 22 10"></path></g></g></g><g id="g-root-ro_zs5rf5gppclp-fill" data-item-order="-12960" transform="translate(698, 500)"><g id="ro_zs5rf5gppclp-fill" stroke="none" fill="#e7fbf9"><g><path d="M 22 10L 178 10C 178 10 190 10 190 22L 190 70C 190 70 190 82 178 82L 22 82C 22 82 10 82 10 70L 10 22C 10 22 10 10 22 10"></path></g></g></g><g id="g-root-ro_hx4wepgpjqx7-fill" data-item-order="-9720" transform="translate(462.0000305175781, 347)"><g id="ro_hx4wepgpjqx7-fill" stroke="none" fill="#e7fbf9"><g><path d="M 22 10L 178 10C 178 10 190 10 190 22L 190 52C 190 52 190 64 178 64L 22 64C 22 64 10 64 10 52L 10 22C 10 22 10 10 22 10"></path></g></g></g><g id="g-root-ro_1q87k7lgpl6va-fill" data-item-order="-9720" transform="translate(462.0000305175781, 555)"><g id="ro_1q87k7lgpl6va-fill" stroke="none" fill="#e7fbf9"><g><path d="M 22 10L 178 10C 178 10 190 10 190 22L 190 52C 190 52 190 64 178 64L 22 64C 22 64 10 64 10 52L 10 22C 10 22 10 10 22 10"></path></g></g></g><g id="g-root-tx_optionsf_mfgavlgpqqyq-fill" data-item-order="0" transform="translate(260.0000305175781, 6)"><g id="tx_optionsf_mfgavlgpqqyq-fill" stroke="none" fill="#0d0d0d"><g><text style="font: bold 20px &quot;Poppins 300&quot;, sans-serif; white-space: pre;" font-weight="bold" font-size="20px" font-family="'Poppins 300', sans-serif"><tspan x="13.47" y="36" dominant-baseline="ideographic">Options for Managing a Dormant LLC</tspan></text></g></g></g><g id="g-root-cu_qv9t01gpqq6f-fill" data-item-order="2" transform="translate(182, 374)"></g><g id="g-root-cu_zqac5tgpqrrd-fill" data-item-order="2" transform="translate(642, 326.5)"></g><g id="g-root-cu_1463ua9gpqqyx-fill" data-item-order="2" transform="translate(642, 582)"></g><g id="g-root-cu_1463ua9gpqqz2-fill" data-item-order="2" transform="translate(642, 374)"></g><g id="g-root-cu_zqac5tgpqrri-fill" data-item-order="2" transform="translate(642, 118.5)"></g><g id="g-root-cu_1463ua9gpqrr4-fill" data-item-order="2" transform="translate(445.9393615722656, 374)"></g><g id="g-root-cu_vagu1dgpqsjv-fill" data-item-order="2" transform="translate(445.9393615722656, 374)"></g><g id="g-root-cu_qv9t01gpqq6d-fill" data-item-order="2" transform="translate(445.9393615722656, 164.5)"></g><g id="g-root-cu_zqac5tgpqrrf-fill" data-item-order="2" transform="translate(642, 164.5)"></g><g id="g-root-cu_1463ua9gpqqz0-fill" data-item-order="2" transform="translate(642, 536)"></g><g id="g-root-tx_dissolve_v8les1gpjpc9-fill" data-item-order="1000000000" transform="translate(510.0000305175781, 362)"><g id="tx_dissolve_v8les1gpjpc9-fill" stroke="none" fill="#636873"><g><text style="font: 15px &quot;Open Sans Regular&quot;, sans-serif; white-space: pre;" font-size="15px" font-family="'Open Sans Regular', sans-serif"><tspan x="12" y="32" dominant-baseline="ideographic">Dissolve LLC</tspan></text></g></g></g><g id="g-root-ic_chai_qsrwnlgpjq4i-fill" data-item-order="1000000000" transform="translate(474.0000305175781, 359)"></g><g id="g-root-ic_1_ddkjrlgppc09-fill" data-item-order="1000000000" transform="translate(710, 399)"></g><g id="g-root-tx_filearti_qoel1tgppdl4-fill" data-item-order="1000000000" transform="translate(746, 396)"><g id="tx_filearti_qoel1tgppdl4-fill" stroke="none" fill="#636873"><g><text style="font: 15px &quot;Open Sans Regular&quot;, sans-serif; white-space: pre;" font-size="15px" font-family="'Open Sans Regular', sans-serif"><tspan x="12" y="29" dominant-baseline="ideographic">File Articles of </tspan><tspan x="12" y="47" dominant-baseline="ideographic">Dissolution</tspan></text></g></g></g><g id="g-root-tx_choosepa_8x4kk1gpibrg-fill" data-item-order="1000000000" transform="translate(268.0000915527344, 362)"><g id="tx_choosepa_8x4kk1gpibrg-fill" stroke="none" fill="#636873"><g><text style="font: 15px &quot;Open Sans Regular&quot;, sans-serif; white-space: pre;" font-size="15px" font-family="'Open Sans Regular', sans-serif"><tspan x="16.73" y="32" dominant-baseline="ideographic">Choose Path?</tspan></text></g></g></g><g id="g-root-ic_sear_hsrksxgpiayq-fill" data-item-order="1000000000" transform="translate(26, 353)"></g><g id="g-root-ic_cash_18nsro1gppbt0-fill" data-item-order="1000000000" transform="translate(710, 515)"></g><g id="g-root-tx_payoverd_1lymsy9gppddv-fill" data-item-order="1000000000" transform="translate(746, 512)"><g id="tx_payoverd_1lymsy9gppddv-fill" stroke="none" fill="#636873"><g><text style="font: 15px &quot;Open Sans Regular&quot;, sans-serif; white-space: pre;" font-size="15px" font-family="'Open Sans Regular', sans-serif"><tspan x="12" y="29" dominant-baseline="ideographic">Pay Overdue </tspan><tspan x="12" y="47" dominant-baseline="ideographic">Fees</tspan></text></g></g></g><g id="g-root-tx_evaluate_m7ylu9gpidc9-fill" data-item-order="1000000000" transform="translate(62, 338)"><g id="tx_evaluate_m7ylu9gpidc9-fill" stroke="none" fill="#636873"><g><text style="font: 15px &quot;Open Sans Regular&quot;, sans-serif; white-space: pre;" font-size="15px" font-family="'Open Sans Regular', sans-serif"><tspan x="12" y="32" dominant-baseline="ideographic">Evaluate </tspan><tspan x="12" y="50" dominant-baseline="ideographic">Dormant LLC </tspan><tspan x="12" y="68" dominant-baseline="ideographic">Status</tspan></text></g></g></g><g id="g-root-tx_formalap_1hefz81gpnxfx-fill" data-item-order="1000000000" transform="translate(746, 304)"><g id="tx_formalap_1hefz81gpnxfx-fill" stroke="none" fill="#636873"><g><text style="font: 15px &quot;Open Sans Regular&quot;, sans-serif; white-space: pre;" font-size="15px" font-family="'Open Sans Regular', sans-serif"><tspan x="12" y="32" dominant-baseline="ideographic">Formal Approval</tspan></text></g></g></g><g id="g-root-ic_docu_1cymh3lgpny86-fill" data-item-order="1000000000" transform="translate(710, 301)"></g><g id="g-root-ic_fire_1uo12c1gpl631-fill" data-item-order="1000000000" transform="translate(474.0000305175781, 567)"></g><g id="g-root-tx_filezero_v97vv5gpmlfu-fill" data-item-order="1000000000" transform="translate(746, 188)"><g id="tx_filezero_v97vv5gpmlfu-fill" stroke="none" fill="#636873"><g><text style="font: 15px &quot;Open Sans Regular&quot;, sans-serif; white-space: pre;" font-size="15px" font-family="'Open Sans Regular', sans-serif"><tspan x="12" y="29" dominant-baseline="ideographic">File Zero Income </tspan><tspan x="12" y="47" dominant-baseline="ideographic">Tax Returns</tspan></text></g></g></g><g id="g-root-ic_docu_qu0uttgpmj2b-fill" data-item-order="1000000000" transform="translate(710, 191)"></g><g id="g-root-tx_maintain_1ly0bv5gpiccu-fill" data-item-order="1000000000" transform="translate(510.0000305175781, 142)"><g id="tx_maintain_1ly0bv5gpiccu-fill" stroke="none" fill="#636873"><g><text style="font: 15px &quot;Open Sans Regular&quot;, sans-serif; white-space: pre;" font-size="15px" font-family="'Open Sans Regular', sans-serif"><tspan x="12" y="32" dominant-baseline="ideographic">Maintain LLC</tspan></text></g></g></g><g id="g-root-ic_shie_18n6akxgpiarz-fill" data-item-order="1000000000" transform="translate(474.0000305175781, 139)"></g><g id="g-root-tx_payannua_1lz9a1dgpl5an-fill" data-item-order="1000000000" transform="translate(746, 96)"><g id="tx_payannua_1lz9a1dgpl5an-fill" stroke="none" fill="#636873"><g><text style="font: 15px &quot;Open Sans Regular&quot;, sans-serif; white-space: pre;" font-size="15px" font-family="'Open Sans Regular', sans-serif"><tspan x="12" y="32" dominant-baseline="ideographic">Pay Annual Fees</tspan></text></g></g></g><g id="g-root-ic_cloc_mdkvm9gpqr5z-fill" data-item-order="1000000000" transform="translate(710, 607)"></g><g id="g-root-tx_filedeli_qtedqpgpqqdq-fill" data-item-order="1000000000" transform="translate(746, 604)"><g id="tx_filedeli_qtedqpgpqqdq-fill" stroke="none" fill="#636873"><g><text style="font: 15px &quot;Open Sans Regular&quot;, sans-serif; white-space: pre;" font-size="15px" font-family="'Open Sans Regular', sans-serif"><tspan x="12" y="29" dominant-baseline="ideographic">File Delinquent </tspan><tspan x="12" y="47" dominant-baseline="ideographic">Reports</tspan></text></g></g></g><g id="g-root-ic_stac_1d3m9shgpl6v4-fill" data-item-order="1000000000" transform="translate(710, 93)"></g><g id="g-root-tx_revivell_4ik0ltgpl5hg-fill" data-item-order="1000000000" transform="translate(510.0000305175781, 570)"><g id="tx_revivell_4ik0ltgpl5hg-fill" stroke="none" fill="#636873"><g><text style="font: 15px &quot;Open Sans Regular&quot;, sans-serif; white-space: pre;" font-size="15px" font-family="'Open Sans Regular', sans-serif"><tspan x="12" y="32" dominant-baseline="ideographic">Revive LLC</tspan></text></g></g></g><g id="g-root-di_4hb2flgpicjp-stroke" data-item-order="-25451" transform="translate(198.060791015625, 322.662109375)"><g id="di_4hb2flgpicjp-stroke" fill="none" stroke-linecap="round" stroke-linejoin="round" stroke-miterlimit="4" stroke="#ff8b00" stroke-width="2"><g><path d="M 9.99924 61.337891L 133.93924 112.677891L 257.87924 61.337891L 133.93924 9.997891Z"></path></g></g></g><g id="g-root-ro_hydukxgpmjv0-stroke" data-item-order="-18432" transform="translate(698, 176)"><g id="ro_hydukxgpmjv0-stroke" fill="none" stroke-linecap="round" stroke-linejoin="round" stroke-miterlimit="4" stroke="#4db6ac" stroke-width="2"><g><path d="M 22 10L 190 10C 190 10 202 10 202 22L 202 94C 202 94 202 106 190 106L 22 106C 22 106 10 106 10 94L 10 22C 10 22 10 10 22 10"></path></g></g></g><g id="g-root-ro_8xr1n5gppcsi-stroke" data-item-order="-17280" transform="translate(698, 384)"><g id="ro_8xr1n5gppcsi-stroke" fill="none" stroke-linecap="round" stroke-linejoin="round" stroke-miterlimit="4" stroke="#4db6ac" stroke-width="2"><g><path d="M 22 10L 178 10C 178 10 190 10 190 22L 190 94C 190 94 190 106 178 106L 22 106C 22 106 10 106 10 94L 10 22C 10 22 10 10 22 10"></path></g></g></g><g id="g-root-ro_hxrdhtgpqry8-stroke" data-item-order="-17280" transform="translate(698, 592)"><g id="ro_hxrdhtgpqry8-stroke" fill="none" stroke-linecap="round" stroke-linejoin="round" stroke-miterlimit="4" stroke="#4db6ac" stroke-width="2"><g><path d="M 22 10L 178 10C 178 10 190 10 190 22L 190 94C 190 94 190 106 178 106L 22 106C 22 106 10 106 10 94L 10 22C 10 22 10 10 22 10"></path></g></g></g><g id="g-root-ro_hsrksxgpiayr-stroke" data-item-order="-16128" transform="translate(14, 326)"><g id="ro_hsrksxgpiayr-stroke" fill="none" stroke-linecap="round" stroke-linejoin="round" stroke-miterlimit="4" stroke="#0d0d0d" stroke-width="2"><g><path d="M 22 10L 166 10C 166 10 178 10 178 22L 178 94C 178 94 178 106 166 106L 22 106C 22 106 10 106 10 94L 10 22C 10 22 10 10 22 10"></path></g></g></g><g id="g-root-ro_1d3m9shgpl6v5-stroke" data-item-order="-13500" transform="translate(698, 81)"><g id="ro_1d3m9shgpl6v5-stroke" fill="none" stroke-linecap="round" stroke-linejoin="round" stroke-miterlimit="4" stroke="#4db6ac" stroke-width="2"><g><path d="M 22 10L 178 10C 178 10 190 10 190 22L 190 73C 190 73 190 85 178 85L 22 85C 22 85 10 85 10 73L 10 22C 10 22 10 10 22 10"></path></g></g></g><g id="g-root-ro_1d2zspdgpiark-stroke" data-item-order="-13500" transform="translate(462.0000305175781, 127)"><g id="ro_1d2zspdgpiark-stroke" fill="none" stroke-linecap="round" stroke-linejoin="round" stroke-miterlimit="4" stroke="#4db6ac" stroke-width="2"><g><path d="M 22 10L 178 10C 178 10 190 10 190 22L 190 73C 190 73 190 85 178 85L 22 85C 22 85 10 85 10 73L 10 22C 10 22 10 10 22 10"></path></g></g></g><g id="g-root-ro_142zgupgpnz0v-stroke" data-item-order="-13500" transform="translate(698, 289)"><g id="ro_142zgupgpnz0v-stroke" fill="none" stroke-linecap="round" stroke-linejoin="round" stroke-miterlimit="4" stroke="#4db6ac" stroke-width="2"><g><path d="M 22 10L 178 10C 178 10 190 10 190 22L 190 73C 190 73 190 85 178 85L 22 85C 22 85 10 85 10 73L 10 22C 10 22 10 10 22 10"></path></g></g></g><g id="g-root-ro_zs5rf5gppclp-stroke" data-item-order="-12960" transform="translate(698, 500)"><g id="ro_zs5rf5gppclp-stroke" fill="none" stroke-linecap="round" stroke-linejoin="round" stroke-miterlimit="4" stroke="#4db6ac" stroke-width="2"><g><path d="M 22 10L 178 10C 178 10 190 10 190 22L 190 70C 190 70 190 82 178 82L 22 82C 22 82 10 82 10 70L 10 22C 10 22 10 10 22 10"></path></g></g></g><g id="g-root-ro_hx4wepgpjqx7-stroke" data-item-order="-9720" transform="translate(462.0000305175781, 347)"><g id="ro_hx4wepgpjqx7-stroke" fill="none" stroke-linecap="round" stroke-linejoin="round" stroke-miterlimit="4" stroke="#4db6ac" stroke-width="2"><g><path d="M 22 10L 178 10C 178 10 190 10 190 22L 190 52C 190 52 190 64 178 64L 22 64C 22 64 10 64 10 52L 10 22C 10 22 10 10 22 10"></path></g></g></g><g id="g-root-ro_1q87k7lgpl6va-stroke" data-item-order="-9720" transform="translate(462.0000305175781, 555)"><g id="ro_1q87k7lgpl6va-stroke" fill="none" stroke-linecap="round" stroke-linejoin="round" stroke-miterlimit="4" stroke="#4db6ac" stroke-width="2"><g><path d="M 22 10L 178 10C 178 10 190 10 190 22L 190 52C 190 52 190 64 178 64L 22 64C 22 64 10 64 10 52L 10 22C 10 22 10 10 22 10"></path></g></g></g><g id="g-root-tx_optionsf_mfgavlgpqqyq-stroke" data-item-order="0" transform="translate(260.0000305175781, 6)"></g><g id="g-root-cu_qv9t01gpqq6f-stroke" data-item-order="2" transform="translate(182, 374)"><g id="cu_qv9t01gpqq6f-stroke" fill="none" stroke-linecap="round" stroke-linejoin="round" stroke-miterlimit="4" stroke="#0d0d0d" stroke-width="1"><g><path d="M 10 10L 18 10L 24.69 10"></path><path d="M 20.4 14.6L 25 10L 20.4 5.4" stroke-dasharray="none"></path></g></g></g><g id="g-root-cu_zqac5tgpqrrd-stroke" data-item-order="2" transform="translate(642, 326.5)"><g id="cu_zqac5tgpqrrd-stroke" fill="none" stroke-linecap="round" stroke-linejoin="round" stroke-miterlimit="4" stroke="#0d0d0d" stroke-width="1"><g><path d="M 10 57.5L 24 57.5L 38 57.5L 38 33.8L 38 10L 52 10L 64.59 10"></path><path d="M 60.3 14.6L 64.9 10L 60.3 5.4" stroke-dasharray="none"></path></g></g></g><g id="g-root-cu_1463ua9gpqqyx-stroke" data-item-order="2" transform="translate(642, 582)"><g id="cu_1463ua9gpqqyx-stroke" fill="none" stroke-linecap="round" stroke-linejoin="round" stroke-miterlimit="4" stroke="#0d0d0d" stroke-width="1"><g><path d="M 10 10L 24 10L 38 10L 38 39L 38 68L 52 68L 64.59 68"></path><path d="M 60.3 72.6L 64.9 68L 60.3 63.4" stroke-dasharray="none"></path></g></g></g><g id="g-root-cu_1463ua9gpqqz2-stroke" data-item-order="2" transform="translate(642, 374)"><g id="cu_1463ua9gpqqz2-stroke" fill="none" stroke-linecap="round" stroke-linejoin="round" stroke-miterlimit="4" stroke="#0d0d0d" stroke-width="1"><g><path d="M 10 10L 24 10L 38 10L 38 39L 38 68L 52 68L 64.59 68"></path><path d="M 60.3 72.6L 64.9 68L 60.3 63.4" stroke-dasharray="none"></path></g></g></g><g id="g-root-cu_zqac5tgpqrri-stroke" data-item-order="2" transform="translate(642, 118.5)"><g id="cu_zqac5tgpqrri-stroke" fill="none" stroke-linecap="round" stroke-linejoin="round" stroke-miterlimit="4" stroke="#0d0d0d" stroke-width="1"><g><path d="M 10 56L 24 56L 38 56L 38 33L 38 10L 52 10L 64.59 10"></path><path d="M 60.3 14.6L 64.9 10L 60.3 5.4" stroke-dasharray="none"></path></g></g></g><g id="g-root-cu_1463ua9gpqrr4-stroke" data-item-order="2" transform="translate(445.9393615722656, 374)"><g id="cu_1463ua9gpqrr4-stroke" fill="none" stroke-linecap="round" stroke-linejoin="round" stroke-miterlimit="4" stroke="#0d0d0d" stroke-width="1"><g><path d="M 10 10L 16 10L 22 10L 22 62L 22 114L 18 114L 14.1 114L 14.1 166L 14.1 218L 20.1 218L 24.69 218"></path><path d="M 20.4 222.6L 25 218L 20.4 213.4" stroke-dasharray="none"></path></g></g></g><g id="g-root-cu_vagu1dgpqsjv-stroke" data-item-order="2" transform="translate(445.9393615722656, 374)"><g id="cu_vagu1dgpqsjv-stroke" fill="none" stroke-linecap="round" stroke-linejoin="round" stroke-miterlimit="4" stroke="#0d0d0d" stroke-width="1"><g><path d="M 10 10L 18 10L 24.69 10"></path><path d="M 20.4 14.6L 25 10L 20.4 5.4" stroke-dasharray="none"></path></g></g></g><g id="g-root-cu_qv9t01gpqq6d-stroke" data-item-order="2" transform="translate(445.9393615722656, 164.5)"><g id="cu_qv9t01gpqq6d-stroke" fill="none" stroke-linecap="round" stroke-linejoin="round" stroke-miterlimit="4" stroke="#0d0d0d" stroke-width="1"><g><path d="M 10 219.5L 16 219.5L 22 219.5L 22 167.1L 22 114.8L 18 114.8L 14.1 114.8L 14.1 62.4L 14.1 10L 20.1 10L 24.69 10"></path><path d="M 20.4 14.6L 25 10L 20.4 5.4" stroke-dasharray="none"></path></g></g></g><g id="g-root-cu_zqac5tgpqrrf-stroke" data-item-order="2" transform="translate(642, 164.5)"><g id="cu_zqac5tgpqrrf-stroke" fill="none" stroke-linecap="round" stroke-linejoin="round" stroke-miterlimit="4" stroke="#0d0d0d" stroke-width="1"><g><path d="M 10 10L 24 10L 38 10L 38 39.8L 38 69.5L 52 69.5L 64.59 69.5"></path><path d="M 60.3 74.1L 64.9 69.5L 60.3 64.9" stroke-dasharray="none"></path></g></g></g><g id="g-root-cu_1463ua9gpqqz0-stroke" data-item-order="2" transform="translate(642, 536)"><g id="cu_1463ua9gpqqz0-stroke" fill="none" stroke-linecap="round" stroke-linejoin="round" stroke-miterlimit="4" stroke="#0d0d0d" stroke-width="1"><g><path d="M 10 56L 24 56L 38 56L 38 33L 38 10L 52 10L 64.59 10"></path><path d="M 60.3 14.6L 64.9 10L 60.3 5.4" stroke-dasharray="none"></path></g></g></g><g id="g-root-tx_dissolve_v8les1gpjpc9-stroke" data-item-order="1000000000" transform="translate(510.0000305175781, 362)"></g><g id="g-root-ic_chai_qsrwnlgpjq4i-stroke" data-item-order="1000000000" transform="translate(474.0000305175781, 359)"><g id="ic_chai_qsrwnlgpjq4i-stroke" fill="none" stroke-linecap="round" stroke-linejoin="round" stroke-miterlimit="4" stroke="#a3a3a3" stroke-width="2"><g><path d="M 10 10M 39.0625 10.9375L 33.8125 16.1875M 10 10M 16.1875 33.8125L 10.9375 39.0625M 10 10M 28.75 21.25L 21.25 28.75M 35.375019 14.625017C 35.375019 14.625017 38.187534 17.437534 35.375019 20.250051L 32.124977 23.500092C 32.124977 23.500092 29.31246 26.312609 26.499943 23.500092C 23.687426 20.687574 23.687426 20.687574 26.499943 17.875057L 29.749983 14.625017C 29.749983 14.625017 32.5625 11.8125 35.375019 14.625017M 23.500017 26.500017C 23.500017 26.500017 26.312534 29.312534 23.500017 32.12505L 20.249977 35.375092C 20.249977 35.375092 17.43746 38.187607 14.624943 35.375092C 11.812426 32.562572 11.812426 32.562572 14.624943 29.750057L 17.874983 26.500017C 17.874983 26.500017 20.6875 23.6875 23.500017 26.500017"></path></g></g></g><g id="g-root-ic_1_ddkjrlgppc09-stroke" data-item-order="1000000000" transform="translate(710, 399)"><g id="ic_1_ddkjrlgppc09-stroke" fill="none" stroke-linecap="round" stroke-linejoin="round" stroke-miterlimit="4" stroke="#a3a3a3" stroke-width="2"><g><path d="M 10 10M 34.134125 26.912876L 35.404625 31.861752C 35.748001 33.199123 34.942123 34.561501 33.604752 34.904877L 20.235651 38.336876C 18.8983 38.680252 17.535851 37.874374 17.192537 36.537003L 12.469262 18.138163C 12.125937 16.800812 12.931763 15.438362 14.269113 15.09505L 27.63825 11.662988C 28.106625 11.54275 28.577999 11.56345 29.00775 11.698575M 10 10M 29.460501 23.89225L 37.610126 15.742587M 10 10M 29.460501 15.7428L 37.610126 23.892376"></path></g></g></g><g id="g-root-tx_filearti_qoel1tgppdl4-stroke" data-item-order="1000000000" transform="translate(746, 396)"></g><g id="g-root-tx_choosepa_8x4kk1gpibrg-stroke" data-item-order="1000000000" transform="translate(268.0000915527344, 362)"></g><g id="g-root-ic_sear_hsrksxgpiayq-stroke" data-item-order="1000000000" transform="translate(26, 353)"><g id="ic_sear_hsrksxgpiayq-stroke" fill="none" stroke-linecap="round" stroke-linejoin="round" stroke-miterlimit="4" stroke="#a3a3a3" stroke-width="2"><g><path d="M 31.949999 31.9375L 39.400002 39.387501M 19.674999 19.8125C 18.325001 21.4 17.612499 23.487499 20.8375 24.9C 22.3125 28.200001 24.5875 26.975 26.049999 25.2125C 27.512501 23.450001 28 19.625 27.125 17.0375C 27.069649 16.85113 26.92387 16.705351 26.737501 16.65C 26.562826 16.570305 26.362171 16.570305 26.187498 16.65C 23.887499 18.25 21.25 17.975 19.674999 19.8125ZM 18.75 28.75C 20.002798 25.410765 22.02396 22.413277 24.65 20M 10.6 23.112499C 10.6 30.01606 16.196442 35.612499 23.1 35.612499C 30.003559 35.612499 35.599998 30.01606 35.599998 23.112499C 35.599998 16.208941 30.003559 10.6125 23.1 10.6125C 16.196442 10.6125 10.6 16.208941 10.6 23.112499"></path></g></g></g><g id="g-root-ic_cash_18nsro1gppbt0-stroke" data-item-order="1000000000" transform="translate(710, 515)"><g id="ic_cash_18nsro1gppbt0-stroke" fill="none" stroke-linecap="round" stroke-linejoin="round" stroke-miterlimit="4" stroke="#a3a3a3" stroke-width="2"><g><path d="M 23.125 39.375L 11.875 39.375C 11.184644 39.375 10.625 38.815353 10.625 38.125L 10.625 11.875C 10.625 11.184644 11.184644 10.625 11.875 10.625L 28.491251 10.625C 28.822922 10.625402 29.140839 10.757605 29.375 10.9925L 34.008751 15.625C 34.243187 15.859366 34.374928 16.177258 34.375 16.508749L 34.375 20.625M 21.91 29.375C 18.619993 29.390442 15.881334 26.852657 15.646595 23.570997C 15.411855 20.289337 17.761419 17.387589 21.020128 16.934595C 24.278837 16.481602 27.330769 18.63249 28 21.85375M 21.875 19.376249L 21.875 23.126251L 24.375 23.126251M 33.75 28.125L 31.208748 28.125C 30.405472 28.125561 29.715332 28.695492 29.562901 29.484173C 29.410469 30.272856 29.838533 31.058905 30.583748 31.358749L 33.16375 32.389999C 33.910698 32.688805 34.340343 33.475819 34.18774 34.265709C 34.035133 35.055599 33.343246 35.625931 32.53875 35.625L 30 35.625M 31.875 36.876251L 31.875 35.626251M 31.875 28.126251L 31.875 26.876251M 24.375 31.876249C 24.375002 36.018387 27.732864 39.376251 31.875 39.376251C 36.017136 39.376251 39.375 36.018387 39.375 31.876251C 39.375 27.734116 36.017136 24.376251 31.875 24.376251C 27.732864 24.376251 24.375002 27.734116 24.375002 31.876251Z"></path></g></g></g><g id="g-root-tx_payoverd_1lymsy9gppddv-stroke" data-item-order="1000000000" transform="translate(746, 512)"></g><g id="g-root-tx_evaluate_m7ylu9gpidc9-stroke" data-item-order="1000000000" transform="translate(62, 338)"></g><g id="g-root-tx_formalap_1hefz81gpnxfx-stroke" data-item-order="1000000000" transform="translate(746, 304)"></g><g id="g-root-ic_docu_1cymh3lgpny86-stroke" data-item-order="1000000000" transform="translate(710, 301)"><g id="ic_docu_1cymh3lgpny86-stroke" fill="none" stroke-linecap="round" stroke-linejoin="round" stroke-miterlimit="4" stroke="#a3a3a3" stroke-width="2"><g><path d="M 18.125 18.125L 18.125 11.875C 18.125 11.184644 18.684645 10.625 19.375 10.625L 31.875 10.625L 39.375 18.125L 39.375 38.125C 39.375 38.815353 38.815353 39.375 38.125 39.375L 29.375 39.375M 31.875 10.625L 31.875 16.875C 31.875 17.565355 32.434647 18.125 33.125 18.125L 39.375 18.125M 11.875 35.625L 26.875 35.625L 26.875 35.625L 26.875 38.125C 26.875 38.815353 26.315357 39.375 25.625 39.375L 13.125 39.375C 12.434644 39.375 11.875 38.815353 11.875 38.125L 11.875 35.625L 11.875 35.625ZM 23.125 31.875C 21.771641 31.875551 20.66357 30.799061 20.625 29.446251L 20.625 29.446251C 20.602095 28.634384 20.975006 27.86199 21.625 27.375C 22.916292 26.406532 23.442991 24.720428 22.932564 23.189146C 22.422134 21.657864 20.989115 20.625 19.375 20.625C 17.760887 20.625 16.327866 21.657864 15.817438 23.189146C 15.307011 24.720428 15.83371 26.406532 17.125 27.375C 17.7728 27.863234 18.145184 28.634068 18.125 29.445L 18.125 29.445C 18.087093 30.7983 16.97883 31.875532 15.625 31.875L 13.125 31.875C 11.744288 31.875 10.625 32.994286 10.625 34.375C 10.625 35.065353 11.184644 35.625 11.875 35.625L 26.875 35.625C 27.565357 35.625 28.125 35.065353 28.125 34.375C 28.125 32.994286 27.005713 31.875 25.625 31.875ZM 36.25 23.123749L 26.25 23.123749M 36.25 33.123749L 31.25 33.123749M 36.25 28.123749L 28.125 28.123749"></path></g></g></g><g id="g-root-ic_fire_1uo12c1gpl631-stroke" data-item-order="1000000000" transform="translate(474.0000305175781, 567)"><g id="ic_fire_1uo12c1gpl631-stroke" fill="none" stroke-linecap="round" stroke-linejoin="round" stroke-miterlimit="4" stroke="#a3a3a3" stroke-width="2"><g><path d="M 16.2125 14.8825C 15.962999 16.159719 16.160742 17.483896 16.772499 18.6325C 17.774841 17.614149 18.911098 16.736935 20.150002 16.025C 19.395529 17.044329 19.395529 18.43692 20.15 19.456249C 21.510675 20.781694 23.096184 21.854643 24.8325 22.625C 24.8325 22.625 23.362499 24.125 23.3025 24.125C 23.2425 24.125 19.79125 23.845001 18.633751 26.360001C 17.47625 28.875 21.686251 31.447502 22.68375 31.610001C 23.68125 31.772499 29.67375 32.767502 30.471251 27.5C 31.268749 22.2325 27.731251 20.875 27.731251 20.875C 27.731251 20.875 35.420002 21.381248 32.946251 28.908751C 36.459984 25.912445 37.564037 20.951094 35.6525 16.747499M 35.6525 16.73875C 40.519989 22.626175 39.690132 31.345387 33.799412 36.208889C 27.908689 41.072392 19.190042 40.236626 14.330532 34.342609C 9.471023 28.448597 10.312695 19.730515 16.209999 14.875M 36.594997 20.953749C 35.732533 19.274162 34.677521 17.700659 33.451248 16.264999C 31.482502 14.13625 29.487499 12.0875 29.327499 10.625C 29.327499 10.625 25.098751 12.195 24.327499 18.286251M 20.383751 19.723749C 22.042772 18.48827 24.149719 18.018423 26.176474 18.431984C 28.203228 18.845543 29.957657 20.103304 31.000002 21.889999M 25 22.688749C 23.912739 23.271347 22.643244 23.414093 21.453751 23.0875C 19.298943 22.017853 16.800959 21.873833 14.537499 22.688749C 14.5375 22.688749 14.9225 24.60375 17.73 24.76375C 17.557724 26.177853 17.975998 27.600435 18.88625 28.696249"></path></g></g></g><g id="g-root-tx_filezero_v97vv5gpmlfu-stroke" data-item-order="1000000000" transform="translate(746, 188)"></g><g id="g-root-ic_docu_qu0uttgpmj2b-stroke" data-item-order="1000000000" transform="translate(710, 191)"><g id="ic_docu_qu0uttgpmj2b-stroke" fill="none" stroke-linecap="round" stroke-linejoin="round" stroke-miterlimit="4" stroke="#a3a3a3" stroke-width="2"><g><path d="M 20 32.5L 30.3125 32.5M 20 27.5L 20 21.25M 18.75 21.25L 21.25 21.25M 23.75 27.5L 23.75 22.5C 23.75 21.809643 24.309643 21.25 25 21.25C 25.690357 21.25 26.25 21.809643 26.25 22.5L 26.25 27.5M 23.75 25L 26.25 25M 28.75 21.25L 31.25 27.5M 31.25 21.25L 28.75 27.5M 35.625 39.375C 36.315353 39.375 36.875 38.815353 36.875 38.125L 36.875 18.09375C 36.875 13.968873 33.531128 10.625 29.40625 10.625L 14.375 10.625C 13.684644 10.625 13.125 11.184644 13.125 11.875L 13.125 38.125C 13.125 38.815353 13.684644 39.375 14.375 39.375ZM 30.625 10.725L 30.625 15.625C 30.625 16.315355 31.184645 16.875 31.875 16.875L 36.775002 16.875"></path></g></g></g><g id="g-root-tx_maintain_1ly0bv5gpiccu-stroke" data-item-order="1000000000" transform="translate(510.0000305175781, 142)"></g><g id="g-root-ic_shie_18n6akxgpiarz-stroke" data-item-order="1000000000" transform="translate(474.0000305175781, 139)"><g id="ic_shie_18n6akxgpiarz-stroke" fill="none" stroke-linecap="round" stroke-linejoin="round" stroke-miterlimit="4" stroke="#a3a3a3" stroke-width="2"><g><path d="M 27.5 19.375L 24.817501 19.375C 23.742992 19.375387 22.809673 20.114323 22.562822 21.160091C 22.315971 22.20586 22.820335 23.284155 23.78125 23.764999L 26.21875 24.983751C 27.181131 25.463877 27.686728 26.543018 27.439714 27.589767C 27.192703 28.636515 26.257999 29.375774 25.182501 29.375002L 22.5 29.375M 25 19.377501L 25 17.502501M 25 31.252501L 25 29.377501M 12.5 14.72L 12.5 24.266251C 12.489511 30.60673 16.376633 36.301849 22.285 38.602501L 23.625 39.125C 24.513523 39.469982 25.498978 39.469982 26.387501 39.125L 27.721251 38.608749C 33.629292 36.305264 37.514072 30.60745 37.500004 24.266251L 37.5 14.72C 37.503464 13.969255 37.06876 13.285455 36.387497 12.97C 32.800495 11.390939 28.919044 10.591641 24.999998 10.625C 21.081406 10.589673 17.199974 11.386836 13.6125 12.96375C 12.92917 13.280144 12.49408 13.966998 12.5 14.719999Z"></path></g></g></g><g id="g-root-tx_payannua_1lz9a1dgpl5an-stroke" data-item-order="1000000000" transform="translate(746, 96)"></g><g id="g-root-ic_cloc_mdkvm9gpqr5z-stroke" data-item-order="1000000000" transform="translate(710, 607)"><g id="ic_cloc_mdkvm9gpqr5z-stroke" fill="none" stroke-linecap="round" stroke-linejoin="round" stroke-miterlimit="4" stroke="#a3a3a3" stroke-width="2"><g><path d="M 15.625 20.625L 27.5 20.625M 15.625 24.375L 23.125 24.375M 15.625 16.875L 24.375 16.875M 15.625 28.125L 20.625 28.125M 15.625 31.875L 20.625 31.875M 23.125 39.375L 11.875 39.375C 11.184644 39.375 10.625 38.815353 10.625 38.125L 10.625 11.875C 10.625 11.184644 11.184644 10.625 11.875 10.625L 28.491251 10.625C 28.822744 10.625071 29.140635 10.756813 29.375 10.99125L 34.008751 15.625C 34.243187 15.859366 34.374928 16.177258 34.375 16.508749L 34.375 20.625M 24.375 31.875C 24.375002 36.017136 27.732864 39.375 31.875 39.375C 36.017136 39.375 39.375 36.017136 39.375 31.875C 39.375 27.732864 36.017136 24.375002 31.875 24.375002C 27.732864 24.375002 24.375002 27.732864 24.375002 31.875ZM 34.375 31.875L 31.875 31.875L 31.875 28.125"></path></g></g></g><g id="g-root-tx_filedeli_qtedqpgpqqdq-stroke" data-item-order="1000000000" transform="translate(746, 604)"></g><g id="g-root-ic_stac_1d3m9shgpl6v4-stroke" data-item-order="1000000000" transform="translate(710, 93)"><g id="ic_stac_1d3m9shgpl6v4-stroke" fill="none" stroke-linecap="round" stroke-linejoin="round" stroke-miterlimit="4" stroke="#a3a3a3" stroke-width="2"><g><path d="M 10.63 13.125C 10.63 14.505712 14.827331 15.625 20.005001 15.625C 25.182671 15.625 29.380001 14.505712 29.380001 13.125C 29.380001 11.744288 25.182671 10.625 20.005001 10.625C 14.827331 10.625 10.63 11.744288 10.63 13.125ZM 29.375 13.125L 29.375 16.875C 29.375 18.25625 25.178749 19.375 20 19.375C 14.82125 19.375 10.625 18.25625 10.625 16.875L 10.625 13.125M 29.375 16.875L 29.375 20.625C 29.375 22.006248 25.178749 23.125 20 23.125C 14.82125 23.125 10.625 22.006248 10.625 20.625L 10.625 16.875M 20.629999 29.375C 20.630001 30.755713 24.827332 31.875 30.005001 31.875C 35.182671 31.875 39.380001 30.755713 39.380001 29.375C 39.380001 27.994287 35.182671 26.875 30.005001 26.875C 24.827332 26.875 20.630001 27.994287 20.630001 29.375ZM 39.375 29.375L 39.375 33.125C 39.375 34.506248 35.178749 35.625 30 35.625C 24.821251 35.625 20.625 34.506248 20.625 33.125L 20.625 29.375M 39.375 33.125L 39.375 36.875C 39.375 38.256248 35.178749 39.375 30 39.375C 24.821251 39.375 20.625 38.256248 20.625 36.875L 20.625 33.125M 29.375 20.625L 29.375 24.375C 29.375 25.756248 25.178749 26.875 20 26.875C 14.82125 26.875 10.625 25.756248 10.625 24.375L 10.625 20.625M 10.625 24.375L 10.625 28.125C 10.625 29.506248 14.8225 30.625 20 30.625L 20.625 30.625M 10.625 28.125L 10.625 31.875C 10.625 33.256248 14.8225 34.375 20 34.375L 20.625 34.375M 29.379999 24.375L 29.379999 26.875"></path></g></g></g><g id="g-root-tx_revivell_4ik0ltgpl5hg-stroke" data-item-order="1000000000" transform="translate(510.0000305175781, 570)"></g></g></g></svg>