<?xml version="1.0" encoding="utf-8" standalone="yes"?>
<!DOCTYPE svg PUBLIC "-//W3C//DTD SVG 1.1//EN" "http://www.w3.org/Graphics/SVG/1.1/DTD/svg11.dtd">
<svg width="996" height="616" viewBox="0 0 996 616" style="fill:none;stroke:none;fill-rule:evenodd;clip-rule:evenodd;stroke-linecap:round;stroke-linejoin:round;stroke-miterlimit:1.5;" version="1.1" xmlns="http://www.w3.org/2000/svg" xmlns:xlink="http://www.w3.org/1999/xlink"><g id="items" style="isolation: isolate"><g id="blend" style="mix-blend-mode: normal"><g id="g-root-sy_4_cu_m9u7epdnh5ac-fill" data-item-order="-317369" transform="translate(578, 336)"></g><g id="g-root-sy_3_cu_m9u7epdnh5ad-fill" data-item-order="-317365" transform="translate(578, 108.00048828125)"></g><g id="g-root-sy_2_cu_de775tdnh632-fill" data-item-order="-317361" transform="translate(266, 335.99951171875)"></g><g id="g-root-sy_1_cu_de775tdnh633-fill" data-item-order="-317357" transform="translate(266, 108.00048828125)"></g><g id="g-root-sy_-1_line_8ydp1ddnh6vc-fill" data-item-order="-317351" transform="translate(2, 336)"></g><g id="g-root-ic_stra_7qhhddnil8p-fill" data-item-order="0" transform="translate(542, 90)"></g><g id="g-root-tx_annualfi_v6q5ttdnh6o4-fill" data-item-order="0" transform="translate(110, 180)"><g id="tx_annualfi_v6q5ttdnh6o4-fill" stroke="none" fill="#636873"><g><text style="font: 15px &quot;Open Sans Regular&quot;, sans-serif; white-space: pre;" font-size="15px" font-family="'Open Sans Regular', sans-serif"><tspan x="18.45" y="32" dominant-baseline="ideographic">Annual filings and fees</tspan></text></g></g></g><g id="g-root-tx_futureve_1cxdp8hdnh7gm-fill" data-item-order="0" transform="translate(398, 174)"><g id="tx_futureve_1cxdp8hdnh7gm-fill" stroke="none" fill="#636873"><g><text style="font: 15px &quot;Open Sans Regular&quot;, sans-serif; white-space: pre;" font-size="15px" font-family="'Open Sans Regular', sans-serif"><tspan x="12.7" y="29" dominant-baseline="ideographic">Future ventures that didn't </tspan><tspan x="122.73" y="47" dominant-baseline="ideographic">materialize</tspan></text></g></g></g><g id="g-root-tx_complian_zmjny9dnh5vv-fill" data-item-order="0" transform="translate(110, 264)"><g id="tx_complian_zmjny9dnh5vv-fill" stroke="none" fill="#636873"><g><text style="font: 15px &quot;Open Sans Regular&quot;, sans-serif; white-space: pre;" font-size="15px" font-family="'Open Sans Regular', sans-serif"><tspan x="18.58" y="32" dominant-baseline="ideographic">Compliance requirements</tspan></text></g></g></g><g id="g-root-tx_changedb_1hd77cxdnh6od-fill" data-item-order="0" transform="translate(434, 264)"><g id="tx_changedb_1hd77cxdnh6od-fill" stroke="none" fill="#636873"><g><text style="font: 15px &quot;Open Sans Regular&quot;, sans-serif; white-space: pre;" font-size="15px" font-family="'Open Sans Regular', sans-serif"><tspan x="19.4" y="32" dominant-baseline="ideographic">Changed business plans</tspan></text></g></g></g><g id="g-root-ic_1_247pddnlfrf-fill" data-item-order="0" transform="translate(710, 312)"></g><g id="g-root-tx_challeng_8ydp1ddnh6vd-fill" data-item-order="0" transform="translate(770, 318)"><g id="tx_challeng_8ydp1ddnh6vd-fill" stroke="none" fill="#a3a3a3"><g><text style="font: 15px &quot;Open Sans Regular&quot;, sans-serif; white-space: pre;" font-size="15px" font-family="'Open Sans Regular', sans-serif"><tspan x="12" y="29" dominant-baseline="ideographic">Challenges of Managing a </tspan><tspan x="12" y="47" dominant-baseline="ideographic">Dormant LLC</tspan></text></g></g></g><g id="g-root-tx_strategi_1cxdp8hdnh7gn-fill" data-item-order="0" transform="translate(374, 90)"><g id="tx_strategi_1cxdp8hdnh7gn-fill" stroke="none" fill="#767ae5"><g><text style="font: 15px &quot;Open Sans Regular&quot;, sans-serif; white-space: pre;" font-size="15px" font-family="'Open Sans Regular', sans-serif"><tspan x="16.55" y="29" dominant-baseline="ideographic">Strategic Reasons for </tspan><tspan x="101.81" y="47" dominant-baseline="ideographic">Inactivity</tspan></text></g></g></g><g id="g-root-ic_3_mb35kxdnh7gv-fill" data-item-order="0" transform="translate(230, 90)"></g><g id="g-root-ic_warn_1lu9nnldnjzlu-fill" data-item-order="0" transform="translate(542, 546)"></g><g id="g-root-tx_statespe_18hk741dnh88w-fill" data-item-order="0" transform="translate(170, 384)"><g id="tx_statespe_18hk741dnh88w-fill" stroke="none" fill="#636873"><g><text style="font: 15px &quot;Open Sans Regular&quot;, sans-serif; white-space: pre;" font-size="15px" font-family="'Open Sans Regular', sans-serif"><tspan x="14.82" y="32" dominant-baseline="ideographic">State-specific fees</tspan></text></g></g></g><g id="g-root-tx_understa_mb35kxdnh7gu-fill" data-item-order="0" transform="translate(290, 0)"><g id="tx_understa_mb35kxdnh7gu-fill" stroke="none" fill="#0d0d0d"><g><text style="font: bold 20px &quot;Poppins 300&quot;, sans-serif; white-space: pre;" font-weight="bold" font-size="20px" font-family="'Poppins 300', sans-serif"><tspan x="16.31" y="36" dominant-baseline="ideographic">Understanding Dormant LLC Challenges</tspan></text></g></g></g><g id="g-root-tx_potentia_18hk741dnh88x-fill" data-item-order="0" transform="translate(134, 468)"><g id="tx_potentia_18hk741dnh88x-fill" stroke="none" fill="#636873"><g><text style="font: 15px &quot;Open Sans Regular&quot;, sans-serif; white-space: pre;" font-size="15px" font-family="'Open Sans Regular', sans-serif"><tspan x="19.5" y="32" dominant-baseline="ideographic">Potential tax filings</tspan></text></g></g></g><g id="g-root-tx_penaltie_1q8u7ltdnh5vn-fill" data-item-order="0" transform="translate(458, 468)"><g id="tx_penaltie_1q8u7ltdnh5vn-fill" stroke="none" fill="#636873"><g><text style="font: 15px &quot;Open Sans Regular&quot;, sans-serif; white-space: pre;" font-size="15px" font-family="'Open Sans Regular', sans-serif"><tspan x="12.98" y="32" dominant-baseline="ideographic">Penalties and fees</tspan></text></g></g></g><g id="g-root-tx_financia_zmjny9dnh5vu-fill" data-item-order="0" transform="translate(38, 552)"><g id="tx_financia_zmjny9dnh5vu-fill" stroke="none" fill="#80c476"><g><text style="font: 15px &quot;Open Sans Regular&quot;, sans-serif; white-space: pre;" font-size="15px" font-family="'Open Sans Regular', sans-serif"><tspan x="14.34" y="32" dominant-baseline="ideographic">Financial Responsibilities</tspan></text></g></g></g><g id="g-root-ic_cash_m7ys5ddnikg8-fill" data-item-order="0" transform="translate(230, 546)"></g><g id="g-root-tx_conseque_1q8u7ltdnh5vo-fill" data-item-order="0" transform="translate(362, 546)"><g id="tx_conseque_1q8u7ltdnh5vo-fill" stroke="none" fill="#ec4100"><g><text style="font: 15px &quot;Open Sans Regular&quot;, sans-serif; white-space: pre;" font-size="15px" font-family="'Open Sans Regular', sans-serif"><tspan x="17.8" y="29" dominant-baseline="ideographic">Consequences of Non-</tspan><tspan x="93.74" y="47" dominant-baseline="ideographic">Compliance</tspan></text></g></g></g><g id="g-root-tx_legalobl_v6q5ttdnh6o5-fill" data-item-order="0" transform="translate(86, 96)"><g id="tx_legalobl_v6q5ttdnh6o5-fill" stroke="none" fill="#484848"><g><text style="font: 15px &quot;Open Sans Regular&quot;, sans-serif; white-space: pre;" font-size="15px" font-family="'Open Sans Regular', sans-serif"><tspan x="20.18" y="32" dominant-baseline="ideographic">Legal Obligations</tspan></text></g></g></g><g id="g-root-tx_lossofgo_1uo18n5dnh896-fill" data-item-order="0" transform="translate(446, 384)"><g id="tx_lossofgo_1uo18n5dnh896-fill" stroke="none" fill="#636873"><g><text style="font: 15px &quot;Open Sans Regular&quot;, sans-serif; white-space: pre;" font-size="15px" font-family="'Open Sans Regular', sans-serif"><tspan x="23.38" y="32" dominant-baseline="ideographic">Loss of good standing</tspan></text></g></g></g><g id="g-root-sy_4_cu_m9u7epdnh5ac-stroke" data-item-order="-317369" transform="translate(578, 336)"><g id="sy_4_cu_m9u7epdnh5ac-stroke" fill="none" stroke-linecap="round" stroke-linejoin="round" stroke-miterlimit="4" stroke="#ec4100" stroke-width="2"><g><path d="M 33.850586 154.000488L 45.850586 154.000488M 58.200195 70L 70.200195 70M 87.9997 10L 21.9997 238L 10 238"></path></g></g></g><g id="g-root-sy_3_cu_m9u7epdnh5ad-stroke" data-item-order="-317365" transform="translate(578, 108.00048828125)"><g id="sy_3_cu_m9u7epdnh5ad-stroke" fill="none" stroke-linecap="round" stroke-linejoin="round" stroke-miterlimit="4" stroke="#767ae5" stroke-width="2"><g><path d="M 33.84668 93.999512L 45.84668 93.999512M 58.195313 177.999512L 70.195313 177.999512M 87.9997 238L 21.9997 10L 10 10"></path></g></g></g><g id="g-root-sy_2_cu_de775tdnh632-stroke" data-item-order="-317361" transform="translate(266, 335.99951171875)"><g id="sy_2_cu_de775tdnh632-stroke" fill="none" stroke-linecap="round" stroke-linejoin="round" stroke-miterlimit="4" stroke="#80c476" stroke-width="2"><g><path d="M 33.851563 154.000488L 45.851563 154.000488M 58.200195 70.000488L 70.200195 70.000488M 87.9997 10L 21.9997 238L 10 238"></path></g></g></g><g id="g-root-sy_1_cu_de775tdnh633-stroke" data-item-order="-317357" transform="translate(266, 108.00048828125)"><g id="sy_1_cu_de775tdnh633-stroke" fill="none" stroke-linecap="round" stroke-linejoin="round" stroke-miterlimit="4" stroke="#484848" stroke-width="2"><g><path d="M 33.851563 93.999512L 45.851563 93.999512M 58.200195 177.999512L 70.200195 177.999512M 87.9997 238L 21.9997 10L 10 10"></path></g></g></g><g id="g-root-sy_-1_line_8ydp1ddnh6vc-stroke" data-item-order="-317351" transform="translate(2, 336)"><g id="sy_-1_line_8ydp1ddnh6vc-stroke" fill="none" stroke-linecap="round" stroke-linejoin="round" stroke-miterlimit="4" stroke="#a3a3a3" stroke-width="2"><g><path d="M 704 10L 10 10"></path><path d="M 698 16.5L 704.5 10L 698 3.5" stroke-dasharray="none"></path></g></g></g><g id="g-root-ic_stra_7qhhddnil8p-stroke" data-item-order="0" transform="translate(542, 90)"><g id="ic_stra_7qhhddnil8p-stroke" fill="none" stroke-linecap="round" stroke-linejoin="round" stroke-miterlimit="4" stroke="#767ae5" stroke-width="2"><g><path d="M 11.5 40C 11.5 42.485283 13.514719 44.5 16 44.5C 18.485281 44.5 20.5 42.485283 20.5 40C 20.5 37.514721 18.485281 35.5 16 35.5C 13.514719 35.5 11.5 37.514721 11.5 40M 23.5 35.5L 32.5 35.5L 32.5 44.5L 23.5 44.5ZM 40 35.5L 35.5 44.5L 44.5 44.5L 40 35.5ZM 30.25 28L 25.75 28M 32.5 19.75C 32.429462 17.294527 30.455471 15.320535 27.999998 15.25C 25.544527 15.320535 23.570534 17.294527 23.499998 19.75C 23.533749 21.310032 24.389383 22.73609 25.75 23.5L 25.75 25L 30.25 25L 30.25 23.5C 31.610617 22.73609 32.466251 21.310032 32.5 19.75ZM 16 35.5L 16 31.75C 16 31.335787 16.335787 31 16.75 31L 39.25 31C 39.664215 31 40 31.335787 40 31.75L 40 35.5M 28 28L 28 35.5M 28 11.5L 28 13M 33.834999 13.915L 32.77 14.98M 36.25 19L 34.75 19M 22.164999 13.915L 23.23 14.98M 19.75 19L 21.25 19"></path></g></g></g><g id="g-root-tx_annualfi_v6q5ttdnh6o4-stroke" data-item-order="0" transform="translate(110, 180)"></g><g id="g-root-tx_futureve_1cxdp8hdnh7gm-stroke" data-item-order="0" transform="translate(398, 174)"></g><g id="g-root-tx_complian_zmjny9dnh5vv-stroke" data-item-order="0" transform="translate(110, 264)"></g><g id="g-root-tx_changedb_1hd77cxdnh6od-stroke" data-item-order="0" transform="translate(434, 264)"></g><g id="g-root-ic_1_247pddnlfrf-stroke" data-item-order="0" transform="translate(710, 312)"><g id="ic_1_247pddnlfrf-stroke" fill="none" stroke-linecap="round" stroke-linejoin="round" stroke-miterlimit="4" stroke="#a3a3a3" stroke-width="2"><g><path d="M 25 41C 29.418278 41 33 44.581722 33 49C 33 53.418278 29.418278 57 25 57ZM 37 57.007999L 37 41.007999L 41 49.007999L 45 41.007999L 45 57.007999M 57 45C 57 42.790859 55.209141 41 53 41C 50.790859 41 49 42.790859 49 45L 49 53C 49 55.209141 50.790859 57 53 57C 55.209141 57 57 55.209141 57 53L 57 51L 54 51M 49 35L 49 22.956001C 49.003315 16.353855 43.652145 10.999999 37.049999 11L 13 11C 11.895431 11 11 11.895431 11 13L 11 55C 11 56.104568 11.895431 57 13 57L 18 57M 39 11.168L 39 19C 39 20.104568 39.895432 21 41 21L 48.84 21"></path></g></g></g><g id="g-root-tx_challeng_8ydp1ddnh6vd-stroke" data-item-order="0" transform="translate(770, 318)"></g><g id="g-root-tx_strategi_1cxdp8hdnh7gn-stroke" data-item-order="0" transform="translate(374, 90)"></g><g id="g-root-ic_3_mb35kxdnh7gv-stroke" data-item-order="0" transform="translate(230, 90)"><g id="ic_3_mb35kxdnh7gv-stroke" fill="none" stroke-linecap="round" stroke-linejoin="round" stroke-miterlimit="4" stroke="#484848" stroke-width="2"><g><path d="M 31.857143 38.285713L 38.285713 22.394285L 44.714287 38.285713C 44.714287 41.836117 41.836117 44.714287 38.285713 44.714287C 34.735313 44.714287 31.857143 41.836117 31.857143 38.285713ZM 11.285714 28L 17.714285 13.034286L 24.142857 28C 24.142857 31.550402 21.264688 34.42857 17.714285 34.42857C 14.163884 34.42857 11.285714 31.550402 11.285714 28ZM 42.142857 24.142857L 13.857142 11.285714M 28 17.714285L 28 11.285714"></path></g></g></g><g id="g-root-ic_warn_1lu9nnldnjzlu-stroke" data-item-order="0" transform="translate(542, 546)"><g id="ic_warn_1lu9nnldnjzlu-stroke" fill="none" stroke-linecap="round" stroke-linejoin="round" stroke-miterlimit="4" stroke="#ec4100" stroke-width="2"><g><path d="M 23.5 45.25L 12.25 45.25C 11.421573 45.25 10.75 44.578426 10.75 43.75L 10.75 12.25C 10.75 11.421573 11.421573 10.75 12.25 10.75L 32.189499 10.75C 32.587509 10.750483 32.969006 10.909126 33.25 11.191L 38.810501 16.75C 39.091827 17.031239 39.249916 17.412708 39.25 17.810499L 39.25 24.25M 16.75 25.751501C 16.75 29.893635 20.107864 33.251499 24.25 33.251499C 28.392136 33.251499 31.75 29.893635 31.75 25.751501C 31.75 21.609364 28.392136 18.251499 24.25 18.251499C 20.107864 18.251499 16.75 21.609364 16.75 25.751501ZM 24.25 21.251499L 24.25 25.751501L 27.25 25.751501M 36.25 40.75C 36.457108 40.75 36.625 40.917892 36.625 41.125C 36.625 41.332108 36.457108 41.5 36.25 41.5C 36.042892 41.5 35.875 41.332108 35.875 41.125C 35.875 40.917892 36.042892 40.75 36.25 40.75M 36.25 37.751499L 36.25 33.251499M 37.507 28.75C 37.259224 28.286013 36.776001 27.99625 36.25 27.99625C 35.723999 27.99625 35.240776 28.286013 34.993 28.75L 27.409 43.201C 27.181133 43.634632 27.198805 44.156281 27.4555 44.573502C 27.715345 44.992073 28.173336 45.246323 28.666002 45.245502L 43.834 45.245499C 44.326668 45.246323 44.784657 44.992073 45.044502 44.573502C 45.301193 44.156281 45.318867 43.634632 45.091 43.200996Z"></path></g></g></g><g id="g-root-tx_statespe_18hk741dnh88w-stroke" data-item-order="0" transform="translate(170, 384)"></g><g id="g-root-tx_understa_mb35kxdnh7gu-stroke" data-item-order="0" transform="translate(290, 0)"></g><g id="g-root-tx_potentia_18hk741dnh88x-stroke" data-item-order="0" transform="translate(134, 468)"></g><g id="g-root-tx_penaltie_1q8u7ltdnh5vn-stroke" data-item-order="0" transform="translate(458, 468)"></g><g id="g-root-tx_financia_zmjny9dnh5vu-stroke" data-item-order="0" transform="translate(38, 552)"></g><g id="g-root-ic_cash_m7ys5ddnikg8-stroke" data-item-order="0" transform="translate(230, 546)"><g id="ic_cash_m7ys5ddnikg8-stroke" fill="none" stroke-linecap="round" stroke-linejoin="round" stroke-miterlimit="4" stroke="#80c476" stroke-width="2"><g><path d="M 31.75 24.2365L 31.75 18.2365L 15.25 18.2365L 15.25 37.735001L 22.75 37.7365M 36.25 22.7365L 36.25 15.2365C 36.25 14.408072 35.578426 13.7365 34.75 13.7365L 28.077999 13.7365C 27.282906 11.918723 25.487059 10.744104 23.503 10.744104C 21.518942 10.744104 19.723095 11.918723 18.927999 13.7365L 12.25 13.7365C 11.421573 13.7365 10.75 14.408072 10.75 15.2365L 10.75 40.7365C 10.75 41.564926 11.421573 42.2365 12.25 42.2365L 24.25 42.2365M 19.75 22.7365L 27.25 22.7365M 19.75 27.2365L 27.25 27.2365M 19.75 31.7365L 24.25 31.7365M 38.5 31.7365L 35.4505 31.7365C 34.485104 31.73538 33.654839 32.419781 33.471714 33.367649C 33.288586 34.315517 33.804161 35.259933 34.7005 35.6185L 37.796501 36.855999C 38.690758 37.215813 39.204437 38.159073 39.021519 39.105492C 38.8386 40.05191 38.010433 40.735825 37.046501 40.7365L 34 40.7365M 36.25 42.2365L 36.25 40.7365M 36.25 31.7365L 36.25 30.2365M 27.25 36.2365C 27.250002 41.207062 31.279438 45.236504 36.25 45.236504C 41.220566 45.236504 45.25 41.207062 45.25 36.236504C 45.25 31.265938 41.220566 27.2365 36.25 27.2365C 31.279438 27.2365 27.250002 31.265938 27.250002 36.236504Z"></path></g></g></g><g id="g-root-tx_conseque_1q8u7ltdnh5vo-stroke" data-item-order="0" transform="translate(362, 546)"></g><g id="g-root-tx_legalobl_v6q5ttdnh6o5-stroke" data-item-order="0" transform="translate(86, 96)"></g><g id="g-root-tx_lossofgo_1uo18n5dnh896-stroke" data-item-order="0" transform="translate(446, 384)"></g></g></g></svg>