<?xml version="1.0" encoding="utf-8" standalone="yes"?>
<!DOCTYPE svg PUBLIC "-//W3C//DTD SVG 1.1//EN" "http://www.w3.org/Graphics/SVG/1.1/DTD/svg11.dtd">
<svg width="680" height="555" viewBox="0 0 680 555" style="fill:none;stroke:none;fill-rule:evenodd;clip-rule:evenodd;stroke-linecap:round;stroke-linejoin:round;stroke-miterlimit:1.5;" version="1.1" xmlns="http://www.w3.org/2000/svg" xmlns:xlink="http://www.w3.org/1999/xlink"><g id="items" style="isolation: isolate"><g id="blend" style="mix-blend-mode: normal"><g id="g-root-sy_4_cu_1hiu9pve7rnk6-fill" data-item-order="1999876170" transform="translate(385.9654541015625, 341.19873046875)"><g id="sy_4_cu_1hiu9pve7rnk6-fill" stroke="none" fill="#edf4ff"><g><path d="M 145.272 200.529C 219.981 200.529 280.545 165.473 280.545 122.229L 280.545 88.2994C 280.545 94.1249 279.446 99.8018 277.361 105.2644C 263.971 140.352 209.917 166.599 145.272 166.599C 80.6278 166.599 26.5741 140.352 13.1838 105.2644C 11.0991 99.8018 10 94.1249 10 88.2994L 10 122.229C 10 165.473 70.5635 200.529 145.272 200.529ZM 107.8852 28.4571C 119.556 26.0136 132.146 24.6815 145.274 24.6815C 158.401 24.6815 170.991 26.0136 182.662 28.4571C 191.542 25.9186 199.541 22.5041 206.322 18.4086C 187.981 13.0305 167.238 10 145.272 10C 123.307 10 102.5646 13.0303 84.2245 18.4081C 91.0056 22.5039 99.0049 25.9185 107.8852 28.4571ZM 145.274 24.6815C 132.146 24.6815 119.556 26.0136 107.8852 28.4571C 119.158 31.6795 131.85 33.4901 145.274 33.4901C 158.697 33.4901 171.389 31.6795 182.662 28.4571C 170.991 26.0136 158.401 24.6815 145.274 24.6815ZM 251.232 105.2652C 253.807 99.8643 255.183 94.1753 255.183 88.3002C 255.183 75.409 248.559 63.4133 237.174 53.3913C 229.653 60.011 220.055 65.7696 208.917 70.3563C 229.233 78.7225 244.424 90.9873 251.232 105.2652ZM 13.1838 105.2644C 26.5741 140.352 80.6278 166.599 145.272 166.599C 209.917 166.599 263.971 140.352 277.361 105.2644C 279.446 99.8018 280.545 94.1249 280.545 88.2994C 280.545 69.3758 268.947 52.0201 249.641 38.4839C 246.603 43.798 242.388 48.8016 237.174 53.3913C 248.559 63.4133 255.183 75.409 255.183 88.3002C 255.183 94.1753 253.807 99.8643 251.232 105.2652C 238.406 132.165 195.825 151.919 145.274 151.919C 94.7219 151.919 52.1413 132.165 39.3149 105.2652C 36.7396 99.8643 35.3638 94.1753 35.3638 88.3002C 35.3638 75.409 41.988 63.4133 53.3735 53.3913C 48.159 48.8013 43.9432 43.7973 40.9051 38.4828C 21.5984 52.0192 10 69.3753 10 88.2994C 10 94.1249 11.0991 99.8018 13.1838 105.2644ZM 35.3638 88.3002C 35.3638 94.1753 36.7396 99.8643 39.3149 105.2652C 46.123 90.9873 61.3138 78.7225 81.6299 70.3563C 70.4916 65.7696 60.8939 60.011 53.3735 53.3913C 41.988 63.4133 35.3638 75.409 35.3638 88.3002Z"></path></g></g></g><g id="g-root-sy_3_cu_1hiu9pve7rnk7-fill" data-item-order="1999876174" transform="translate(411.3287353515625, 269.01513671875)"><g id="sy_3_cu_1hiu9pve7rnk7-fill" stroke="none" fill="#e3fff2"><g><path d="M 119.91 154.285C 180.611 154.285 229.819 125.802 229.819 90.6665L 229.819 56.7365C 229.819 62.6115 228.444 68.3005 225.868 73.7015C 213.042 100.6011 170.461 120.355 119.91 120.355C 69.3581 120.355 26.7775 100.6011 13.9511 73.7015C 11.3758 68.3005 10 62.6115 10 56.7365L 10 90.6665C 10 125.802 59.2083 154.285 119.91 154.285ZM 225.868 73.7015C 228.444 68.3005 229.819 62.6115 229.819 56.7365C 229.819 38.2598 216.212 21.6227 194.48 10C 190.421 14.385 185.241 18.3704 179.161 21.8279C 194.773 30.7068 204.456 43.0673 204.456 56.7367C 204.456 62.7011 202.612 68.4162 199.237 73.7017C 187.319 92.3673 156.299 105.6742 119.91 105.6742C 83.5205 105.6742 52.5008 92.3673 40.5821 73.7017C 37.2072 68.4162 35.3638 62.7011 35.3638 56.7367C 35.3638 43.0673 45.0463 30.7068 60.658 21.8279C 54.5788 18.3704 49.3986 14.385 45.3392 10C 23.6079 21.6227 10 38.2598 10 56.7365C 10 62.6115 11.3758 68.3005 13.9511 73.7015C 26.7775 100.6011 69.3581 120.355 119.91 120.355C 170.461 120.355 213.042 100.6011 225.868 73.7015ZM 199.237 73.7017C 202.612 68.4162 204.456 62.7011 204.456 56.7367C 204.456 43.0673 194.773 30.7068 179.161 21.8279C 163.905 30.5045 142.987 35.8565 119.91 35.8565C 96.8321 35.8565 75.914 30.5045 60.658 21.8279C 45.0463 30.7068 35.3638 43.0673 35.3638 56.7367C 35.3638 62.7011 37.2072 68.4162 40.5821 73.7017C 52.5008 55.0361 83.5205 41.7292 119.91 41.7292C 156.299 41.7292 187.319 55.0361 199.237 73.7017Z"></path></g></g></g><g id="g-root-sy_2_cu_1d3n8oje7rl6o-fill" data-item-order="1999876178" transform="translate(436.6881103515625, 168.34130859375)"><g id="sy_2_cu_1d3n8oje7rl6o-fill" stroke="none" fill="#f5f5f5"><g><path d="M 94.546 136.53C 141.239 136.53 179.092 114.62 179.092 87.5928L 179.092 53.6628C 179.092 59.6272 177.249 65.3423 173.874 70.6278C 161.955 89.2934 130.935 102.6003 94.546 102.6003C 58.1567 102.6003 27.137 89.2934 15.2183 70.6278C 11.8434 65.3423 10 59.6272 10 53.6628L 10 87.5928C 10 114.62 47.8525 136.53 94.546 136.53ZM 173.874 70.6278C 177.249 65.3423 179.092 59.6272 179.092 53.6628C 179.092 34.5972 160.256 18.078 132.768 10.00001C 122.456 15.054 109.116 18.1015 94.546 18.1015C 79.9759 18.1015 66.6356 15.0539 56.3239 10C 28.8359 18.078 10 34.5972 10 53.6628C 10 59.6272 11.8434 65.3423 15.2183 70.6278C 27.137 89.2934 58.1567 102.6003 94.546 102.6003C 130.935 102.6003 161.955 89.2934 173.874 70.6278ZM 35.3638 53.663C 35.3638 34.7438 61.8605 19.4067 94.546 19.4067C 127.231 19.4067 153.728 34.7438 153.728 53.663C 153.728 59.8353 150.908 65.6264 145.973 70.628C 135.78 80.9571 116.568 87.9193 94.546 87.9193C 72.5241 87.9193 53.3115 80.9571 43.1193 70.628C 38.184 65.6264 35.3638 59.8353 35.3638 53.663ZM 94.546 19.4067C 61.8605 19.4067 35.3638 34.7438 35.3638 53.663C 35.3638 59.8353 38.184 65.6264 43.1193 70.628C 53.3115 60.2989 72.5241 53.3368 94.546 53.3368C 116.568 53.3368 135.78 60.2989 145.973 70.628C 150.908 65.6264 153.728 59.8353 153.728 53.663C 153.728 34.7438 127.231 19.4067 94.546 19.4067Z"></path></g></g></g><g id="g-root-sy_1_cu_1d3n8oje7rl6p-fill" data-item-order="1999876182" transform="translate(462.0513916015625, 74)"><g id="sy_1_cu_1d3n8oje7rl6p-fill" stroke="none" fill="#fffbda"><g><path d="M 69.182201 112.443C 101.8676 112.443 128.364 97.1055 128.364 78.1863L 128.364 44.2563C 128.364 50.4286 125.544001 56.2197 120.609 61.2213C 110.417 71.5504 91.204001 78.5125 69.182201 78.5125C 47.1603 78.5125 27.9477 71.5504 17.7555 61.2213C 12.8202 56.2197 10 50.4286 10 44.2563L 10 78.1863C 10 97.1055 36.496801 112.443 69.182201 112.443ZM 120.609 61.2213C 125.544001 56.2197 128.364 50.4286 128.364 44.2563C 128.364 25.3371 101.8676 10 69.182201 10C 36.496801 10 10 25.3371 10 44.2563C 10 50.4286 12.8202 56.2197 17.7555 61.2213C 27.9477 71.5504 47.1603 78.5125 69.182201 78.5125C 91.204001 78.5125 110.417 71.5504 120.609 61.2213ZM 69.182201 63.8315C 63.033201 63.8315 57.2675 62.8816 52.2992 61.2215C 57.2675 59.5614 63.033201 58.6115 69.182201 58.6115C 75.331101 58.6115 81.0968 59.5614 86.0651 61.2215C 81.0968 62.8816 75.331101 63.8315 69.182201 63.8315Z"></path></g></g></g><g id="g-root-tx_llcintru_1lwsckze7vspa-fill" data-item-order="2000000000" transform="translate(229.96548461914062, 2)"><g id="tx_llcintru_1lwsckze7vspa-fill" stroke="none" fill="#484848"><g><text style="font: bold 20px &quot;Poppins 300&quot;, sans-serif; white-space: pre;" font-weight="bold" font-size="20px" font-family="'Poppins 300', sans-serif"><tspan x="16.28" y="36" dominant-baseline="ideographic">LLC in Trust Benefits</tspan></text></g></g></g><g id="g-root-tx_taxbenef_zs6qb7e7rmrn-fill" data-item-order="2000000000" transform="translate(193.96548461914062, 74)"><g id="tx_taxbenef_zs6qb7e7rmrn-fill" stroke="none" fill="#ffe60a"><g><text style="font: bold 15px &quot;Open Sans Regular&quot;, sans-serif; white-space: pre;" font-weight="bold" font-size="15px" font-family="'Open Sans Regular', sans-serif"><tspan x="18.59" y="32" dominant-baseline="ideographic">Tax Benefits</tspan></text></g></g></g><g id="g-root-ic_exce_mgq7xve7uf4d-fill" data-item-order="2000000000" transform="translate(313.9654541015625, 62)"></g><g id="g-root-tx_potentia_14808fne7rlze-fill" data-item-order="2000000000" transform="translate(14, 110.237060546875)"><g id="tx_potentia_14808fne7rlze-fill" stroke="none" fill="#ffe60a"><g><text style="font: 15px &quot;Open Sans 300&quot;, sans-serif; white-space: pre;" font-size="15px" font-family="'Open Sans 300', sans-serif"><tspan x="13.45" y="29" dominant-baseline="ideographic">Potentially lowers income and estate tax </tspan><tspan x="249.97" y="47" dominant-baseline="ideographic">rates</tspan></text></g></g></g><g id="g-root-tx_privacyi_qwjq2be7rnkd-fill" data-item-order="2000000000" transform="translate(121.96548461914062, 194)"><g id="tx_privacyi_qwjq2be7rnkd-fill" stroke="none" fill="#a3a3a3"><g><text style="font: bold 15px &quot;Open Sans Regular&quot;, sans-serif; white-space: pre;" font-weight="bold" font-size="15px" font-family="'Open Sans Regular', sans-serif"><tspan x="20.3" y="32" dominant-baseline="ideographic">Privacy Improvements</tspan></text></g></g></g><g id="g-root-ic_pers_qpoi43e7ugp0-fill" data-item-order="2000000000" transform="translate(313.9654541015625, 182)"></g><g id="g-root-tx_keepsbus_zs6qb7e7rmro-fill" data-item-order="2000000000" transform="translate(38, 230.23388671875)"><g id="tx_keepsbus_zs6qb7e7rmro-fill" stroke="none" fill="#a3a3a3"><g><text style="font: 15px &quot;Open Sans 300&quot;, sans-serif; white-space: pre;" font-size="15px" font-family="'Open Sans 300', sans-serif"><tspan x="16.55" y="29" dominant-baseline="ideographic">Keeps business dealings private and </tspan><tspan x="181.55" y="47" dominant-baseline="ideographic">confidential</tspan></text></g></g></g><g id="g-root-tx_estatepl_m7d3n7e7szrb-fill" data-item-order="2000000000" transform="translate(169.96548461914062, 314)"><g id="tx_estatepl_m7d3n7e7szrb-fill" stroke="none" fill="#44e095"><g><text style="font: bold 15px &quot;Open Sans Regular&quot;, sans-serif; white-space: pre;" font-weight="bold" font-size="15px" font-family="'Open Sans Regular', sans-serif"><tspan x="20.49" y="32" dominant-baseline="ideographic">Estate Planning</tspan></text></g></g></g><g id="g-root-ic_woma_dhyu9fe7t24r-fill" data-item-order="2000000000" transform="translate(313.9654541015625, 302)"></g><g id="g-root-tx_skipspro_qwjq2be7rnke-fill" data-item-order="2000000000" transform="translate(2, 350.23388671875)"><g id="tx_skipspro_qwjq2be7rnke-fill" stroke="none" fill="#44e095"><g><text style="font: 15px &quot;Open Sans 300&quot;, sans-serif; white-space: pre;" font-size="15px" font-family="'Open Sans 300', sans-serif"><tspan x="12.31" y="29" dominant-baseline="ideographic">Skips probate, ensures smooth ownership </tspan><tspan x="240.2" y="47" dominant-baseline="ideographic">changes</tspan></text></g></g></g><g id="g-root-tx_assetpro_hrjlire7t0jl-fill" data-item-order="2000000000" transform="translate(169.9654541015625, 434)"><g id="tx_assetpro_hrjlire7t0jl-fill" stroke="none" fill="#4f92ff"><g><text style="font: bold 15px &quot;Open Sans Regular&quot;, sans-serif; white-space: pre;" font-weight="bold" font-size="15px" font-family="'Open Sans Regular', sans-serif"><tspan x="14.06" y="32" dominant-baseline="ideographic">Asset Protection</tspan></text></g></g></g><g id="g-root-ic_wind_hrjlire7t0jm-fill" data-item-order="2000000000" transform="translate(313.9654541015625, 422)"></g><g id="g-root-tx_shieldsa_m7d3n7e7szrc-fill" data-item-order="2000000000" transform="translate(26.000030517578125, 470.23388671875)"><g id="tx_shieldsa_m7d3n7e7szrc-fill" stroke="none" fill="#4f92ff"><g><text style="font: 15px &quot;Open Sans 300&quot;, sans-serif; white-space: pre;" font-size="15px" font-family="'Open Sans 300', sans-serif"><tspan x="14.74" y="32" dominant-baseline="ideographic">Shields assets from personal creditors</tspan></text></g></g></g><g id="g-root-sy_4_cu_1hiu9pve7rnk6-stroke" data-item-order="1999876170" transform="translate(385.9654541015625, 341.19873046875)"><g id="sy_4_cu_1hiu9pve7rnk6-stroke" fill="none" stroke-linecap="round" stroke-linejoin="round" stroke-miterlimit="4" stroke="#4f92ff" stroke-width="2"><g><path d="M 145.2724 200.5288C 219.9813 200.5288 280.5449 165.4729 280.5449 122.2294L 280.5449 88.2994C 280.5449 94.1249 279.4458 99.8018 277.3611 105.2644C 263.9707 140.3517 209.917 166.5988 145.2724 166.5988C 80.6278 166.5988 26.5741 140.3517 13.1838 105.2644C 11.0991 99.8018 10 94.1249 10 88.2994L 10 122.2294C 10 165.4729 70.5635 200.5288 145.2724 200.5288ZM 107.8852 28.4571C 119.5562 26.0136 132.1461 24.6815 145.2735 24.6815C 158.401 24.6815 170.9909 26.0136 182.6618 28.4571C 191.5419 25.9186 199.5408 22.5041 206.3218 18.4086C 187.9814 13.0305 167.2383 10 145.2724 10C 123.3071 10 102.5646 13.0303 84.2245 18.4081C 91.0056 22.5039 99.0049 25.9185 107.8852 28.4571ZM 145.2735 24.6815C 132.1461 24.6815 119.5562 26.0136 107.8852 28.4571C 119.1579 31.6795 131.8504 33.4901 145.2735 33.4901C 158.6966 33.4901 171.3891 31.6795 182.6618 28.4571C 170.9909 26.0136 158.401 24.6815 145.2735 24.6815ZM 251.2321 105.2652C 253.8074 99.8643 255.1833 94.1753 255.1833 88.3002C 255.1833 75.409 248.5591 63.4133 237.1735 53.3913C 229.6531 60.011 220.0554 65.7696 208.9172 70.3563C 229.2333 78.7225 244.4241 90.9873 251.2321 105.2652ZM 13.1838 105.2644C 26.5741 140.3517 80.6278 166.5988 145.2724 166.5988C 209.917 166.5988 263.9707 140.3517 277.3611 105.2644C 279.4458 99.8018 280.5449 94.1249 280.5449 88.2994C 280.5449 69.3758 268.947 52.0201 249.6413 38.4839C 246.6033 43.798 242.3877 48.8016 237.1735 53.3913C 248.5591 63.4133 255.1833 75.409 255.1833 88.3002C 255.1833 94.1753 253.8074 99.8643 251.2321 105.2652C 238.4057 132.1648 195.8251 151.919 145.2735 151.919C 94.7219 151.919 52.1413 132.1648 39.3149 105.2652C 36.7396 99.8643 35.3638 94.1753 35.3638 88.3002C 35.3638 75.409 41.988 63.4133 53.3735 53.3913C 48.159 48.8013 43.9432 43.7973 40.9051 38.4828C 21.5984 52.0192 10 69.3753 10 88.2994C 10 94.1249 11.0991 99.8018 13.1838 105.2644ZM 35.3638 88.3002C 35.3638 94.1753 36.7396 99.8643 39.3149 105.2652C 46.123 90.9873 61.3138 78.7225 81.6299 70.3563C 70.4916 65.7696 60.8939 60.011 53.3735 53.3913C 41.988 63.4133 35.3638 75.409 35.3638 88.3002Z"></path></g></g></g><g id="g-root-sy_3_cu_1hiu9pve7rnk7-stroke" data-item-order="1999876174" transform="translate(411.3287353515625, 269.01513671875)"><g id="sy_3_cu_1hiu9pve7rnk7-stroke" fill="none" stroke-linecap="round" stroke-linejoin="round" stroke-miterlimit="4" stroke="#44e095" stroke-width="2"><g><path d="M 119.9097 154.2853C 180.6112 154.2853 229.8195 125.8022 229.8195 90.6665L 229.8195 56.7365C 229.8195 62.6115 228.4437 68.3006 225.8683 73.7015C 213.042 100.6011 170.4613 120.3553 119.9097 120.3553C 69.3581 120.3553 26.7775 100.6011 13.9511 73.7015C 11.3758 68.3006 10 62.6115 10 56.7365L 10 90.6665C 10 125.8022 59.2083 154.2853 119.9097 154.2853ZM 225.8683 73.7015C 228.4437 68.3006 229.8195 62.6115 229.8195 56.7365C 229.8195 38.2598 216.2116 21.6227 194.4803 10C 190.4208 14.385 185.2407 18.3704 179.1615 21.8279C 194.7732 30.7068 204.4557 43.0673 204.4557 56.7367C 204.4557 62.7011 202.6123 68.4162 199.2373 73.7017C 187.3187 92.3673 156.299 105.6742 119.9097 105.6742C 83.5205 105.6742 52.5008 92.3673 40.5821 73.7017C 37.2072 68.4162 35.3638 62.7011 35.3638 56.7367C 35.3638 43.0673 45.0463 30.7068 60.658 21.8279C 54.5788 18.3704 49.3986 14.385 45.3392 10C 23.6079 21.6227 10 38.2598 10 56.7365C 10 62.6115 11.3758 68.3006 13.9511 73.7015C 26.7775 100.6011 69.3581 120.3553 119.9097 120.3553C 170.4613 120.3553 213.042 100.6011 225.8683 73.7015ZM 199.2373 73.7017C 202.6123 68.4162 204.4557 62.7011 204.4557 56.7367C 204.4557 43.0673 194.7732 30.7068 179.1615 21.8279C 163.9055 30.5045 142.9874 35.8565 119.9097 35.8565C 96.8321 35.8565 75.914 30.5045 60.658 21.8279C 45.0463 30.7068 35.3638 43.0673 35.3638 56.7367C 35.3638 62.7011 37.2072 68.4162 40.5821 73.7017C 52.5008 55.0361 83.5205 41.7292 119.9097 41.7292C 156.299 41.7292 187.3187 55.0361 199.2373 73.7017Z"></path></g></g></g><g id="g-root-sy_2_cu_1d3n8oje7rl6o-stroke" data-item-order="1999876178" transform="translate(436.6881103515625, 168.34130859375)"><g id="sy_2_cu_1d3n8oje7rl6o-stroke" fill="none" stroke-linecap="round" stroke-linejoin="round" stroke-miterlimit="4" stroke="#a3a3a3" stroke-width="2"><g><path d="M 94.546 136.5303C 141.2394 136.5303 179.0919 114.6202 179.0919 87.5928L 179.0919 53.6628C 179.0919 59.6272 177.2485 65.3423 173.8736 70.6278C 161.9549 89.2934 130.9352 102.6003 94.546 102.6003C 58.1567 102.6003 27.137 89.2934 15.2183 70.6278C 11.8434 65.3423 10 59.6272 10 53.6628L 10 87.5928C 10 114.6202 47.8525 136.5303 94.546 136.5303ZM 173.8736 70.6278C 177.2485 65.3423 179.0919 59.6272 179.0919 53.6628C 179.0919 34.5972 160.256 18.078 132.768 10C 122.4563 15.0539 109.116 18.1015 94.546 18.1015C 79.9759 18.1015 66.6356 15.0539 56.3239 10C 28.8359 18.078 10 34.5972 10 53.6628C 10 59.6272 11.8434 65.3423 15.2183 70.6278C 27.137 89.2934 58.1567 102.6003 94.546 102.6003C 130.9352 102.6003 161.9549 89.2934 173.8736 70.6278ZM 35.3638 53.663C 35.3638 34.7438 61.8605 19.4067 94.546 19.4067C 127.2314 19.4067 153.7281 34.7438 153.7281 53.663C 153.7281 59.8353 150.9079 65.6264 145.9726 70.628C 135.7804 80.9571 116.5678 87.9193 94.546 87.9193C 72.5241 87.9193 53.3115 80.9571 43.1193 70.628C 38.184 65.6264 35.3638 59.8353 35.3638 53.663ZM 94.546 19.4067C 61.8605 19.4067 35.3638 34.7438 35.3638 53.663C 35.3638 59.8353 38.184 65.6264 43.1193 70.628C 53.3115 60.2989 72.5241 53.3368 94.546 53.3368C 116.5678 53.3368 135.7804 60.2989 145.9726 70.628C 150.9079 65.6264 153.7281 59.8353 153.7281 53.663C 153.7281 34.7438 127.2314 19.4067 94.546 19.4067Z"></path></g></g></g><g id="g-root-sy_1_cu_1d3n8oje7rl6p-stroke" data-item-order="1999876182" transform="translate(462.0513916015625, 74)"><g id="sy_1_cu_1d3n8oje7rl6p-stroke" fill="none" stroke-linecap="round" stroke-linejoin="round" stroke-miterlimit="4" stroke="#ffe60a" stroke-width="2"><g><path d="M 69.182201 112.4425C 101.8676 112.4425 128.364301 97.1055 128.364301 78.1863L 128.364301 44.2563C 128.364301 50.4286 125.544101 56.2197 120.608801 61.2213C 110.4166 71.5504 91.204001 78.5125 69.182201 78.5125C 47.1603 78.5125 27.9477 71.5504 17.7555 61.2213C 12.8202 56.2197 10 50.4286 10 44.2563L 10 78.1863C 10 97.1055 36.496801 112.4425 69.182201 112.4425ZM 120.608801 61.2213C 125.544101 56.2197 128.364301 50.4286 128.364301 44.2563C 128.364301 25.3371 101.8676 10 69.182201 10C 36.496801 10 10 25.3371 10 44.2563C 10 50.4286 12.8202 56.2197 17.7555 61.2213C 27.9477 71.5504 47.1603 78.5125 69.182201 78.5125C 91.204001 78.5125 110.4166 71.5504 120.608801 61.2213ZM 69.182201 63.8315C 63.033201 63.8315 57.2675 62.8816 52.2992 61.2215C 57.2675 59.5614 63.033201 58.6115 69.182201 58.6115C 75.331101 58.6115 81.0968 59.5614 86.0651 61.2215C 81.0968 62.8816 75.331101 63.8315 69.182201 63.8315ZM 52.2992 61.2215C 42.176401 57.839 35.363801 51.5083 35.363801 44.2565C 35.363801 33.4455 50.5048 24.6815 69.182201 24.6815C 87.8595 24.6815 103.000501 33.4455 103.000501 44.2565C 103.000501 51.5083 96.1879 57.839 86.0651 61.2215"></path></g></g></g><g id="g-root-tx_llcintru_1lwsckze7vspa-stroke" data-item-order="2000000000" transform="translate(229.96548461914062, 2)"></g><g id="g-root-tx_taxbenef_zs6qb7e7rmrn-stroke" data-item-order="2000000000" transform="translate(193.96548461914062, 74)"></g><g id="g-root-ic_exce_mgq7xve7uf4d-stroke" data-item-order="2000000000" transform="translate(313.9654541015625, 62)"><g id="ic_exce_mgq7xve7uf4d-stroke" fill="none" stroke-linecap="round" stroke-linejoin="round" stroke-miterlimit="4" stroke="#ffe60a" stroke-width="2"><g><path d="M 44.486557 51.221886L 49.288078 56.981308L 56.969311 56.981308L 49.288078 47.380268L 56.969311 37.779224L 49.288078 37.779224L 44.486557 43.540649L 39.687035 37.779224L 32.005802 37.779224L 39.687035 47.380268L 32.005802 56.981308L 39.687035 56.981308L 44.486557 51.221886ZM 24.306572 54.66954C 19.792971 54.670647 16.133387 51.011959 16.133387 46.498356L 16.133387 41.396866M 21.240877 46.498356L 16.133387 41.390865L 11.025898 46.498356M 43.714634 13.413659C 48.228233 13.412555 51.887817 17.071241 51.887817 21.584845L 51.887817 27.714231M 46.780327 22.606741L 51.887817 27.714231L 56.995308 22.606741M 13.043696 11.013899L 35.515453 11.013899C 35.515453 11.013899 37.55925 11.013899 37.55925 13.057694L 37.55925 31.443857C 37.55925 31.443857 37.55925 33.487656 35.515453 33.487656L 13.043696 33.487656C 13.043696 33.487656 10.9999 33.487656 10.9999 31.443857L 10.9999 13.057694C 10.9999 13.057694 10.9999 11.013899 13.043696 11.013899M 10.9999 17.215281L 37.55925 17.215281M 10.9999 22.606741L 37.55925 22.606741M 10.9999 28.150188L 37.55925 28.150188M 23.142687 17.215281L 23.142687 33.487656M 30.269976 17.215281L 30.269976 33.487656"></path></g></g></g><g id="g-root-tx_potentia_14808fne7rlze-stroke" data-item-order="2000000000" transform="translate(14, 110.237060546875)"></g><g id="g-root-tx_privacyi_qwjq2be7rnkd-stroke" data-item-order="2000000000" transform="translate(121.96548461914062, 194)"></g><g id="g-root-ic_pers_qpoi43e7ugp0-stroke" data-item-order="2000000000" transform="translate(313.9654541015625, 182)"><g id="ic_pers_qpoi43e7ugp0-stroke" fill="none" stroke-linecap="round" stroke-linejoin="round" stroke-miterlimit="4" stroke="#a3a3a3" stroke-width="2"><g><path d="M 19.427629 19.427629C 19.427629 23.687687 22.881088 27.141146 27.141146 27.141146C 31.401201 27.141146 34.85466 23.687687 34.85466 19.427629C 34.85466 15.167573 31.401201 11.714114 27.141146 11.714114C 22.881088 11.714114 19.427629 15.167573 19.427629 19.427629M 30.569374 32.660595C 25.989653 31.603287 21.17783 32.696342 17.504345 35.628452C 13.830861 38.560558 11.698331 43.010357 11.714114 47.710522L 11.714114 52.852863L 30.569374 52.852863M 46.579205 56.178246L 46.579205 56.178246C 46.202602 56.3144 45.790211 56.3144 45.413605 56.178246L 45.413605 56.178246C 39.563515 53.860733 35.718857 48.209221 35.71172 41.916813L 35.71172 37.425835C 35.681065 36.962502 35.851791 36.508472 36.180134 36.180134C 36.508472 35.851791 36.962502 35.681065 37.425835 35.71172L 54.566978 35.71172C 55.030308 35.681065 55.484337 35.851791 55.812675 36.180134C 56.141018 36.508472 56.311745 36.962502 56.281094 37.425835L 56.281094 41.916813C 56.273956 48.209221 52.429295 53.860733 46.579205 56.178246Z"></path></g></g></g><g id="g-root-tx_keepsbus_zs6qb7e7rmro-stroke" data-item-order="2000000000" transform="translate(38, 230.23388671875)"></g><g id="g-root-tx_estatepl_m7d3n7e7szrb-stroke" data-item-order="2000000000" transform="translate(169.96548461914062, 314)"></g><g id="g-root-ic_woma_dhyu9fe7t24r-stroke" data-item-order="2000000000" transform="translate(313.9654541015625, 302)"><g id="ic_woma_dhyu9fe7t24r-stroke" fill="none" stroke-linecap="round" stroke-linejoin="round" stroke-miterlimit="4" stroke="#44e095" stroke-width="2"><g><path d="M 40.996906 49.996006L 35.997406 49.996006C 35.445175 49.996006 34.997505 49.548336 34.997505 48.996105L 34.997505 18.999102C 34.997505 18.446871 35.445175 17.999201 35.997406 17.999201L 40.996906 17.999201M 28.998102 33.997604L 34.997505 33.997604M 46.496357 15.499451C 46.496357 17.432255 48.063206 18.999102 49.996006 18.999102C 51.928814 18.999102 53.495659 17.432255 53.495659 15.499452C 53.495659 13.566648 51.928814 11.999801 49.996006 11.999801C 48.063206 11.999801 46.496357 13.566648 46.496357 15.499452ZM 56.995308 25.998402C 56.179443 22.798904 53.29789 20.559933 49.996006 20.559933C 46.694126 20.559933 43.812572 22.798904 42.996704 25.998402ZM 46.496357 45.496456C 46.496357 47.42926 48.063206 48.996105 49.996006 48.996105C 51.928814 48.996105 53.495659 47.42926 53.495659 45.496456C 53.495659 43.563652 51.928814 41.996803 49.996006 41.996803C 48.063206 41.996803 46.496357 43.563652 46.496357 45.496456ZM 56.995308 55.995407C 56.179443 52.79591 53.29789 50.556934 49.996006 50.556934C 46.694126 50.556934 43.812572 52.79591 42.996704 55.995407ZM 14.501551 27.646238L 14.501551 28.974106C 14.552956 30.509211 14.154673 32.025883 13.355665 33.337669M 25.496452 27.646238L 25.496452 28.974106C 25.445045 30.509211 25.84333 32.025883 26.642338 33.337669M 10.9999 43.996605C 10.9999 39.026539 15.028935 34.997505 19.999002 34.997505C 24.969069 34.997505 28.998102 39.026539 28.998102 43.996605ZM 14.51755 27.93821C 16.625151 27.920343 18.622753 26.994785 19.999002 25.398462C 21.375252 26.994785 23.372852 27.920343 25.480455 27.93821M 14.499551 27.498253C 14.499551 30.535517 16.961739 32.997704 19.999002 32.997704C 23.036264 32.997704 25.498453 30.535517 25.498453 27.498253C 25.498453 24.460991 23.036264 21.998802 19.999002 21.998802C 16.961739 21.998802 14.499551 24.460991 14.499551 27.498253Z"></path></g></g></g><g id="g-root-tx_skipspro_qwjq2be7rnke-stroke" data-item-order="2000000000" transform="translate(2, 350.23388671875)"></g><g id="g-root-tx_assetpro_hrjlire7t0jl-stroke" data-item-order="2000000000" transform="translate(169.9654541015625, 434)"></g><g id="g-root-ic_wind_hrjlire7t0jm-stroke" data-item-order="2000000000" transform="translate(313.9654541015625, 422)"><g id="ic_wind_hrjlire7t0jm-stroke" fill="none" stroke-linecap="round" stroke-linejoin="round" stroke-miterlimit="4" stroke="#4f92ff" stroke-width="2"><g><path d="M 44.292576 30.033998L 44.292576 16.811319C 44.299019 15.826204 43.72673 14.929017 42.830723 14.519548C 38.118191 12.46203 33.024101 11.42345 27.882215 11.471853C 22.740345 11.42363 17.646292 12.462203 12.933707 14.519548C 12.038828 14.930009 11.467563 15.826817 11.473853 16.811319L 11.473853 29.626041C 11.473376 37.917271 16.579794 45.352303 24.318571 48.328175L 26.070396 49.002106C 27.237444 49.449993 28.528984 49.449993 29.696033 49.002102L 31.447859 48.328175M 26.656338 43.120693C 20.8543 41.098396 16.948971 35.648228 16.899311 29.504053L 16.899311 18.133188C 20.324234 17.03174 23.900579 16.473694 27.498253 16.479353L 28.282175 16.479353C 31.880438 16.474131 35.457127 17.034927 38.881119 18.141188L 38.881119 29.504053C 38.831699 35.650002 34.924393 41.101498 29.12009 43.122692L 27.898212 43.590649ZM 16.995302 31.179884L 34.349567 17.191282M 20.402962 38.827122L 38.865116 23.944609M 37.523251 49.996006L 48.502155 49.996006C 49.976856 49.998199 51.266632 50.989616 51.648018 52.41415C 52.029404 53.83868 51.407509 55.3419 50.131176 56.08062C 48.854836 56.819344 47.241608 56.609764 46.196388 55.56945M 47.130291 38.289177C 48.093899 36.038216 50.572891 34.845943 52.932899 35.498405C 55.292912 36.150867 56.807423 38.447208 56.477928 40.873482C 56.148441 43.299751 54.076385 45.109035 51.627842 45.108494L 37.523251 45.108494"></path></g></g></g><g id="g-root-tx_shieldsa_m7d3n7e7szrc-stroke" data-item-order="2000000000" transform="translate(26.000030517578125, 470.23388671875)"></g></g></g></svg>