<?xml version="1.0" encoding="utf-8" standalone="yes"?>
<!DOCTYPE svg PUBLIC "-//W3C//DTD SVG 1.1//EN" "http://www.w3.org/Graphics/SVG/1.1/DTD/svg11.dtd">
<svg width="732" height="420" viewBox="0 0 732 420" style="fill:none;stroke:none;fill-rule:evenodd;clip-rule:evenodd;stroke-linecap:round;stroke-linejoin:round;stroke-miterlimit:1.5;" version="1.1" xmlns="http://www.w3.org/2000/svg" xmlns:xlink="http://www.w3.org/1999/xlink"><style class="text-font-style fontImports" data-font-family="Roboto">@import url('https://fonts.googleapis.com/css2?family=Roboto:wght@400;700&amp;display=block');</style><g id="items" style="isolation: isolate"><g id="blend" style="mix-blend-mode: normal"><g id="g-root-s_g-s_fr_1464t0c1knype7-fill" data-item-order="-270854" transform="translate(194, 62)"><g id="s_g-s_fr_1464t0c1knype7-fill" stroke="none" fill="#c9f2ef"><g><path d="M 94 52C 94 75.196 75.196 94 52 94C 45.0303 94 38.4571 92.3023 32.6714 89.2979C 19.2016 82.3033 10 68.2262 10 52C 10 28.804 28.804 10 52 10C 68.2263 10 82.3034 19.2016 89.298 32.6715C 92.3023 38.4572 94 45.0303 94 52ZM 10.109 166L 118 166C 144.51 166 166 144.51 166 118L 166 10.1094C 138.045 11.1272 111.897 19.2283 89.298 32.6715C 92.3023 38.4572 94 45.0303 94 52C 94 75.196 75.196 94 52 94C 45.0303 94 38.4571 92.3023 32.6714 89.2979C 19.2281 111.897 11.1268 138.045 10.109 166Z"></path></g></g></g><g id="g-root-o_g-o_fr_vb49uk1knynsx-fill" data-item-order="-270850" transform="translate(194, 230)"><g id="o_g-o_fr_vb49uk1knynsx-fill" stroke="none" fill="#d2f1ce"><g><path d="M 94 124C 94 130.97 92.3022 137.543 89.2977 143.329C 82.3031 156.798 68.2261 166 52 166C 28.804 166 10 147.196 10 124C 10 107.7736 19.2015 93.6965 32.6711 86.7019C 38.4569 83.6974 45.0302 81.9997 52 81.9997C 75.196 81.9997 94 100.8037 94 124ZM 166 165.891L 166 58C 166 31.4903 144.51 10 118 10L 10.109 10C 11.1268 37.9551 19.228 64.1029 32.6711 86.7019C 38.4569 83.6974 45.0302 81.9997 52 81.9997C 75.196 81.9997 94 100.8037 94 124C 94 130.97 92.3022 137.543 89.2977 143.329C 111.897 156.772 138.045 164.873 166 165.891Z"></path></g></g></g><g id="g-root-t_g-t_fr_vb49uk1knynsz-fill" data-item-order="-270846" transform="translate(362, 230)"><g id="t_g-t_fr_vb49uk1knynsz-fill" stroke="none" fill="#ffffb7"><g><path d="M 166 124C 166 147.196 147.196 166 124 166C 107.7739 166 93.697 156.798 86.7023 143.329C 83.6978 137.543 82 130.97 82 124C 82 100.8037 100.8041 81.9997 124 81.9997C 130.97 81.9997 137.543 83.6974 143.329 86.7019C 156.799 93.6965 166 107.7735 166 124ZM 165.891 10L 58 10C 31.4903 10 10 31.4903 10 58L 10 165.891C 37.9553 164.873 64.1032 156.772 86.7023 143.329C 83.6978 137.543 82 130.97 82 124C 82 100.8037 100.8041 81.9997 124 81.9997C 130.97 81.9997 137.543 83.6974 143.329 86.7019C 156.772 64.1029 164.873 37.9551 165.891 10Z"></path></g></g></g><g id="g-root-w_g-w_fr_mfh9lo1knyolp-fill" data-item-order="-270842" transform="translate(362, 62)"><g id="w_g-w_fr_mfh9lo1knyolp-fill" stroke="none" fill="#ffefbe"><g><path d="M 166 52C 166 68.2263 156.798 82.3034 143.329 89.298C 137.543 92.3023 130.97 94 124 94C 100.8041 94 82 75.196 82 52C 82 45.0303 83.6977 38.4572 86.7021 32.6715C 93.6966 19.2017 107.7737 10 124 10C 147.196 10 166 28.804 166 52ZM 10 10.1094L 10 118C 10 144.51 31.4903 166 58 166L 165.891 166C 164.873 138.045 156.772 111.897 143.329 89.298C 137.543 92.3023 130.97 94 124 94C 100.8041 94 82 75.196 82 52C 82 45.0303 83.6977 38.4572 86.7021 32.6715C 64.103 19.2284 37.9552 11.1272 10 10.1094Z"></path></g></g></g><g id="g-root-tx_taxbenef_hznrh81knypdz-fill" data-item-order="0" transform="translate(254, -10)"><g id="tx_taxbenef_hznrh81knypdz-fill" stroke="none" fill="#0d0d0d"><g><text style="font: bold 20px &quot;Poppins 300&quot;, sans-serif; white-space: pre;" font-weight="bold" font-size="20px" font-family="'Poppins 300', sans-serif"><tspan x="13.77" y="36" dominant-baseline="ideographic">Tax Benefits for LLCs</tspan></text></g></g></g><g id="g-root-tx_comprehe_1uooi581ko4ah2-fill" data-item-order="0" transform="translate(2, 62)"><g id="tx_comprehe_1uooi581ko4ah2-fill" stroke="none" fill="#636873"><g><text style="font: bold 15px &quot;Open Sans Regular&quot;, sans-serif; white-space: pre;" font-weight="bold" font-size="15px" font-family="'Open Sans Regular', sans-serif"><tspan x="20.84" y="32" dominant-baseline="ideographic">Comprehensive Guide</tspan></text></g></g></g><g id="g-root-tx_overlook_zkp13w1ko4c8w-fill" data-item-order="0" transform="translate(542, 50)"><g id="tx_overlook_zkp13w1ko4c8w-fill" stroke="none" fill="#636873"><g><text style="font: bold 15px &quot;Open Sans Regular&quot;, sans-serif; white-space: pre;" font-weight="bold" font-size="15px" font-family="'Open Sans Regular', sans-serif"><tspan x="12" y="29" dominant-baseline="ideographic">Overlooked </tspan><tspan x="12" y="47" dominant-baseline="ideographic">Benefits</tspan></text></g></g></g><g id="g-root-diam_1d3n8ik1knynm1-fill" data-item-order="0" transform="translate(452, 68)"></g><g id="g-root-tx_detailed_1lt1hwc1ko4b9r-fill" data-item-order="0" transform="translate(38, 98)"><g id="tx_detailed_1lt1hwc1ko4b9r-fill" stroke="none" fill="#0d0d0d"><g><text style="font: 15px &quot;Open Sans 300&quot;, sans-serif; white-space: pre;" font-size="15px" font-family="'Open Sans 300', sans-serif"><tspan x="59.93" y="29" dominant-baseline="ideographic">Detailed tax </tspan><tspan x="16.69" y="47" dominant-baseline="ideographic">deduction insights</tspan></text></g></g></g><g id="g-root-tx_manyllcs_qpohy41ko49vt-fill" data-item-order="0" transform="translate(542, 98)"><g id="tx_manyllcs_qpohy41ko49vt-fill" stroke="none" fill="#0d0d0d"><g><text style="font: 15px &quot;Open Sans 300&quot;, sans-serif; white-space: pre;" font-size="15px" font-family="'Open Sans 300', sans-serif"><tspan x="12" y="29" dominant-baseline="ideographic">Many LLCs miss </tspan><tspan x="12" y="47" dominant-baseline="ideographic">deductions</tspan></text></g></g></g><g id="g-root-tx_s_18gc1cs1ko4aof-fill" data-item-order="0" transform="translate(278, 134)"><g id="tx_s_18gc1cs1ko4aof-fill" stroke="none" fill="#1eabda"><g><text style="font: bold 30px Roboto, sans-serif; white-space: pre;" font-weight="bold" font-size="30px" font-family="Roboto, sans-serif"><tspan x="12.77" y="45.5" dominant-baseline="ideographic">S</tspan></text></g></g></g><g id="g-root-tx_w_1qeh9ss1knyp6w-fill" data-item-order="0" transform="translate(392, 140)"><g id="tx_w_1qeh9ss1knyp6w-fill" stroke="none" fill="#e0cb15"><g><text style="font: bold 30px Roboto, sans-serif; white-space: pre;" font-weight="bold" font-size="30px" font-family="Roboto, sans-serif"><tspan x="14.88" y="45.5" dominant-baseline="ideographic">W</tspan></text></g></g></g><g id="g-root-tx_o_v7dfbw1ko2upx-fill" data-item-order="0" transform="translate(284, 248)"><g id="tx_o_v7dfbw1ko2upx-fill" stroke="none" fill="#3cc583"><g><text style="font: bold 30px Roboto, sans-serif; white-space: pre;" font-weight="bold" font-size="30px" font-family="Roboto, sans-serif"><tspan x="17.65" y="45.5" dominant-baseline="ideographic">O</tspan></text></g></g></g><g id="g-root-tx_t_1hgyuak1ko1iir-fill" data-item-order="0" transform="translate(398, 248)"><g id="tx_t_1hgyuak1ko1iir-fill" stroke="none" fill="#92bd39"><g><text style="font: bold 30px Roboto, sans-serif; white-space: pre;" font-weight="bold" font-size="30px" font-family="Roboto, sans-serif"><tspan x="12.7" y="45.5" dominant-baseline="ideographic">T</tspan></text></g></g></g><g id="g-root-tx_signific_8yehgc1ko4c90-fill" data-item-order="0" transform="translate(38, 296)"><g id="tx_signific_8yehgc1ko4c90-fill" stroke="none" fill="#636873"><g><text style="font: bold 15px &quot;Open Sans Regular&quot;, sans-serif; white-space: pre;" font-weight="bold" font-size="15px" font-family="'Open Sans Regular', sans-serif"><tspan x="11.73" y="32" dominant-baseline="ideographic">Significant Savings</tspan></text></g></g></g><g id="g-root-incr_18lyb4s1ko1g5o-fill" data-item-order="0" transform="translate(212, 308)"></g><g id="g-root-warn_qvarq41ko01z6-fill" data-item-order="0" transform="translate(452, 308)"></g><g id="g-root-tx_regulato_m9uzto1ko4ao2-fill" data-item-order="0" transform="translate(542, 302)"><g id="tx_regulato_m9uzto1ko4ao2-fill" stroke="none" fill="#636873"><g><text style="font: bold 15px &quot;Open Sans Regular&quot;, sans-serif; white-space: pre;" font-weight="bold" font-size="15px" font-family="'Open Sans Regular', sans-serif"><tspan x="12" y="32" dominant-baseline="ideographic">Regulatory Changes</tspan></text></g></g></g><g id="g-root-tx_maximize_3dyak1ko49vx-fill" data-item-order="0" transform="translate(26, 332)"><g id="tx_maximize_3dyak1ko49vx-fill" stroke="none" fill="#0d0d0d"><g><text style="font: 15px &quot;Open Sans 300&quot;, sans-serif; white-space: pre;" font-size="15px" font-family="'Open Sans 300', sans-serif"><tspan x="64.12" y="29" dominant-baseline="ideographic">Maximize tax </tspan><tspan x="14.9" y="47" dominant-baseline="ideographic">deductions available</tspan></text></g></g></g><g id="g-root-tx_taxlawsm_de7zks1ko4bgr-fill" data-item-order="0" transform="translate(542, 338)"><g id="tx_taxlawsm_de7zks1ko4bgr-fill" stroke="none" fill="#0d0d0d"><g><text style="font: 15px &quot;Open Sans 300&quot;, sans-serif; white-space: pre;" font-size="15px" font-family="'Open Sans 300', sans-serif"><tspan x="12" y="32" dominant-baseline="ideographic">Tax laws may shift</tspan></text></g></g></g><g id="g-root-s_g-s_fr_1464t0c1knype7-stroke" data-item-order="-270854" transform="translate(194, 62)"><g id="s_g-s_fr_1464t0c1knype7-stroke" fill="none" stroke-linecap="round" stroke-linejoin="round" stroke-miterlimit="4" stroke="#4db6ac" stroke-width="2"><g><path d="M 94 52C 94 75.196 75.196 94 52 94C 45.0303 94 38.4571 92.3023 32.6714 89.2979C 19.2016 82.3033 10 68.2262 10 52C 10 28.804 28.804 10 52 10C 68.2263 10 82.3034 19.2016 89.298 32.6715C 92.3023 38.4572 94 45.0303 94 52ZM 10.109 166.0003L 118 166.0003C 144.5096 166.0003 166 144.51 166 118.0003L 166 10.1094C 138.0448 11.1272 111.897 19.2283 89.298 32.6715C 92.3023 38.4572 94 45.0303 94 52C 94 75.196 75.196 94 52 94C 45.0303 94 38.4571 92.3023 32.6714 89.2979C 19.2281 111.8971 11.1268 138.045 10.109 166.0003Z"></path></g></g></g><g id="g-root-o_g-o_fr_vb49uk1knynsx-stroke" data-item-order="-270850" transform="translate(194, 230)"><g id="o_g-o_fr_vb49uk1knynsx-stroke" fill="none" stroke-linecap="round" stroke-linejoin="round" stroke-miterlimit="4" stroke="#80c476" stroke-width="2"><g><path d="M 94 123.9997C 94 130.9696 92.3022 137.5429 89.2977 143.3287C 82.3031 156.7983 68.2261 165.9997 52 165.9997C 28.804 165.9997 10 147.1956 10 123.9997C 10 107.7736 19.2014 93.6965 32.6711 86.7019C 38.4569 83.6974 45.0302 81.9997 52 81.9997C 75.196 81.9997 94 100.8037 94 123.9997ZM 166 165.891L 166 58C 166 31.4903 144.5096 10 118 10L 10.109 10C 11.1268 37.9551 19.228 64.1029 32.6711 86.7019C 38.4569 83.6974 45.0302 81.9997 52 81.9997C 75.196 81.9997 94 100.8037 94 123.9997C 94 130.9696 92.3022 137.5429 89.2977 143.3287C 111.8968 156.772 138.0447 164.8731 166 165.891Z"></path></g></g></g><g id="g-root-t_g-t_fr_vb49uk1knynsz-stroke" data-item-order="-270846" transform="translate(362, 230)"><g id="t_g-t_fr_vb49uk1knynsz-stroke" fill="none" stroke-linecap="round" stroke-linejoin="round" stroke-miterlimit="4" stroke="#cccd35" stroke-width="2"><g><path d="M 166 123.9997C 166 147.1957 147.196 165.9997 124 165.9997C 107.7739 165.9997 93.6969 156.7983 86.7023 143.3287C 83.6978 137.5429 82 130.9696 82 123.9997C 82 100.8037 100.8041 81.9997 124 81.9997C 130.9699 81.9997 137.5431 83.6974 143.3289 86.7019C 156.7986 93.6965 166 107.7735 166 123.9997ZM 165.8909 10L 58 10C 31.4903 10 10 31.4903 10 58L 10 165.891C 37.9553 164.8732 64.1032 156.7719 86.7023 143.3287C 83.6978 137.5429 82 130.9696 82 123.9997C 82 100.8037 100.8041 81.9997 124 81.9997C 130.9699 81.9997 137.5431 83.6974 143.3289 86.7019C 156.772 64.1029 164.8731 37.9551 165.8909 10Z"></path></g></g></g><g id="g-root-w_g-w_fr_mfh9lo1knyolp-stroke" data-item-order="-270842" transform="translate(362, 62)"><g id="w_g-w_fr_mfh9lo1knyolp-stroke" fill="none" stroke-linecap="round" stroke-linejoin="round" stroke-miterlimit="4" stroke="#ffc107" stroke-width="2"><g><path d="M 166 52C 166 68.2263 156.7984 82.3034 143.3286 89.298C 137.5429 92.3023 130.9697 94 124 94C 100.8041 94 82 75.196 82 52C 82 45.0303 83.6977 38.4572 86.7021 32.6715C 93.6966 19.2017 107.7737 10 124 10C 147.196 10 166 28.804 166 52ZM 10 10.1094L 10 118.0003C 10 144.51 31.4903 166.0003 58 166.0003L 165.8909 166.0003C 164.8731 138.045 156.7719 111.8971 143.3286 89.298C 137.5429 92.3023 130.9697 94 124 94C 100.8041 94 82 75.196 82 52C 82 45.0303 83.6977 38.4572 86.7021 32.6715C 64.103 19.2284 37.9552 11.1272 10 10.1094Z"></path></g></g></g><g id="g-root-tx_taxbenef_hznrh81knypdz-stroke" data-item-order="0" transform="translate(254, -10)"></g><g id="g-root-tx_comprehe_1uooi581ko4ah2-stroke" data-item-order="0" transform="translate(2, 62)"></g><g id="g-root-tx_overlook_zkp13w1ko4c8w-stroke" data-item-order="0" transform="translate(542, 50)"></g><g id="g-root-diam_1d3n8ik1knynm1-stroke" data-item-order="0" transform="translate(452, 68)"><g id="diam_1d3n8ik1knynm1-stroke" fill="none" stroke-linecap="round" stroke-linejoin="round" stroke-miterlimit="4" stroke="#e0cb15" stroke-width="2"><g><path d="M 34 22L 34 32.285713M 32.285713 42.57143C 32.285713 43.518204 33.053226 44.285713 34 44.285713C 34.946774 44.285713 35.714287 43.518204 35.714287 42.57143C 35.714287 41.624657 34.946774 40.857143 34 40.857143C 33.053226 40.857143 32.285713 41.624657 32.285713 42.57143M 12.785063 31.40593L 31.404194 12.786798C 31.404194 12.786798 33.998268 10.192727 36.592339 12.786798L 55.211468 31.405926C 55.211468 31.405926 57.805542 34 55.211468 36.594074L 36.592339 55.213203C 36.592339 55.213203 33.998268 57.807274 31.404194 55.2132L 12.785063 36.59407C 12.785063 36.59407 10.190992 34 12.785063 31.40593"></path></g></g></g><g id="g-root-tx_detailed_1lt1hwc1ko4b9r-stroke" data-item-order="0" transform="translate(38, 98)"></g><g id="g-root-tx_manyllcs_qpohy41ko49vt-stroke" data-item-order="0" transform="translate(542, 98)"></g><g id="g-root-tx_s_18gc1cs1ko4aof-stroke" data-item-order="0" transform="translate(278, 134)"></g><g id="g-root-tx_w_1qeh9ss1knyp6w-stroke" data-item-order="0" transform="translate(392, 140)"></g><g id="g-root-tx_o_v7dfbw1ko2upx-stroke" data-item-order="0" transform="translate(284, 248)"></g><g id="g-root-tx_t_1hgyuak1ko1iir-stroke" data-item-order="0" transform="translate(398, 248)"></g><g id="g-root-tx_signific_8yehgc1ko4c90-stroke" data-item-order="0" transform="translate(38, 296)"></g><g id="g-root-incr_18lyb4s1ko1g5o-stroke" data-item-order="0" transform="translate(212, 308)"><g id="incr_18lyb4s1ko1g5o-stroke" fill="none" stroke-linecap="round" stroke-linejoin="round" stroke-miterlimit="4" stroke="#3cc583" stroke-width="2"><g><path d="M 13 31.5L 29 31.5M 31.98 43.5L 51.98 43.5C 51.98 43.5 52.98 43.5 52.98 44.5L 52.98 54.5C 52.98 54.5 52.98 55.5 51.98 55.5L 31.98 55.5C 31.98 55.5 30.98 55.5 30.98 54.5L 30.98 44.5C 30.98 44.5 30.98 43.5 31.98 43.5M 39.98 49.5C 39.98 50.604568 40.875431 51.5 41.98 51.5C 43.084568 51.5 43.98 50.604568 43.98 49.5C 43.98 48.395432 43.084568 47.5 41.98 47.5C 40.875431 47.5 39.98 48.395432 39.98 49.5M 34 27.5L 39.580002 22C 39.955536 21.621376 40.466724 21.408403 41 21.408403C 41.533276 21.408403 42.044468 21.621376 42.419998 22L 43.580002 23.16C 43.955532 23.538626 44.466724 23.751596 45 23.751596C 45.533276 23.751596 46.044468 23.538626 46.419998 23.16L 57 12.5M 49 12.5L 57 12.5L 57 20.5M 36 43.5L 36 40.5C 36 39.947716 36.447716 39.5 37 39.5L 56 39.5C 56.552284 39.5 57 39.947716 57 40.5L 57 50.5C 57 51.052284 56.552284 51.5 56 51.5L 53 51.5M 31.719999 39.5C 30.236944 36.554527 28.307497 33.855999 26 31.5L 30 26C 30.41003 25.447792 30.41003 24.692207 30 24.139999C 29.565481 23.477631 28.695103 23.260035 28 23.639999C 26.775585 24.15863 25.358892 23.881622 24.420002 22.940001L 24 22.4C 22.94772 21.357777 21.252279 21.357777 20.200001 22.4L 19.66 22.939999C 18.706726 23.916313 17.246269 24.195635 16 23.639999C 15.369627 23.36171 14.630906 23.542286 14.2 24.08C 13.78997 24.632208 13.78997 25.387793 14.2 25.939999L 18.200001 31.5C 18.200001 31.5 11 38.419998 11 44.5C 10.99929 48.3288 12.989542 51.882515 16.254566 53.882339C 19.519592 55.882168 23.5896 56.040363 27 54.300003M 13 31.5L 31 31.5M 22 47.5L 22 49.5M 22 37.5L 22 39.5M 18 47.5L 24 47.5C 25.104568 47.5 26 46.604568 26 45.5C 26 44.395432 25.104568 43.5 24 43.5L 20 43.5C 18.895432 43.5 18 42.604568 18 41.5C 18 40.395432 18.895432 39.5 20 39.5L 26 39.5"></path></g></g></g><g id="g-root-warn_qvarq41ko01z6-stroke" data-item-order="0" transform="translate(452, 308)"><g id="warn_qvarq41ko01z6-stroke" fill="none" stroke-linecap="round" stroke-linejoin="round" stroke-miterlimit="4" stroke="#92bd39" stroke-width="2"><g><path d="M 34 22L 34 32.285713M 32.285713 42.57143C 32.285713 43.518204 33.053226 44.285713 34 44.285713C 34.946774 44.285713 35.714287 43.518204 35.714287 42.57143C 35.714287 41.624657 34.946774 40.857143 34 40.857143C 33.053226 40.857143 32.285713 41.624657 32.285713 42.57143M 34 11.714286C 25.78648 11.716842 18.24015 16.237019 14.361948 23.477287C 10.483745 30.717556 10.902401 39.504124 15.451428 46.342857L 11.714286 56.285713L 24.228573 54.022858C 32.478989 58.054592 42.357716 56.612949 49.111847 50.391537C 55.865974 44.170128 58.112556 34.442822 54.770702 25.889679C 51.428848 17.336535 43.182823 11.708866 34 11.714286Z"></path></g></g></g><g id="g-root-tx_regulato_m9uzto1ko4ao2-stroke" data-item-order="0" transform="translate(542, 302)"></g><g id="g-root-tx_maximize_3dyak1ko49vx-stroke" data-item-order="0" transform="translate(26, 332)"></g><g id="g-root-tx_taxlawsm_de7zks1ko4bgr-stroke" data-item-order="0" transform="translate(542, 338)"></g></g></g></svg>