<?xml version="1.0" encoding="utf-8" standalone="yes"?>
<!DOCTYPE svg PUBLIC "-//W3C//DTD SVG 1.1//EN" "http://www.w3.org/Graphics/SVG/1.1/DTD/svg11.dtd">
<svg width="672" height="480" viewBox="0 0 672 480" style="fill:none;stroke:none;fill-rule:evenodd;clip-rule:evenodd;stroke-linecap:round;stroke-linejoin:round;stroke-miterlimit:1.5;" version="1.1" xmlns="http://www.w3.org/2000/svg" xmlns:xlink="http://www.w3.org/1999/xlink"><g id="items" style="isolation: isolate"><g id="blend" style="mix-blend-mode: normal"><g id="g-root-id-1_g-1_fr_1hhksfg1hw8c1z-fill" data-item-order="-284534" transform="translate(49.147003173828125, 74)"><g id="id-1_g-1_fr_1hhksfg1hw8c1z-fill" stroke="none" fill="#e7fae4"><g><path d="M 81.3297 94L 10 94C 13.2304 85.3682 18.175 77.5282 24.834 70.48C 37.9978 56.7911 56.1269 48.3289 79.2213 45.0933L 79.2213 19.3333C 79.2213 16.5956 80.0296 14.3556 81.6462 12.6133C 83.2628 10.8711 85.3413 10 87.8817 10L 112.477 10C 114.787 10 116.75 10.8711 118.366 12.6133C 119.983 14.3556 120.791 16.5956 120.791 19.3333L 120.791 45.84C 136.726 48.5778 150.006 53.8044 160.629 61.52C 171.484 68.9867 179.682 77.5733 185.225 87.28C 186.601 89.5341 187.819 91.7741 188.881 94L 114.414 94C 109.7038 92.5067 104.4394 91.76 98.6207 91.76C 92.0872 91.76 86.3235 92.5067 81.3297 94Z"></path></g></g></g><g id="g-root-id-2_g-2_fr_1d1rab01hw8cu9-fill" data-item-order="-284530" transform="translate(44.582000732421875, 158)"><g id="id-2_g-2_fr_1d1rab01hw8cu9-fill" stroke="none" fill="#e7fbf9"><g><path d="M 181.071 94L 38.3818 94C 30.2346 88.4237 23.7762 81.8282 19.0068 74.2133C 13.0023 64.0089 10 51.44 10 36.5067C 10 26.9682 11.5218 18.1327 14.5654 10L 85.8951 10C 82.2393 11.0932 78.9962 12.5865 76.1656 14.48C 69.4682 18.96 66.1194 25.8044 66.1194 35.0133C 66.1194 40.9867 67.8515 46.0889 71.3157 50.32C 74.7799 54.3022 80.438 57.9111 88.2901 61.1467C 96.1422 64.1333 106.7657 67.4933 120.16 71.2267C 140.484 75.7067 156.996 81.0578 169.698 87.28C 173.861 89.3195 177.652 91.5595 181.071 94ZM 193.446 10L 118.979 10C 122.869 11.2331 126.38 12.9753 129.514 15.2267C 136.442 19.9555 140.484 25.5555 141.638 32.0267C 142.017 34.1465 143.848 36.5011 145.695 37.4967C 147.543 38.4922 150.299 38.7467 152.377 38.7467L 191.522 38.7467C 193.601 38.7467 195.333 38 196.718 36.5067C 198.104 34.7644 198.797 32.8978 198.797 30.9066C 198.621 24.0822 196.837 17.1133 193.446 10Z"></path></g></g></g><g id="g-root-id-3_g-3_fr_1d1rab01hw8cub-fill" data-item-order="-284526" transform="translate(38, 242)"><g id="id-3_g-3_fr_1d1rab01hw8cub-fill" stroke="none" fill="#ffffdb"><g><path d="M 187.653 10C 194.665 15.0054 200.112 20.8542 203.993 27.5467C 209.998 37.2533 213 49.5733 213 64.5067C 213 75.2306 211.152 85.0617 207.456 94L 132.652 94C 137.743 92.6996 142.009 90.8329 145.449 88.4C 153.07 83.1733 156.881 76.08 156.881 67.12C 156.881 60.6489 154.802 55.4222 150.645 51.44C 146.719 47.4578 140.368 43.8489 131.592 40.6133C 123.047 37.3778 111.5 33.8933 96.9505 30.16C 79.6297 26.1778 64.9647 21.0756 52.9556 14.8533C 50.1321 13.3319 47.4681 11.7141 44.9637 10L 187.653 10ZM 15.1931 94L 93.0819 94C 91.5238 93.5654 90.0421 93.0677 88.6365 92.5067C 82.401 89.7689 77.4357 86.4089 73.7406 82.4267C 70.2765 78.4445 67.7361 74.3378 66.1195 70.1067C 65.2343 67.7899 64.0216 66.487 62.405 65.2426C 60.7884 63.7492 57.69 63.0133 54.6877 63.0133L 17.6212 63.0133C 15.5427 63.0133 13.6951 63.8844 12.0785 65.6267C 10.6928 67.12 10 68.8622 10 70.8533C 10.3286 78.8208 12.0596 86.5363 15.1931 94Z"></path></g></g></g><g id="g-root-id-4_g-4_fr_1464a241hw8dn1-fill" data-item-order="-284522" transform="translate(43.1929931640625, 326)"><g id="id-4_g-4_fr_1464a241hw8dn1-fill" stroke="none" fill="#fff7de"><g><path d="M 87.6004 91.3867C 89.217 93.1289 91.2955 94 93.8359 94L 118.431 94C 120.741 94 122.704 93.1289 124.321 91.3867C 125.937 89.6444 126.745 87.4044 126.745 84.6667L 126.745 58.9067C 143.143 56.6667 157.346 52.1867 169.355 45.4667C 181.595 38.7467 191.063 29.9111 197.761 18.96C 199.483 16.0803 200.983 13.0936 202.263 10L 127.459 10C 121.612 11.4933 114.677 12.24 106.6533 12.24C 99.4978 12.24 93.2429 11.4933 87.8888 10L 10 10C 11.2713 13.0281 12.7735 16.0148 14.5065 18.96C 20.5111 29.1645 29.4025 37.8755 41.1806 45.0933C 52.9588 52.0622 67.6237 56.6667 85.1755 58.9067L 85.1755 84.6667C 85.1755 87.4044 85.9838 89.6444 87.6004 91.3867Z"></path></g></g></g><g id="g-root-id-1_text-1_fr_1464a241hw8dn3-fill" data-item-order="-284513" transform="translate(338, 62)"></g><g id="g-root-id-2_text-2_fr_18lxs6k1hw8dmp-fill" data-item-order="-284497" transform="translate(338, 158)"></g><g id="g-root-id-3_text-3_fr_zqarxo1hw8eff-fill" data-item-order="-284483" transform="translate(338, 254)"></g><g id="g-root-id-4_text-4_fr_zqarxo1hw8efh-fill" data-item-order="-284469" transform="translate(338, 350)"></g><g id="g-root-tx_maximizi_vb3qwc1hw8c1z-fill" data-item-order="0" transform="translate(146, -10)"><g id="tx_maximizi_vb3qwc1hw8c1z-fill" stroke="none" fill="#0d0d0d"><g><text style="font: bold 20px &quot;Poppins 300&quot;, sans-serif; white-space: pre;" font-weight="bold" font-size="20px" font-family="'Poppins 300', sans-serif"><tspan x="17.43" y="36" dominant-baseline="ideographic">Maximizing Tax Deductions for LLCs</tspan></text></g></g></g><g id="g-root-user_hzn8j01hw8dmy-fill" data-item-order="0" transform="translate(278, 68)"></g><g id="g-root-tx_homeoffi_qva8rw1hw8cu8-fill" data-item-order="0" transform="translate(350, 62)"><g id="tx_homeoffi_qva8rw1hw8cu8-fill" stroke="none" fill="#80c476"><g><text style="font: bold 15px &quot;Open Sans Regular&quot;, sans-serif; white-space: pre;" font-weight="bold" font-size="15px" font-family="'Open Sans Regular', sans-serif"><tspan x="12" y="32" dominant-baseline="ideographic">Home Office Deduction</tspan></text></g></g></g><g id="g-root-tx_requirem_hzn8j01hw8dmx-fill" data-item-order="0" transform="translate(350, 98)"><g id="tx_requirem_hzn8j01hw8dmx-fill" stroke="none" fill="#0d0d0d"><g><text style="font: 15px &quot;Open Sans 300&quot;, sans-serif; white-space: pre;" font-size="15px" font-family="'Open Sans 300', sans-serif"><tspan x="12" y="29" dominant-baseline="ideographic">Requirements for deducting home </tspan><tspan x="12" y="47" dominant-baseline="ideographic">office expenses</tspan></text></g></g></g><g id="g-root-tx_utilitie_1448uss1hw9ssr-fill" data-item-order="0" transform="translate(350, 158)"><g id="tx_utilitie_1448uss1hw9ssr-fill" stroke="none" fill="#4db6ac"><g><text style="font: bold 15px &quot;Open Sans Regular&quot;, sans-serif; white-space: pre;" font-weight="bold" font-size="15px" font-family="'Open Sans Regular', sans-serif"><tspan x="12" y="32" dominant-baseline="ideographic">Utilities</tspan></text></g></g></g><g id="g-root-tx_deductio_zp1trg1hw9qf8-fill" data-item-order="0" transform="translate(350, 194)"><g id="tx_deductio_zp1trg1hw9qf8-fill" stroke="none" fill="#0d0d0d"><g><text style="font: 15px &quot;Open Sans 300&quot;, sans-serif; white-space: pre;" font-size="15px" font-family="'Open Sans 300', sans-serif"><tspan x="12" y="29" dominant-baseline="ideographic">Deduction options for utility </tspan><tspan x="12" y="47" dominant-baseline="ideographic">expenses</tspan></text></g></g></g><g id="g-root-moni_hvwh641hvoq2w-fill" data-item-order="0" transform="translate(278, 260)"></g><g id="g-root-tx_internet_v7czjg1hvoohy-fill" data-item-order="0" transform="translate(350, 254)"><g id="tx_internet_v7czjg1hvoohy-fill" stroke="none" fill="#cccd35"><g><text style="font: bold 15px &quot;Open Sans Regular&quot;, sans-serif; white-space: pre;" font-weight="bold" font-size="15px" font-family="'Open Sans Regular', sans-serif"><tspan x="12" y="32" dominant-baseline="ideographic">Internet Expenses</tspan></text></g></g></g><g id="g-root-tx_internet_mbpzak1hvopan-fill" data-item-order="0" transform="translate(350, 290)"><g id="tx_internet_mbpzak1hvopan-fill" stroke="none" fill="#0d0d0d"><g><text style="font: 15px &quot;Open Sans 300&quot;, sans-serif; white-space: pre;" font-size="15px" font-family="'Open Sans 300', sans-serif"><tspan x="12" y="29" dominant-baseline="ideographic">Internet deduction guidelines for </tspan><tspan x="12" y="47" dominant-baseline="ideographic">LLCs</tspan></text></g></g></g><g id="g-root-tx_phoneexp_8x53ho1hvq3ux-fill" data-item-order="0" transform="translate(350, 350)"><g id="tx_phoneexp_8x53ho1hvq3ux-fill" stroke="none" fill="#ffc107"><g><text style="font: bold 15px &quot;Open Sans Regular&quot;, sans-serif; white-space: pre;" font-weight="bold" font-size="15px" font-family="'Open Sans Regular', sans-serif"><tspan x="12" y="32" dominant-baseline="ideographic">Phone Expenses</tspan></text></g></g></g><g id="g-root-tx_rulesfor_4hbld81hvq4n6-fill" data-item-order="0" transform="translate(350, 386)"><g id="tx_rulesfor_4hbld81hvq4n6-fill" stroke="none" fill="#0d0d0d"><g><text style="font: 15px &quot;Open Sans 300&quot;, sans-serif; white-space: pre;" font-size="15px" font-family="'Open Sans 300', sans-serif"><tspan x="12" y="29" dominant-baseline="ideographic">Rules for deducting phone-related </tspan><tspan x="12" y="47" dominant-baseline="ideographic">costs</tspan></text></g></g></g><g id="g-root-id-1_g-1_fr_1hhksfg1hw8c1z-stroke" data-item-order="-284534" transform="translate(49.147003173828125, 74)"><g id="id-1_g-1_fr_1hhksfg1hw8c1z-stroke" fill="none" stroke-linecap="round" stroke-linejoin="round" stroke-miterlimit="4" stroke="#80c476" stroke-width="2"><g><path d="M 81.3297 94L 10 94C 13.2303 85.3682 18.175 77.5282 24.834 70.48C 37.9978 56.7911 56.1269 48.3289 79.2213 45.0933L 79.2213 19.3333C 79.2213 16.5956 80.0296 14.3556 81.6462 12.6133C 83.2628 10.8711 85.3413 10 87.8817 10L 112.4773 10C 114.7867 10 116.7498 10.8711 118.3664 12.6133C 119.983 14.3556 120.7913 16.5956 120.7913 19.3333L 120.7913 45.84C 136.7264 48.5778 150.0058 53.8044 160.6292 61.52C 171.4836 68.9867 179.6821 77.5733 185.2248 87.28C 186.6008 89.5341 187.8195 91.7741 188.8807 94L 114.414 94C 109.7038 92.5067 104.4394 91.76 98.6207 91.76C 92.0872 91.76 86.3235 92.5067 81.3297 94Z"></path></g></g></g><g id="g-root-id-2_g-2_fr_1d1rab01hw8cu9-stroke" data-item-order="-284530" transform="translate(44.582000732421875, 158)"><g id="id-2_g-2_fr_1d1rab01hw8cu9-stroke" fill="none" stroke-linecap="round" stroke-linejoin="round" stroke-miterlimit="4" stroke="#4db6ac" stroke-width="2"><g><path d="M 181.0714 94L 38.3818 94C 30.2346 88.4237 23.7762 81.8282 19.0068 74.2133C 13.0023 64.0089 10 51.44 10 36.5067C 10 26.9682 11.5218 18.1327 14.5654 10L 85.8951 10C 82.2393 11.0932 78.9962 12.5865 76.1656 14.48C 69.4682 18.96 66.1194 25.8044 66.1194 35.0133C 66.1194 40.9867 67.8515 46.0889 71.3157 50.32C 74.7799 54.3022 80.438 57.9111 88.2901 61.1467C 96.1422 64.1333 106.7657 67.4933 120.1604 71.2267C 140.4835 75.7067 156.996 81.0578 169.698 87.28C 173.8613 89.3195 177.6524 91.5595 181.0714 94ZM 193.446 10L 118.9793 10C 122.8687 11.2331 126.3802 12.9753 129.5137 15.2266C 136.442 19.9555 140.4835 25.5555 141.6382 32.0267C 142.0165 34.1465 143.8477 36.5011 145.6953 37.4967C 147.5428 38.4922 150.2986 38.7467 152.3772 38.7467L 191.5222 38.7467C 193.6007 38.7467 195.3328 38 196.7184 36.5067C 198.1041 34.7644 198.7969 32.8978 198.7969 30.9066C 198.621 24.0822 196.8374 17.1133 193.446 10Z"></path></g></g></g><g id="g-root-id-3_g-3_fr_1d1rab01hw8cub-stroke" data-item-order="-284526" transform="translate(38, 242)"><g id="id-3_g-3_fr_1d1rab01hw8cub-stroke" fill="none" stroke-linecap="round" stroke-linejoin="round" stroke-miterlimit="4" stroke="#cccd35" stroke-width="2"><g><path d="M 187.6533 10C 194.6654 15.0054 200.112 20.8542 203.9932 27.5467C 209.9977 37.2533 213 49.5733 213 64.5067C 213 75.2306 211.1519 85.0617 207.4558 94L 132.6519 94C 137.7432 92.6996 142.0089 90.8329 145.4488 88.4C 153.07 83.1733 156.8806 76.08 156.8806 67.12C 156.8806 60.6489 154.8021 55.4222 150.6451 51.44C 146.719 47.4578 140.368 43.8489 131.5922 40.6133C 123.0472 37.3778 111.5 33.8933 96.9505 30.16C 79.6297 26.1778 64.9647 21.0756 52.9556 14.8533C 50.1321 13.3319 47.4681 11.7141 44.9637 10L 187.6533 10ZM 15.1931 94L 93.0819 94C 91.5238 93.5654 90.0421 93.0677 88.6365 92.5067C 82.401 89.7689 77.4357 86.4089 73.7406 82.4267C 70.2765 78.4445 67.7361 74.3378 66.1195 70.1067C 65.2343 67.7899 64.0216 66.487 62.405 65.2426C 60.7884 63.7492 57.69 63.0133 54.6877 63.0133L 17.6212 63.0133C 15.5427 63.0133 13.6951 63.8844 12.0785 65.6267C 10.6928 67.12 10 68.8622 10 70.8533C 10.3286 78.8208 12.0596 86.5363 15.1931 94Z"></path></g></g></g><g id="g-root-id-4_g-4_fr_1464a241hw8dn1-stroke" data-item-order="-284522" transform="translate(43.1929931640625, 326)"><g id="id-4_g-4_fr_1464a241hw8dn1-stroke" fill="none" stroke-linecap="round" stroke-linejoin="round" stroke-miterlimit="4" stroke="#ffc107" stroke-width="2"><g><path d="M 87.6004 91.3867C 89.217 93.1289 91.2955 94 93.8359 94L 118.4315 94C 120.7409 94 122.7039 93.1289 124.3205 91.3867C 125.9372 89.6444 126.7455 87.4044 126.7455 84.6667L 126.7455 58.9067C 143.1425 56.6667 157.3456 52.1867 169.3547 45.4667C 181.5947 38.7467 191.0634 29.9111 197.7608 18.96C 199.4828 16.0803 200.9835 13.0936 202.2627 10L 127.4588 10C 121.6124 11.4933 114.6772 12.24 106.6533 12.24C 99.4978 12.24 93.2429 11.4933 87.8888 10L 10 10C 11.2713 13.0281 12.7735 16.0148 14.5065 18.96C 20.5111 29.1645 29.4025 37.8755 41.1806 45.0933C 52.9588 52.0622 67.6237 56.6667 85.1755 58.9067L 85.1755 84.6667C 85.1755 87.4044 85.9838 89.6444 87.6004 91.3867Z"></path></g></g></g><g id="g-root-id-1_text-1_fr_1464a241hw8dn3-stroke" data-item-order="-284513" transform="translate(338, 62)"><g id="id-1_text-1_fr_1464a241hw8dn3-stroke" fill="none" stroke-linecap="round" stroke-linejoin="round" stroke-miterlimit="4" stroke="#80c476" stroke-width="2"><g><path d="M 10 10L 10 82"></path></g></g></g><g id="g-root-id-2_text-2_fr_18lxs6k1hw8dmp-stroke" data-item-order="-284497" transform="translate(338, 158)"><g id="id-2_text-2_fr_18lxs6k1hw8dmp-stroke" fill="none" stroke-linecap="round" stroke-linejoin="round" stroke-miterlimit="4" stroke="#4db6ac" stroke-width="2"><g><path d="M 10 10L 10 82"></path></g></g></g><g id="g-root-id-3_text-3_fr_zqarxo1hw8eff-stroke" data-item-order="-284483" transform="translate(338, 254)"><g id="id-3_text-3_fr_zqarxo1hw8eff-stroke" fill="none" stroke-linecap="round" stroke-linejoin="round" stroke-miterlimit="4" stroke="#cccd35" stroke-width="2"><g><path d="M 10 10L 10 82"></path></g></g></g><g id="g-root-id-4_text-4_fr_zqarxo1hw8efh-stroke" data-item-order="-284469" transform="translate(338, 350)"><g id="id-4_text-4_fr_zqarxo1hw8efh-stroke" fill="none" stroke-linecap="round" stroke-linejoin="round" stroke-miterlimit="4" stroke="#ffc107" stroke-width="2"><g><path d="M 10 10L 10 82"></path></g></g></g><g id="g-root-tx_maximizi_vb3qwc1hw8c1z-stroke" data-item-order="0" transform="translate(146, -10)"></g><g id="g-root-user_hzn8j01hw8dmy-stroke" data-item-order="0" transform="translate(278, 68)"><g id="user_hzn8j01hw8dmy-stroke" fill="none" stroke-linecap="round" stroke-linejoin="round" stroke-miterlimit="4" stroke="#80c476" stroke-width="2"><g><path d="M 38.200199 56.499802L 21.600121 56.499802L 18.600121 47.899799C 18.40012 47.299801 18.40012 46.699799 18.800121 46.0998C 19.200119 45.499802 19.8001 45.299801 20.400101 45.299801L 31.4002 45.299801C 33.000198 45.299801 34.600201 46.299801 35.200199 47.899799L 38.200199 56.499802ZM 42 41C 45.313801 41 48 38.313801 48 35C 48 31.686399 45.313801 29 42 29C 38.686401 29 36 31.686399 36 35C 36 38.313801 38.686401 41 42 41ZM 50 52C 50 47.581799 46.4184 44 42 44C 40.939201 44 39.926399 44.2066 39 44.5816M 54.508801 56.5C 55.504398 56.5 56.5 55.700001 56.5 54.5L 56.5 29.5C 56.5 28.9 56.101799 28.30002 55.703602 27.900021L 34 11.5L 12.29646 27.900021C 11.898234 28.30002 11.5 28.9 11.5 29.5L 11.5 54.5C 11.5 55.5 12.29646 56.5 13.491159 56.5L 54.508801 56.5Z"></path></g></g></g><g id="g-root-tx_homeoffi_qva8rw1hw8cu8-stroke" data-item-order="0" transform="translate(350, 62)"></g><g id="g-root-tx_requirem_hzn8j01hw8dmx-stroke" data-item-order="0" transform="translate(350, 98)"></g><g id="g-root-tx_utilitie_1448uss1hw9ssr-stroke" data-item-order="0" transform="translate(350, 158)"></g><g id="g-root-tx_deductio_zp1trg1hw9qf8-stroke" data-item-order="0" transform="translate(350, 194)"></g><g id="g-root-moni_hvwh641hvoq2w-stroke" data-item-order="0" transform="translate(278, 260)"><g id="moni_hvwh641hvoq2w-stroke" fill="none" stroke-linecap="round" stroke-linejoin="round" stroke-miterlimit="4" stroke="#cccd35" stroke-width="2"><g><path d="M 11 43.026001L 53 43.026001M 53 43.026001L 53 47.026001C 53 48.130569 52.104568 49.026001 51 49.026001L 13 49.026001C 11.895431 49.026001 11 48.130569 11 47.026001L 11 21.026001C 11 19.921431 11.895431 19.026001 13 19.026001L 27 19.026001M 26 57.026001C 27.811644 54.738476 28.860811 51.940697 29 49.026001M 38 57.026001C 36.188354 54.738476 35.139191 51.940697 35 49.026001M 23 57.026001L 41 57.026001M 55 10.974L 35 10.974C 33.895432 10.974 33 11.869431 33 12.974L 33 38.973999L 37 35.922001L 41 39.026001L 45 35.973999L 49 38.973999L 53 35.973999L 57 38.973999L 57 12.974C 57 11.869431 56.104568 10.974 55 10.974ZM 47.330002 18.112L 43.900002 18.112C 42.81456 18.111523 41.881512 18.881477 41.675968 19.947277C 41.470425 21.013079 42.050228 22.074791 43.057999 22.478001L 46.540001 23.878C 47.550205 24.279385 48.132561 25.342087 47.92728 26.409554C 47.721996 27.477022 46.787025 28.247929 45.699997 28.245998L 42.268002 28.246M 44.799999 18.112L 44.799999 16.054001M 44.799999 30.294001L 44.799999 28.238001"></path></g></g></g><g id="g-root-tx_internet_v7czjg1hvoohy-stroke" data-item-order="0" transform="translate(350, 254)"></g><g id="g-root-tx_internet_mbpzak1hvopan-stroke" data-item-order="0" transform="translate(350, 290)"></g><g id="g-root-tx_phoneexp_8x53ho1hvq3ux-stroke" data-item-order="0" transform="translate(350, 350)"></g><g id="g-root-tx_rulesfor_4hbld81hvq4n6-stroke" data-item-order="0" transform="translate(350, 386)"></g></g></g></svg>