<?xml version="1.0" encoding="utf-8" standalone="yes"?>
<!DOCTYPE svg PUBLIC "-//W3C//DTD SVG 1.1//EN" "http://www.w3.org/Graphics/SVG/1.1/DTD/svg11.dtd">
<svg width="540" height="420" viewBox="0 0 540 420" style="fill:none;stroke:none;fill-rule:evenodd;clip-rule:evenodd;stroke-linecap:round;stroke-linejoin:round;stroke-miterlimit:1.5;" version="1.1" xmlns="http://www.w3.org/2000/svg" xmlns:xlink="http://www.w3.org/1999/xlink"><g id="items" style="isolation: isolate"><g id="blend" style="mix-blend-mode: normal"><g id="g-root-sy_0_cu_cu_1hhk9htehpszv-fill" data-item-order="-78834" transform="translate(188, 105)"><g id="sy_0_cu_cu_1hhk9htehpszv-fill" stroke="none" fill="#ffffff"><g><path d="M 82 154C 121.765 154 154 121.765 154 82C 154 42.2355 121.765 10 82 10C 42.2355 10 10 42.2355 10 82C 10 96.1129 14.0605 109.2775 21.0769 120.389C 25.088 118.846 29.4452 118 34 118C 53.5486 118 69.4579 133.581 69.9864 153.002C 73.8932 153.658 77.9067 154 82 154Z"></path></g></g></g><g id="g-root-sy_2_cu_cu_1d1qrddehpts6-fill" data-item-order="-78830" transform="translate(176, 213)"><g id="sy_2_cu_cu_1d1qrddehpts6-fill" stroke="none" fill="#ffffdb"><g><path d="M 82 46C 82 65.8823 65.8823 82 46 82C 26.1177 82 10 65.8823 10 46C 10 26.1177 26.1177 10 46 10C 65.8823 10 82 26.1177 82 46Z"></path></g></g></g><g id="g-root-sy_3_cu_cu_1d1qrddehpts5-fill" data-item-order="-78826" transform="translate(434, 147)"><g id="sy_3_cu_cu_1d1qrddehpts5-fill" stroke="none" fill="#e7fbf9"><g><path d="M 70 40C 70 56.5685 56.5685 70 40 70C 23.4315 70 10 56.5685 10 40C 10 23.4315 23.4315 10 40 10C 56.5685 10 70 23.4315 70 40Z"></path></g></g></g><g id="g-root-sy_1_cu_cu_1d1qrddehpts7-fill" data-item-order="-78822" transform="translate(56, 117)"><g id="sy_1_cu_cu_1d1qrddehpts7-fill" stroke="none" fill="#e7fae4"><g><path d="M 58 34C 58 47.2548 47.2548 58 34 58C 20.7452 58 10 47.2548 10 34C 10 20.7452 20.7452 10 34 10C 47.2548 10 58 20.7452 58 34Z"></path></g></g></g><g id="g-root-sy_-1_cu_18mjqc1ehpreo-fill" data-item-order="-78817" transform="translate(56, 105.26025390625)"></g><g id="g-root-tx_understa_18mjqc1ehprep-fill" data-item-order="0" transform="translate(86, 33)"><g id="tx_understa_18mjqc1ehprep-fill" stroke="none" fill="#0d0d0d"><g><text style="font: bold 20px &quot;Poppins 300&quot;, sans-serif; white-space: pre;" font-weight="bold" font-size="20px" font-family="'Poppins 300', sans-serif"><tspan x="13.3" y="36" dominant-baseline="ideographic">Understanding LLC Tax Obligations</tspan></text></g></g></g><g id="g-root-ic_prof_1hckgsxehsl4w-fill" data-item-order="0" transform="translate(65, 126)"></g><g id="g-root-ic_docu_1463r4hehu0au-fill" data-item-order="0" transform="translate(224, 141)"></g><g id="g-root-ic_chec_qs5cepehr5zj-fill" data-item-order="0" transform="translate(446, 159)"></g><g id="g-root-ic_3_1qeg7wxehsl55-fill" data-item-order="0" transform="translate(191, 228)"></g><g id="g-root-tx_singleme_zmjehdehvggf-fill" data-item-order="0" transform="translate(-10, 297)"><g id="tx_singleme_zmjehdehvggf-fill" stroke="none" fill="#80c476"><g><text style="font: bold 15px &quot;Open Sans Regular&quot;, sans-serif; white-space: pre;" font-weight="bold" font-size="15px" font-family="'Open Sans Regular', sans-serif"><tspan x="16.96" y="32" dominant-baseline="ideographic">Single-Member LLCs</tspan></text></g></g></g><g id="g-root-tx_multimem_v7cdg1ehve2w-fill" data-item-order="0" transform="translate(188, 309)"><g id="tx_multimem_v7cdg1ehve2w-fill" stroke="none" fill="#cccd35"><g><text style="font: bold 15px &quot;Open Sans Regular&quot;, sans-serif; white-space: pre;" font-weight="bold" font-size="15px" font-family="'Open Sans Regular', sans-serif"><tspan x="13.94" y="32" dominant-baseline="ideographic">Multi-Member LLCs</tspan></text></g></g></g><g id="g-root-tx_corporat_qrivblehvev5-fill" data-item-order="0" transform="translate(386, 297)"><g id="tx_corporat_qrivblehvev5-fill" stroke="none" fill="#4db6ac"><g><text style="font: bold 15px &quot;Open Sans Regular&quot;, sans-serif; white-space: pre;" font-weight="bold" font-size="15px" font-family="'Open Sans Regular', sans-serif"><tspan x="15.61" y="32" dominant-baseline="ideographic">Corporation LLCs</tspan></text></g></g></g><g id="g-root-tx_disregar_mfg7ptehptsc-fill" data-item-order="0" transform="translate(-4, 333)"><g id="tx_disregar_mfg7ptehptsc-fill" stroke="none" fill="#0d0d0d"><g><text style="font: 15px &quot;Open Sans 300&quot;, sans-serif; white-space: pre;" font-size="15px" font-family="'Open Sans 300', sans-serif"><tspan x="12.17" y="32" dominant-baseline="ideographic">Disregarded entities </tspan><tspan x="31.85" y="50" dominant-baseline="ideographic">unless elected </tspan><tspan x="46.95" y="68" dominant-baseline="ideographic">otherwise</tspan></text></g></g></g><g id="g-root-tx_mustfile_mfg7ptehptsd-fill" data-item-order="0" transform="translate(188, 345)"><g id="tx_mustfile_mfg7ptehptsd-fill" stroke="none" fill="#0d0d0d"><g><text style="font: 15px &quot;Open Sans 300&quot;, sans-serif; white-space: pre;" font-size="15px" font-family="'Open Sans 300', sans-serif"><tspan x="12.7" y="32" dominant-baseline="ideographic">Must file Form 1065 </tspan><tspan x="34.54" y="50" dominant-baseline="ideographic">under certain </tspan><tspan x="44.98" y="68" dominant-baseline="ideographic">conditions</tspan></text></g></g></g><g id="g-root-tx_required_vb37ypehpszn-fill" data-item-order="0" transform="translate(374, 333)"><g id="tx_required_vb37ypehpszn-fill" stroke="none" fill="#0d0d0d"><g><text style="font: 15px &quot;Open Sans 300&quot;, sans-serif; white-space: pre;" font-size="15px" font-family="'Open Sans 300', sans-serif"><tspan x="15.16" y="29" dominant-baseline="ideographic">Required to file Form </tspan><tspan x="36.5" y="47" dominant-baseline="ideographic">1120 or 1120S</tspan></text></g></g></g><g id="g-root-sy_0_cu_cu_1hhk9htehpszv-stroke" data-item-order="-78834" transform="translate(188, 105)"><g id="sy_0_cu_cu_1hhk9htehpszv-stroke" fill="none" stroke-linecap="round" stroke-linejoin="round" stroke-miterlimit="4" stroke="#767ae5" stroke-width="2"><g><path d="M 82 154C 121.7645 154 154 121.7645 154 82C 154 42.2355 121.7645 10 82 10C 42.2355 10 10 42.2355 10 82C 10 96.1129 14.0605 109.2775 21.0769 120.3891C 25.088 118.8459 29.4452 118 34 118C 53.5486 118 69.4579 133.5813 69.9864 153.0022C 73.8932 153.6584 77.9067 154 82 154Z"></path></g></g></g><g id="g-root-sy_2_cu_cu_1d1qrddehpts6-stroke" data-item-order="-78830" transform="translate(176, 213)"><g id="sy_2_cu_cu_1d1qrddehpts6-stroke" fill="none" stroke-linecap="round" stroke-linejoin="round" stroke-miterlimit="4" stroke="#cccd35" stroke-width="2"><g><path d="M 82 46C 82 65.8823 65.8823 82 46 82C 26.1177 82 10 65.8823 10 46C 10 26.1177 26.1177 10 46 10C 65.8823 10 82 26.1177 82 46Z"></path></g></g></g><g id="g-root-sy_3_cu_cu_1d1qrddehpts5-stroke" data-item-order="-78826" transform="translate(434, 147)"><g id="sy_3_cu_cu_1d1qrddehpts5-stroke" fill="none" stroke-linecap="round" stroke-linejoin="round" stroke-miterlimit="4" stroke="#4db6ac" stroke-width="2"><g><path d="M 70 40C 70 56.5685 56.5685 70 40 70C 23.4315 70 10 56.5685 10 40C 10 23.4315 23.4315 10 40 10C 56.5685 10 70 23.4315 70 40Z"></path></g></g></g><g id="g-root-sy_1_cu_cu_1d1qrddehpts7-stroke" data-item-order="-78822" transform="translate(56, 117)"><g id="sy_1_cu_cu_1d1qrddehpts7-stroke" fill="none" stroke-linecap="round" stroke-linejoin="round" stroke-miterlimit="4" stroke="#80c476" stroke-width="2"><g><path d="M 58 34C 58 47.2548 47.2548 58 34 58C 20.7452 58 10 47.2548 10 34C 10 20.7452 20.7452 10 34 10C 47.2548 10 58 20.7452 58 34Z"></path></g></g></g><g id="g-root-sy_-1_cu_18mjqc1ehpreo-stroke" data-item-order="-78817" transform="translate(56, 105.26025390625)"><g id="sy_-1_cu_18mjqc1ehpreo-stroke" fill="none" stroke-linecap="round" stroke-linejoin="round" stroke-miterlimit="4" stroke="#a3a3a3" stroke-width="2" stroke-dasharray="5.0, 7.0"><g><path d="M 144.3938 122.5313C 106.9361 114.0615 82 98.9595 82 81.7395C 82 63.1262 111.1351 46.9874 153.7264 39.0244M 128.7609 147.1723C 58.6613 135.7781 10 110.7645 10 81.7395C 10 75.7665 12.0608 69.9633 15.9452 64.4137M 194.39 129.2135C 200.7883 129.56 207.3365 129.7395 214 129.7395C 286.9016 129.7395 346 108.2492 346 81.7395C 346 63.0996 316.7815 46.9412 274.0908 38.9903M 204.1285 153.6567C 207.3994 153.7117 210.6905 153.7395 214 153.7395C 298.7492 153.7395 371.4281 135.4998 402.2421 109.5359M 57.841 35.4084C 91.7475 21.1874 140.9628 11.6636 196.5255 10M 232.4007 10.0285C 309.1626 12.4506 373.6831 29.8794 402.2421 53.9432"></path></g></g></g><g id="g-root-tx_understa_18mjqc1ehprep-stroke" data-item-order="0" transform="translate(86, 33)"></g><g id="g-root-ic_prof_1hckgsxehsl4w-stroke" data-item-order="0" transform="translate(65, 126)"><g id="ic_prof_1hckgsxehsl4w-stroke" fill="none" stroke-linecap="round" stroke-linejoin="round" stroke-miterlimit="4" stroke="#80c476" stroke-width="2"><g><path d="M 14.2375 15.9375C 14.2375 18.871513 16.615988 21.25 19.549999 21.25C 22.484013 21.25 24.862501 18.871513 24.862501 15.9375C 24.862501 13.003488 22.484013 10.625 19.549999 10.625C 16.615988 10.625 14.2375 13.003488 14.2375 15.9375M 24.199999 33.125L 10.8 33.1325L 10.8 31.875C 10.798928 28.512646 12.724626 25.447088 15.754113 23.988445C 18.7836 22.529804 22.380941 22.936121 25.008751 25.033751M 18.03875 18.741249C 18.41625 18.294802 18.97176 18.038013 19.556412 18.039701C 20.141066 18.041388 20.695084 18.301378 21.07 18.75M 19.553751 28.127501L 19.553751 33.1325M 15.52625 24.10125L 19.553751 28.127501M 23.5825 24.10125L 19.553751 28.127501M 27.949999 25.625L 37.950001 25.625C 37.950001 25.625 39.200001 25.625 39.200001 26.875L 39.200001 38.125C 39.200001 38.125 39.200001 39.375 37.950001 39.375L 27.949999 39.375C 27.949999 39.375 26.699999 39.375 26.699999 38.125L 26.699999 26.875C 26.699999 26.875 26.699999 25.625 27.949999 25.625M 29.824999 29.375L 36.075001 29.375M 29.824999 32.5L 36.075001 32.5M 29.824999 35.625L 32.325001 35.625"></path></g></g></g><g id="g-root-ic_docu_1463r4hehu0au-stroke" data-item-order="0" transform="translate(224, 141)"><g id="ic_docu_1463r4hehu0au-stroke" fill="none" stroke-linecap="round" stroke-linejoin="round" stroke-miterlimit="4" stroke="#777be7" stroke-width="2"><g><path d="M 34 64L 58.75 64M 34 52L 34 37M 31 37L 37 37M 43 52L 43 40C 43 38.343143 44.343143 37 46 37C 47.656857 37 49 38.343143 49 40L 49 52M 43 46L 49 46M 55 37L 61 52M 61 37L 55 52M 71.5 80.5C 73.156853 80.5 74.5 79.156853 74.5 77.5L 74.5 29.424999C 74.5 19.525295 66.474701 11.5 56.574997 11.5L 20.5 11.5C 18.843145 11.5 17.5 12.843145 17.5 14.5L 17.5 77.5C 17.5 79.156853 18.843145 80.5 20.5 80.5ZM 59.5 11.74L 59.5 23.5C 59.5 25.156855 60.843147 26.5 62.5 26.5L 74.260002 26.5"></path></g></g></g><g id="g-root-ic_chec_qs5cepehr5zj-stroke" data-item-order="0" transform="translate(446, 159)"><g id="ic_chec_qs5cepehr5zj-stroke" fill="none" stroke-linecap="round" stroke-linejoin="round" stroke-miterlimit="4" stroke="#4bb2a8" stroke-width="2"><g><path d="M 27.25 36.25C 27.250002 41.220566 31.279438 45.25 36.25 45.25C 41.220566 45.25 45.25 41.220566 45.25 36.25C 45.25 31.279438 41.220566 27.250002 36.25 27.250002C 31.279438 27.250002 27.250002 31.279438 27.250002 36.25ZM 10 10M 40.261002 33.633999L 35.9035 39.443501C 35.707386 39.70401 35.408134 39.866913 35.082893 39.890205C 34.757648 39.913498 34.438232 39.794907 34.207001 39.564999L 31.956999 37.314999M 21.25 45.25L 10.75 45.25L 10.75 24.25C 10.75 23.421572 11.421573 22.75 12.25 22.75L 19.75 22.75C 20.578426 22.75 21.25 23.421572 21.25 24.25ZM 19.75 22.75L 19.75 16.75L 32.200001 11.218C 32.431561 11.116938 32.698444 11.139256 32.910004 11.277374C 33.121563 11.415492 33.249367 11.650846 33.25 11.9035L 33.25 24.25M 18.25 45.25L 18.25 41.5C 18.25 41.085785 17.914213 40.75 17.5 40.75L 14.5 40.75C 14.085787 40.75 13.75 41.085785 13.75 41.5L 13.75 45.25M 10.75 27.25L 16.75 27.25M 28.75 18.25L 33.25 18.25M 25.75 21.25L 33.25 21.25M 10.75 30.25L 13.75 30.25M 22.75 15.4165L 22.75 10.75M 21.25 45.25L 27.25 45.25"></path></g></g></g><g id="g-root-ic_3_1qeg7wxehsl55-stroke" data-item-order="0" transform="translate(191, 228)"><g id="ic_3_1qeg7wxehsl55-stroke" fill="none" stroke-linecap="round" stroke-linejoin="round" stroke-miterlimit="4" stroke="#dbdc38" stroke-width="2"><g><path d="M 31 30.125L 31 34.5M 31 34.5L 34.9375 38.4375M 31 34.5L 27.0625 38.4375M 27.0625 14.8125C 27.0625 16.987122 28.825378 18.75 31 18.75C 33.174622 18.75 34.9375 16.987122 34.9375 14.8125C 34.9375 12.637879 33.174622 10.875 31 10.875C 28.825378 10.875 27.0625 12.637879 27.0625 14.8125ZM 38.875 26.625C 37.957062 23.025206 34.714989 20.506109 31 20.506109C 27.285013 20.506109 24.04294 23.025206 23.125 26.625ZM 14.8125 39.3125C 14.8125 41.487122 16.575378 43.25 18.75 43.25C 20.924622 43.25 22.6875 41.487122 22.6875 39.3125C 22.6875 37.137878 20.924622 35.375 18.75 35.375C 16.575378 35.375 14.8125 37.137878 14.8125 39.3125ZM 26.625 51.125C 25.70706 47.525208 22.464989 45.006111 18.75 45.006111C 15.035012 45.006111 11.79294 47.525208 10.875 51.125ZM 39.3125 39.3125C 39.3125 41.487122 41.075378 43.25 43.25 43.25C 45.424622 43.25 47.1875 41.487122 47.1875 39.3125C 47.1875 37.137878 45.424622 35.375 43.25 35.375C 41.075378 35.375 39.3125 37.137878 39.3125 39.3125ZM 51.125 51.125C 50.207062 47.525208 46.964989 45.006111 43.25 45.006111C 39.535011 45.006111 36.292942 47.525208 35.375 51.125Z"></path></g></g></g><g id="g-root-tx_singleme_zmjehdehvggf-stroke" data-item-order="0" transform="translate(-10, 297)"></g><g id="g-root-tx_multimem_v7cdg1ehve2w-stroke" data-item-order="0" transform="translate(188, 309)"></g><g id="g-root-tx_corporat_qrivblehvev5-stroke" data-item-order="0" transform="translate(386, 297)"></g><g id="g-root-tx_disregar_mfg7ptehptsc-stroke" data-item-order="0" transform="translate(-4, 333)"></g><g id="g-root-tx_mustfile_mfg7ptehptsd-stroke" data-item-order="0" transform="translate(188, 345)"></g><g id="g-root-tx_required_vb37ypehpszn-stroke" data-item-order="0" transform="translate(374, 333)"></g></g></g></svg>