<?xml version="1.0" encoding="utf-8" standalone="yes"?>
<!DOCTYPE svg PUBLIC "-//W3C//DTD SVG 1.1//EN" "http://www.w3.org/Graphics/SVG/1.1/DTD/svg11.dtd">
<svg width="924" height="657" viewBox="0 0 924 657" style="fill:none;stroke:none;fill-rule:evenodd;clip-rule:evenodd;stroke-linecap:round;stroke-linejoin:round;stroke-miterlimit:1.5;" version="1.1" xmlns="http://www.w3.org/2000/svg" xmlns:xlink="http://www.w3.org/1999/xlink"><g id="items" style="isolation: isolate"><g id="blend" style="mix-blend-mode: normal"><g id="g-root-sy_0_cu_1hegocy1wb3ls7-fill" data-item-order="-217364" transform="translate(235.00704956054688, 180.1943359375)"><g id="sy_0_cu_1hegocy1wb3ls7-fill" stroke="none" fill="#ffffff"><g><path d="M 147.40803 14.4789C 142.49003 20.1896 136.99603 24.0555 136.99603 24.0555C 136.99603 24.0555 133.70803 21.742 129.94203 18.0507C 122.74803 20.0888 118.13803 22.4824 116.92203 25.1948C 112.27203 35.5648 148.80203 43.0948 219.75203 45.7848C 260.67203 47.3348 297.29203 51.0548 299.18203 59.3448C 301.18203 68.1448 259.26203 72.5051 213.52203 73.8051C 175.96803 74.8724 148.07803 77.6386 128.03703 81.537C 121.62003 94.5157 106.99603 104.8055 106.99603 104.8055C 106.99603 104.8055 100.22303 100.0399 93.87313 92.9044C 88.32713 96.382 85.46903 100.1438 84.80213 104.0348C 82.27723 118.765 98.75223 136.465 212.42203 141.805C 269.00203 144.463 319.17203 153.225 321.62203 165.015C 326.17203 178.225 286.75203 189.018 213.52203 191.865C 154.44203 194.162 109.10813 199.806 76.40253 208.325C 79.32693 213.573 80.99493 219.629 80.99493 226.079L 80.99603 226.079C 80.99603 252.618 44.99603 277.806 44.99603 277.806C 44.99603 277.806 23.75763 262.946 13.90663 244.028C 12.33453 246.98 11.26983 250.037 10.70213 253.195C 2.50293 298.805 65.99603 326.805 207.47203 339.905C 284.96103 347.08 359.15203 362.805 366.25203 393.975C 371.92103 418.867 345.23603 438.904 296.99603 451.755L 440.09603 451.755C 456.26703 433.863 462.99903 413.649 458.75303 391.945C 456.24103 379.109 450.79503 367.395 441.71203 356.861C 429.70303 371.582 414.99603 381.805 414.99603 381.805C 414.99603 381.805 372.99603 352.611 372.99603 321.849L 372.99703 321.849C 372.99703 320.352 373.07503 318.872 373.22803 317.415C 334.70603 305.278 281.34503 297.159 209.20203 293.395C 130.05203 289.265 77.02913 274.525 80.11213 255.165C 83.19513 235.805 125.19203 223.305 212.42203 217.785C 333.48203 210.124 377.89403 191.865 373.51203 164.995C 372.55403 159.116 368.91803 153.582 361.86603 148.566C 354.41003 156.572 346.99603 161.805 346.99603 161.805C 346.99603 161.805 329.11703 149.183 320.96403 133.158C 296.62803 127.851 262.62903 124.175 216.47203 122.715C 145.27303 120.463 122.18203 113.205 125.19203 104.0248C 128.18203 95.2148 168.59203 88.7448 218.00203 86.8248C 300.06203 83.6348 338.35203 72.7448 333.48203 59.3448C 332.50803 56.6646 330.06303 54.2077 326.07003 51.9754C 321.54503 56.8545 316.99603 60.0555 316.99603 60.0555C 316.99603 60.0555 307.31503 53.2438 302.15303 44.3476C 283.59003 40.6331 256.55603 38.0803 220.14203 36.7048C 178.50203 35.1348 149.36203 32.0148 151.49203 25.1948C 153.51703 18.7313 184.55403 10.0441 220.84503 10C 192.73903 10.0187 166.52103 11.5905 147.40803 14.4789Z"></path></g></g></g><g id="g-root-sy_1_cu_1hegocy1wb3ls8-fill" data-item-order="-217360" transform="translate(598.003173828125, 450)"><g id="sy_1_cu_1hegocy1wb3ls8-fill" stroke="none" fill="#efefff"><g><path d="M 10.0012 52.0439C 10.0012 28.8235 28.7764 10 51.9373 10L 52.0627 10C 75.2236 10 93.9988 28.8235 93.9988 52.0439L 94 52.0439C 94 82.8058 52 112 52 112C 52 112 10 82.8058 10 52.0439L 10.0012 52.0439Z"></path></g></g></g><g id="g-root-sy_2_cu_1cz9nbm1wb3jep-fill" data-item-order="-217356" transform="translate(234.00320434570312, 360)"><g id="sy_2_cu_1cz9nbm1wb3jep-fill" stroke="none" fill="#fff7de"><g><path d="M 10.0011 46.2732C 10.0011 26.2399 26.0941 10 45.9463 10L 46.0537 10C 65.9059 10 81.9989 26.2399 81.9989 46.2732L 82 46.2732C 82 72.8129 46 98 46 98C 46 98 10 72.8129 10 46.2732L 10.0011 46.2732Z"></path></g></g></g><g id="g-root-sy_3_cu_1cz9nbm1wb3jeq-fill" data-item-order="-217352" transform="translate(542.003173828125, 258)"><g id="sy_3_cu_1cz9nbm1wb3jeq-fill" stroke="none" fill="#fff3e4"><g><path d="M 10.0009 40.5024C 10.0009 23.6562 23.4117 10 39.9552 10L 40.0448 10C 56.5883 10 69.9991 23.6562 69.9991 40.5024L 70 40.5024C 70 62.8199 40 84 40 84C 40 84 10 62.8199 10 40.5024L 10.0009 40.5024Z"></path></g></g></g><g id="g-root-sy_4_cu_1cz9nbm1wb3jer-fill" data-item-order="-217348" transform="translate(308.0032043457031, 216)"><g id="sy_4_cu_1cz9nbm1wb3jer-fill" stroke="none" fill="#ffeee8"><g><path d="M 10.0007 34.3195C 10.0007 20.8881 20.7294 10 33.9642 10L 34.0358 10C 47.2706 10 57.9993 20.8881 57.9993 34.3195L 58 34.3195C 58 52.1132 34 69 34 69C 34 69 10 52.1132 10 34.3195L 10.0007 34.3195Z"></path></g></g></g><g id="g-root-sy_5_cu_143mn2q1wb3k7g-fill" data-item-order="-217344" transform="translate(524.003173828125, 186)"><g id="sy_5_cu_143mn2q1wb3k7g-fill" stroke="none" fill="#ffebeb"><g><path d="M 10.0005 28.2396C 10.0005 18.1661 18.047 10 27.9731 10L 28.0269 10C 37.953 10 45.9995 18.1661 45.9995 28.2396L 46 28.2396C 46 41.5849 28 54.25 28 54.25C 28 54.25 10 41.5849 10 28.2396L 10.0005 28.2396Z"></path></g></g></g><g id="g-root-sy_6_cu_143mn2q1wb3k7h-fill" data-item-order="-217340" transform="translate(344.003173828125, 150)"><g id="sy_6_cu_143mn2q1wb3k7h-fill" stroke="none" fill="#ffebf2"><g><path d="M 10.0005 28.2396C 10.0005 18.1661 18.047 10 27.9731 10L 28.0269 10C 37.953 10 45.9995 18.1661 45.9995 28.2396L 46 28.2396C 46 41.5849 28 54.25 28 54.25C 28 54.25 10 41.5849 10 28.2396L 10.0005 28.2396Z"></path></g></g></g><g id="g-root-tx_risksofv_91ilaq1wb3kzy-fill" data-item-order="0" transform="translate(590.003173828125, 144)"><g id="tx_risksofv_91ilaq1wb3kzy-fill" stroke="none" fill="#0d0d0d"><g><text style="font: 15px &quot;Open Sans 300&quot;, sans-serif; white-space: pre;" font-size="15px" font-family="'Open Sans 300', sans-serif"><tspan x="12" y="29" dominant-baseline="ideographic">Risks of vehicle </tspan><tspan x="12" y="47" dominant-baseline="ideographic">impoundment increase</tspan></text></g></g></g><g id="g-root-ic_shac_8z0oya1wb7u2w-fill" data-item-order="0" transform="translate(350.003173828125, 156)"></g><g id="g-root-ic_1_mah7bm1wb7shz-fill" data-item-order="0" transform="translate(530.003173828125, 192)"></g><g id="g-root-tx_financia_hx5ljm1wb3k79-fill" data-item-order="0" transform="translate(134.00320434570312, 216)"><g id="tx_financia_hx5ljm1wb3k79-fill" stroke="none" fill="#ec4100"><g><text style="font: bold 15px &quot;Open Sans Regular&quot;, sans-serif; white-space: pre;" font-weight="bold" font-size="15px" font-family="'Open Sans Regular', sans-serif"><tspan x="23.27" y="29" dominant-baseline="ideographic">Financial Penalties </tspan><tspan x="90.97" y="47" dominant-baseline="ideographic">Imposed</tspan></text></g></g></g><g id="g-root-ic_buil_18kp3de1wb6d52-fill" data-item-order="0" transform="translate(317.0032043457031, 225)"></g><g id="g-root-tx_statesim_hx5ljm1wb3k78-fill" data-item-order="0" transform="translate(98.00320434570312, 264)"><g id="tx_statesim_hx5ljm1wb3k78-fill" stroke="none" fill="#0d0d0d"><g><text style="font: 15px &quot;Open Sans 300&quot;, sans-serif; white-space: pre;" font-size="15px" font-family="'Open Sans 300', sans-serif"><tspan x="33.81" y="29" dominant-baseline="ideographic">States impose financial </tspan><tspan x="22.66" y="47" dominant-baseline="ideographic">penalties and back taxes</tspan></text></g></g></g><g id="g-root-tx_vehiclei_91ilaq1wb3kzz-fill" data-item-order="0" transform="translate(590.003173828125, 96)"><g id="tx_vehiclei_91ilaq1wb3kzz-fill" stroke="none" fill="#d11515"><g><text style="font: bold 15px &quot;Open Sans Regular&quot;, sans-serif; white-space: pre;" font-weight="bold" font-size="15px" font-family="'Open Sans Regular', sans-serif"><tspan x="12" y="29" dominant-baseline="ideographic">Vehicle Impoundment </tspan><tspan x="12" y="47" dominant-baseline="ideographic">Risks</tspan></text></g></g></g><g id="g-root-tx_vehicleo_znt4ya1wb3kzq-fill" data-item-order="0" transform="translate(722.003173828125, 516)"><g id="tx_vehicleo_znt4ya1wb3kzq-fill" stroke="none" fill="#0d0d0d"><g><text style="font: 15px &quot;Open Sans 300&quot;, sans-serif; white-space: pre;" font-size="15px" font-family="'Open Sans 300', sans-serif"><tspan x="12" y="32" dominant-baseline="ideographic">Vehicle owners use </tspan><tspan x="12" y="50" dominant-baseline="ideographic">Montana LLCs to evade </tspan><tspan x="12" y="68" dominant-baseline="ideographic">taxes</tspan></text></g></g></g><g id="g-root-tx_taxevasi_mcz3o21wb3jez-fill" data-item-order="0" transform="translate(638.003173828125, 276)"><g id="tx_taxevasi_mcz3o21wb3jez-fill" stroke="none" fill="#ff8b00"><g><text style="font: bold 15px &quot;Open Sans Regular&quot;, sans-serif; white-space: pre;" font-weight="bold" font-size="15px" font-family="'Open Sans Regular', sans-serif"><tspan x="12" y="32" dominant-baseline="ideographic">Tax Evasion Classification</tspan></text></g></g></g><g id="g-root-tx_thepract_mcz3o21wb3jey-fill" data-item-order="0" transform="translate(638.003173828125, 312)"><g id="tx_thepract_mcz3o21wb3jey-fill" stroke="none" fill="#0d0d0d"><g><text style="font: 15px &quot;Open Sans 300&quot;, sans-serif; white-space: pre;" font-size="15px" font-family="'Open Sans 300', sans-serif"><tspan x="12" y="29" dominant-baseline="ideographic">The practice is classified as </tspan><tspan x="12" y="47" dominant-baseline="ideographic">tax evasion</tspan></text></g></g></g><g id="g-root-tx_criminal_4lp36a1wb3ls8-fill" data-item-order="0" transform="translate(122.00320434570312, 108)"><g id="tx_criminal_4lp36a1wb3ls8-fill" stroke="none" fill="#0d0d0d"><g><text style="font: 15px &quot;Open Sans 300&quot;, sans-serif; white-space: pre;" font-size="15px" font-family="'Open Sans 300', sans-serif"><tspan x="62.02" y="29" dominant-baseline="ideographic">Criminal charges are </tspan><tspan x="12.12" y="47" dominant-baseline="ideographic">considered for severe cases</tspan></text></g></g></g><g id="g-root-tx_statedet_mcz3o21wb3jex-fill" data-item-order="0" transform="translate(74.00320434570312, 384)"><g id="tx_statedet_mcz3o21wb3jex-fill" stroke="none" fill="#ffc107"><g><text style="font: bold 15px &quot;Open Sans Regular&quot;, sans-serif; white-space: pre;" font-weight="bold" font-size="15px" font-family="'Open Sans Regular', sans-serif"><tspan x="20.8" y="32" dominant-baseline="ideographic">State Detection</tspan></text></g></g></g><g id="g-root-ic_sear_1hcl93m1wb50y4-fill" data-item-order="0" transform="translate(246.00320434570312, 372)"></g><g id="g-root-tx_authorit_v7zmtu1wb3ls0-fill" data-item-order="0" transform="translate(14.003204345703125, 420)"><g id="tx_authorit_v7zmtu1wb3ls0-fill" stroke="none" fill="#0d0d0d"><g><text style="font: 15px &quot;Open Sans 300&quot;, sans-serif; white-space: pre;" font-size="15px" font-family="'Open Sans 300', sans-serif"><tspan x="14.15" y="29" dominant-baseline="ideographic">Authorities detect the use </tspan><tspan x="74.86" y="47" dominant-baseline="ideographic">of Montana LLCs</tspan></text></g></g></g><g id="g-root-tx_criminal_4lp36a1wb3ls9-fill" data-item-order="0" transform="translate(182.00320434570312, 60)"><g id="tx_criminal_4lp36a1wb3ls9-fill" stroke="none" fill="#b42456"><g><text style="font: bold 15px &quot;Open Sans Regular&quot;, sans-serif; white-space: pre;" font-weight="bold" font-size="15px" font-family="'Open Sans Regular', sans-serif"><tspan x="20.91" y="29" dominant-baseline="ideographic">Criminal Charges </tspan><tspan x="60.06" y="47" dominant-baseline="ideographic">Considered</tspan></text></g></g></g><g id="g-root-ic_chec_6i24y1wb3jer-fill" data-item-order="0" transform="translate(614.003173828125, 468)"></g><g id="g-root-tx_usemonta_qs64pe1wb3lsf-fill" data-item-order="0" transform="translate(722.003173828125, 480)"><g id="tx_usemonta_qs64pe1wb3lsf-fill" stroke="none" fill="#767ae5"><g><text style="font: bold 15px &quot;Open Sans Regular&quot;, sans-serif; white-space: pre;" font-weight="bold" font-size="15px" font-family="'Open Sans Regular', sans-serif"><tspan x="12" y="32" dominant-baseline="ideographic">Use Montana LLCs</tspan></text></g></g></g><g id="g-root-tx_legalcon_6i24y1wb3jeq-fill" data-item-order="0" transform="translate(152.003173828125, 0)"><g id="tx_legalcon_6i24y1wb3jeq-fill" stroke="none" fill="#0d0d0d"><g><text style="font: bold 20px &quot;Poppins 300&quot;, sans-serif; white-space: pre;" font-weight="bold" font-size="20px" font-family="'Poppins 300', sans-serif"><tspan x="12.89" y="36" dominant-baseline="ideographic">Legal Consequences for Montana LLC Scheme Participants</tspan></text></g></g></g><g id="g-root-ic_docu_1hjgh1u1wb4zd1-fill" data-item-order="0" transform="translate(554.003173828125, 270)"></g><g id="g-root-sy_0_cu_1hegocy1wb3ls7-stroke" data-item-order="-217364" transform="translate(235.00704956054688, 180.1943359375)"><g id="sy_0_cu_1hegocy1wb3ls7-stroke" fill="none" stroke-linecap="round" stroke-linejoin="round" stroke-miterlimit="4" stroke="#a3a3a3" stroke-width="2"><g><path d="M 221.12223 10C 221.02963 10 220.93713 10.0001 220.84463 10.0002C 221.01373 10.0001 221.18303 10 221.35223 10L 221.12223 10ZM 296.99603 451.7548C 345.23553 438.9047 371.92143 418.867 366.25183 393.975C 359.15223 362.8052 284.96103 347.0797 207.47223 339.905C 65.99603 326.8057 2.50293 298.8052 10.70213 253.195C 11.27073 250.0322 12.33773 246.9707 13.91363 244.015M 440.09633 451.7548C 456.26723 433.8635 462.99943 413.6489 458.75253 391.945C 456.23653 379.0869 450.77553 367.3536 441.66393 356.8057M 93.75263 92.9805C 88.28573 96.4369 85.46423 100.1723 84.80213 104.035C 82.27723 118.7648 98.75223 136.4649 212.42223 141.8052C 269.00223 144.4634 319.17223 153.225 321.62223 165.015C 326.17223 178.225 286.75223 189.018 213.52223 191.865C 154.49853 194.1597 109.19453 199.7951 76.49603 208.3008M 127.99603 81.5452C 148.04003 77.6425 175.94203 74.8733 213.52223 73.8052C 259.26233 72.5052 301.18223 68.145 299.18223 59.345C 297.29223 51.055 260.67223 47.335 219.75223 45.785C 148.80223 43.095 112.27213 35.565 116.92213 25.195C 118.14133 22.4759 122.77073 20.0772 129.99603 18.0357M 147.49603 14.4657C 166.60113 11.5859 192.78233 10.0188 220.84463 10.0002C 184.55383 10.0443 153.51693 18.7315 151.49213 25.195C 149.36213 32.015 178.50233 35.135 220.14223 36.705C 256.61263 38.0826 283.67393 40.6412 302.23853 44.365M 325.99603 51.9345C 330.03313 54.1777 332.50203 56.6483 333.48223 59.345C 338.35223 72.745 300.06223 83.635 218.00223 86.825C 168.59233 88.745 128.18213 95.215 125.19213 104.025C 122.18213 113.205 145.27343 120.463 216.47223 122.715C 262.64963 124.1756 296.65843 127.8547 320.99603 133.1656M 361.84093 148.548C 368.90913 153.5688 372.55243 159.1092 373.51223 164.995C 377.89403 191.865 333.48223 210.1239 212.42223 217.785C 125.19223 223.3052 83.19513 235.8052 80.11213 255.165C 77.02913 274.5248 130.05223 289.265 209.20223 293.395C 281.34473 297.1593 334.70553 305.2783 373.22703 317.4146M 412.331358 418.46543C 410.691358 422.59543 408.351358 426.72543 405.361358 430.73543M 414.251358 394.08543C 415.201358 398.08543 415.531358 402.14543 415.231358 406.17543M 401.761358 371.32543C 404.931358 374.90543 407.601358 378.63543 409.681358 382.40543M 377.021358 352.49543C 382.031358 355.50543 386.661358 358.69543 390.761358 361.97543M 342.641358 337.46543C 349.041358 339.79543 355.171358 342.31543 360.871358 344.97543M 301.231358 325.74543C 308.581358 327.31543 315.791358 329.09543 322.661358 331.04543M 255.161358 318.80583C 263.091358 319.58583 270.981358 320.44543 278.641358 321.61543M 206.741358 314.80583C 206.741358 314.80583 222.999258 315.70683 231.121358 316.08583M 158.091358 310.84543C 165.861358 311.66543 173.931358 312.30543 182.071358 312.73543M 115.481358 303.68543C 122.101358 305.21543 129.131358 306.60543 136.381358 307.79543M 79.741358 293.80543C 84.641358 295.86543 90.041358 297.83543 95.811358 299.64543M 56.361358 280.38543C 59.221358 282.76543 62.641358 285.10543 66.531358 287.33543M 111.271358 215.73543C 105.841358 217.10543 100.611358 218.60543 95.711358 220.18543M 146.161358 208.92543C 140.021358 209.81543 133.971358 210.83543 128.171358 211.96543M 184.401358 205.11543C 177.871358 205.49543 171.341358 206.00543 164.991358 206.63543M 223.721358 203.18543L 204.111358 204.37543M 261.561358 200.83543C 255.531358 201.47543 249.271358 201.99543 242.971358 202.38543M 295.131358 195.69543C 290.051358 196.75543 284.651358 197.73543 279.081358 198.58543M 322.681358 188.31543C 318.951358 189.69543 313.831358 191.01543 309.421358 192.24543M 339.361358 180.42543C 337.221358 181.98543 334.651358 183.53543 331.711358 185.00543M 347.241358 170.81543C 346.751358 172.43543 345.851358 174.06543 344.551358 175.66543M 345.431358 161.24543C 346.271358 162.47543 346.891358 163.73543 347.261358 164.99543C 347.361358 165.32543 347.441358 165.65543 347.501358 165.97543M 316.401358 144.73543C 320.011358 145.88543 323.391358 147.10543 326.441358 148.37543M 291.981358 138.69543C 296.461358 139.54543 300.791358 140.48543 304.851358 141.49543M 263.161358 134.54543C 268.221358 135.06543 273.221358 135.68543 278.011358 136.37543M 231.661358 132.45543C 237.031358 132.62543 242.401358 132.88543 247.631358 133.23543M 199.011358 131.92543C 204.411358 132.11543 209.941358 132.20543 215.451358 132.21543M 167.681358 129.75543C 172.611358 130.28543 177.751358 130.73543 182.961358 131.09543M 140.681358 125.67543C 144.691358 126.49543 149.011358 127.25543 153.501358 127.93543M 120.061358 120.08543C 122.871358 121.11543 126.041358 122.10543 129.461358 123.03543M 107.231358 113.52543C 108.681358 114.67543 110.491358 115.80543 112.621358 116.89543M 102.811358 106.53543C 102.851358 107.70543 103.231358 108.89543 103.961358 110.04543M 135.321358 87.96543C 131.951358 88.76543 128.751358 89.61543 125.841358 90.50543M 157.811358 83.82543C 153.751358 84.39543 149.791358 85.04543 146.041358 85.72543M 183.751358 81.10543C 179.231358 81.43543 174.761358 81.82543 170.441358 82.27543M 211.601358 79.93543C 206.901358 79.99543 202.171358 80.12543 197.551358 80.32543M 239.351358 79.44543C 234.841358 79.64543 230.221358 79.77543 225.601358 79.84543M 265.261358 77.51543C 261.221358 77.95543 256.981358 78.33543 252.671358 78.65543M 287.291358 74.26543C 284.041358 74.90543 280.541358 75.49543 276.881358 76.03543M 303.791358 69.99543C 301.571358 70.76543 299.061358 71.52543 296.311358 72.23543M 313.671358 65.08543C 312.611358 65.93543 311.241358 66.78543 309.601358 67.59543M 316.461358 59.92543C 316.581358 60.78543 316.411358 61.65543 315.951358 62.50543M 302.041358 50.36543C 304.241358 51.06543 306.231358 51.80543 307.951358 52.56543M 286.351358 46.55543C 289.341358 47.11543 292.181358 47.71543 294.791358 48.35543M 266.541358 43.69543C 270.101358 44.08543 273.581358 44.52543 276.881358 44.99543M 243.891358 41.92543C 247.821358 42.12543 251.721358 42.37543 255.491358 42.66543M 219.791358 41.33543L 219.941358 41.33543C 223.951358 41.33543 227.981358 41.38543 231.931358 41.47543M 195.411358 40.72543C 199.341358 40.92543 203.391358 41.07543 207.461358 41.18543M 173.141358 38.95543C 176.571358 39.33543 180.181358 39.68543 183.891358 39.97543M 154.761358 36.18543C 157.421358 36.71543 160.311358 37.21543 163.371358 37.67543M 141.591358 32.68543C 143.291358 33.31543 145.271358 33.92543 147.461358 34.50543M 134.491358 28.74543C 135.141358 29.42543 136.071358 30.09543 137.251358 30.75543M 133.741358 24.66543C 133.641358 24.83543 133.561358 25.00543 133.491358 25.18543C 133.301358 25.68543 133.241358 26.19543 133.331358 26.70543M 149.801358 17.26543C 147.591358 17.80543 145.571358 18.36543 143.781358 18.94543M 165.121358 14.39543C 162.261358 14.81543 159.511358 15.26543 156.961358 15.73543M 183.861358 12.31543C 180.531358 12.58543 177.251358 12.90543 174.131358 13.25543M 394.261358 442.71543C 390.768358 445.82743 386.821458 448.88903 382.495858 451.84013"></path></g></g></g><g id="g-root-sy_1_cu_1hegocy1wb3ls8-stroke" data-item-order="-217360" transform="translate(598.003173828125, 450)"><g id="sy_1_cu_1hegocy1wb3ls8-stroke" fill="none" stroke-linecap="round" stroke-linejoin="round" stroke-miterlimit="4" stroke="#767ae5" stroke-width="2"><g><path d="M 10.0012 52.0439C 10.0012 28.8235 28.7764 10 51.9373 10L 52.0627 10C 75.2236 10 93.9988 28.8235 93.9988 52.0439L 94 52.0439C 94 82.8058 52 112 52 112C 52 112 10 82.8058 10 52.0439L 10.0012 52.0439Z"></path></g></g></g><g id="g-root-sy_2_cu_1cz9nbm1wb3jep-stroke" data-item-order="-217356" transform="translate(234.00320434570312, 360)"><g id="sy_2_cu_1cz9nbm1wb3jep-stroke" fill="none" stroke-linecap="round" stroke-linejoin="round" stroke-miterlimit="4" stroke="#ffc107" stroke-width="2"><g><path d="M 10.0011 46.2732C 10.0011 26.2399 26.0941 10 45.9463 10L 46.0537 10C 65.9059 10 81.9989 26.2399 81.9989 46.2732L 82 46.2732C 82 72.8129 46 98 46 98C 46 98 10 72.8129 10 46.2732L 10.0011 46.2732Z"></path></g></g></g><g id="g-root-sy_3_cu_1cz9nbm1wb3jeq-stroke" data-item-order="-217352" transform="translate(542.003173828125, 258)"><g id="sy_3_cu_1cz9nbm1wb3jeq-stroke" fill="none" stroke-linecap="round" stroke-linejoin="round" stroke-miterlimit="4" stroke="#ff8b00" stroke-width="2"><g><path d="M 10 40.5024C 10 23.6562 23.4109 10 39.9544 10L 40.0439 10C 56.5874 10 69.9982 23.6562 69.9982 40.5024C 69.9982 62.8199 39.9991 84 39.9991 84C 39.9991 84 10 62.8199 10 40.5024Z"></path></g></g></g><g id="g-root-sy_4_cu_1cz9nbm1wb3jer-stroke" data-item-order="-217348" transform="translate(308.0032043457031, 216)"><g id="sy_4_cu_1cz9nbm1wb3jer-stroke" fill="none" stroke-linecap="round" stroke-linejoin="round" stroke-miterlimit="4" stroke="#ec4100" stroke-width="2"><g><path d="M 10 34.3195C 10 20.8881 20.7287 10 33.9635 10L 34.0351 10C 47.2699 10 57.9986 20.8881 57.9986 34.3195C 57.9986 52.1132 33.9993 69 33.9993 69C 33.9993 69 10 52.1132 10 34.3195Z"></path></g></g></g><g id="g-root-sy_5_cu_143mn2q1wb3k7g-stroke" data-item-order="-217344" transform="translate(524.003173828125, 186)"><g id="sy_5_cu_143mn2q1wb3k7g-stroke" fill="none" stroke-linecap="round" stroke-linejoin="round" stroke-miterlimit="4" stroke="#d11515" stroke-width="2"><g><path d="M 10 28.2396C 10 18.1661 18.0465 10 27.9726 10L 28.0263 10C 37.9524 10 45.9989 18.1661 45.9989 28.2396C 45.9989 41.5849 27.9995 54.25 27.9995 54.25C 27.9995 54.25 10 41.5849 10 28.2396Z"></path></g></g></g><g id="g-root-sy_6_cu_143mn2q1wb3k7h-stroke" data-item-order="-217340" transform="translate(344.003173828125, 150)"><g id="sy_6_cu_143mn2q1wb3k7h-stroke" fill="none" stroke-linecap="round" stroke-linejoin="round" stroke-miterlimit="4" stroke="#b42456" stroke-width="2"><g><path d="M 10 28.2396C 10 18.1661 18.0465 10 27.9726 10L 28.0263 10C 37.9524 10 45.9989 18.1661 45.9989 28.2396C 45.9989 41.5849 27.9995 54.25 27.9995 54.25C 27.9995 54.25 10 41.5849 10 28.2396Z"></path></g></g></g><g id="g-root-tx_risksofv_91ilaq1wb3kzy-stroke" data-item-order="0" transform="translate(590.003173828125, 144)"></g><g id="g-root-ic_shac_8z0oya1wb7u2w-stroke" data-item-order="0" transform="translate(350.003173828125, 156)"><g id="ic_shac_8z0oya1wb7u2w-stroke" fill="none" stroke-linecap="round" stroke-linejoin="round" stroke-miterlimit="4" stroke="#ff6198" stroke-width="2"><g><path d="M 19 23.394L 19 22C 19 21.447715 18.552285 21 18 21L 14 21C 13.447715 21 13 21.447715 13 22L 13 23.394C 10.959185 24.722145 10.034559 27.234097 10.727252 29.568422C 11.419945 31.902746 13.565068 33.503773 16 33.503773C 18.434932 33.503773 20.580055 31.902746 21.272748 29.568422C 21.965442 27.234097 21.040815 24.722145 19 23.394ZM 13.5 28C 13.5 29.380712 14.619288 30.5 16 30.5C 17.380712 30.5 18.5 29.380712 18.5 28C 18.5 26.619288 17.380712 25.5 16 25.5C 14.619288 25.5 13.5 26.619288 13.5 28M 16 30.5C 16.828427 30.500001 17.5 31.171574 17.5 32.000001C 17.5 32.828428 16.828427 33.500001 16 33.500001M 19 23.394L 17.163 25.787M 15.5 23L 16.5 23M 26.864 14.278L 25.879 13.293C 25.691432 13.105223 25.436909 12.999713 25.1715 12.999713C 24.906091 12.999713 24.651568 13.105223 24.464 13.293L 21.636 16.121C 21.448223 16.308568 21.342713 16.563091 21.342713 16.8285C 21.342713 17.093909 21.448223 17.348432 21.636 17.536L 22.622 18.521C 22.118291 20.903284 23.240959 23.333224 25.381527 24.493814C 27.522095 25.654403 30.171008 25.269367 31.892577 23.547392C 33.614147 21.825417 33.998558 19.176414 32.837464 17.036119C 31.67637 14.895824 29.246166 13.77373 26.864001 14.278ZM 25.5 19.657C 25.5 21.037712 26.619288 22.157 28 22.157C 29.380712 22.157 30.5 21.037712 30.5 19.657C 30.5 18.276288 29.380712 17.157 28 17.157C 26.619288 17.157 25.5 18.276288 25.5 19.657M 29.768 21.425C 30.356569 20.85654 31.292129 20.864669 31.87073 21.443271C 32.449332 22.021872 32.457461 22.957432 31.889001 23.546M 26.864 14.278L 27.258 17.27M 24.111 16.475L 24.818 15.768M 16 21C 15.769 19.078 10.5 18.5 10.5 14.5C 10.5 10.5 13.25 10.5 15.75 10.5C 18.25 10.5 22.116 12.3 23.1 14.663"></path></g></g></g><g id="g-root-ic_1_mah7bm1wb7shz-stroke" data-item-order="0" transform="translate(530.003173828125, 192)"><g id="ic_1_mah7bm1wb7shz-stroke" fill="none" stroke-linecap="round" stroke-linejoin="round" stroke-miterlimit="4" stroke="#ff6363" stroke-width="2"><g><path d="M 13.991 12.5L 12.991 12.5C 12.438715 12.5 11.991 12.947715 11.991 13.5L 11.991 15.5C 11.991 16.052285 12.438715 16.5 12.991 16.5L 13.991 16.5M 29.991 16.5L 30.991 16.5C 31.543285 16.5 31.991 16.052285 31.991 15.5L 31.991 13.5C 31.991 12.947715 31.543285 12.5 30.991 12.5L 29.991 12.5M 13.991 17.635L 13.991 12.5C 13.991 11.395431 14.886431 10.5 15.991 10.5L 27.991 10.5C 29.095569 10.5 29.991 11.395431 29.991 12.5L 29.991 17.635M 32.791 21.233C 32.920822 21.406096 32.991 21.61663 32.991 21.833L 32.991 26.5C 32.991 27.052285 32.543285 27.5 31.991 27.5L 11.991 27.5C 11.438715 27.5 10.991 27.052285 10.991 26.5L 10.991 21.833C 10.991 21.61663 11.061178 21.406096 11.191 21.233L 13.691 17.9C 13.879854 17.648194 14.176243 17.5 14.491 17.5L 29.491 17.5C 29.805757 17.5 30.102146 17.648194 30.291 17.9ZM 10.991 29.36L 10.991 31.5C 10.991 32.604569 11.886431 33.5 12.991 33.5L 13.991 33.5C 15.095569 33.5 15.991 32.604569 15.991 31.5L 15.991 29.36M 17.991 23.531L 17.991 25.5M 19.991 23.531L 19.991 25.5M 21.991 23.531L 21.991 25.5M 23.991 23.531L 23.991 25.5M 25.991 23.531L 25.991 25.5M 27.991 24.5C 27.991001 25.328428 28.662573 26 29.491001 26C 30.319428 26 30.991001 25.328428 30.991001 24.5C 30.991001 23.671573 30.319428 23 29.491001 23C 28.662573 23 27.991001 23.671573 27.991001 24.5ZM 12.991 24.5C 12.991 25.328428 13.662573 26 14.491 26C 15.319427 26 15.991 25.328428 15.991 24.5C 15.991 23.671573 15.319427 23 14.491 23C 13.662573 23 12.991 23.671573 12.991 24.5ZM 21.991 10.5L 21.991 17.5M 15.991 30.938L 20.991 27.531M 27.991 30.938L 22.991 27.531M 28.009 29.36L 28.009 31.5C 28.009 32.604569 28.904431 33.5 30.009 33.5L 31.009 33.5C 32.113569 33.5 33.009 32.604569 33.009 31.5L 33.009 29.36M 11.048 21.5L 32.933 21.5"></path></g></g></g><g id="g-root-tx_financia_hx5ljm1wb3k79-stroke" data-item-order="0" transform="translate(134.00320434570312, 216)"></g><g id="g-root-ic_buil_18kp3de1wb6d52-stroke" data-item-order="0" transform="translate(317.0032043457031, 225)"><g id="ic_buil_18kp3de1wb6d52-stroke" fill="none" stroke-linecap="round" stroke-linejoin="round" stroke-miterlimit="4" stroke="#ff7b49" stroke-width="2"><g><path d="M 28.79125 22.1875L 32.8125 22.1875C 33.502853 22.1875 34.0625 22.747143 34.0625 23.4375L 34.0625 39.0625L 24.6875 39.0625L 24.6875 28.775002M 20.9375 30.3125L 24.6875 30.3125L 24.6875 30.3125L 24.6875 39.0625L 24.6875 39.0625L 19.6875 39.0625L 19.6875 39.0625L 19.6875 31.5625C 19.6875 30.872145 20.247143 30.3125 20.9375 30.3125ZM 34.0625 30.3125L 37.8125 30.3125C 38.502853 30.3125 39.0625 30.872145 39.0625 31.5625L 39.0625 39.0625L 39.0625 39.0625L 34.0625 39.0625L 34.0625 39.0625L 34.0625 30.3125L 34.0625 30.3125ZM 19.106251 25.80875L 19.797501 25.546249C 23.085001 24.296249 25.9375 21.141251 25.9375 17.623751L 25.9375 13.3825C 25.937731 12.862602 25.629341 12.392162 25.1525 12.185C 22.994987 11.378707 20.71316 10.955676 18.41 10.935C 16.124607 10.954519 13.860641 11.37769 11.7225 12.184999C 11.245659 12.392162 10.93727 12.862602 10.9375 13.3825L 10.9375 17.625C 10.9375 21.1425 13.735 24.295 17.022499 25.547501L 17.713751 25.809999C 18.162273 25.98086 18.658033 25.980413 19.106251 25.80875ZM 15.625 19.21875L 17.143749 20.3575C 17.343218 20.507805 17.625601 20.474779 17.785 20.282501L 22.1875 15M 28.366249 30.3125L 30.383749 30.3125M 28.366249 25.9375L 30.383749 25.9375M 28.366249 34.6875L 30.383749 34.6875M 34.0625 33.35125L 36.081249 33.35125M 22.1875 33.35125L 24.206249 33.35125M 34.0625 36.192501L 36.081249 36.192501M 22.668751 36.192501L 24.6875 36.192501"></path></g></g></g><g id="g-root-tx_statesim_hx5ljm1wb3k78-stroke" data-item-order="0" transform="translate(98.00320434570312, 264)"></g><g id="g-root-tx_vehiclei_91ilaq1wb3kzz-stroke" data-item-order="0" transform="translate(590.003173828125, 96)"></g><g id="g-root-tx_vehicleo_znt4ya1wb3kzq-stroke" data-item-order="0" transform="translate(722.003173828125, 516)"></g><g id="g-root-tx_taxevasi_mcz3o21wb3jez-stroke" data-item-order="0" transform="translate(638.003173828125, 276)"></g><g id="g-root-tx_thepract_mcz3o21wb3jey-stroke" data-item-order="0" transform="translate(638.003173828125, 312)"></g><g id="g-root-tx_criminal_4lp36a1wb3ls8-stroke" data-item-order="0" transform="translate(122.00320434570312, 108)"></g><g id="g-root-tx_statedet_mcz3o21wb3jex-stroke" data-item-order="0" transform="translate(74.00320434570312, 384)"></g><g id="g-root-ic_sear_1hcl93m1wb50y4-stroke" data-item-order="0" transform="translate(246.00320434570312, 372)"><g id="ic_sear_1hcl93m1wb50y4-stroke" fill="none" stroke-linecap="round" stroke-linejoin="round" stroke-miterlimit="4" stroke="#ffc720" stroke-width="2"><g><path d="M 39 29.982L 39 20.982L 17 20.982L 17 46.98L 29 46.981998M 45 27.982L 45 16.982C 45 15.87743 44.104568 14.982 43 14.982L 34.104 14.982C 33.043873 12.558297 30.649412 10.992139 28.004 10.992139C 25.358589 10.992139 22.964127 12.558297 21.903999 14.982L 13 14.982C 11.895431 14.982 11 15.87743 11 16.982L 11 50.981998C 11 52.086571 11.895431 52.981998 13 52.981998L 31 52.981998M 23 26.982L 33 26.982M 23 32.982002L 33 32.982002M 23 38.982002L 29 38.982002M 35 44.042C 35 49.044594 39.055405 53.099998 44.057999 53.099998C 49.060593 53.099998 53.115997 49.044594 53.115997 44.042C 53.115997 39.039406 49.060593 34.984001 44.057999 34.984001C 39.055405 34.984001 35 39.039406 35 44.042ZM 57 56.981998L 50.504002 50.487999"></path></g></g></g><g id="g-root-tx_authorit_v7zmtu1wb3ls0-stroke" data-item-order="0" transform="translate(14.003204345703125, 420)"></g><g id="g-root-tx_criminal_4lp36a1wb3ls9-stroke" data-item-order="0" transform="translate(182.00320434570312, 60)"></g><g id="g-root-ic_chec_6i24y1wb3jer-stroke" data-item-order="0" transform="translate(614.003173828125, 468)"><g id="ic_chec_6i24y1wb3jer-stroke" fill="none" stroke-linecap="round" stroke-linejoin="round" stroke-miterlimit="4" stroke="#767ae5" stroke-width="2"><g><path d="M 20.296001 27.039249L 22.987 29.730249L 29.262249 22.557249M 20.280249 48.227501L 16.905251 48.227501C 14.419969 48.227501 12.40525 46.212784 12.40525 43.727501L 12.40525 16.727501C 12.40525 14.242219 14.419969 12.2275 16.905251 12.2275L 32.655251 12.2275C 35.140533 12.2275 37.155251 14.242219 37.155251 16.727501L 37.155251 31.352499M 12.40525 40.505501L 27.030249 40.505501M 57.024998 57.637001L 57.799 57.637001C 59.441772 57.637001 60.773506 56.305275 60.773506 54.662502L 60.773499 51.595749C 60.773281 50.712601 60.380928 49.875149 59.702496 49.309746L 56.311752 46.483749L 54.977501 41.594498C 54.448601 39.653221 52.685284 38.306538 50.673248 38.307247L 39.859749 38.307251C 38.110538 38.307304 36.522705 39.329498 35.7985 40.921749L 33.269501 46.483749L 28.108002 49.352501C 27.163433 49.876141 26.577566 50.871254 26.577999 51.951252L 26.577999 54.662502C 26.578001 56.305275 27.909729 57.637001 29.552502 57.637001L 31.071249 57.637001M 38.442249 57.637001L 49.658501 57.637001M 31.039749 58.0555C 31.039749 60.108341 32.703907 61.772499 34.756752 61.772499C 36.809593 61.772499 38.473751 60.108341 38.473751 58.0555C 38.473751 56.002655 36.809593 54.338497 34.756752 54.338497C 32.703907 54.338497 31.039749 56.002655 31.039749 58.0555M 49.626999 58.0555C 49.626999 60.108341 51.291157 61.772499 53.344002 61.772499C 55.396843 61.772499 57.061001 60.108341 57.061001 58.0555C 57.061001 56.002655 55.396843 54.338497 53.344002 54.338497C 51.291157 54.338497 49.626999 56.002655 49.626999 58.0555M 33.269501 46.483749L 56.318501 46.483749M 44.793999 38.307251L 44.793999 46.483749"></path></g></g></g><g id="g-root-tx_usemonta_qs64pe1wb3lsf-stroke" data-item-order="0" transform="translate(722.003173828125, 480)"></g><g id="g-root-tx_legalcon_6i24y1wb3jeq-stroke" data-item-order="0" transform="translate(152.003173828125, 0)"></g><g id="g-root-ic_docu_1hjgh1u1wb4zd1-stroke" data-item-order="0" transform="translate(554.003173828125, 270)"><g id="ic_docu_1hjgh1u1wb4zd1-stroke" fill="none" stroke-linecap="round" stroke-linejoin="round" stroke-miterlimit="4" stroke="#ffa02f" stroke-width="2"><g><path d="M 19.75 19.75L 19.75 12.25C 19.75 11.421573 20.421574 10.75 21.25 10.75L 36.25 10.75L 45.25 19.75L 45.25 43.75C 45.25 44.578426 44.578426 45.25 43.75 45.25L 33.25 45.25M 36.25 10.75L 36.25 18.25C 36.25 19.078426 36.921574 19.75 37.75 19.75L 45.25 19.75M 12.25 40.75L 30.25 40.75L 30.25 40.75L 30.25 43.75C 30.25 44.578426 29.578428 45.25 28.75 45.25L 13.75 45.25C 12.921573 45.25 12.25 44.578426 12.25 43.75L 12.25 40.75L 12.25 40.75ZM 25.75 36.25C 24.125969 36.25066 22.796284 34.95887 22.75 33.335499L 22.75 33.335499C 22.722515 32.361263 23.170008 31.434387 23.950001 30.849998C 25.49955 29.68784 26.131588 27.664515 25.519075 25.826977C 24.906563 23.989437 23.186937 22.75 21.25 22.75C 19.313065 22.75 17.593439 23.989437 16.980925 25.826977C 16.368412 27.664515 17.00045 29.68784 18.550001 30.85C 19.327362 31.435879 19.774221 32.360878 19.75 33.334L 19.75 33.334C 19.704512 34.957958 18.374598 36.250637 16.75 36.25L 13.75 36.25C 12.093145 36.25 10.75 37.593143 10.75 39.25C 10.75 40.078426 11.421573 40.75 12.25 40.75L 30.25 40.75C 31.078428 40.75 31.75 40.078426 31.75 39.25C 31.75 37.593143 30.406855 36.25 28.75 36.25ZM 41.5 25.748499L 29.5 25.748499M 41.5 37.748501L 35.5 37.748501M 41.5 31.748499L 31.75 31.748499"></path></g></g></g></g></g></svg>