<?xml version="1.0" encoding="utf-8" standalone="yes"?>
<!DOCTYPE svg PUBLIC "-//W3C//DTD SVG 1.1//EN" "http://www.w3.org/Graphics/SVG/1.1/DTD/svg11.dtd">
<svg width="899" height="588" viewBox="0 0 899 588" style="fill:none;stroke:none;fill-rule:evenodd;clip-rule:evenodd;stroke-linecap:round;stroke-linejoin:round;stroke-miterlimit:1.5;" version="1.1" xmlns="http://www.w3.org/2000/svg" xmlns:xlink="http://www.w3.org/1999/xlink"><g id="items" style="isolation: isolate"><g id="blend" style="mix-blend-mode: normal"><g id="g-root-sy_1_Polygon_1d158w21yte0hu-fill" data-item-order="-293115" transform="translate(254.15557861328125, 98)"></g><g id="g-root-sy_1_cu_1d158w21yte0hv-fill" data-item-order="-293114" transform="translate(318.1514587402344, 74)"><g id="sy_1_cu_1d158w21yte0hv-fill" stroke="none" fill="#fbf0ff"><g><path d="M 13.203631 238.02C 8.932131 245.436 8.932131 254.564 13.203631 261.98L 137.629031 477.98C 141.913031 485.417 149.842031 490 158.425031 490L 407.181031 490C 415.764031 490 423.693031 485.417 427.977031 477.98L 552.402031 261.98C 556.674031 254.564 556.674031 245.436 552.402031 238.02L 427.977031 22.0204C 423.693031 14.5833 415.764031 10 407.181031 10L 158.425031 10.000012C 149.842031 10.000012 141.913031 14.5833 137.629031 22.0204L 13.203631 238.02ZM 68.192731 274.029C 63.927531 281.44 63.927531 290.56 68.192731 297.971L 164.880031 465.971C 169.163031 473.413 177.095031 478 185.681031 478L 378.924031 478C 387.511031 478 395.443031 473.413 399.726031 465.971L 496.413031 297.971C 500.678031 290.56 500.678031 281.44 496.413031 274.029L 399.726031 106.0285C 395.443031 98.5868 387.511031 94 378.924031 94L 185.681031 94C 177.095031 94 169.163031 98.5869 164.880031 106.0286L 68.192731 274.029Z"></path></g></g></g><g id="g-root-sy_1_line_1464pqa1ytdy4s-fill" data-item-order="-293109" transform="translate(296.1553955078125, 134)"></g><g id="g-root-sy_2_Polygon_1464pqa1ytdy4t-fill" data-item-order="-293105" transform="translate(254.15521240234375, 218)"></g><g id="g-root-sy_2_cu_zqb7lu1ytdyx2-fill" data-item-order="-293104" transform="translate(373.1453857421875, 157.99609375)"><g id="sy_2_cu_zqb7lu1ytdyx2-fill" stroke="none" fill="#ffebf2"><g><path d="M 13.1989 190.029C 8.9337 197.44 8.9337 206.56 13.1989 213.971L 109.8864 381.971C 114.169 389.413 122.101 394 130.688 394L 323.931 394C 332.517 394 340.449 389.413 344.732 381.971L 441.419 213.971C 445.685 206.56 445.685 197.44 441.419 190.029L 344.732 22.0286C 340.449 14.5868 332.517 10 323.931 10L 130.687 10.000009C 122.101 10.00001 114.169 14.5869 109.8864 22.0286L 13.1989 190.029ZM 69.1444 226.069C 64.9104 233.46 64.9104 242.54 69.1444 249.931L 137.894 369.931C 142.171 377.395 150.116 382 158.719 382L 295.899 382C 304.502 382 312.447 377.395 316.724 369.931L 385.474 249.931C 389.708 242.54 389.708 233.46 385.474 226.069L 316.724 106.0693C 312.447 98.6047 304.502 94 295.899 94L 158.719 94C 150.116 94 142.171 98.6047 137.894 106.0693L 69.1444 226.069Z"></path></g></g></g><g id="g-root-sy_2_line_zqb7lu1ytdyx3-fill" data-item-order="-293099" transform="translate(296.15521240234375, 254)"></g><g id="g-root-sy_3_Polygon_zqb7lu1ytdyx4-fill" data-item-order="-293095" transform="translate(254.1556396484375, 338)"></g><g id="g-root-sy_3_cu_vahphe1ytdzpd-fill" data-item-order="-293094" transform="translate(429.1143798828125, 241.99609375)"><g id="sy_3_cu_vahphe1ytdzpd-fill" stroke="none" fill="#ffebeb"><g><path d="M 13.1755 142.069C 8.9415 149.46 8.9415 158.54 13.1755 165.931L 81.9255 285.931C 86.2022 293.395 94.1471 298 102.75 298L 239.93 298C 248.533 298 256.478 293.395 260.755 285.931L 329.505 165.931C 333.739 158.54 333.739 149.46 329.505 142.069L 260.755 22.0693C 256.478 14.6047 248.533 10 239.93 10L 102.75 10.000007C 94.147 10.000007 86.2021 14.6047 81.9255 22.0693L 13.1755 142.069ZM 68.1755 178.069C 63.9415 185.46 63.9415 194.54 68.1755 201.931L 109.4255 273.931C 113.702 281.395 121.647 286 130.25 286L 212.43 286C 221.033 286 228.978 281.395 233.255 273.931L 274.505 201.931C 278.739 194.54 278.739 185.46 274.505 178.069L 233.255 106.0693C 228.978 98.6047 221.033 94 212.43 94L 130.25 94C 121.647 94 113.702 98.6047 109.4255 106.0693L 68.1755 178.069Z"></path></g></g></g><g id="g-root-sy_3_line_vahphe1ytdzpe-fill" data-item-order="-293089" transform="translate(296.15545654296875, 374)"></g><g id="g-root-sy_4_Polygon_vahphe1ytdzpf-fill" data-item-order="-293085" transform="translate(254.15557861328125, 458)"></g><g id="g-root-sy_4_cu_meup8i1yte0i4-fill" data-item-order="-293084" transform="translate(484.1141357421875, 326)"><g id="sy_4_cu_meup8i1yte0i4-fill" stroke="none" fill="#ffeee8"><g><path d="M 13.1755 117.931C 8.9415 110.54 8.9415 101.4596 13.1755 94.0693L 54.4255 22.0693C 58.7022 14.6047 66.6471 10.000004 75.25 10.000004L 157.43 10C 166.033 10 173.978 14.6047 178.255 22.0693L 219.505 94.0693C 223.739 101.4596 223.739 110.54 219.505 117.931L 178.255 189.931C 173.978 197.395 166.033 202 157.43 202L 75.25 202C 66.6471 202 58.7022 197.395 54.4255 189.931L 13.1755 117.931Z"></path></g></g></g><g id="g-root-sy_4_line_meup8i1yte0i5-fill" data-item-order="-293079" transform="translate(296.1553955078125, 494)"></g><g id="g-root-tx_insuranc_8dnpe1yte0ht-fill" data-item-order="0" transform="translate(14.15716552734375, 242)"><g id="tx_insuranc_8dnpe1yte0ht-fill" stroke="none" fill="#b42456"><g><text style="font: bold 15px &quot;Open Sans Regular&quot;, sans-serif; white-space: pre;" font-weight="bold" font-size="15px" font-family="'Open Sans Regular', sans-serif"><tspan x="12.15" y="32" dominant-baseline="ideographic">Insurance Cross-Referencing</tspan></text></g></g></g><g id="g-root-ic_1_hvwtoi1ytgrns-fill" data-item-order="0" transform="translate(230.15716552734375, 229.984375)"></g><g id="g-root-tx_2000_7r6ma1yti7t9-fill" data-item-order="0" transform="translate(566.1552124023438, 188)"><g id="tx_2000_7r6ma1yti7t9-fill" stroke="none" fill="#636873"><g><text style="font: 15px &quot;Open Sans Regular&quot;, sans-serif; white-space: pre;" font-size="15px" font-family="'Open Sans Regular', sans-serif"><tspan x="14.9" y="32" dominant-baseline="ideographic">2,000</tspan></text></g></g></g><g id="g-root-tx_vehicles_4o75tu1ytdzpk-fill" data-item-order="0" transform="translate(49.99505615234375, 278.375)"><g id="tx_vehicles_4o75tu1ytdzpk-fill" stroke="none" fill="#0d0d0d"><g><text style="font: 15px &quot;Open Sans 300&quot;, sans-serif; white-space: pre;" font-size="15px" font-family="'Open Sans 300', sans-serif"><tspan x="22.33" y="29" dominant-baseline="ideographic">Vehicles identified with </tspan><tspan x="84.01" y="47" dominant-baseline="ideographic">discrepancies</tspan></text></g></g></g><g id="g-root-tx_500_93e6v61yti70k-fill" data-item-order="0" transform="translate(572.1552124023438, 272.00390625)"><g id="tx_500_93e6v61yti70k-fill" stroke="none" fill="#636873"><g><text style="font: 15px &quot;Open Sans Regular&quot;, sans-serif; white-space: pre;" font-size="15px" font-family="'Open Sans Regular', sans-serif"><tspan x="15.13" y="32" dominant-baseline="ideographic">500</tspan></text></g></g></g><g id="g-root-tx_vehicles_hzno761ytdy4m-fill" data-item-order="0" transform="translate(13.99505615234375, 158.375)"><g id="tx_vehicles_hzno761ytdy4m-fill" stroke="none" fill="#0d0d0d"><g><text style="font: 15px &quot;Open Sans 300&quot;, sans-serif; white-space: pre;" font-size="15px" font-family="'Open Sans 300', sans-serif"><tspan x="17.87" y="32" dominant-baseline="ideographic">Vehicles scanned per minute</tspan></text></g></g></g><g id="g-root-tx_alprsyst_940nya1ytdyxb-fill" data-item-order="0" transform="translate(110.15521240234375, 122)"><g id="tx_alprsyst_940nya1ytdyxb-fill" stroke="none" fill="#9251ac"><g><text style="font: bold 15px &quot;Open Sans Regular&quot;, sans-serif; white-space: pre;" font-weight="bold" font-size="15px" font-family="'Open Sans Regular', sans-serif"><tspan x="18.81" y="32" dominant-baseline="ideographic">ALPR Systems</tspan></text></g></g></g><g id="g-root-ic_warn_1lws94y1ytfd3j-fill" data-item-order="0" transform="translate(230.15716552734375, 349.98046875)"></g><g id="g-root-tx_llcowner_1d30o5e1ytdzik-fill" data-item-order="0" transform="translate(61.99505615234375, 518.375)"><g id="tx_llcowner_1d30o5e1ytdzik-fill" stroke="none" fill="#0d0d0d"><g><text style="font: 15px &quot;Open Sans 300&quot;, sans-serif; white-space: pre;" font-size="15px" font-family="'Open Sans 300', sans-serif"><tspan x="19.07" y="32" dominant-baseline="ideographic">LLC owners identified</tspan></text></g></g></g><g id="g-root-tx_12000_7r6ma1yti7ta-fill" data-item-order="0" transform="translate(560.1552124023438, 104)"><g id="tx_12000_7r6ma1yti7ta-fill" stroke="none" fill="#636873"><g><text style="font: 15px &quot;Open Sans Regular&quot;, sans-serif; white-space: pre;" font-size="15px" font-family="'Open Sans Regular', sans-serif"><tspan x="16.62" y="32" dominant-baseline="ideographic">12,000</tspan></text></g></g></g><g id="g-root-tx_suspecte_1qeh6iq1ytdxxm-fill" data-item-order="0" transform="translate(73.99505615234375, 398.375)"><g id="tx_suspecte_1qeh6iq1ytdxxm-fill" stroke="none" fill="#0d0d0d"><g><text style="font: 15px &quot;Open Sans 300&quot;, sans-serif; white-space: pre;" font-size="15px" font-family="'Open Sans 300', sans-serif"><tspan x="20.54" y="29" dominant-baseline="ideographic">Suspected violators </tspan><tspan x="80.88" y="47" dominant-baseline="ideographic">monitored</tspan></text></g></g></g><g id="g-root-tx_100_dj7ozm1yti68b-fill" data-item-order="0" transform="translate(572.1552124023438, 410)"><g id="tx_100_dj7ozm1yti68b-fill" stroke="none" fill="#636873"><g><text style="font: 15px &quot;Open Sans Regular&quot;, sans-serif; white-space: pre;" font-size="15px" font-family="'Open Sans Regular', sans-serif"><tspan x="15.13" y="32" dominant-baseline="ideographic">100</tspan></text></g></g></g><g id="g-root-ic_sear_zs6mv61ytdxxq-fill" data-item-order="0" transform="translate(230.15719604492188, 469.9765625)"></g><g id="g-root-ic_wifi_hs5z5u1yti7sx-fill" data-item-order="0" transform="translate(230.15716552734375, 109.9921875)"></g><g id="g-root-tx_ownershi_18n760y1yte0at-fill" data-item-order="0" transform="translate(26.15521240234375, 482)"><g id="tx_ownershi_18n760y1yte0at-fill" stroke="none" fill="#ec4100"><g><text style="font: bold 15px &quot;Open Sans Regular&quot;, sans-serif; white-space: pre;" font-weight="bold" font-size="15px" font-family="'Open Sans Regular', sans-serif"><tspan x="23.17" y="32" dominant-baseline="ideographic">Ownership Investigations</tspan></text></g></g></g><g id="g-root-tx_montanal_meup8i1yti5fm-fill" data-item-order="0" transform="translate(278.15521240234375, -10)"><g id="tx_montanal_meup8i1yti5fm-fill" stroke="none" fill="#0d0d0d"><g><text style="font: bold 20px &quot;Poppins 300&quot;, sans-serif; white-space: pre;" font-weight="bold" font-size="20px" font-family="'Poppins 300', sans-serif"><tspan x="12.36" y="36" dominant-baseline="ideographic">Montana LLC Violation Detection</tspan></text></g></g></g><g id="g-root-tx_socialme_1lynoea1ytdypv-fill" data-item-order="0" transform="translate(38.15716552734375, 362)"><g id="tx_socialme_1lynoea1ytdypv-fill" stroke="none" fill="#d11515"><g><text style="font: bold 15px &quot;Open Sans Regular&quot;, sans-serif; white-space: pre;" font-weight="bold" font-size="15px" font-family="'Open Sans Regular', sans-serif"><tspan x="19.52" y="32" dominant-baseline="ideographic">Social Media Monitoring</tspan></text></g></g></g><g id="g-root-sy_1_Polygon_1d158w21yte0hu-stroke" data-item-order="-293115" transform="translate(254.15557861328125, 98)"><g id="sy_1_Polygon_1d158w21yte0hu-stroke" fill="none" stroke-linecap="round" stroke-linejoin="round" stroke-miterlimit="4" stroke="#9251ac" stroke-width="2"><g><path d="M 10 82L 27.5538 82C 29.6878 82 31.6612 80.8665 32.7365 79.0232L 50.2365 49.0232C 51.3262 47.155 51.3262 44.8449 50.2365 42.9768L 32.7365 12.9768C 31.6612 11.1335 29.6878 10 27.5538 10L 10 10"></path></g></g></g><g id="g-root-sy_1_cu_1d158w21yte0hv-stroke" data-item-order="-293114" transform="translate(318.1514587402344, 74)"><g id="sy_1_cu_1d158w21yte0hv-stroke" fill="none" stroke-linecap="round" stroke-linejoin="round" stroke-miterlimit="4" stroke="#9251ac" stroke-width="2"><g><path d="M 13.203631 238.0204C 8.932131 245.4357 8.932131 254.5643 13.203631 261.9796L 137.628631 477.9796C 141.912731 485.4167 149.842231 490 158.425031 490L 407.180831 490C 415.763631 490 423.693131 485.4167 427.977131 477.9796L 552.402231 261.9796C 556.673631 254.5643 556.673631 245.4357 552.402231 238.0204L 427.977131 22.0204C 423.693131 14.5833 415.763531 10 407.180831 10L 158.425031 10C 149.842231 10 141.912731 14.5833 137.628631 22.0204L 13.203631 238.0204ZM 68.192731 274.0286C 63.927531 281.4397 63.927531 290.5604 68.192731 297.9715L 164.880231 465.9714C 169.163131 473.4131 177.095131 478 185.681331 478L 378.924531 478C 387.510731 478 395.442731 473.4131 399.725631 465.9714L 496.413131 297.9714C 500.678331 290.5603 500.678331 281.4396 496.413131 274.0285L 399.725631 106.0285C 395.442731 98.5868 387.510731 94 378.924531 94L 185.681331 94C 177.095131 94 169.163031 98.5869 164.880231 106.0286L 68.192731 274.0286Z"></path></g></g></g><g id="g-root-sy_1_line_1464pqa1ytdy4s-stroke" data-item-order="-293109" transform="translate(296.1553955078125, 134)"><g id="sy_1_line_1464pqa1ytdy4s-stroke" fill="none" stroke-linecap="round" stroke-linejoin="round" stroke-miterlimit="4" stroke="#9251ac" stroke-width="2"><style>.fillAsStrokeColor-mk-hxsin9e7ugas { fill:#9251ac; }</style><g><path d="M 10 10L 132 10"></path><path d="M 7 10C 7 11.656854 8.343146 13 10 13C 11.656854 13 13 11.656854 13 10C 13 8.343146 11.656854 7 10 7C 8.343146 7 7 8.343146 7 10Z" stroke-dasharray="none" class="fillAsStrokeColor-mk-hxsin9e7ugas"></path><path d="M 129 10C 129.000004 11.656854 130.343149 13 132.000004 13C 133.656858 13 135.000004 11.656854 135.000004 10C 135.000004 8.343146 133.656858 7 132.000004 7C 130.343149 7 129.000004 8.343146 129.000004 10Z" stroke-dasharray="none" class="fillAsStrokeColor-mk-hxsin9e7ugas"></path></g></g></g><g id="g-root-sy_2_Polygon_1464pqa1ytdy4t-stroke" data-item-order="-293105" transform="translate(254.15521240234375, 218)"><g id="sy_2_Polygon_1464pqa1ytdy4t-stroke" fill="none" stroke-linecap="round" stroke-linejoin="round" stroke-miterlimit="4" stroke="#b42456" stroke-width="2"><g><path d="M 10 82L 27.5538 82C 29.6878 82 31.6612 80.8665 32.7365 79.0232L 50.2365 49.0232C 51.3262 47.155 51.3262 44.8449 50.2365 42.9768L 32.7365 12.9768C 31.6612 11.1335 29.6878 10 27.5538 10L 10 10"></path></g></g></g><g id="g-root-sy_2_cu_zqb7lu1ytdyx2-stroke" data-item-order="-293104" transform="translate(373.1453857421875, 157.99609375)"><g id="sy_2_cu_zqb7lu1ytdyx2-stroke" fill="none" stroke-linecap="round" stroke-linejoin="round" stroke-miterlimit="4" stroke="#b42456" stroke-width="2"><g><path d="M 13.1989 190.0286C 8.9337 197.4397 8.9337 206.5604 13.1989 213.9715L 109.8864 381.9714C 114.1693 389.4131 122.1014 394 130.6875 394L 323.9307 394C 332.5169 394 340.4489 389.4131 344.7318 381.9714L 441.4193 213.9715C 445.6845 206.5603 445.6845 197.4396 441.4193 190.0285L 344.7318 22.0286C 340.4489 14.5868 332.5169 10 323.9307 10L 130.6875 10C 122.1013 10 114.1693 14.5869 109.8864 22.0286L 13.1989 190.0286ZM 69.1444 226.0693C 64.9104 233.4596 64.9104 242.5404 69.1444 249.9307L 137.8944 369.9307C 142.171 377.3954 150.1159 382 158.7189 382L 295.8994 382C 304.5023 382 312.4472 377.3954 316.7238 369.9307L 385.4738 249.9307C 389.7079 242.5404 389.7079 233.4596 385.4738 226.0693L 316.7238 106.0693C 312.4472 98.6047 304.5023 94 295.8994 94L 158.7189 94C 150.1159 94 142.171 98.6047 137.8944 106.0693L 69.1444 226.0693Z"></path></g></g></g><g id="g-root-sy_2_line_zqb7lu1ytdyx3-stroke" data-item-order="-293099" transform="translate(296.15521240234375, 254)"><g id="sy_2_line_zqb7lu1ytdyx3-stroke" fill="none" stroke-linecap="round" stroke-linejoin="round" stroke-miterlimit="4" stroke="#b42456" stroke-width="2"><style>.fillAsStrokeColor-mk-hxsin9e7ugat { fill:#b42456; }</style><g><path d="M 10 10L 138 10"></path><path d="M 7 10C 7 11.656854 8.343146 13 10 13C 11.656854 13 13 11.656854 13 10C 13 8.343146 11.656854 7 10 7C 8.343146 7 7 8.343146 7 10Z" stroke-dasharray="none" class="fillAsStrokeColor-mk-hxsin9e7ugat"></path><path d="M 135 10C 135.000004 11.656854 136.34315 13 138.000004 13C 139.656858 13 141.000004 11.656854 141.000004 10C 141.000004 8.343146 139.656858 7 138.000004 7C 136.34315 7 135.000004 8.343146 135.000004 10Z" stroke-dasharray="none" class="fillAsStrokeColor-mk-hxsin9e7ugat"></path></g></g></g><g id="g-root-sy_3_Polygon_zqb7lu1ytdyx4-stroke" data-item-order="-293095" transform="translate(254.1556396484375, 338)"><g id="sy_3_Polygon_zqb7lu1ytdyx4-stroke" fill="none" stroke-linecap="round" stroke-linejoin="round" stroke-miterlimit="4" stroke="#d11515" stroke-width="2"><g><path d="M 10 82L 27.5538 82C 29.6878 82 31.6612 80.8665 32.7365 79.0232L 50.2365 49.0232C 51.3262 47.155 51.3262 44.8449 50.2365 42.9768L 32.7365 12.9768C 31.6612 11.1335 29.6878 10 27.5538 10L 10 10"></path></g></g></g><g id="g-root-sy_3_cu_vahphe1ytdzpd-stroke" data-item-order="-293094" transform="translate(429.1143798828125, 241.99609375)"><g id="sy_3_cu_vahphe1ytdzpd-stroke" fill="none" stroke-linecap="round" stroke-linejoin="round" stroke-miterlimit="4" stroke="#d11515" stroke-width="2"><g><path d="M 13.1755 142.0693C 8.9415 149.4596 8.9415 158.5404 13.1755 165.9307L 81.9255 285.9307C 86.2022 293.3954 94.1471 298 102.75 298L 239.9305 298C 248.5334 298 256.4783 293.3954 260.7549 285.9307L 329.5049 165.9307C 333.739 158.5404 333.739 149.4596 329.5049 142.0693L 260.7549 22.0693C 256.4783 14.6047 248.5334 10 239.9305 10L 102.75 10C 94.147 10 86.2021 14.6047 81.9255 22.0693L 13.1755 142.0693ZM 68.1755 178.0693C 63.9415 185.4596 63.9415 194.5404 68.1755 201.9307L 109.4255 273.9307C 113.7022 281.3954 121.6471 286 130.25 286L 212.4305 286C 221.0334 286 228.9783 281.3954 233.2549 273.9307L 274.5049 201.9307C 278.739 194.5404 278.739 185.4596 274.5049 178.0693L 233.2549 106.0693C 228.9783 98.6047 221.0334 94 212.4305 94L 130.25 94C 121.647 94 113.7021 98.6047 109.4255 106.0693L 68.1755 178.0693Z"></path></g></g></g><g id="g-root-sy_3_line_vahphe1ytdzpe-stroke" data-item-order="-293089" transform="translate(296.15545654296875, 374)"><g id="sy_3_line_vahphe1ytdzpe-stroke" fill="none" stroke-linecap="round" stroke-linejoin="round" stroke-miterlimit="4" stroke="#d11515" stroke-width="2"><style>.fillAsStrokeColor-mk-92rzhhe7udxq { fill:#d11515; }</style><g><path d="M 10 10L 146 10"></path><path d="M 7 10C 7 11.656854 8.343146 13 10 13C 11.656854 13 13 11.656854 13 10C 13 8.343146 11.656854 7 10 7C 8.343146 7 7 8.343146 7 10Z" stroke-dasharray="none" class="fillAsStrokeColor-mk-92rzhhe7udxq"></path><path d="M 143 10C 143.000004 11.656854 144.34315 13 146.000004 13C 147.656858 13 149.000004 11.656854 149.000004 10C 149.000004 8.343146 147.656858 7 146.000004 7C 144.34315 7 143.000004 8.343146 143.000004 10Z" stroke-dasharray="none" class="fillAsStrokeColor-mk-92rzhhe7udxq"></path></g></g></g><g id="g-root-sy_4_Polygon_vahphe1ytdzpf-stroke" data-item-order="-293085" transform="translate(254.15557861328125, 458)"><g id="sy_4_Polygon_vahphe1ytdzpf-stroke" fill="none" stroke-linecap="round" stroke-linejoin="round" stroke-miterlimit="4" stroke="#ec4100" stroke-width="2"><g><path d="M 10 82L 27.5538 82C 29.6878 82 31.6612 80.8665 32.7365 79.0232L 50.2365 49.0232C 51.3262 47.155 51.3262 44.8449 50.2365 42.9768L 32.7365 12.9768C 31.6612 11.1335 29.6878 10 27.5538 10L 10 10"></path></g></g></g><g id="g-root-sy_4_cu_meup8i1yte0i4-stroke" data-item-order="-293084" transform="translate(484.1141357421875, 326)"><g id="sy_4_cu_meup8i1yte0i4-stroke" fill="none" stroke-linecap="round" stroke-linejoin="round" stroke-miterlimit="4" stroke="#ec4100" stroke-width="2"><g><path d="M 13.1755 117.9307C 8.9415 110.5404 8.9415 101.4596 13.1755 94.0693L 54.4255 22.0693C 58.7022 14.6046 66.6471 10 75.25 10L 157.4305 10C 166.0334 10 173.9783 14.6047 178.255 22.0693L 219.505 94.0693C 223.739 101.4596 223.739 110.5404 219.505 117.9307L 178.2549 189.9307C 173.9783 197.3954 166.0334 202 157.4305 202L 75.25 202C 66.6471 202 58.7022 197.3953 54.4255 189.9307L 13.1755 117.9307Z"></path></g></g></g><g id="g-root-sy_4_line_meup8i1yte0i5-stroke" data-item-order="-293079" transform="translate(296.1553955078125, 494)"><g id="sy_4_line_meup8i1yte0i5-stroke" fill="none" stroke-linecap="round" stroke-linejoin="round" stroke-miterlimit="4" stroke="#ec4100" stroke-width="2"><style>.fillAsStrokeColor-mk-92rzhhe7udxr { fill:#ec4100; }</style><g><path d="M 10 10L 235 10"></path><path d="M 7 10C 7 11.656854 8.343146 13 10 13C 11.656854 13 13 11.656854 13 10C 13 8.343146 11.656854 7 10 7C 8.343146 7 7 8.343146 7 10Z" stroke-dasharray="none" class="fillAsStrokeColor-mk-92rzhhe7udxr"></path><path d="M 232 10C 232.000007 11.656854 233.343152 13 235.000007 13C 236.656861 13 238.000007 11.656854 238.000007 10C 238.000007 8.343146 236.656861 7 235.000007 7C 233.343152 7 232.000007 8.343146 232.000007 10Z" stroke-dasharray="none" class="fillAsStrokeColor-mk-92rzhhe7udxr"></path></g></g></g><g id="g-root-tx_insuranc_8dnpe1yte0ht-stroke" data-item-order="0" transform="translate(14.15716552734375, 242)"></g><g id="g-root-ic_1_hvwtoi1ytgrns-stroke" data-item-order="0" transform="translate(230.15716552734375, 229.984375)"><g id="ic_1_hvwtoi1ytgrns-stroke" fill="none" stroke-linecap="round" stroke-linejoin="round" stroke-miterlimit="4" stroke="#b42456" stroke-width="2"><g><path d="M 30.497953 34.497555L 13.499651 34.497555C 12.395191 34.497555 11.49985 33.602215 11.49985 32.497753L 11.49985 26.498352C 11.49985 24.289434 13.290532 22.498753 15.499451 22.498753L 45.496456 22.498753C 47.705376 22.498753 49.496056 24.289434 49.496056 26.498352L 49.496056 29.498053M 16.499352 22.498753L 17.199282 16.167385C 17.371738 14.096715 19.101048 12.502971 21.178885 12.49975L 39.817024 12.49975C 41.894859 12.502971 43.624168 14.096715 43.796623 16.167385L 44.496555 22.498753M 15.499451 28.498154C 15.499451 29.602613 16.394793 30.497953 17.49925 30.497953C 18.60371 30.497953 19.499052 29.602613 19.499052 28.498154C 19.499052 27.393692 18.60371 26.498352 17.49925 26.498352C 16.394793 26.498352 15.499451 27.393692 15.499451 28.498154ZM 41.496857 28.498154C 41.496857 27.393692 42.392197 26.498352 43.496655 26.498352C 44.601112 26.498352 45.496456 27.393692 45.496456 28.498154M 21.498852 34.497555L 21.498852 37.497253C 21.498852 39.153942 20.15584 40.496956 18.499151 40.496956C 16.842463 40.496956 15.499452 39.153942 15.499452 37.497253L 15.499451 34.497555M 11.49985 18.499151L 16.499352 22.498753M 49.496056 18.499151L 44.496555 22.498753M 33.497654 41.554852C 33.497654 46.556942 37.552654 50.611942 42.554749 50.611942C 47.556843 50.611942 51.611843 46.556942 51.611843 41.554848C 51.611843 36.552753 47.556843 32.497753 42.554749 32.497753C 37.552654 32.497753 33.497654 36.552753 33.497654 41.554848ZM 55.495457 54.495556L 49.000107 48.000206"></path></g></g></g><g id="g-root-tx_2000_7r6ma1yti7t9-stroke" data-item-order="0" transform="translate(566.1552124023438, 188)"></g><g id="g-root-tx_vehicles_4o75tu1ytdzpk-stroke" data-item-order="0" transform="translate(49.99505615234375, 278.375)"></g><g id="g-root-tx_500_93e6v61yti70k-stroke" data-item-order="0" transform="translate(572.1552124023438, 272.00390625)"></g><g id="g-root-tx_vehicles_hzno761ytdy4m-stroke" data-item-order="0" transform="translate(13.99505615234375, 158.375)"></g><g id="g-root-tx_alprsyst_940nya1ytdyxb-stroke" data-item-order="0" transform="translate(110.15521240234375, 122)"></g><g id="g-root-ic_warn_1lws94y1ytfd3j-stroke" data-item-order="0" transform="translate(230.15716552734375, 349.98046875)"><g id="ic_warn_1lws94y1ytfd3j-stroke" fill="none" stroke-linecap="round" stroke-linejoin="round" stroke-miterlimit="4" stroke="#d11515" stroke-width="2"><g><path d="M 44.996506 46.996307L 44.996506 40.996906M 46.672337 34.997906C 46.510754 34.693733 46.269379 34.439358 45.974205 34.261978C 45.678837 34.084595 45.34087 33.990807 44.996506 33.990807C 44.652142 33.990807 44.314175 34.084595 44.019005 34.261978C 43.723633 34.439358 43.482258 34.693733 43.320675 34.997906L 33.209682 54.263977C 33.060295 54.547752 32.987503 54.86552 32.998306 55.186089C 33.009304 55.506657 33.103493 55.818825 33.271675 56.091801C 33.442059 56.366367 33.679836 56.592747 33.962208 56.749531C 34.244579 56.906315 34.56255 56.988308 34.885517 56.987709L 55.107494 56.987709C 55.430466 56.988308 55.748432 56.906315 56.030804 56.749531C 56.313175 56.592747 56.550953 56.366367 56.721336 56.091801C 56.889519 55.818825 56.983707 55.506657 56.994709 55.186089C 57.005508 54.86552 56.932716 54.547752 56.783325 54.263977L 46.672337 34.997906ZM 33.997604 42.996704L 10.9999 42.996704C 11.026881 40.711933 11.50251 38.454758 12.39976 36.353371C 13.379663 34.391563 17.477253 33.0317 22.620739 31.12789C 24.010601 30.611942 23.782623 26.982304 23.166685 26.304371C 22.184183 25.241978 21.437517 23.983784 20.975664 22.6124C 20.51383 21.241037 20.347286 19.787462 20.486954 18.347166C 20.398802 17.430359 20.500412 16.505211 20.785463 15.629398C 21.070494 14.753585 21.532869 13.945866 22.143747 13.256555C 22.754627 12.567264 23.500912 12.011159 24.336128 11.622906C 25.171326 11.234656 26.077555 11.022584 26.998302 10.9999C 27.91905 11.022584 28.825281 11.234656 29.660477 11.622906C 30.495754 12.011159 31.242079 12.567264 31.852818 13.256555C 32.463757 13.945866 32.926109 14.753585 33.211082 15.629398C 33.496254 16.505211 33.597843 17.430359 33.509651 18.347166C 33.650436 19.786903 33.485054 21.240099 33.0247 22.61146C 32.564148 23.982803 31.819021 25.241299 30.837919 26.304371C 30.221981 26.982304 29.994003 30.611942 31.383865 31.12789C 33.929611 32.069798 36.217381 32.879715 37.999207 33.693634M 44.996506 51.995808C 44.720333 51.995808 44.496555 51.77203 44.496555 51.495857C 44.496555 51.219685 44.720333 50.995907 44.996506 50.995907M 44.996506 51.995808C 45.272678 51.995808 45.496456 51.77203 45.496456 51.495857C 45.496456 51.219685 45.272678 50.995907 44.996506 50.995907"></path></g></g></g><g id="g-root-tx_llcowner_1d30o5e1ytdzik-stroke" data-item-order="0" transform="translate(61.99505615234375, 518.375)"></g><g id="g-root-tx_12000_7r6ma1yti7ta-stroke" data-item-order="0" transform="translate(560.1552124023438, 104)"></g><g id="g-root-tx_suspecte_1qeh6iq1ytdxxm-stroke" data-item-order="0" transform="translate(73.99505615234375, 398.375)"></g><g id="g-root-tx_100_dj7ozm1yti68b-stroke" data-item-order="0" transform="translate(572.1552124023438, 410)"></g><g id="g-root-ic_sear_zs6mv61ytdxxq-stroke" data-item-order="0" transform="translate(230.15719604492188, 469.9765625)"><g id="ic_sear_zs6mv61ytdxxq-stroke" fill="none" stroke-linecap="round" stroke-linejoin="round" stroke-miterlimit="4" stroke="#ec4100" stroke-width="2"><g><path d="M 19.998995 35.997387L 19.998995 38.997086C 19.998995 39.549316 19.551327 39.996986 18.999096 39.996986L 14.999497 39.996986C 14.447268 39.996986 13.999599 39.549316 13.999599 38.997086L 13.999599 35.997387M 49.995983 27.998192L 45.996384 23.998594L 15.999397 23.998594L 12.29177 27.706223C 12.104851 27.893614 11.999855 28.147472 11.999799 28.412149L 11.999799 34.99749C 11.999799 35.549717 12.44747 35.997387 12.999699 35.997387L 28.9081 35.997387M 45.996384 23.998594L 42.24876 14.627535C 42.096516 14.247638 41.728123 13.998876 41.318855 13.999599L 20.676928 13.999599C 20.267658 13.998876 19.899269 14.247638 19.747021 14.627535L 15.999397 23.998594M 11.999799 31.997791L 20.998896 31.997791M 34.001591 41.054882C 34.001591 46.056973 38.056587 50.111969 43.058681 50.111969C 48.060772 50.111969 52.115768 46.056973 52.115768 41.054878C 52.115768 36.052788 48.060772 31.997791 43.058681 31.997791C 38.056587 31.997791 34.001591 36.052788 34.001591 41.054878ZM 55.999382 53.995583L 49.504032 47.500237"></path></g></g></g><g id="g-root-ic_wifi_hs5z5u1yti7sx-stroke" data-item-order="0" transform="translate(230.15716552734375, 109.9921875)"><g id="ic_wifi_hs5z5u1yti7sx-stroke" fill="none" stroke-linecap="round" stroke-linejoin="round" stroke-miterlimit="4" stroke="#9251ac" stroke-width="2"><g><path d="M 22.998703 49.996006L 22.998703 52.995708C 22.998703 53.547935 22.551031 53.995605 21.998802 53.995605L 17.999201 53.995605C 17.446972 53.995605 16.999302 53.547935 16.999302 52.995708L 16.999302 49.996006M 50.995907 49.996006L 50.995907 52.995708C 50.995907 53.547935 50.548237 53.995605 49.996006 53.995605L 45.996407 53.995605C 45.444176 53.995605 44.996506 53.547935 44.996506 52.995708L 44.996506 49.996006M 51.995808 49.996006C 52.548035 49.996006 52.995708 49.548336 52.995708 48.996105L 52.995708 42.410767C 52.995651 42.146088 52.890656 41.892227 52.703735 41.704834L 48.996105 37.997204L 18.999102 37.997204L 15.291471 41.704834C 15.104552 41.892227 14.999557 42.146088 14.999501 42.410767L 14.999501 48.996105C 14.999501 49.548336 15.447171 49.996006 15.999401 49.996006ZM 48.996105 37.997204L 45.248478 28.626141C 45.096233 28.246243 44.72784 27.99748 44.318573 27.998203L 23.676636 27.998203C 23.267365 27.99748 22.898975 28.246243 22.746727 28.626141L 18.999102 37.997204M 14.999501 45.996407L 23.998602 45.996407M 43.996605 45.996407L 52.995708 45.996407M 21.348867 19.241077C 28.335073 12.252815 39.664135 12.252815 46.650341 19.241077M 26.398363 23.090693C 30.591871 18.898649 37.389339 18.898649 41.582844 23.090693M 46.650341 19.241077C 39.664135 12.252815 28.335073 12.252815 21.348866 19.241077M 41.596844 23.090693C 37.403336 18.898649 30.605869 18.898649 26.412361 23.090693"></path></g></g></g><g id="g-root-tx_ownershi_18n760y1yte0at-stroke" data-item-order="0" transform="translate(26.15521240234375, 482)"></g><g id="g-root-tx_montanal_meup8i1yti5fm-stroke" data-item-order="0" transform="translate(278.15521240234375, -10)"></g><g id="g-root-tx_socialme_1lynoea1ytdypv-stroke" data-item-order="0" transform="translate(38.15716552734375, 362)"></g></g></g></svg>