<?xml version="1.0" encoding="utf-8" standalone="yes"?>
<!DOCTYPE svg PUBLIC "-//W3C//DTD SVG 1.1//EN" "http://www.w3.org/Graphics/SVG/1.1/DTD/svg11.dtd">
<svg width="792" height="320" viewBox="0 0 792 320" style="fill:none;stroke:none;fill-rule:evenodd;clip-rule:evenodd;stroke-linecap:round;stroke-linejoin:round;stroke-miterlimit:1.5;" version="1.1" xmlns="http://www.w3.org/2000/svg" xmlns:xlink="http://www.w3.org/1999/xlink"><g id="items" style="isolation: isolate"><g id="blend" style="mix-blend-mode: normal"><g id="g-root-sy_3_line_1hiufrm1wvnvgr-fill" data-item-order="-38843" transform="translate(302, 118)"></g><g id="g-root-sy_1_line_1d3neqa1wvnt38-fill" data-item-order="-38837" transform="translate(301.9999084472656, 10)"></g><g id="g-root-sy_2_line_1d3neqa1wvnt39-fill" data-item-order="-38831" transform="translate(301.9997863769531, 118)"></g><g id="g-root-sy_0_line_1d3neqa1wvnt3a-fill" data-item-order="-38827" transform="translate(230, 118)"></g><g id="g-root-ic_1_m8kwgi1x554w9-fill" data-item-order="0" transform="translate(422, -8)"></g><g id="g-root-tx_maintain_m7byaa1x52byk-fill" data-item-order="0" transform="translate(470, -2)"><g id="tx_maintain_m7byaa1x52byk-fill" stroke="none" fill="#80c476"><g><text style="font: bold 15px &quot;Open Sans Regular&quot;, sans-serif; white-space: pre;" font-weight="bold" font-size="15px" font-family="'Open Sans Regular', sans-serif"><tspan x="12" y="32" dominant-baseline="ideographic">Maintain Accurate Registration</tspan></text></g></g></g><g id="g-root-ic_chec_142zadu1x53qbk-fill" data-item-order="0" transform="translate(86, 46)"></g><g id="g-root-tx_ensuresc_vcde8i1wvnvgj-fill" data-item-order="0" transform="translate(470, 34)"><g id="tx_ensuresc_vcde8i1wvnvgj-fill" stroke="none" fill="#0d0d0d"><g><text style="font: 15px &quot;Open Sans 300&quot;, sans-serif; white-space: pre;" font-size="15px" font-family="'Open Sans 300', sans-serif"><tspan x="12" y="29" dominant-baseline="ideographic">Ensures compliance and reduces risk of </tspan><tspan x="12" y="47" dominant-baseline="ideographic">claim denial or policy cancellation.</tspan></text></g></g></g><g id="g-root-ic_buy_1use7gy1x52dc7-fill" data-item-order="0" transform="translate(422, 100)"></g><g id="g-root-tx_howtoman_m7byaa1x52byl-fill" data-item-order="0" transform="translate(14, 118)"><g id="tx_howtoman_m7byaa1x52byl-fill" stroke="none" fill="#0d0d0d"><g><text style="font: bold 20px &quot;Poppins 300&quot;, sans-serif; white-space: pre;" font-weight="bold" font-size="20px" font-family="'Poppins 300', sans-serif"><tspan x="29.41" y="36" dominant-baseline="ideographic">How to manage </tspan><tspan x="15.05" y="60" dominant-baseline="ideographic">vehicle registration </tspan><tspan x="24.87" y="84" dominant-baseline="ideographic">and insurance to </tspan><tspan x="81.57" y="108" dominant-baseline="ideographic">avoid </tspan><tspan x="33.45" y="132" dominant-baseline="ideographic">complications?</tspan></text></g></g></g><g id="g-root-tx_usemonta_vcde8i1wvnvgi-fill" data-item-order="0" transform="translate(470, 106)"><g id="tx_usemonta_vcde8i1wvnvgi-fill" stroke="none" fill="#ffc107"><g><text style="font: bold 15px &quot;Open Sans Regular&quot;, sans-serif; white-space: pre;" font-weight="bold" font-size="15px" font-family="'Open Sans Regular', sans-serif"><tspan x="12" y="32" dominant-baseline="ideographic">Use Montana LLC Registration</tspan></text></g></g></g><g id="g-root-tx_potentia_zs6wcy1wvnuo9-fill" data-item-order="0" transform="translate(470, 142)"><g id="tx_potentia_zs6wcy1wvnuo9-fill" stroke="none" fill="#0d0d0d"><g><text style="font: 15px &quot;Open Sans 300&quot;, sans-serif; white-space: pre;" font-size="15px" font-family="'Open Sans 300', sans-serif"><tspan x="12" y="29" dominant-baseline="ideographic">Potential tax benefits but high risk of </tspan><tspan x="12" y="47" dominant-baseline="ideographic">insurance issues and legal consequences.</tspan></text></g></g></g><g id="g-root-ic_truc_hrig5u1x52cqu-fill" data-item-order="0" transform="translate(422, 208)"></g><g id="g-root-tx_optforco_zs6wcy1wvnuo8-fill" data-item-order="0" transform="translate(470, 214)"><g id="tx_optforco_zs6wcy1wvnuo8-fill" stroke="none" fill="#767ae5"><g><text style="font: bold 15px &quot;Open Sans Regular&quot;, sans-serif; white-space: pre;" font-weight="bold" font-size="15px" font-family="'Open Sans Regular', sans-serif"><tspan x="12" y="32" dominant-baseline="ideographic">Opt for Commercial Insurance</tspan></text></g></g></g><g id="g-root-tx_higherco_1d3neqa1wvnt3b-fill" data-item-order="0" transform="translate(470, 250)"><g id="tx_higherco_1d3neqa1wvnt3b-fill" stroke="none" fill="#0d0d0d"><g><text style="font: 15px &quot;Open Sans 300&quot;, sans-serif; white-space: pre;" font-size="15px" font-family="'Open Sans 300', sans-serif"><tspan x="12" y="29" dominant-baseline="ideographic">Higher costs but necessary for high-end </tspan><tspan x="12" y="47" dominant-baseline="ideographic">vehicles under Montana LLCs.</tspan></text></g></g></g><g id="g-root-sy_3_line_1hiufrm1wvnvgr-stroke" data-item-order="-38843" transform="translate(302, 118)"><g id="sy_3_line_1hiufrm1wvnvgr-stroke" fill="none" stroke-linecap="round" stroke-linejoin="round" stroke-miterlimit="4" stroke="#767ae5" stroke-width="2"><g><path d="M 116 118L 57.95 118C 44.7 118 33.95 107.25 33.95 94L 33.95 33.95C 33.95 20.72 23.23 10 10 10"></path><path d="M 110 124.5L 116.5 118L 110 111.5" stroke-dasharray="none"></path></g></g></g><g id="g-root-sy_1_line_1d3neqa1wvnt38-stroke" data-item-order="-38837" transform="translate(301.9999084472656, 10)"><g id="sy_1_line_1d3neqa1wvnt38-stroke" fill="none" stroke-linecap="round" stroke-linejoin="round" stroke-miterlimit="4" stroke="#80c476" stroke-width="2"><g><path d="M 116.000092 10L 58.950092 10C 45.700092 10 34.950092 20.75 34.950092 34L 34.950092 94.05C 34.950092 107.28 24.230092 118 11.000092 118L 10.000092 118"></path><path d="M 110.000092 16.5L 116.500092 10L 110.000092 3.5" stroke-dasharray="none"></path></g></g></g><g id="g-root-sy_2_line_1d3neqa1wvnt39-stroke" data-item-order="-38831" transform="translate(301.9997863769531, 118)"><g id="sy_2_line_1d3neqa1wvnt39-stroke" fill="none" stroke-linecap="round" stroke-linejoin="round" stroke-miterlimit="4" stroke="#ffc107" stroke-width="2"><g><path d="M 116.000214 10L 10.000214 10"></path><path d="M 110.000214 16.5L 116.500214 10L 110.000214 3.5" stroke-dasharray="none"></path></g></g></g><g id="g-root-sy_0_line_1d3neqa1wvnt3a-stroke" data-item-order="-38827" transform="translate(230, 118)"><g id="sy_0_line_1d3neqa1wvnt3a-stroke" fill="none" stroke-linecap="round" stroke-linejoin="round" stroke-miterlimit="4" stroke="#a3a3a3" stroke-width="2"><g><path d="M 82 10L 10 10"></path></g></g></g><g id="g-root-ic_1_m8kwgi1x554w9-stroke" data-item-order="0" transform="translate(422, -8)"><g id="ic_1_m8kwgi1x554w9-stroke" fill="none" stroke-linecap="round" stroke-linejoin="round" stroke-miterlimit="4" stroke="#80c476" stroke-width="2"><g><path d="M 24.0625 28.375L 12.8125 28.375C 11.984073 28.375 11.3125 27.703428 11.3125 26.875L 11.3125 22.375C 11.3125 20.718145 12.655645 19.375 14.3125 19.375L 36.8125 19.375C 38.469357 19.375 39.8125 20.718145 39.8125 22.375L 39.8125 23.125M 15.0625 19.375L 15.583 14.626C 15.712502 13.071122 17.012238 11.875077 18.5725 11.875L 32.552498 11.875C 34.112762 11.875077 35.412498 13.071122 35.542 14.626L 36.0625 19.375M 14.3125 23.875C 14.3125 24.703428 14.984073 25.375 15.8125 25.375C 16.640926 25.375 17.3125 24.703428 17.3125 23.875C 17.3125 23.046572 16.640926 22.375 15.8125 22.375C 14.984073 22.375 14.3125 23.046572 14.3125 23.875ZM 18.8125 28.375L 18.8125 30.625C 18.8125 31.867641 17.805141 32.875 16.5625 32.875C 15.31986 32.875 14.3125 31.867641 14.3125 30.625L 14.3125 28.375M 11.3125 16.375L 15.0625 19.375M 39.8125 16.375L 36.0625 19.375M 26.3125 34.375C 26.312502 39.345566 30.341938 43.375 35.3125 43.375C 40.283066 43.375 44.3125 39.345566 44.3125 34.375C 44.3125 29.404438 40.283066 25.375002 35.3125 25.375002C 30.341938 25.375002 26.312502 29.404438 26.312502 34.375ZM 39.323502 31.758999L 34.966 37.568501C 34.769886 37.82901 34.470634 37.991913 34.145393 38.015205C 33.820145 38.038498 33.500736 37.919907 33.269501 37.689999L 31.019499 35.439999"></path></g></g></g><g id="g-root-tx_maintain_m7byaa1x52byk-stroke" data-item-order="0" transform="translate(470, -2)"></g><g id="g-root-ic_chec_142zadu1x53qbk-stroke" data-item-order="0" transform="translate(86, 46)"><g id="ic_chec_142zadu1x53qbk-stroke" fill="none" stroke-linecap="round" stroke-linejoin="round" stroke-miterlimit="4" stroke="#484848" stroke-width="2"><g><path d="M 21.25 63.75L 21.25 67.5C 21.25 68.190353 20.690357 68.75 20 68.75L 15 68.75C 14.309644 68.75 13.75 68.190353 13.75 67.5L 13.75 63.75M 56.25 63.75L 56.25 67.5C 56.25 68.190353 55.690353 68.75 55 68.75L 50 68.75C 49.309647 68.75 48.75 68.190353 48.75 67.5L 48.75 63.75M 57.5 63.75C 58.190353 63.75 58.75 63.190353 58.75 62.5L 58.75 54.274998C 58.754917 53.936039 58.619148 53.610191 58.375 53.375L 53.75 48.75L 16.25 48.75L 11.25 53.75L 11.25 62.5C 11.25 63.190353 11.809644 63.75 12.5 63.75ZM 30.474998 36.25L 22.1 36.25C 21.586283 36.24231 21.120178 36.54974 20.924999 37.025002L 16.25 48.75M 11.25 58.75L 22.5 58.75M 47.5 58.75L 58.75 58.75M 42.5 11.25L 67.5 11.25C 67.5 11.25 68.75 11.25 68.75 12.5L 68.75 42.5C 68.75 42.5 68.75 43.75 67.5 43.75L 42.5 43.75C 42.5 43.75 41.25 43.75 41.25 42.5L 41.25 12.5C 41.25 12.5 41.25 11.25 42.5 11.25M 50 20.424999L 51.474998 22.625C 51.749329 23.035114 52.186146 23.308126 52.674999 23.375C 53.165688 23.439747 53.659893 23.284164 54.025002 22.949999L 60 17.5M 50 33.375L 51.474998 35.574997C 51.757854 35.976215 52.190414 36.246567 52.675003 36.325001C 53.164459 36.376625 53.653381 36.222706 54.025002 35.899998L 60 30.525"></path></g></g></g><g id="g-root-tx_ensuresc_vcde8i1wvnvgj-stroke" data-item-order="0" transform="translate(470, 34)"></g><g id="g-root-ic_buy_1use7gy1x52dc7-stroke" data-item-order="0" transform="translate(422, 100)"><g id="ic_buy_1use7gy1x52dc7-stroke" fill="none" stroke-linecap="round" stroke-linejoin="round" stroke-miterlimit="4" stroke="#ffc107" stroke-width="2"><g><path d="M 28 10.861C 31.246286 10.856233 34.426628 11.777241 37.167999 13.516C 44.292999 18.032499 44.818001 27.361 39.140499 34.181499C 35.900715 38.072662 32.334778 41.680248 28.481501 44.965C 28.202888 45.198296 27.797112 45.198296 27.518499 44.965C 23.665121 41.680901 20.099171 38.073803 16.859501 34.182999C 11.1835 27.361 11.707 18.032499 18.832001 13.516C 21.573372 11.777241 24.753712 10.856233 28 10.861ZM 35.5 31.861C 35.5 32.689426 34.828426 33.361 34 33.361L 22 33.361C 21.171574 33.361 20.5 32.689426 20.5 31.861L 20.5 30.715C 20.499525 30.482105 20.553999 30.252382 20.658998 30.0445L 22 27.361L 34 27.361L 35.341 30.0445C 35.445839 30.252441 35.500305 30.482124 35.5 30.715ZM 22 34.861L 22 33.361M 34 34.861L 34 33.361M 22 27.361L 22.5415 24.113501C 22.662403 23.390797 23.287754 22.861216 24.0205 22.861M 31.9795 22.861C 32.712246 22.861216 33.337597 23.390797 33.4585 24.113501L 34 27.361M 20.540501 30.361L 24.25 30.361M 31.75 30.361L 35.487999 30.361M 28 18.361L 28 16.861M 28 24.361L 28 22.861M 29.5 18.361L 27.25 18.361C 26.835787 18.361 26.5 18.696787 26.5 19.111C 26.5 20.611 29.5 20.611 29.5 22.111C 29.5 22.525213 29.164213 22.861 28.75 22.861L 26.5 22.861"></path></g></g></g><g id="g-root-tx_howtoman_m7byaa1x52byl-stroke" data-item-order="0" transform="translate(14, 118)"></g><g id="g-root-tx_usemonta_vcde8i1wvnvgi-stroke" data-item-order="0" transform="translate(470, 106)"></g><g id="g-root-tx_potentia_zs6wcy1wvnuo9-stroke" data-item-order="0" transform="translate(470, 142)"></g><g id="g-root-ic_truc_hrig5u1x52cqu-stroke" data-item-order="0" transform="translate(422, 208)"><g id="ic_truc_hrig5u1x52cqu-stroke" fill="none" stroke-linecap="round" stroke-linejoin="round" stroke-miterlimit="4" stroke="#767ae5" stroke-width="2"><g><path d="M 31.75 38.5L 31.75 22.75L 39.25 22.75C 42.563709 22.75 45.25 25.436291 45.25 28.75L 45.25 40.75C 45.25 41.578426 44.578426 42.25 43.75 42.25L 42.25 42.25M 33.25 42.25C 33.25 43.906857 34.593143 45.25 36.25 45.25C 37.906857 45.25 39.25 43.906857 39.25 42.25C 39.25 40.593143 37.906857 39.25 36.25 39.25C 34.593143 39.25 33.25 40.593143 33.25 42.25M 13.75 42.25C 13.75 43.906857 15.093145 45.25 16.75 45.25C 18.406855 45.25 19.75 43.906857 19.75 42.25C 19.75 40.593143 18.406855 39.25 16.75 39.25C 15.093145 39.25 13.75 40.593143 13.75 42.25M 31.75 36.25L 12.25 36.25C 11.421573 36.25 10.75 36.921574 10.75 37.75L 10.75 40M 45.25 31.75L 37.75 31.75C 36.921574 31.75 36.25 31.078428 36.25 30.25L 36.25 22.75M 31.75 22.75L 31.75 18.25M 33.25 42.25L 22.75 42.25M 45.25 38.5L 42.25 38.5M 18.25 19L 18.25 15.25M 25.564001 23.5315L 19.563999 11.5315C 19.301199 11.049449 18.796034 10.749491 18.247 10.749491C 17.697966 10.749491 17.192801 11.049449 16.93 11.5315L 10.93 23.5315C 10.676111 23.996773 10.686621 24.561495 10.957644 25.017C 11.228668 25.472504 11.719965 25.75116 12.25 25.75L 24.25 25.75C 24.778965 25.749041 25.26832 25.469543 25.537888 25.01442C 25.807453 24.559294 25.817375 23.995834 25.564001 23.5315ZM 18.25 21.625C 18.457108 21.625 18.625 21.792892 18.625 22C 18.625 22.207108 18.457108 22.375 18.25 22.375C 18.042892 22.375 17.875 22.207108 17.875 22C 17.875 21.792892 18.042892 21.625 18.25 21.625"></path></g></g></g><g id="g-root-tx_optforco_zs6wcy1wvnuo8-stroke" data-item-order="0" transform="translate(470, 214)"></g><g id="g-root-tx_higherco_1d3neqa1wvnt3b-stroke" data-item-order="0" transform="translate(470, 250)"></g></g></g></svg>