<?xml version="1.0" encoding="utf-8" standalone="yes"?>
<!DOCTYPE svg PUBLIC "-//W3C//DTD SVG 1.1//EN" "http://www.w3.org/Graphics/SVG/1.1/DTD/svg11.dtd">
<svg width="565" height="608" viewBox="0 0 565 608" style="fill:none;stroke:none;fill-rule:evenodd;clip-rule:evenodd;stroke-linecap:round;stroke-linejoin:round;stroke-miterlimit:1.5;" version="1.1" xmlns="http://www.w3.org/2000/svg" xmlns:xlink="http://www.w3.org/1999/xlink"><g id="items" style="isolation: isolate"><g id="blend" style="mix-blend-mode: normal"><g id="g-root-sy_0_cu_909wle1wl5zik-fill" data-item-order="-272154" transform="translate(236.00048828125, 58)"><g id="sy_0_cu_909wle1wl5zik-fill" stroke="none" fill="#ffffff"><g><path d="M 10 34L 28 10L 28 18.0001L 52 18.0001L 52 10.0002L 70 34.0002L 52 58.0002L 52 50.0001L 28 50.0001L 28 58L 10 34Z"></path></g></g></g><g id="g-root-sy_0_cu_1_4kgegy1wl60at-fill" data-item-order="-272151" transform="translate(14, 141.9989013671875)"></g><g id="g-root-sy_0_cu_2_4kgegy1wl60au-fill" data-item-order="-272149" transform="translate(266.00018310546875, 34)"></g><g id="g-root-tx_pros_1q6zkn61wlh8ul-fill" data-item-order="0" transform="translate(74.00048828125, 70)"><g id="tx_pros_1q6zkn61wlh8ul-fill" stroke="none" fill="#636873"><g><text style="font: bold 15px &quot;Open Sans Regular&quot;, sans-serif; white-space: pre;" font-weight="bold" font-size="15px" font-family="'Open Sans Regular', sans-serif"><tspan x="12" y="32" dominant-baseline="ideographic">Pros</tspan></text></g></g></g><g id="g-root-tx_cons_1iiwy1wlh890-fill" data-item-order="0" transform="translate(374.00048828125, 70)"><g id="tx_cons_1iiwy1wlh890-fill" stroke="none" fill="#636873"><g><text style="font: bold 15px &quot;Open Sans Regular&quot;, sans-serif; white-space: pre;" font-weight="bold" font-size="15px" font-family="'Open Sans Regular', sans-serif"><tspan x="12" y="32" dominant-baseline="ideographic">Cons</tspan></text></g></g></g><g id="g-root-ic_circ_8z0yf61wlfsap-fill" data-item-order="0" transform="translate(14.00048828125, 178)"></g><g id="g-root-tx_zerosale_1iiwy1wlh88z-fill" data-item-order="0" transform="translate(74.00048828125, 190)"><g id="tx_zerosale_1iiwy1wlh88z-fill" stroke="none" fill="#0d0d0d"><g><text style="font: 15px &quot;Open Sans 300&quot;, sans-serif; white-space: pre;" font-size="15px" font-family="'Open Sans 300', sans-serif"><tspan x="12" y="32" dominant-baseline="ideographic">Zero sales tax</tspan></text></g></g></g><g id="g-root-ic_ques_1cynfpe1wla7f0-fill" data-item-order="0" transform="translate(314.00048828125, 178)"></g><g id="g-root-tx_legalgra_hs62bm1wlh91i-fill" data-item-order="0" transform="translate(374.00048828125, 190)"><g id="tx_legalgra_hs62bm1wlh91i-fill" stroke="none" fill="#0d0d0d"><g><text style="font: 15px &quot;Open Sans 300&quot;, sans-serif; white-space: pre;" font-size="15px" font-family="'Open Sans 300', sans-serif"><tspan x="12" y="32" dominant-baseline="ideographic">Legal gray area</tspan></text></g></g></g><g id="g-root-ic_1_1czwdvm1wledqg-fill" data-item-order="0" transform="translate(14.00048828125, 262)"></g><g id="g-root-tx_noyearly_4hc11e1wlh7gq-fill" data-item-order="0" transform="translate(74.00048828125, 268)"><g id="tx_noyearly_4hc11e1wlh7gq-fill" stroke="none" fill="#0d0d0d"><g><text style="font: 15px &quot;Open Sans 300&quot;, sans-serif; white-space: pre;" font-size="15px" font-family="'Open Sans 300', sans-serif"><tspan x="12" y="29" dominant-baseline="ideographic">No yearly </tspan><tspan x="12" y="47" dominant-baseline="ideographic">inspections</tspan></text></g></g></g><g id="g-root-ic_coin_dilb2a1wl8tu3-fill" data-item-order="0" transform="translate(314.00048828125, 262)"></g><g id="g-root-tx_potentia_m7zkg21wlh899-fill" data-item-order="0" transform="translate(374.00048828125, 274)"><g id="tx_potentia_m7zkg21wlh899-fill" stroke="none" fill="#0d0d0d"><g><text style="font: 15px &quot;Open Sans 300&quot;, sans-serif; white-space: pre;" font-size="15px" font-family="'Open Sans 300', sans-serif"><tspan x="12" y="32" dominant-baseline="ideographic">Potential for abuse</tspan></text></g></g></g><g id="g-root-ic_shie_1qeh9oi1wlcz67-fill" data-item-order="0" transform="translate(14.00048828125, 346)"></g><g id="g-root-tx_privacyp_4hc11e1wlh7gp-fill" data-item-order="0" transform="translate(74.00048828125, 358)"><g id="tx_privacyp_4hc11e1wlh7gp-fill" stroke="none" fill="#0d0d0d"><g><text style="font: 15px &quot;Open Sans 300&quot;, sans-serif; white-space: pre;" font-size="15px" font-family="'Open Sans 300', sans-serif"><tspan x="12" y="32" dominant-baseline="ideographic">Privacy protection</tspan></text></g></g></g><g id="g-root-ic_cash_1cua43m1wl8rgq-fill" data-item-order="0" transform="translate(314.00048828125, 346)"></g><g id="g-root-tx_administ_m7zkg21wlh898-fill" data-item-order="0" transform="translate(374.00048828125, 358)"><g id="tx_administ_m7zkg21wlh898-fill" stroke="none" fill="#0d0d0d"><g><text style="font: 15px &quot;Open Sans 300&quot;, sans-serif; white-space: pre;" font-size="15px" font-family="'Open Sans 300', sans-serif"><tspan x="12" y="32" dominant-baseline="ideographic">Administrative fees</tspan></text></g></g></g><g id="g-root-ic_insu_zk2jwi1wlczd2-fill" data-item-order="0" transform="translate(14.00048828125, 430)"></g><g id="g-root-tx_permanen_dcz1aa1wlh6o0-fill" data-item-order="0" transform="translate(74.00048828125, 424)"><g id="tx_permanen_dcz1aa1wlh6o0-fill" stroke="none" fill="#0d0d0d"><g><text style="font: 15px &quot;Open Sans 300&quot;, sans-serif; white-space: pre;" font-size="15px" font-family="'Open Sans 300', sans-serif"><tspan x="12" y="32" dominant-baseline="ideographic">Permanent </tspan><tspan x="12" y="50" dominant-baseline="ideographic">registration for old </tspan><tspan x="12" y="68" dominant-baseline="ideographic">vehicles</tspan></text></g></g></g><g id="g-root-ic_brie_2rh361wl7fgp-fill" data-item-order="0" transform="translate(314.00048828125, 430)"></g><g id="g-root-tx_complexi_18eglz61wlh91e-fill" data-item-order="0" transform="translate(374.00048828125, 520)"><g id="tx_complexi_18eglz61wlh91e-fill" stroke="none" fill="#0d0d0d"><g><text style="font: 15px &quot;Open Sans 300&quot;, sans-serif; white-space: pre;" font-size="15px" font-family="'Open Sans 300', sans-serif"><tspan x="12" y="29" dominant-baseline="ideographic">Complexity for out-</tspan><tspan x="12" y="47" dominant-baseline="ideographic">of-state owners</tspan></text></g></g></g><g id="g-root-ic_sign_hunyo21wlbmkt-fill" data-item-order="0" transform="translate(14.00048828125, 514)"></g><g id="g-root-tx_simplere_hs62bm1wlh91j-fill" data-item-order="0" transform="translate(74.00048828125, 520)"><g id="tx_simplere_hs62bm1wlh91j-fill" stroke="none" fill="#0d0d0d"><g><text style="font: 15px &quot;Open Sans 300&quot;, sans-serif; white-space: pre;" font-size="15px" font-family="'Open Sans 300', sans-serif"><tspan x="12" y="29" dominant-baseline="ideographic">Simple registration </tspan><tspan x="12" y="47" dominant-baseline="ideographic">process</tspan></text></g></g></g><g id="g-root-ic_2_1luwx1e1wl5zb4-fill" data-item-order="0" transform="translate(314.00048828125, 514)"></g><g id="g-root-tx_register_1upxg761wl60wf-fill" data-item-order="0" transform="translate(116.00048828125, -2)"><g id="tx_register_1upxg761wl60wf-fill" stroke="none" fill="#636873"><g><text style="font: 20px &quot;Open Sans Regular&quot;, sans-serif; white-space: pre;" font-size="20px" font-family="'Open Sans Regular', sans-serif"><tspan x="12.77" y="35.5" dominant-baseline="ideographic">Registering vehicles in Montana</tspan></text></g></g></g><g id="g-root-tx_dependen_v3mkoy1wlh7gj-fill" data-item-order="0" transform="translate(374.00048828125, 436)"><g id="tx_dependen_v3mkoy1wlh7gj-fill" stroke="none" fill="#0d0d0d"><g><text style="font: 15px &quot;Open Sans 300&quot;, sans-serif; white-space: pre;" font-size="15px" font-family="'Open Sans 300', sans-serif"><tspan x="12" y="29" dominant-baseline="ideographic">Dependence on </tspan><tspan x="12" y="47" dominant-baseline="ideographic">registered agents</tspan></text></g></g></g><g id="g-root-sy_0_cu_909wle1wl5zik-stroke" data-item-order="-272154" transform="translate(236.00048828125, 58)"><g id="sy_0_cu_909wle1wl5zik-stroke" fill="none" stroke-linecap="round" stroke-linejoin="round" stroke-miterlimit="4" stroke="#a3a3a3" stroke-width="2"><g><path d="M 10 34L 28 10L 28 18.0001L 52 18.0001L 52 10.0002L 70 34.0002L 52 58.0002L 52 50.0001L 28 50.0001L 28 58L 10 34ZM 30.598633 28.373184L 34.998633 39.480384M 35.198633 39.097384L 39.598633 28.660484M 49.398633 30.192484C 49.065333 29.937084 48.731933 29.681784 48.398633 29.426484C 47.798633 28.851984 46.831933 28.628484 45.498633 28.756184C 44.165333 28.883884 43.465333 29.522184 43.398633 30.671184C 43.265333 31.820284 44.231933 32.905384 46.298633 33.926784C 48.431933 34.884284 49.465333 36.001384 49.398633 37.278084C 49.398633 38.554784 48.631933 39.320784 47.098633 39.576084C 45.498633 39.767584 44.431933 39.416584 43.898633 38.522884C 43.565333 38.075984 43.265333 37.629184 42.998633 37.182384"></path></g></g></g><g id="g-root-sy_0_cu_1_4kgegy1wl60at-stroke" data-item-order="-272151" transform="translate(14, 141.9989013671875)"><g id="sy_0_cu_1_4kgegy1wl60at-stroke" fill="none" stroke-linecap="round" stroke-linejoin="round" stroke-miterlimit="4" stroke="#a3a3a3" stroke-width="2"><g><path d="M 514.0005 10L 10 10.0008"></path></g></g></g><g id="g-root-sy_0_cu_2_4kgegy1wl60au-stroke" data-item-order="-272149" transform="translate(266.00018310546875, 34)"><g id="sy_0_cu_2_4kgegy1wl60au-stroke" fill="none" stroke-linecap="round" stroke-linejoin="round" stroke-miterlimit="4" stroke="#a3a3a3" stroke-width="2"><g><path d="M 10.0001 298L 10 214M 10.0001 382L 10 298M 10.0001 466L 10 382M 10.0001 550L 10 466M 10.0001 214L 10 118M 10 118L 10 80M 10 36L 10 10"></path></g></g></g><g id="g-root-tx_pros_1q6zkn61wlh8ul-stroke" data-item-order="0" transform="translate(74.00048828125, 70)"></g><g id="g-root-tx_cons_1iiwy1wlh890-stroke" data-item-order="0" transform="translate(374.00048828125, 70)"></g><g id="g-root-ic_circ_8z0yf61wlfsap-stroke" data-item-order="0" transform="translate(14.00048828125, 178)"><g id="ic_circ_8z0yf61wlfsap-stroke" fill="none" stroke-linecap="round" stroke-linejoin="round" stroke-miterlimit="4" stroke="#80c476" stroke-width="2"><g><path d="M 34.099998 56.599602C 46.5266 56.599602 56.600201 46.526001 56.600201 34.099602C 56.600201 21.67314 46.5266 11.59961 34.099998 11.59961C 21.673599 11.59961 11.600006 21.67314 11.600006 34.099602C 11.600006 46.526001 21.673599 56.599602 34.099998 56.599602ZM 22.80002 30L 45.200001 30M 22.80002 37.799801L 45.200001 37.799801M 42.799999 21.199219L 24.99996 46.7994"></path></g></g></g><g id="g-root-tx_zerosale_1iiwy1wlh88z-stroke" data-item-order="0" transform="translate(74.00048828125, 190)"></g><g id="g-root-ic_ques_1cynfpe1wla7f0-stroke" data-item-order="0" transform="translate(314.00048828125, 178)"><g id="ic_ques_1cynfpe1wla7f0-stroke" fill="none" stroke-linecap="round" stroke-linejoin="round" stroke-miterlimit="4" stroke="#ec4100" stroke-width="2"><g><path d="M 51 37.812C 54.14045 36.360321 56.10902 33.17202 55.999996 29.713999C 55.962135 27.155087 54.884983 24.721664 53.01619 22.973211C 51.1474 21.224758 48.64777 20.311714 46.091999 20.444C 43.813187 15.857494 39.121334 12.969126 34 13C 27.021046 12.90637 21.1735 18.258078 20.65 25.217999C 18.566479 24.759911 16.387331 25.259914 14.711922 26.580486C 13.036512 27.901056 12.041294 29.903114 12 32.035999C 11.833682 35.153412 13.95041 37.932251 17 38.600002M 22 43C 22 49.627419 27.372583 55 34 55C 40.627419 55 46 49.627419 46 43C 46 36.372581 40.627419 31.000002 34 31.000002C 27.372583 31.000002 22 36.372581 22 43ZM 30.25 40.084C 30.250002 38.012932 31.928934 36.334 34 36.334C 36.071068 36.334 37.75 38.012932 37.75 40.084C 37.75 42.155071 36.071068 43.834003 34 43.834003L 34 45.834M 34 49.834C 33.723858 49.834 33.5 50.057858 33.5 50.334C 33.5 50.610142 33.723858 50.834 34 50.834C 34.276142 50.834 34.5 50.610142 34.5 50.334C 34.5 50.057858 34.276142 49.834 34 49.834L 34 49.834"></path></g></g></g><g id="g-root-tx_legalgra_hs62bm1wlh91i-stroke" data-item-order="0" transform="translate(374.00048828125, 190)"></g><g id="g-root-ic_1_1czwdvm1wledqg-stroke" data-item-order="0" transform="translate(14.00048828125, 262)"><g id="ic_1_1czwdvm1wledqg-stroke" fill="none" stroke-linecap="round" stroke-linejoin="round" stroke-miterlimit="4" stroke="#767ae5" stroke-width="2"><g><path d="M 33 45.001999C 33 51.629417 38.372581 57.002003 45 57.002003C 51.627419 57.002003 57 51.629417 57 45.002003C 57 38.374584 51.627419 33.001999 45 33.001999C 38.372581 33.001999 33 38.374584 33 45.002003ZM 49.242001 40.760002L 40.757999 49.243999M 49.242001 49.243999L 40.757999 40.760002M 29 47L 13 47C 11.895431 47 11 46.104568 11 45L 11 17C 11 15.895431 11.895431 15 13 15L 49 15C 50.104568 15 51 15.895431 51 17L 51 30M 21 11.002L 21 21.001999M 41 11.002L 41 21.001999M 11 25.001999L 51 25.001999"></path></g></g></g><g id="g-root-tx_noyearly_4hc11e1wlh7gq-stroke" data-item-order="0" transform="translate(74.00048828125, 268)"></g><g id="g-root-ic_coin_dilb2a1wl8tu3-stroke" data-item-order="0" transform="translate(314.00048828125, 262)"><g id="ic_coin_dilb2a1wl8tu3-stroke" fill="none" stroke-linecap="round" stroke-linejoin="round" stroke-miterlimit="4" stroke="#ff8b00" stroke-width="2"><g><path d="M 42.139999 46.942001L 51 44C 53.221539 43.34127 55.618008 44.140095 57 46C 32.542 58.226002 40.456001 58.153999 19 51L 11 56M 29 48L 40 48C 40.799885 48.143661 41.608437 47.796913 42.055729 47.118397C 42.503025 46.439884 42.503025 45.56012 42.055729 44.881603C 41.608437 44.203091 40.799885 43.856342 40 44L 34 44C 31.629362 41.554111 28.404079 40.120651 25 40L 19 40L 11 44M 28.709999 24.298C 28.709782 31.090153 34.215847 36.596397 41.008003 36.596397C 47.800156 36.596397 53.306221 31.090153 53.306 24.298C 53.306221 17.505848 47.800156 11.999603 41.008003 11.999603C 34.215847 11.999603 28.709782 17.505848 28.710001 24.298ZM 41.007999 18L 41.007999 16M 44 18L 39.942001 18C 38.656754 18.000896 37.552536 18.912786 37.308643 20.174677C 37.064751 21.436569 37.749653 22.694248 38.942001 23.174L 43.07 24.826C 44.262344 25.305752 44.947247 26.563431 44.703358 27.825323C 44.459465 29.087214 43.355244 29.999102 42.07 30L 38 30M 41.007999 32L 41.007999 30"></path></g></g></g><g id="g-root-tx_potentia_m7zkg21wlh899-stroke" data-item-order="0" transform="translate(374.00048828125, 274)"></g><g id="g-root-ic_shie_1qeh9oi1wlcz67-stroke" data-item-order="0" transform="translate(14.00048828125, 346)"><g id="ic_shie_1qeh9oi1wlcz67-stroke" fill="none" stroke-linecap="round" stroke-linejoin="round" stroke-miterlimit="4" stroke="#4db6ac" stroke-width="2"><g><path d="M 55 11.059999C 56.104568 11.059999 57 11.955431 57 13.059999L 56.984001 28.200001C 57.075123 41.99398 47.563793 53.996471 34.113998 57.060001C 20.639263 54.11869 11.02043 42.205975 10.984 28.414L 11.01 13.07C 11.01 11.96543 11.905431 11.07 13.01 11.07ZM 43.032001 39.02C 43.03466 39.552162 42.825123 40.063446 42.44976 40.440681C 42.074398 40.817921 41.564171 41.030006 41.031998 41.029999L 27.032 41.091999C 25.931324 41.092014 25.037502 40.20266 25.032 39.101997L 24.978001 27.354C 24.978001 26.24943 25.87343 25.354 26.978001 25.354L 40.978001 25.292C 42.078674 25.291986 42.972496 26.181337 42.978001 27.282ZM 33.931999 17.059999L 33.931999 17.059999C 30.618277 17.075428 27.9445 19.774277 27.960001 23.088001L 27.959999 25.34L 39.959999 25.285999L 39.959999 23.034C 39.945675 19.719494 37.246502 17.044502 33.931999 17.060001ZM 31.506001 33.186001C 31.506001 34.566711 32.62529 35.686001 34.006001 35.686001C 35.386711 35.686001 36.506001 34.566711 36.506001 33.186001C 36.506001 31.805288 35.386711 30.686001 34.006001 30.686001C 32.62529 30.686001 31.506001 31.805288 31.506001 33.186001Z"></path></g></g></g><g id="g-root-tx_privacyp_4hc11e1wlh7gp-stroke" data-item-order="0" transform="translate(74.00048828125, 358)"></g><g id="g-root-ic_cash_1cua43m1wl8rgq-stroke" data-item-order="0" transform="translate(314.00048828125, 346)"><g id="ic_cash_1cua43m1wl8rgq-stroke" fill="none" stroke-linecap="round" stroke-linejoin="round" stroke-miterlimit="4" stroke="#ffc107" stroke-width="2"><g><path d="M 39 28.982L 39 20.982L 17 20.982L 17 46.98L 27 46.981998M 45 26.982L 45 16.982C 45 15.87743 44.104568 14.982 43 14.982L 34.104 14.982C 33.043873 12.558297 30.649412 10.992139 28.004 10.992139C 25.358589 10.992139 22.964127 12.558297 21.903999 14.982L 13 14.982C 11.895431 14.982 11 15.87743 11 16.982L 11 50.981998C 11 52.086571 11.895431 52.981998 13 52.981998L 29 52.981998M 23 26.982L 33 26.982M 23 32.982002L 33 32.982002M 23 38.982002L 29 38.982002M 48 38.982002L 43.933998 38.982002C 42.646805 38.980507 41.539787 39.893044 41.295616 41.156868C 41.051449 42.420689 41.738884 43.679913 42.933998 44.158001L 47.062 45.807999C 48.254345 46.28775 48.939247 47.545429 48.695358 48.807323C 48.451466 50.069214 47.347244 50.981102 46.062 50.981998L 42 50.981998M 45 52.981998L 45 50.981998M 45 38.982002L 45 36.982002M 33 44.981998C 33 51.609417 38.372581 56.982002 45 56.982002C 51.627419 56.982002 57 51.609417 57 44.982002C 57 38.354584 51.627419 32.982002 45 32.982002C 38.372581 32.982002 33 38.354584 33 44.982002Z"></path></g></g></g><g id="g-root-tx_administ_m7zkg21wlh898-stroke" data-item-order="0" transform="translate(374.00048828125, 358)"></g><g id="g-root-ic_insu_zk2jwi1wlczd2-stroke" data-item-order="0" transform="translate(14.00048828125, 430)"><g id="ic_insu_zk2jwi1wlczd2-stroke" fill="none" stroke-linecap="round" stroke-linejoin="round" stroke-miterlimit="4" stroke="#cccd35" stroke-width="2"><g><path d="M 25 13L 13 13C 11.895431 13 11 13.895431 11 15L 11 39C 11 47.836555 18.163445 55 27 55L 41 55C 49.836555 55 57 47.836555 57 39L 57 15C 57 13.895431 56.104568 13 55 13L 43 13M 21 31L 47 31C 49.209141 31 51 32.790863 51 35L 51 39C 51 40.104568 50.104568 41 49 41L 19 41C 17.895432 41 17 40.104568 17 39L 17 35C 17 32.790863 18.790861 31 21 31ZM 22 31L 22.694 24.667999C 22.866669 22.59483 24.599651 21.000103 26.68 21L 41.32 21C 43.400349 21.000103 45.133331 22.59483 45.306 24.667999L 46 31M 27 41L 27 44C 27 45.656857 25.656855 47 24 47C 22.343147 47 21 45.656857 21 44L 21 41M 47 41L 47 44C 47 45.656857 45.656857 47 44 47C 42.343147 47 41 45.656857 41 44L 41 41M 22 31L 18 28M 50 28L 46 31M 17 37L 22 37M 46 37L 51 37"></path></g></g></g><g id="g-root-tx_permanen_dcz1aa1wlh6o0-stroke" data-item-order="0" transform="translate(74.00048828125, 424)"></g><g id="g-root-ic_brie_2rh361wl7fgp-stroke" data-item-order="0" transform="translate(314.00048828125, 430)"><g id="ic_brie_2rh361wl7fgp-stroke" fill="none" stroke-linecap="round" stroke-linejoin="round" stroke-miterlimit="4" stroke="#b42456" stroke-width="2"><g><path d="M 21 32L 21 38M 30.648001 35.362C 29.330017 30.526751 24.636395 27.41387 19.669308 28.080767C 14.702218 28.747663 10.995908 32.988342 11 38L 11 45L 16 45L 17 57L 25 57L 26 45L 28 45M 14.968 14.446C 17.158287 16.717663 20.1784 18.000652 23.334 18C 24.91567 18.000362 26.480831 17.678482 27.934 17.054001M 14 18C 14 21.865993 17.134007 25 21 25C 24.865993 25 28 21.865993 28 18C 28 14.134007 24.865993 11 21 11C 17.134007 11 14 14.134007 14 18M 35 39L 55 39C 55 39 57 39 57 41L 57 55C 57 55 57 57 55 57L 35 57C 35 57 33 57 33 55L 33 41C 33 41 33 39 35 39M 33 47L 57 47M 45 47L 45 50M 46.764 35C 47.521332 35.000404 48.213474 35.428543 48.551998 36.106003L 50 39L 40 39L 41.447998 36.106003C 41.78653 35.428543 42.478668 35.000404 43.236 35Z"></path></g></g></g><g id="g-root-tx_complexi_18eglz61wlh91e-stroke" data-item-order="0" transform="translate(374.00048828125, 520)"></g><g id="g-root-ic_sign_hunyo21wlbmkt-stroke" data-item-order="0" transform="translate(14.00048828125, 514)"><g id="ic_sign_hunyo21wlbmkt-stroke" fill="none" stroke-linecap="round" stroke-linejoin="round" stroke-miterlimit="4" stroke="#d11515" stroke-width="2"><g><path d="M 24 33L 20 57M 28 11L 26 21M 44 33L 48 57M 40 11L 42 21M 34 49L 34 57M 34 35L 34 41M 34 11L 34 13M 18.860001 29.836C 18.940166 29.3538 19.357182 29.000225 19.846001 29L 48.152 29C 48.64082 29.000225 49.057835 29.3538 49.138 29.836L 50.862 40.164001C 50.942165 40.646202 51.35918 40.999775 51.848 41L 56 41C 56.552284 41 57 40.552284 57 40L 57 22C 57 21.447716 56.552284 21 56 21L 12 21C 11.447716 21 11 21.447716 11 22L 11 40C 11 40.552284 11.447716 41 12 41L 16.153999 41C 16.642818 40.999775 17.059834 40.646202 17.139999 40.164001Z"></path></g></g></g><g id="g-root-tx_simplere_hs62bm1wlh91j-stroke" data-item-order="0" transform="translate(74.00048828125, 520)"></g><g id="g-root-ic_2_1luwx1e1wl5zb4-stroke" data-item-order="0" transform="translate(314.00048828125, 514)"><g id="ic_2_1luwx1e1wl5zb4-stroke" fill="none" stroke-linecap="round" stroke-linejoin="round" stroke-miterlimit="4" stroke="#9251ac" stroke-width="2"><g><path d="M 21.99988 38C 24.209019 38 25.99988 36.209198 25.99988 34C 25.99988 31.7908 24.209019 30 21.99988 30C 19.790741 30 17.99988 31.7908 17.99988 34C 17.99988 36.209198 19.790741 38 21.99988 38ZM 39.999802 28C 42.209 28 43.999802 26.209141 43.999802 24C 43.999802 21.790859 42.209 20 39.999802 20C 37.790802 20 35.999802 21.790859 35.999802 24C 35.999802 26.209141 37.790802 28 39.999802 28ZM 46.046799 53.007801C 43.846802 53.007801 41.999802 51.200001 41.999802 49C 41.999802 46.799999 43.799801 45 45.999802 45C 48.199799 45 49.999802 46.799999 49.999802 49L 49.898399 49.921799M 46.199799 41.1992C 46.133202 42.466202 46.066601 43.733002 45.999802 45M 42.399799 27.199221C 43.5998 29.199221 44.799801 32.1992 45.5998 35.999199M 24.9375 31.2812C 27.57074 29.0415 31.621799 26.19092 36.078201 24.765621M 24.99988 36.799801C 25.799881 37.399799 26.59988 38.199799 27.59988 38.999802M 38.999802 46.1992C 40.013 46.606602 41.026398 47.217602 42.242199 47.625M 32.199799 42.400398C 32.799801 42.8004 33.199799 43.200401 33.799801 43.400398M 19.828121 30.648399C 18.40624 28.17458 16.578121 24.463821 15.96876 20.546879M 43.765598 22.63282C 46.438999 22.011261 50.003601 21.389721 52.899799 21.8041M 34 56.5C 46.426399 56.5 56.5 46.426399 56.5 34C 56.5 21.57358 46.426399 11.5 34 11.5C 21.57358 11.5 11.5 21.57358 11.5 34C 11.5 46.426399 21.57358 56.5 34 56.5Z"></path></g></g></g><g id="g-root-tx_register_1upxg761wl60wf-stroke" data-item-order="0" transform="translate(116.00048828125, -2)"></g><g id="g-root-tx_dependen_v3mkoy1wlh7gj-stroke" data-item-order="0" transform="translate(374.00048828125, 436)"></g></g></g></svg>