<?xml version="1.0" encoding="utf-8" standalone="yes"?>
<!DOCTYPE svg PUBLIC "-//W3C//DTD SVG 1.1//EN" "http://www.w3.org/Graphics/SVG/1.1/DTD/svg11.dtd">
<svg width="948" height="442" viewBox="0 0 948 442" style="fill:none;stroke:none;fill-rule:evenodd;clip-rule:evenodd;stroke-linecap:round;stroke-linejoin:round;stroke-miterlimit:1.5;" version="1.1" xmlns="http://www.w3.org/2000/svg" xmlns:xlink="http://www.w3.org/1999/xlink"><g id="items" style="isolation: isolate"><g id="blend" style="mix-blend-mode: normal"><g id="g-root-ro_1q6zbgjfbsu1b-fill" data-item-order="-33264" transform="translate(380, 141)"><g id="ro_1q6zbgjfbsu1b-fill" stroke="none" fill="#f5f5f5"><g><path d="M 34 10L 154 10C 154 10 178 10 178 34L 178 184C 178 184 178 208 154 208L 34 208C 34 208 10 208 10 184L 10 34C 10 34 10 10 34 10"></path></g></g></g><g id="g-root-ro_1hegrszfbbx8q-fill" data-item-order="-18144" transform="translate(-4, 72)"><g id="ro_1hegrszfbbx8q-fill" stroke="none" fill="#ffffdb"><g><path d="M 22 10L 334 10C 334 10 346 10 346 22L 346 52C 346 52 346 64 334 64L 22 64C 22 64 10 64 10 52L 10 22C 10 22 10 10 22 10"></path></g></g></g><g id="g-root-ro_1ut1nlvfbaiof-fill" data-item-order="-16848" transform="translate(20, 282)"><g id="ro_1ut1nlvfbaiof-fill" stroke="none" fill="#ffeee8"><g><path d="M 22 10L 310 10C 310 10 322 10 322 22L 322 52C 322 52 322 64 310 64L 22 64C 22 64 10 64 10 52L 10 22C 10 22 10 10 22 10"></path></g></g></g><g id="g-root-ro_91ilkzfbu8lh-fill" data-item-order="-15552" transform="translate(596, 252)"><g id="ro_91ilkzfbu8lh-fill" stroke="none" fill="#ffebf2"><g><path d="M 22 10L 286 10C 286 10 298 10 298 22L 298 52C 298 52 298 64 286 64L 22 64C 22 64 10 64 10 52L 10 22C 10 22 10 10 22 10"></path></g></g></g><g id="g-root-ro_mg3hdvfbsu16-fill" data-item-order="-12960" transform="translate(596, 102)"><g id="ro_mg3hdvfbsu16-fill" stroke="none" fill="#e7fae4"><g><path d="M 22 10L 238 10C 238 10 250 10 250 22L 250 52C 250 52 250 64 238 64L 22 64C 22 64 10 64 10 52L 10 22C 10 22 10 10 22 10"></path></g></g></g><g id="g-root-cu_v7zq9vfbby0z-fill" data-item-order="0" transform="translate(264.8571472167969, 126)"></g><g id="g-root-cu_qs685ffbby1a-fill" data-item-order="0" transform="translate(277, 126)"></g><g id="g-root-cu_v7zq9vfbby0x-fill" data-item-order="0" transform="translate(308, 126)"></g><g id="g-root-tx_official_hs5warfbai2y-fill" data-item-order="0" transform="translate(152, 138)"><g id="tx_official_hs5warfbai2y-fill" stroke="none" fill="#000000"><g><text style="font: 15px &quot;Open Sans Regular&quot;, sans-serif; white-space: pre;" font-size="15px" font-family="'Open Sans Regular', sans-serif"><tspan x="15.56" y="32" dominant-baseline="ideographic">Official Records</tspan></text></g></g></g><g id="g-root-tx_changeof_hs5warfbai2x-fill" data-item-order="0" transform="translate(80, 384)"><g id="tx_changeof_hs5warfbai2x-fill" stroke="none" fill="#000000"><g><text style="font: 15px &quot;Open Sans Regular&quot;, sans-serif; white-space: pre;" font-size="15px" font-family="'Open Sans Regular', sans-serif"><tspan x="14.93" y="32" dominant-baseline="ideographic">Change-of-Control Rules</tspan></text></g></g></g><g id="g-root-cu_1cyn9ojfbby0z-fill" data-item-order="0" transform="translate(548, 129)"></g><g id="g-root-cu_18itrk3fbbytj-fill" data-item-order="0" transform="translate(620, 156)"></g><g id="g-root-cu_143mqirfbbwg2-fill" data-item-order="0" transform="translate(620, 156)"></g><g id="g-root-tx_grantort_v2zxkzfbajno-fill" data-item-order="0" transform="translate(674, 168)"><g id="tx_grantort_v2zxkzfbajno-fill" stroke="none" fill="#000000"><g><text style="font: 15px &quot;Open Sans Regular&quot;, sans-serif; white-space: pre;" font-size="15px" font-family="'Open Sans Regular', sans-serif"><tspan x="12.25" y="32" dominant-baseline="ideographic">Grantor Trust to Irrevocable Trust</tspan></text></g></g></g><g id="g-root-tx_challeng_mccq0zfbbytp-fill" data-item-order="0" transform="translate(206, -6)"><g id="tx_challeng_mccq0zfbbytp-fill" stroke="none" fill="#0d0d0d"><g><text style="font: bold 20px &quot;Poppins 300&quot;, sans-serif; white-space: pre;" font-weight="bold" font-size="20px" font-family="'Poppins 300', sans-serif"><tspan x="15.01" y="36" dominant-baseline="ideographic">Challenges and Solutions in Moving an LLC to a Trust</tspan></text></g></g></g><g id="g-root-tx_incometa_v2zxkzfbajnp-fill" data-item-order="0" transform="translate(668, 204)"><g id="tx_incometa_v2zxkzfbajnp-fill" stroke="none" fill="#000000"><g><text style="font: 15px &quot;Open Sans Regular&quot;, sans-serif; white-space: pre;" font-size="15px" font-family="'Open Sans Regular', sans-serif"><tspan x="15.72" y="32" dominant-baseline="ideographic">Income Tax Responsibilities</tspan></text></g></g></g><g id="g-root-tx_truststr_dcce6bfbaiv8-fill" data-item-order="0" transform="translate(56, 234)"><g id="tx_truststr_dcce6bfbaiv8-fill" stroke="none" fill="#000000"><g><text style="font: 15px &quot;Open Sans Regular&quot;, sans-serif; white-space: pre;" font-size="15px" font-family="'Open Sans Regular', sans-serif"><tspan x="16.28" y="32" dominant-baseline="ideographic">Trust Structure Recognition</tspan></text></g></g></g><g id="g-root-cu_znt8ebfbbx8h-fill" data-item-order="0" transform="translate(270.79998779296875, 336)"></g><g id="g-root-cu_18itrk3fbbytg-fill" data-item-order="0" transform="translate(332, 99)"></g><g id="g-root-cu_znt8ebfbbx8k-fill" data-item-order="0" transform="translate(264.7368469238281, 336)"></g><g id="g-root-cu_18itrk3fbbytd-fill" data-item-order="0" transform="translate(332, 273)"></g><g id="g-root-cu_14309fnfbbytq-fill" data-item-order="0" transform="translate(548, 273)"></g><g id="g-root-tx_buysellp_qn6fgjfbakg0-fill" data-item-order="0" transform="translate(122, 348)"><g id="tx_buysellp_qn6fgjfbakg0-fill" stroke="none" fill="#000000"><g><text style="font: 15px &quot;Open Sans Regular&quot;, sans-serif; white-space: pre;" font-size="15px" font-family="'Open Sans Regular', sans-serif"><tspan x="16.44" y="32" dominant-baseline="ideographic">Buy-Sell Provisions</tspan></text></g></g></g><g id="g-root-tx_memberco_m7cxc3fbakge-fill" data-item-order="0" transform="translate(662, 318)"><g id="tx_memberco_m7cxc3fbakge-fill" stroke="none" fill="#000000"><g><text style="font: 15px &quot;Open Sans Regular&quot;, sans-serif; white-space: pre;" font-size="15px" font-family="'Open Sans Regular', sans-serif"><tspan x="15.39" y="32" dominant-baseline="ideographic">Member Consent</tspan></text></g></g></g><g id="g-root-cu_143mqirfbbwg4-fill" data-item-order="0" transform="translate(620, 306)"></g><g id="g-root-cu_v7zq9vfbbx8v-fill" data-item-order="0" transform="translate(620, 306)"></g><g id="g-root-tx_operatin_m7cxc3fbakgf-fill" data-item-order="0" transform="translate(668, 354)"><g id="tx_operatin_m7cxc3fbakgf-fill" stroke="none" fill="#000000"><g><text style="font: 15px &quot;Open Sans Regular&quot;, sans-serif; white-space: pre;" font-size="15px" font-family="'Open Sans Regular', sans-serif"><tspan x="15.36" y="32" dominant-baseline="ideographic">Operating Agreement Rules</tspan></text></g></g></g><g id="g-root-tx_property_dcce6bfbaiv7-fill" data-item-order="0" transform="translate(44, 186)"><g id="tx_property_dcce6bfbaiv7-fill" stroke="none" fill="#000000"><g><text style="font: 15px &quot;Open Sans Regular&quot;, sans-serif; white-space: pre;" font-size="15px" font-family="'Open Sans Regular', sans-serif"><tspan x="16.69" y="32" dominant-baseline="ideographic">Property Transfer Tax Reassessments</tspan></text></g></g></g><g id="g-root-ic_cash_1ut1nlvfbaioe-fill" data-item-order="2000000000" transform="translate(266, 294)"></g><g id="g-root-tx_multimem_mcz3ybfbu70j-fill" data-item-order="2000000000" transform="translate(662, 267)"><g id="tx_multimem_mcz3ybfbu70j-fill" stroke="none" fill="#636873"><g><text style="font: 15px &quot;Open Sans Regular&quot;, sans-serif; white-space: pre;" font-size="15px" font-family="'Open Sans Regular', sans-serif"><tspan x="15.89" y="32" dominant-baseline="ideographic">Multi-Member Ownership</tspan></text></g></g></g><g id="g-root-ic_sync_dhc3pffbu7t8-fill" data-item-order="2000000000" transform="translate(626, 264)"></g><g id="g-root-tx_challeng_4hbrurfbssnh-fill" data-item-order="2000000000" transform="translate(404, 237)"><g id="tx_challeng_4hbrurfbssnh-fill" stroke="none" fill="#636873"><g><text style="font: 15px &quot;Open Sans Regular&quot;, sans-serif; white-space: pre;" font-size="15px" font-family="'Open Sans Regular', sans-serif"><tspan x="21.66" y="32" dominant-baseline="ideographic">Challenges in </tspan><tspan x="17.26" y="50" dominant-baseline="ideographic">Moving an LLC </tspan><tspan x="34.75" y="68" dominant-baseline="ideographic">to a Trust</tspan></text></g></g></g><g id="g-root-ic_2_1q6zbgjfbsu1a-fill" data-item-order="2000000000" transform="translate(440, 183)"></g><g id="g-root-tx_taxcompl_vbqhmrfbst8g-fill" data-item-order="2000000000" transform="translate(668, 117)"><g id="tx_taxcompl_vbqhmrfbst8g-fill" stroke="none" fill="#636873"><g><text style="font: 15px &quot;Open Sans Regular&quot;, sans-serif; white-space: pre;" font-size="15px" font-family="'Open Sans Regular', sans-serif"><tspan x="12.26" y="32" dominant-baseline="ideographic">Tax Complications</tspan></text></g></g></g><g id="g-root-ic_docu_mg3hdvfbsu15-fill" data-item-order="2000000000" transform="translate(632, 114)"></g><g id="g-root-ic_lock_1hegrszfbbx8p-fill" data-item-order="2000000000" transform="translate(260, 84)"></g><g id="g-root-tx_statespe_1qa3s1vfbbwg0-fill" data-item-order="2000000000" transform="translate(38, 87)"><g id="tx_statespe_1qa3s1vfbbwg0-fill" stroke="none" fill="#636873"><g><text style="font: 15px &quot;Open Sans Regular&quot;, sans-serif; white-space: pre;" font-size="15px" font-family="'Open Sans Regular', sans-serif"><tspan x="16.8" y="32" dominant-baseline="ideographic">State-Specific Considerations</tspan></text></g></g></g><g id="g-root-tx_lenderan_4nklvnfbai2t-fill" data-item-order="2000000000" transform="translate(56, 297)"><g id="tx_lenderan_4nklvnfbai2t-fill" stroke="none" fill="#636873"><g><text style="font: 15px &quot;Open Sans Regular&quot;, sans-serif; white-space: pre;" font-size="15px" font-family="'Open Sans Regular', sans-serif"><tspan x="16.57" y="32" dominant-baseline="ideographic">Lender and Contract Issues</tspan></text></g></g></g><g id="g-root-ro_1q6zbgjfbsu1b-stroke" data-item-order="-33264" transform="translate(380, 141)"><g id="ro_1q6zbgjfbsu1b-stroke" fill="none" stroke-linecap="round" stroke-linejoin="round" stroke-miterlimit="4" stroke="#0d0d0d" stroke-width="2"><g><path d="M 34 10L 154 10C 154 10 178 10 178 34L 178 184C 178 184 178 208 154 208L 34 208C 34 208 10 208 10 184L 10 34C 10 34 10 10 34 10"></path></g></g></g><g id="g-root-ro_1hegrszfbbx8q-stroke" data-item-order="-18144" transform="translate(-4, 72)"><g id="ro_1hegrszfbbx8q-stroke" fill="none" stroke-linecap="round" stroke-linejoin="round" stroke-miterlimit="4" stroke="#cccd35" stroke-width="2"><g><path d="M 22 10L 334 10C 334 10 346 10 346 22L 346 52C 346 52 346 64 334 64L 22 64C 22 64 10 64 10 52L 10 22C 10 22 10 10 22 10"></path></g></g></g><g id="g-root-ro_1ut1nlvfbaiof-stroke" data-item-order="-16848" transform="translate(20, 282)"><g id="ro_1ut1nlvfbaiof-stroke" fill="none" stroke-linecap="round" stroke-linejoin="round" stroke-miterlimit="4" stroke="#ec4100" stroke-width="2"><g><path d="M 22 10L 310 10C 310 10 322 10 322 22L 322 52C 322 52 322 64 310 64L 22 64C 22 64 10 64 10 52L 10 22C 10 22 10 10 22 10"></path></g></g></g><g id="g-root-ro_91ilkzfbu8lh-stroke" data-item-order="-15552" transform="translate(596, 252)"><g id="ro_91ilkzfbu8lh-stroke" fill="none" stroke-linecap="round" stroke-linejoin="round" stroke-miterlimit="4" stroke="#b42456" stroke-width="2"><g><path d="M 22 10L 286 10C 286 10 298 10 298 22L 298 52C 298 52 298 64 286 64L 22 64C 22 64 10 64 10 52L 10 22C 10 22 10 10 22 10"></path></g></g></g><g id="g-root-ro_mg3hdvfbsu16-stroke" data-item-order="-12960" transform="translate(596, 102)"><g id="ro_mg3hdvfbsu16-stroke" fill="none" stroke-linecap="round" stroke-linejoin="round" stroke-miterlimit="4" stroke="#80c476" stroke-width="2"><g><path d="M 22 10L 238 10C 238 10 250 10 250 22L 250 52C 250 52 250 64 238 64L 22 64C 22 64 10 64 10 52L 10 22C 10 22 10 10 22 10"></path></g></g></g><g id="g-root-cu_v7zq9vfbby0z-stroke" data-item-order="0" transform="translate(264.8571472167969, 126)"><g id="cu_v7zq9vfbby0z-stroke" fill="none" stroke-linecap="round" stroke-linejoin="round" stroke-miterlimit="4" stroke="#0d0d0d" stroke-width="2" stroke-dasharray="5.0, 7.0"><g><path d="M 53.1 10L 53.1 25L 53.1 118C 53.099997 124.627421 47.727414 130.000004 41.099997 130.000004L 41 130L 10 130"></path></g></g></g><g id="g-root-cu_qs685ffbby1a-stroke" data-item-order="0" transform="translate(277, 126)"><g id="cu_qs685ffbby1a-stroke" fill="none" stroke-linecap="round" stroke-linejoin="round" stroke-miterlimit="4" stroke="#0d0d0d" stroke-width="2" stroke-dasharray="5.0, 7.0"><g><path d="M 41 10L 41 22L 41 34L 25.5 34L 10 34"></path></g></g></g><g id="g-root-cu_v7zq9vfbby0x-stroke" data-item-order="0" transform="translate(308, 126)"><g id="cu_v7zq9vfbby0x-stroke" fill="none" stroke-linecap="round" stroke-linejoin="round" stroke-miterlimit="4" stroke="#0d0d0d" stroke-width="2" stroke-dasharray="5.0, 7.0"><g><path d="M 10 10L 10 28L 10 46L 26.1 46L 42.1 46L 42.1 64L 42.1 82L 36.1 82L 30.1 82"></path></g></g></g><g id="g-root-tx_official_hs5warfbai2y-stroke" data-item-order="0" transform="translate(152, 138)"></g><g id="g-root-tx_changeof_hs5warfbai2x-stroke" data-item-order="0" transform="translate(80, 384)"></g><g id="g-root-cu_1cyn9ojfbby0z-stroke" data-item-order="0" transform="translate(548, 129)"><g id="cu_1cyn9ojfbby0z-stroke" fill="none" stroke-linecap="round" stroke-linejoin="round" stroke-miterlimit="4" stroke="#0d0d0d" stroke-width="2" stroke-dasharray="5.0, 7.0"><g><path d="M 10 88L 13 88L 13.1 88C 24.642753 88.000001 34.000002 78.642752 34.000002 67.100001L 34 67L 34 30.9C 33.999999 19.357249 43.357248 10.000001 54.899999 10.000002L 55 10L 58 10"></path></g></g></g><g id="g-root-cu_18itrk3fbbytj-stroke" data-item-order="0" transform="translate(620, 156)"><g id="cu_18itrk3fbbytj-stroke" fill="none" stroke-linecap="round" stroke-linejoin="round" stroke-miterlimit="4" stroke="#0d0d0d" stroke-width="2" stroke-dasharray="5.0, 7.0"><g><path d="M 10 10L 10 22L 10 34L 34.6 34L 59.2 34"></path></g></g></g><g id="g-root-cu_143mqirfbbwg2-stroke" data-item-order="0" transform="translate(620, 156)"><g id="cu_143mqirfbbwg2-stroke" fill="none" stroke-linecap="round" stroke-linejoin="round" stroke-miterlimit="4" stroke="#0d0d0d" stroke-width="2" stroke-dasharray="5.0, 7.0"><g><path d="M 10 10L 10 17.5L 10 58C 10.000002 64.627417 15.372585 70 22.000002 69.999999L 22.1 70L 53.1 70"></path></g></g></g><g id="g-root-tx_grantort_v2zxkzfbajno-stroke" data-item-order="0" transform="translate(674, 168)"></g><g id="g-root-tx_challeng_mccq0zfbbytp-stroke" data-item-order="0" transform="translate(206, -6)"></g><g id="g-root-tx_incometa_v2zxkzfbajnp-stroke" data-item-order="0" transform="translate(668, 204)"></g><g id="g-root-tx_truststr_dcce6bfbaiv8-stroke" data-item-order="0" transform="translate(56, 234)"></g><g id="g-root-cu_znt8ebfbbx8h-stroke" data-item-order="0" transform="translate(270.79998779296875, 336)"><g id="cu_znt8ebfbbx8h-stroke" fill="none" stroke-linecap="round" stroke-linejoin="round" stroke-miterlimit="4" stroke="#0d0d0d" stroke-width="2" stroke-dasharray="5.0, 7.0"><g><path d="M 47.2 10L 47.2 22L 47.2 34L 28.6 34L 10 34"></path></g></g></g><g id="g-root-cu_18itrk3fbbytg-stroke" data-item-order="0" transform="translate(332, 99)"><g id="cu_18itrk3fbbytg-stroke" fill="none" stroke-linecap="round" stroke-linejoin="round" stroke-miterlimit="4" stroke="#0d0d0d" stroke-width="2" stroke-dasharray="5.0, 7.0"><g><path d="M 58 118L 55 118L 54.9 118C 43.357248 117.999999 33.999999 108.64275 33.999999 97.099999L 34 97L 34 30.9C 33.999998 19.357248 24.64275 10 13.1 10L 13 10L 10 10"></path></g></g></g><g id="g-root-cu_znt8ebfbbx8k-stroke" data-item-order="0" transform="translate(264.7368469238281, 336)"><g id="cu_znt8ebfbbx8k-stroke" fill="none" stroke-linecap="round" stroke-linejoin="round" stroke-miterlimit="4" stroke="#0d0d0d" stroke-width="2" stroke-dasharray="5.0, 7.0"><g><path d="M 53.3 10L 53.3 17.5L 53.3 58C 53.299998 64.627415 47.927415 69.999998 41.299999 69.999998L 41.2 70L 10 70"></path></g></g></g><g id="g-root-cu_18itrk3fbbytd-stroke" data-item-order="0" transform="translate(332, 273)"><g id="cu_18itrk3fbbytd-stroke" fill="none" stroke-linecap="round" stroke-linejoin="round" stroke-miterlimit="4" stroke="#0d0d0d" stroke-width="2" stroke-dasharray="5.0, 7.0"><g><path d="M 58 10L 55 10L 54.9 10C 50.350902 9.994769 45.487624 11.792068 41.1 15.099998C 38.462623 17.103929 35.872373 21.810158 34 28.000001C 32.127628 34.189843 29.537377 38.896072 26.9 40.900001C 22.512376 44.207931 17.649098 46.00523 13.099999 46.000002L 13 46L 10 46"></path></g></g></g><g id="g-root-cu_14309fnfbbytq-stroke" data-item-order="0" transform="translate(548, 273)"><g id="cu_14309fnfbbytq-stroke" fill="none" stroke-linecap="round" stroke-linejoin="round" stroke-miterlimit="4" stroke="#0d0d0d" stroke-width="2" stroke-dasharray="5.0, 7.0"><g><path d="M 10 10L 13 10L 13.1 10C 16.311297 10.016369 19.867515 10.284763 23.700001 10.800001C 25.868292 11.054283 29.498118 11.829585 33.999999 13C 38.50188 14.170414 42.131706 14.945717 44.299999 15.2C 48.132487 15.71524 51.688705 15.983634 54.900002 16.000002L 55 16L 58 16"></path></g></g></g><g id="g-root-tx_buysellp_qn6fgjfbakg0-stroke" data-item-order="0" transform="translate(122, 348)"></g><g id="g-root-tx_memberco_m7cxc3fbakge-stroke" data-item-order="0" transform="translate(662, 318)"></g><g id="g-root-cu_143mqirfbbwg4-stroke" data-item-order="0" transform="translate(620, 306)"><g id="cu_143mqirfbbwg4-stroke" fill="none" stroke-linecap="round" stroke-linejoin="round" stroke-miterlimit="4" stroke="#0d0d0d" stroke-width="2" stroke-dasharray="5.0, 7.0"><g><path d="M 10 10L 10 22L 10 34L 28.6 34L 47.3 34"></path></g></g></g><g id="g-root-cu_v7zq9vfbbx8v-stroke" data-item-order="0" transform="translate(620, 306)"><g id="cu_v7zq9vfbbx8v-stroke" fill="none" stroke-linecap="round" stroke-linejoin="round" stroke-miterlimit="4" stroke="#0d0d0d" stroke-width="2" stroke-dasharray="5.0, 7.0"><g><path d="M 10 10L 10 17.5L 10 58C 10.000002 64.627417 15.372585 70 22.000002 69.999999L 22.1 70L 53.1 70"></path></g></g></g><g id="g-root-tx_operatin_m7cxc3fbakgf-stroke" data-item-order="0" transform="translate(668, 354)"></g><g id="g-root-tx_property_dcce6bfbaiv7-stroke" data-item-order="0" transform="translate(44, 186)"></g><g id="g-root-ic_cash_1ut1nlvfbaioe-stroke" data-item-order="2000000000" transform="translate(266, 294)"><g id="ic_cash_1ut1nlvfbaioe-stroke" fill="none" stroke-linecap="round" stroke-linejoin="round" stroke-miterlimit="4" stroke="#ec4100" stroke-width="2"><g><path d="M 28.125 21.86375L 28.125 16.86375L 14.375 16.86375L 14.375 33.112499L 20.625 33.11375M 31.875 20.61375L 31.875 14.36375C 31.875 13.673394 31.315355 13.11375 30.625 13.11375L 25.065001 13.11375C 24.40242 11.598935 22.905882 10.620087 21.252501 10.620087C 19.599117 10.620087 18.102579 11.598935 17.440001 13.11375L 11.875 13.11375C 11.184644 13.11375 10.625 13.673394 10.625 14.36375L 10.625 35.61375C 10.625 36.304108 11.184644 36.86375 11.875 36.86375L 21.875 36.86375M 18.125 20.61375L 24.375 20.61375M 18.125 24.36375L 24.375 24.36375M 18.125 28.11375L 21.875 28.11375M 33.75 28.11375L 31.208748 28.11375C 30.404253 28.112816 29.712368 28.683151 29.559761 29.473042C 29.407156 30.26293 29.836803 31.049946 30.583748 31.348751L 33.16375 32.379997C 33.908966 32.679844 34.337029 33.465893 34.184601 34.254578C 34.032166 35.043259 33.342026 35.61319 32.53875 35.61375L 30 35.61375M 31.875 36.86375L 31.875 35.61375M 31.875 28.11375L 31.875 26.86375M 24.375 31.863749C 24.375002 36.005886 27.732864 39.36375 31.875 39.36375C 36.017136 39.36375 39.375 36.005886 39.375 31.86375C 39.375 27.721615 36.017136 24.36375 31.875 24.36375C 27.732864 24.36375 24.375002 27.721615 24.375002 31.86375Z"></path></g></g></g><g id="g-root-tx_multimem_mcz3ybfbu70j-stroke" data-item-order="2000000000" transform="translate(662, 267)"></g><g id="g-root-ic_sync_dhc3pffbu7t8-stroke" data-item-order="2000000000" transform="translate(626, 264)"><g id="ic_sync_dhc3pffbu7t8-stroke" fill="none" stroke-linecap="round" stroke-linejoin="round" stroke-miterlimit="4" stroke="#b42456" stroke-width="2"><g><path d="M 10 10M 39.375 26.875L 39.375 31.875L 34.375 31.875M 39.25 31.875C 38.66127 28.987612 36.135696 26.903708 33.189049 26.873981C 30.242401 26.844255 27.675301 28.876787 27.028442 31.751711C 26.381584 34.626637 27.830723 37.56282 30.506132 38.798061C 33.181538 40.033298 36.356293 39.231964 38.125 36.875M 10.625 26.875C 10.637154 25.714609 10.877112 24.567902 11.33125 23.5C 11.83125 22.5 13.91 21.8125 16.522499 20.844999C 17.22875 20.58375 17.112499 18.74 16.799999 18.395C 15.792845 17.303646 15.299419 15.834283 15.44375 14.35625C 15.353253 13.415162 15.657961 12.478797 16.284966 11.771194C 16.91197 11.063592 17.804861 10.648415 18.75 10.625C 19.695139 10.648415 20.58803 11.063592 21.215034 11.771194C 21.842039 12.478797 22.146746 13.415162 22.05625 14.35625C 22.200947 15.834702 21.707495 17.304594 20.699999 18.39625C 20.387501 18.741249 20.27125 20.585001 20.977499 20.846251C 23.59 21.813751 25.67 22.504999 26.168751 23.501249C 26.622889 24.569153 26.862846 25.715858 26.875 26.876251ZM 23.639999 10.92125C 24.066275 10.724414 24.530476 10.623296 24.999998 10.625C 25.945137 10.648415 26.83803 11.063592 27.465034 11.771194C 28.092039 12.478797 28.396746 13.415162 28.30625 14.35625C 28.450947 15.834702 27.957495 17.304594 26.949999 18.39625C 26.637501 18.741249 26.52125 20.585001 27.227499 20.846251C 29.84 21.813751 31.919998 22.504999 32.418751 23.501249C 32.463753 23.591249 32.505001 23.682501 32.543751 23.776249"></path></g></g></g><g id="g-root-tx_challeng_4hbrurfbssnh-stroke" data-item-order="2000000000" transform="translate(404, 237)"></g><g id="g-root-ic_2_1q6zbgjfbsu1a-stroke" data-item-order="2000000000" transform="translate(440, 183)"><g id="ic_2_1q6zbgjfbsu1a-stroke" fill="none" stroke-linecap="round" stroke-linejoin="round" stroke-miterlimit="4" stroke="#484848" stroke-width="2"><g><path d="M 13.736 30.992001C 13.736 34.719925 16.758078 37.742001 20.486 37.742001C 24.213923 37.742001 27.236 34.719925 27.236 30.992001C 27.236 27.264078 24.213923 24.242001 20.486 24.242001C 16.758078 24.242001 13.736 27.264078 13.736 30.992001M 25.896 42.015999C 21.039612 39.59478 15.165894 40.694214 11.514 44.708M 40.764 30.992001C 40.764 34.719925 43.786079 37.742001 47.514 37.742001C 51.24192 37.742001 54.264 34.719925 54.264 30.992001C 54.264 27.264078 51.24192 24.242001 47.514 24.242001C 43.786079 24.242001 40.764 27.264078 40.764 30.992001M 56.486 44.708C 52.827831 40.690407 46.943954 39.596169 42.085999 42.029999M 20.986 19.25C 23.275414 14.773117 27.962111 12.039211 32.986 12.25C 38.009888 12.039211 42.696587 14.773117 44.986 19.25M 38.986 19.25L 45.986 19.25L 45.986 12.25M 37 42.25L 32.93 42.25C 31.644756 42.250896 30.540533 43.162785 30.296642 44.424675C 30.052752 45.686569 30.737654 46.944248 31.93 47.424L 36.057999 49.076C 37.250343 49.555752 37.935249 50.813431 37.691357 52.075321C 37.447464 53.337212 36.343243 54.2491 35.057999 54.25L 31 54.25M 33.996002 42.25L 33.996002 40.75M 33.996002 55.75L 33.996002 54.25M 41.898003 27.266001C 45.494823 29.83079 49.851822 31.106955 54.264004 30.888M 14.8 27.266001C 18.396824 29.83079 22.753819 31.106955 27.166 30.888"></path></g></g></g><g id="g-root-tx_taxcompl_vbqhmrfbst8g-stroke" data-item-order="2000000000" transform="translate(668, 117)"></g><g id="g-root-ic_docu_mg3hdvfbsu15-stroke" data-item-order="2000000000" transform="translate(632, 114)"><g id="ic_docu_mg3hdvfbsu15-stroke" fill="none" stroke-linecap="round" stroke-linejoin="round" stroke-miterlimit="4" stroke="#80c476" stroke-width="2"><g><path d="M 20 32.5L 30.3125 32.5M 20 27.5L 20 21.25M 18.75 21.25L 21.25 21.25M 23.75 27.5L 23.75 22.5C 23.75 21.809643 24.309643 21.25 25 21.25C 25.690357 21.25 26.25 21.809643 26.25 22.5L 26.25 27.5M 23.75 25L 26.25 25M 28.75 21.25L 31.25 27.5M 31.25 21.25L 28.75 27.5M 35.625 39.375C 36.315353 39.375 36.875 38.815353 36.875 38.125L 36.875 18.09375C 36.875 13.968873 33.531128 10.625 29.40625 10.625L 14.375 10.625C 13.684644 10.625 13.125 11.184644 13.125 11.875L 13.125 38.125C 13.125 38.815353 13.684644 39.375 14.375 39.375ZM 30.625 10.725L 30.625 15.625C 30.625 16.315355 31.184645 16.875 31.875 16.875L 36.775002 16.875"></path></g></g></g><g id="g-root-ic_lock_1hegrszfbbx8p-stroke" data-item-order="2000000000" transform="translate(260, 84)"><g id="ic_lock_1hegrszfbbx8p-stroke" fill="none" stroke-linecap="round" stroke-linejoin="round" stroke-miterlimit="4" stroke="#cccd35" stroke-width="2"><g><path d="M 28.125 24.36375L 28.125 16.86375L 14.375 16.86375L 14.375 33.112499L 24.375 33.11375M 31.875 20.61375L 31.875 14.36375C 31.875 13.673394 31.315355 13.11375 30.625 13.11375L 25.065001 13.11375C 24.40242 11.598935 22.905882 10.620087 21.252501 10.620087C 19.599117 10.620087 18.102579 11.598935 17.440001 13.11375L 11.875 13.11375C 11.184644 13.11375 10.625 13.673394 10.625 14.36375L 10.625 35.61375C 10.625 36.304108 11.184644 36.86375 11.875 36.86375L 24.375 36.86375M 18.125 20.61375L 24.375 20.61375M 18.125 24.36375L 24.375 24.36375M 18.125 28.11375L 24.375 28.11375M 29.375 29.365L 38.125 29.365C 38.125 29.365 39.375 29.365 39.375 30.615002L 39.375 38.11375C 39.375 38.11375 39.375 39.36375 38.125 39.36375L 29.375 39.36375C 29.375 39.36375 28.125 39.36375 28.125 38.11375L 28.125 30.615002C 28.125 30.615002 28.125 29.365 29.375 29.365M 32.1875 34.442501C 32.1875 35.305447 32.887054 36.005001 33.75 36.005001C 34.612946 36.005001 35.3125 35.305447 35.3125 34.442501C 35.3125 33.579556 34.612946 32.880001 33.75 32.880001C 32.887054 32.880001 32.1875 33.579556 32.1875 34.442501M 36.875 27.48875C 36.875 25.762861 35.475891 24.36375 33.75 24.36375C 32.024109 24.36375 30.625 25.762861 30.625 27.48875L 30.625 29.36375L 36.875 29.36375Z"></path></g></g></g><g id="g-root-tx_statespe_1qa3s1vfbbwg0-stroke" data-item-order="2000000000" transform="translate(38, 87)"></g><g id="g-root-tx_lenderan_4nklvnfbai2t-stroke" data-item-order="2000000000" transform="translate(56, 297)"></g></g></g></svg>