<?xml version="1.0" encoding="utf-8" standalone="yes"?>
<!DOCTYPE svg PUBLIC "-//W3C//DTD SVG 1.1//EN" "http://www.w3.org/Graphics/SVG/1.1/DTD/svg11.dtd">
<svg width="972" height="550" viewBox="0 0 972 550" style="fill:none;stroke:none;fill-rule:evenodd;clip-rule:evenodd;stroke-linecap:round;stroke-linejoin:round;stroke-miterlimit:1.5;" version="1.1" xmlns="http://www.w3.org/2000/svg" xmlns:xlink="http://www.w3.org/1999/xlink"><g id="items" style="isolation: isolate"><g id="blend" style="mix-blend-mode: normal"><g id="g-root-ro_1lz9gcc1hm1p8k-fill" data-item-order="-31320" transform="translate(374, 132)"><g id="ro_1lz9gcc1hm1p8k-fill" stroke="none" fill="#f5f5f5"><g><path d="M 34 10L 166 10C 166 10 190 10 190 34L 190 160C 190 160 190 184 166 184L 34 184C 34 184 10 184 10 160L 10 34C 10 34 10 10 34 10"></path></g></g></g><g id="g-root-ro_deto8s1hm4jyi-fill" data-item-order="-24192" transform="translate(590, 72)"><g id="ro_deto8s1hm4jyi-fill" stroke="none" fill="#ffebf2"><g><path d="M 22 10L 334 10C 334 10 346 10 346 22L 346 70C 346 70 346 82 334 82L 22 82C 22 82 10 82 10 70L 10 22C 10 22 10 10 22 10"></path></g></g></g><g id="g-root-ro_qvwge41hm7dvv-fill" data-item-order="-20088" transform="translate(278, 390)"><g id="ro_qvwge41hm7dvv-fill" stroke="none" fill="#ffeee8"><g><path d="M 22 10L 370 10C 370 10 382 10 382 22L 382 52C 382 52 382 64 370 64L 22 64C 22 64 10 64 10 52L 10 22C 10 22 10 10 22 10"></path></g></g></g><g id="g-root-ro_8sfw1hm5yit-fill" data-item-order="-18144" transform="translate(602, 240)"><g id="ro_8sfw1hm5yit-fill" stroke="none" fill="#fff7de"><g><path d="M 22 10L 334 10C 334 10 346 10 346 22L 346 52C 346 52 346 64 334 64L 22 64C 22 64 10 64 10 52L 10 22C 10 22 10 10 22 10"></path></g></g></g><g id="g-root-ro_1qbyl181hm8s8w-fill" data-item-order="-14256" transform="translate(62, 81)"><g id="ro_1qbyl181hm8s8w-fill" stroke="none" fill="#ffffdb"><g><path d="M 22 10L 262 10C 262 10 274 10 274 22L 274 52C 274 52 274 64 262 64L 22 64C 22 64 10 64 10 52L 10 22C 10 22 10 10 22 10"></path></g></g></g><g id="g-root-ro_1lt0ph81hma58r-fill" data-item-order="-14256" transform="translate(62, 231)"><g id="ro_1lt0ph81hma58r-fill" stroke="none" fill="#ffebeb"><g><path d="M 22 10L 262 10C 262 10 274 10 274 22L 274 52C 274 52 274 64 262 64L 22 64C 22 64 10 64 10 52L 10 22C 10 22 10 10 22 10"></path></g></g></g><g id="g-root-cu_1hd77cs1hma613-fill" data-item-order="0" transform="translate(554, 108)"></g><g id="g-root-cu_v6q5to1hma6te-fill" data-item-order="0" transform="translate(302, 444)"></g><g id="g-root-tx_form8832_qvwge41hm7dvw-fill" data-item-order="0" transform="translate(128, 147)"><g id="tx_form8832_qvwge41hm7dvw-fill" stroke="none" fill="#636873"><g><text style="font: 15px &quot;Open Sans Regular&quot;, sans-serif; white-space: pre;" font-size="15px" font-family="'Open Sans Regular', sans-serif"><tspan x="11.99" y="32" dominant-baseline="ideographic">Form 8832 &amp; 2553</tspan></text></g></g></g><g id="g-root-cu_18hk73w1hma7ly-fill" data-item-order="0" transform="translate(259, 135)"></g><g id="g-root-cu_1cxdp8c1hma6tn-fill" data-item-order="0" transform="translate(264.71429443359375, 135)"></g><g id="g-root-cu_18hk73w1hma7m0-fill" data-item-order="0" transform="translate(615.8461303710938, 144)"></g><g id="g-root-cu_142d62k1hma58j-fill" data-item-order="0" transform="translate(615.8461303710938, 144)"></g><g id="g-root-cu_zmjny41hma613-fill" data-item-order="0" transform="translate(302, 444)"></g><g id="g-root-tx_incomeli_dl2f3w1hm7cb2-fill" data-item-order="0" transform="translate(668, 156)"><g id="tx_incomeli_dl2f3w1hm7cb2-fill" stroke="none" fill="#636873"><g><text style="font: 15px &quot;Open Sans Regular&quot;, sans-serif; white-space: pre;" font-size="15px" font-family="'Open Sans Regular', sans-serif"><tspan x="15.36" y="32" dominant-baseline="ideographic">Income Limitations</tspan></text></g></g></g><g id="g-root-tx_profitdi_mgpfcs1hm7bid-fill" data-item-order="0" transform="translate(14, 183)"><g id="tx_profitdi_mgpfcs1hm7bid-fill" stroke="none" fill="#636873"><g><text style="font: 15px &quot;Open Sans Regular&quot;, sans-serif; white-space: pre;" font-size="15px" font-family="'Open Sans Regular', sans-serif"><tspan x="16.32" y="32" dominant-baseline="ideographic">Profit Distribution Requirements</tspan></text></g></g></g><g id="g-root-tx_sstbcons_dl2f3w1hm7cb3-fill" data-item-order="0" transform="translate(668, 192)"><g id="tx_sstbcons_dl2f3w1hm7cb3-fill" stroke="none" fill="#636873"><g><text style="font: 15px &quot;Open Sans Regular&quot;, sans-serif; white-space: pre;" font-size="15px" font-family="'Open Sans Regular', sans-serif"><tspan x="16.26" y="32" dominant-baseline="ideographic">SSTB Considerations</tspan></text></g></g></g><g id="g-root-cu_1hd77cs1hma610-fill" data-item-order="0" transform="translate(326, 108)"></g><g id="g-root-cu_1hd77cs1hma619-fill" data-item-order="0" transform="translate(326, 248)"></g><g id="g-root-cu_1hd77cs1hma616-fill" data-item-order="0" transform="translate(554, 248)"></g><g id="g-root-tx_annualll_4pfev01hm7dvo-fill" data-item-order="0" transform="translate(344, 456)"><g id="tx_annualll_4pfev01hm7dvo-fill" stroke="none" fill="#636873"><g><text style="font: 15px &quot;Open Sans Regular&quot;, sans-serif; white-space: pre;" font-size="15px" font-family="'Open Sans Regular', sans-serif"><tspan x="13.08" y="32" dominant-baseline="ideographic">Annual LLC Fees</tspan></text></g></g></g><g id="g-root-tx_solo401k_958wzg1hm7d3d-fill" data-item-order="0" transform="translate(668, 342)"><g id="tx_solo401k_958wzg1hm7d3d-fill" stroke="none" fill="#636873"><g><text style="font: 15px &quot;Open Sans Regular&quot;, sans-serif; white-space: pre;" font-size="15px" font-family="'Open Sans Regular', sans-serif"><tspan x="14.95" y="32" dominant-baseline="ideographic">Solo 401(k) Limits</tspan></text></g></g></g><g id="g-root-tx_ptetaxes_4pfev01hm7dvp-fill" data-item-order="0" transform="translate(338, 492)"><g id="tx_ptetaxes_4pfev01hm7dvp-fill" stroke="none" fill="#636873"><g><text style="font: 15px &quot;Open Sans Regular&quot;, sans-serif; white-space: pre;" font-size="15px" font-family="'Open Sans Regular', sans-serif"><tspan x="17.23" y="32" dominant-baseline="ideographic">PTE Taxes</tspan></text></g></g></g><g id="g-root-tx_proforma_958wzg1hm7d3e-fill" data-item-order="0" transform="translate(128, 297)"><g id="tx_proforma_958wzg1hm7d3e-fill" stroke="none" fill="#636873"><g><text style="font: 15px &quot;Open Sans Regular&quot;, sans-serif; white-space: pre;" font-size="15px" font-family="'Open Sans Regular', sans-serif"><tspan x="13.68" y="32" dominant-baseline="ideographic">Pro Forma Return</tspan></text></g></g></g><g id="g-root-tx_strategi_v6q5to1hma6tg-fill" data-item-order="0" transform="translate(308, -6)"><g id="tx_strategi_v6q5to1hma6tg-fill" stroke="none" fill="#0d0d0d"><g><text style="font: bold 20px &quot;Poppins 300&quot;, sans-serif; white-space: pre;" font-weight="bold" font-size="20px" font-family="'Poppins 300', sans-serif"><tspan x="16.66" y="36" dominant-baseline="ideographic">Strategic Tax Planning for LLCs</tspan></text></g></g></g><g id="g-root-cu_zmjny41hma60y-fill" data-item-order="0" transform="translate(264.71429443359375, 285)"></g><g id="g-root-cu_1cxdp8c1hma6tk-fill" data-item-order="0" transform="translate(464, 306)"></g><g id="g-root-cu_142d62k1hma58l-fill" data-item-order="0" transform="translate(626, 294)"></g><g id="g-root-cu_zmjny41hma60w-fill" data-item-order="0" transform="translate(626, 294)"></g><g id="g-root-tx_sepirali_i0vx8c1hm7cao-fill" data-item-order="0" transform="translate(668, 306)"><g id="tx_sepirali_i0vx8c1hm7cao-fill" stroke="none" fill="#636873"><g><text style="font: 15px &quot;Open Sans Regular&quot;, sans-serif; white-space: pre;" font-size="15px" font-family="'Open Sans Regular', sans-serif"><tspan x="14.95" y="32" dominant-baseline="ideographic">SEP IRA Limits</tspan></text></g></g></g><g id="g-root-tx_taxlossh_4pfev01hm7dvn-fill" data-item-order="0" transform="translate(110, 333)"><g id="tx_taxlossh_4pfev01hm7dvn-fill" stroke="none" fill="#636873"><g><text style="font: 15px &quot;Open Sans Regular&quot;, sans-serif; white-space: pre;" font-size="15px" font-family="'Open Sans Regular', sans-serif"><tspan x="12.3" y="32" dominant-baseline="ideographic">Tax-Loss Harvesting</tspan></text></g></g></g><g id="g-root-cu_zmjny41hma611-fill" data-item-order="0" transform="translate(258.5, 285)"></g><g id="g-root-id-2_4g2akc1hm5xqk-fill" data-item-order="1000000000" transform="translate(644, 252)"></g><g id="g-root-hand_zrjgn01hm7d36-fill" data-item-order="1000000000" transform="translate(326, 402)"></g><g id="g-root-docu_1lt0ph81hma58q-fill" data-item-order="1000000000" transform="translate(266, 243)"></g><g id="g-root-tx_statespe_147cyrg1hm7cax-fill" data-item-order="1000000000" transform="translate(362, 405)"><g id="tx_statespe_147cyrg1hm7cax-fill" stroke="none" fill="#636873"><g><text style="font: 15px &quot;Open Sans Regular&quot;, sans-serif; white-space: pre;" font-size="15px" font-family="'Open Sans Regular', sans-serif"><tspan x="14.63" y="32" dominant-baseline="ideographic">State-Specific Tax Considerations</tspan></text></g></g></g><g id="g-root-tx_yearendt_1uo18n01hma7lt-fill" data-item-order="1000000000" transform="translate(92, 246)"><g id="tx_yearendt_1uo18n01hma7lt-fill" stroke="none" fill="#636873"><g><text style="font: 15px &quot;Open Sans Regular&quot;, sans-serif; white-space: pre;" font-size="15px" font-family="'Open Sans Regular', sans-serif"><tspan x="16.13" y="32" dominant-baseline="ideographic">Year-End Tax Planning</tspan></text></g></g></g><g id="g-root-tx_strategi_8zfng1hm1r0i-fill" data-item-order="1000000000" transform="translate(398, 228)"><g id="tx_strategi_8zfng1hm1r0i-fill" stroke="none" fill="#636873"><g><text style="font: 15px &quot;Open Sans Regular&quot;, sans-serif; white-space: pre;" font-size="15px" font-family="'Open Sans Regular', sans-serif"><tspan x="31.36" y="29" dominant-baseline="ideographic">Strategic Tax </tspan><tspan x="15.54" y="47" dominant-baseline="ideographic">Planning for LLCs</tspan></text></g></g></g><g id="g-root-plan_1qeghdo1hm1rm3-fill" data-item-order="1000000000" transform="translate(440, 174)"></g><g id="g-root-tx_qualifie_qqa6m41hm4idk-fill" data-item-order="1000000000" transform="translate(638, 96)"><g id="tx_qualifie_qqa6m41hm4idk-fill" stroke="none" fill="#636873"><g><text style="font: 15px &quot;Open Sans Regular&quot;, sans-serif; white-space: pre;" font-size="15px" font-family="'Open Sans Regular', sans-serif"><tspan x="17.61" y="32" dominant-baseline="ideographic">Qualified Business Income Deduction</tspan></text></g></g></g><g id="g-root-bulb_magoho1hm4j5t-fill" data-item-order="1000000000" transform="translate(602, 93)"></g><g id="g-root-bank_1urs35o1hm8rgn-fill" data-item-order="1000000000" transform="translate(266, 93)"></g><g id="g-root-tx_scorpora_6hjb01hm8qvi-fill" data-item-order="1000000000" transform="translate(92, 96)"><g id="tx_scorpora_6hjb01hm8qvi-fill" stroke="none" fill="#636873"><g><text style="font: 15px &quot;Open Sans Regular&quot;, sans-serif; white-space: pre;" font-size="15px" font-family="'Open Sans Regular', sans-serif"><tspan x="15.67" y="32" dominant-baseline="ideographic">S-Corporation Election</tspan></text></g></g></g><g id="g-root-tx_retireme_dbpat81hm5wxv-fill" data-item-order="1000000000" transform="translate(680, 255)"><g id="tx_retireme_dbpat81hm5wxv-fill" stroke="none" fill="#636873"><g><text style="font: 15px &quot;Open Sans Regular&quot;, sans-serif; white-space: pre;" font-size="15px" font-family="'Open Sans Regular', sans-serif"><tspan x="11.91" y="32" dominant-baseline="ideographic">Retirement Plan Contributions</tspan></text></g></g></g><g id="g-root-ro_1lz9gcc1hm1p8k-stroke" data-item-order="-31320" transform="translate(374, 132)"><g id="ro_1lz9gcc1hm1p8k-stroke" fill="none" stroke-linecap="round" stroke-linejoin="round" stroke-miterlimit="4" stroke="#0d0d0d" stroke-width="2"><g><path d="M 34 10L 166 10C 166 10 190 10 190 34L 190 160C 190 160 190 184 166 184L 34 184C 34 184 10 184 10 160L 10 34C 10 34 10 10 34 10"></path></g></g></g><g id="g-root-ro_deto8s1hm4jyi-stroke" data-item-order="-24192" transform="translate(590, 72)"><g id="ro_deto8s1hm4jyi-stroke" fill="none" stroke-linecap="round" stroke-linejoin="round" stroke-miterlimit="4" stroke="#b42456" stroke-width="2"><g><path d="M 22 10L 334 10C 334 10 346 10 346 22L 346 70C 346 70 346 82 334 82L 22 82C 22 82 10 82 10 70L 10 22C 10 22 10 10 22 10"></path></g></g></g><g id="g-root-ro_qvwge41hm7dvv-stroke" data-item-order="-20088" transform="translate(278, 390)"><g id="ro_qvwge41hm7dvv-stroke" fill="none" stroke-linecap="round" stroke-linejoin="round" stroke-miterlimit="4" stroke="#ec4100" stroke-width="2"><g><path d="M 22 10L 370 10C 370 10 382 10 382 22L 382 52C 382 52 382 64 370 64L 22 64C 22 64 10 64 10 52L 10 22C 10 22 10 10 22 10"></path></g></g></g><g id="g-root-ro_8sfw1hm5yit-stroke" data-item-order="-18144" transform="translate(602, 240)"><g id="ro_8sfw1hm5yit-stroke" fill="none" stroke-linecap="round" stroke-linejoin="round" stroke-miterlimit="4" stroke="#ffc107" stroke-width="2"><g><path d="M 22 10L 334 10C 334 10 346 10 346 22L 346 52C 346 52 346 64 334 64L 22 64C 22 64 10 64 10 52L 10 22C 10 22 10 10 22 10"></path></g></g></g><g id="g-root-ro_1qbyl181hm8s8w-stroke" data-item-order="-14256" transform="translate(62, 81)"><g id="ro_1qbyl181hm8s8w-stroke" fill="none" stroke-linecap="round" stroke-linejoin="round" stroke-miterlimit="4" stroke="#cccd35" stroke-width="2"><g><path d="M 22 10L 262 10C 262 10 274 10 274 22L 274 52C 274 52 274 64 262 64L 22 64C 22 64 10 64 10 52L 10 22C 10 22 10 10 22 10"></path></g></g></g><g id="g-root-ro_1lt0ph81hma58r-stroke" data-item-order="-14256" transform="translate(62, 231)"><g id="ro_1lt0ph81hma58r-stroke" fill="none" stroke-linecap="round" stroke-linejoin="round" stroke-miterlimit="4" stroke="#d11515" stroke-width="2"><g><path d="M 22 10L 262 10C 262 10 274 10 274 22L 274 52C 274 52 274 64 262 64L 22 64C 22 64 10 64 10 52L 10 22C 10 22 10 10 22 10"></path></g></g></g><g id="g-root-cu_1hd77cs1hma613-stroke" data-item-order="0" transform="translate(554, 108)"><g id="cu_1hd77cs1hma613-stroke" fill="none" stroke-linecap="round" stroke-linejoin="round" stroke-miterlimit="4" stroke="#636873" stroke-width="2" stroke-dasharray="5.0, 7.0"><g><path d="M 10 92L 12.6 92L 12.7 92C 22.530669 92.000005 30.500001 84.030673 30.500001 74.200004L 30.5 74.1L 30.5 71.4C 30.512003 68.293122 30.310801 64.839162 29.900001 61.100002C 29.618857 58.810645 28.953073 55.271478 28 51C 27.046927 46.728522 26.381143 43.189355 26.1 40.9C 25.6892 37.160841 25.487998 33.706881 25.5 30.600001L 25.5 30.5L 25.5 27.8C 25.500001 17.969332 33.469333 9.999999 43.300002 10L 43.4 10L 46 10"></path></g></g></g><g id="g-root-cu_v6q5to1hma6te-stroke" data-item-order="0" transform="translate(302, 444)"><g id="cu_v6q5to1hma6te-stroke" fill="none" stroke-linecap="round" stroke-linejoin="round" stroke-miterlimit="4" stroke="#636873" stroke-width="2" stroke-dasharray="5.0, 7.0"><g><path d="M 10 10L 10 17.5L 10 58C 10.000002 64.627417 15.372585 70 22.000002 69.999999L 22.1 70L 41.3 70"></path></g></g></g><g id="g-root-tx_form8832_qvwge41hm7dvw-stroke" data-item-order="0" transform="translate(128, 147)"></g><g id="g-root-cu_18hk73w1hma7ly-stroke" data-item-order="0" transform="translate(259, 135)"><g id="cu_18hk73w1hma7ly-stroke" fill="none" stroke-linecap="round" stroke-linejoin="round" stroke-miterlimit="4" stroke="#636873" stroke-width="2" stroke-dasharray="5.0, 7.0"><g><path d="M 53 10L 53 17.5L 53 58C 52.999999 64.62742 47.627416 70.000003 40.999999 70.000002L 40.9 70L 10 70"></path></g></g></g><g id="g-root-cu_1cxdp8c1hma6tn-stroke" data-item-order="0" transform="translate(264.71429443359375, 135)"><g id="cu_1cxdp8c1hma6tn-stroke" fill="none" stroke-linecap="round" stroke-linejoin="round" stroke-miterlimit="4" stroke="#636873" stroke-width="2" stroke-dasharray="5.0, 7.0"><g><path d="M 47.3 10L 47.3 22L 47.3 34L 28.6 34L 10 34"></path></g></g></g><g id="g-root-cu_18hk73w1hma7m0-stroke" data-item-order="0" transform="translate(615.8461303710938, 144)"><g id="cu_18hk73w1hma7m0-stroke" fill="none" stroke-linecap="round" stroke-linejoin="round" stroke-miterlimit="4" stroke="#636873" stroke-width="2" stroke-dasharray="5.0, 7.0"><g><path d="M 10 10L 10 22L 10 34L 33.7 34L 57.4 34"></path></g></g></g><g id="g-root-cu_142d62k1hma58j-stroke" data-item-order="0" transform="translate(615.8461303710938, 144)"><g id="cu_142d62k1hma58j-stroke" fill="none" stroke-linecap="round" stroke-linejoin="round" stroke-miterlimit="4" stroke="#636873" stroke-width="2" stroke-dasharray="5.0, 7.0"><g><path d="M 10 10L 10 17.5L 10 58C 10.000002 64.627417 15.372585 70 22.000002 69.999999L 22.1 70L 57.3 70"></path></g></g></g><g id="g-root-cu_zmjny41hma613-stroke" data-item-order="0" transform="translate(302, 444)"><g id="cu_zmjny41hma613-stroke" fill="none" stroke-linecap="round" stroke-linejoin="round" stroke-miterlimit="4" stroke="#636873" stroke-width="2" stroke-dasharray="5.0, 7.0"><g><path d="M 10 10L 10 22L 10 34L 28.7 34L 47.4 34"></path></g></g></g><g id="g-root-tx_incomeli_dl2f3w1hm7cb2-stroke" data-item-order="0" transform="translate(668, 156)"></g><g id="g-root-tx_profitdi_mgpfcs1hm7bid-stroke" data-item-order="0" transform="translate(14, 183)"></g><g id="g-root-tx_sstbcons_dl2f3w1hm7cb3-stroke" data-item-order="0" transform="translate(668, 192)"></g><g id="g-root-cu_1hd77cs1hma610-stroke" data-item-order="0" transform="translate(326, 108)"><g id="cu_1hd77cs1hma610-stroke" fill="none" stroke-linecap="round" stroke-linejoin="round" stroke-miterlimit="4" stroke="#636873" stroke-width="2" stroke-dasharray="5.0, 7.0"><g><path d="M 58 92L 55 92L 54.9 92C 43.357247 92 33.999998 82.642751 33.999998 71.1L 34 71L 34 30.9C 33.999998 19.357248 24.64275 10 13.1 10L 13 10L 10 10"></path></g></g></g><g id="g-root-cu_1hd77cs1hma619-stroke" data-item-order="0" transform="translate(326, 248)"><g id="cu_1hd77cs1hma619-stroke" fill="none" stroke-linecap="round" stroke-linejoin="round" stroke-miterlimit="4" stroke="#636873" stroke-width="2" stroke-dasharray="5.0, 7.0"><g><path d="M 58 10L 55 10L 54.9 10C 51.639401 10.016148 48.03708 10.453814 44.200002 11.299999C 41.965481 11.745013 38.361958 13.052173 34 14.999999C 29.638043 16.947825 26.03452 18.254985 23.8 18.699999C 19.962923 19.546185 16.360601 19.98385 13.1 20L 13 20L 10 20"></path></g></g></g><g id="g-root-cu_1hd77cs1hma616-stroke" data-item-order="0" transform="translate(554, 248)"><g id="cu_1hd77cs1hma616-stroke" fill="none" stroke-linecap="round" stroke-linejoin="round" stroke-miterlimit="4" stroke="#636873" stroke-width="2" stroke-dasharray="5.0, 7.0"><g><path d="M 10 10L 13 10L 13.1 10C 16.676606 10.001212 20.599789 10.854077 24.6 12.499999C 26.965091 13.463113 30.310393 15.954295 34 19.500001C 37.689606 23.045707 41.034909 25.53689 43.4 26.500002C 47.400212 28.14592 51.323395 28.998786 54.900001 28.999998L 55 29L 58 29"></path></g></g></g><g id="g-root-tx_annualll_4pfev01hm7dvo-stroke" data-item-order="0" transform="translate(344, 456)"></g><g id="g-root-tx_solo401k_958wzg1hm7d3d-stroke" data-item-order="0" transform="translate(668, 342)"></g><g id="g-root-tx_ptetaxes_4pfev01hm7dvp-stroke" data-item-order="0" transform="translate(338, 492)"></g><g id="g-root-tx_proforma_958wzg1hm7d3e-stroke" data-item-order="0" transform="translate(128, 297)"></g><g id="g-root-tx_strategi_v6q5to1hma6tg-stroke" data-item-order="0" transform="translate(308, -6)"></g><g id="g-root-cu_zmjny41hma60y-stroke" data-item-order="0" transform="translate(264.71429443359375, 285)"><g id="cu_zmjny41hma60y-stroke" fill="none" stroke-linecap="round" stroke-linejoin="round" stroke-miterlimit="4" stroke="#636873" stroke-width="2" stroke-dasharray="5.0, 7.0"><g><path d="M 47.3 10L 47.3 22L 47.3 34L 28.6 34L 10 34"></path></g></g></g><g id="g-root-cu_1cxdp8c1hma6tk-stroke" data-item-order="0" transform="translate(464, 306)"><g id="cu_1cxdp8c1hma6tk-stroke" fill="none" stroke-linecap="round" stroke-linejoin="round" stroke-miterlimit="4" stroke="#636873" stroke-width="2" stroke-dasharray="5.0, 7.0"><g><path d="M 10 10L 10 52L 10 94"></path></g></g></g><g id="g-root-cu_142d62k1hma58l-stroke" data-item-order="0" transform="translate(626, 294)"><g id="cu_142d62k1hma58l-stroke" fill="none" stroke-linecap="round" stroke-linejoin="round" stroke-miterlimit="4" stroke="#636873" stroke-width="2" stroke-dasharray="5.0, 7.0"><g><path d="M 10 10L 10 22L 10 34L 28.8 34L 47.5 34"></path></g></g></g><g id="g-root-cu_zmjny41hma60w-stroke" data-item-order="0" transform="translate(626, 294)"><g id="cu_zmjny41hma60w-stroke" fill="none" stroke-linecap="round" stroke-linejoin="round" stroke-miterlimit="4" stroke="#636873" stroke-width="2" stroke-dasharray="5.0, 7.0"><g><path d="M 10 10L 10 17.5L 10 58C 10.000002 64.627417 15.372585 70 22.000002 69.999999L 22.1 70L 47.3 70"></path></g></g></g><g id="g-root-tx_sepirali_i0vx8c1hm7cao-stroke" data-item-order="0" transform="translate(668, 306)"></g><g id="g-root-tx_taxlossh_4pfev01hm7dvn-stroke" data-item-order="0" transform="translate(110, 333)"></g><g id="g-root-cu_zmjny41hma611-stroke" data-item-order="0" transform="translate(258.5, 285)"><g id="cu_zmjny41hma611-stroke" fill="none" stroke-linecap="round" stroke-linejoin="round" stroke-miterlimit="4" stroke="#636873" stroke-width="2" stroke-dasharray="5.0, 7.0"><g><path d="M 53.5 10L 53.5 17.5L 53.5 58C 53.499999 64.62742 48.127416 70.000003 41.499999 70.000003L 41.4 70L 10 70"></path></g></g></g><g id="g-root-id-2_4g2akc1hm5xqk-stroke" data-item-order="1000000000" transform="translate(644, 252)"><g id="id-2_4g2akc1hm5xqk-stroke" fill="none" stroke-linecap="round" stroke-linejoin="round" stroke-miterlimit="4" stroke="#ffc107" stroke-width="2"><g><path d="M 23.125 23.125L 11.875 23.125C 11.184644 23.125 10.625 22.565357 10.625 21.875L 10.625 11.875C 10.625 11.184644 11.184644 10.625 11.875 10.625L 31.875 10.625C 32.565353 10.625 33.125 11.184644 33.125 11.875L 33.125 18.125M 10.63 15L 15.005 10.625M 33.130001 15L 28.754999 10.625M 10.63 18.75L 15.005 23.125M 24.375 14.375L 20.432499 14.375C 19.902929 14.379784 19.459183 14.776871 19.395834 15.30266C 19.332485 15.828449 19.66922 16.319572 20.182499 16.450001L 23.5875 17.299999C 24.100779 17.430428 24.437513 17.921549 24.374165 18.447338C 24.310818 18.973127 23.867069 19.370216 23.3375 19.375L 19.375 19.375M 21.879999 14.375L 21.879999 13.125M 21.879999 20.625L 21.879999 19.375M 28.129999 29.375L 29.379999 29.375M 31.879999 29.375L 33.130001 29.375M 35.630001 29.375L 36.880001 29.375M 28.129999 31.875L 29.379999 31.875M 31.879999 31.875L 33.130001 31.875M 35.630001 31.875L 36.880001 31.875M 28.129999 34.375L 29.379999 34.375M 31.879999 34.375L 33.130001 34.375M 35.630001 34.375L 36.880001 34.375M 28.129999 36.875L 29.379999 36.875M 31.879999 36.875L 33.130001 36.875M 35.630001 36.875L 36.880001 36.875M 28.129999 20.625L 36.880001 20.625C 36.880001 20.625 39.380001 20.625 39.380001 23.125L 39.380001 36.875C 39.380001 36.875 39.380001 39.375 36.880001 39.375L 28.129999 39.375C 28.129999 39.375 25.629999 39.375 25.629999 36.875L 25.629999 23.125C 25.629999 23.125 25.629999 20.625 28.129999 20.625M 25.629999 26.875L 39.380001 26.875M 11.88 25.625L 23.129999 25.625M 13.13 28.125L 23.129999 28.125"></path></g></g></g><g id="g-root-hand_zrjgn01hm7d36-stroke" data-item-order="1000000000" transform="translate(326, 402)"><g id="hand_zrjgn01hm7d36-stroke" fill="none" stroke-linecap="round" stroke-linejoin="round" stroke-miterlimit="4" stroke="#ec4100" stroke-width="2"><g><path d="M 39.375 39.375L 36.25 35.087502L 36.25 29.375C 36.3125 27.15 33.025002 24.550001 30.625 22.5M 33.150002 31.875L 29.7875 28.412498C 29.269732 27.894732 28.430267 27.894732 27.912498 28.412498C 27.394732 28.930265 27.394732 29.769732 27.912498 30.287498L 31.25 34.375L 31.25 36.25C 31.25 37.5 33.200001 39.375 33.200001 39.375M 26.875 35.625L 11.875 35.625C 11.184644 35.625 10.625 35.065353 10.625 34.375L 10.625 11.875C 10.625 11.184644 11.184644 10.625 11.875 10.625L 29.375 10.625C 30.065355 10.625 30.625 11.184644 30.625 11.875L 30.625 29.275M 26.875 33.125L 15 33.125C 14.654822 33.125 14.375 32.845177 14.375 32.5L 14.375 25C 14.375 24.654823 14.654822 24.375 15 24.375L 26.25 24.375C 26.595177 24.375 26.875 24.654823 26.875 25L 26.875 26.875M 14.375 26.875L 26.875 26.875M 18.125 24.375L 18.125 33.125M 21.875 24.375L 21.875 33.125M 21.875 15.625L 26.875 15.625M 21.875 18.125L 25 18.125M 16.875 20.625L 16.875 21.875M 16.875 14.375L 16.875 15.625M 14.375 20.625L 18.125 20.625C 18.815355 20.625 19.375 20.065357 19.375 19.375C 19.375 18.684645 18.815355 18.125 18.125 18.125L 15.625 18.125C 14.934644 18.125 14.375 17.565355 14.375 16.875C 14.375 16.184645 14.934644 15.625 15.625 15.625L 19.375 15.625"></path></g></g></g><g id="g-root-docu_1lt0ph81hma58q-stroke" data-item-order="1000000000" transform="translate(266, 243)"><g id="docu_1lt0ph81hma58q-stroke" fill="none" stroke-linecap="round" stroke-linejoin="round" stroke-miterlimit="4" stroke="#d11515" stroke-width="2"><g><path d="M 20 32.5L 30.3125 32.5M 20 27.5L 20 21.25M 18.75 21.25L 21.25 21.25M 23.75 27.5L 23.75 22.5C 23.75 21.809643 24.309643 21.25 25 21.25C 25.690357 21.25 26.25 21.809643 26.25 22.5L 26.25 27.5M 23.75 25L 26.25 25M 28.75 21.25L 31.25 27.5M 31.25 21.25L 28.75 27.5M 35.625 39.375C 36.315353 39.375 36.875 38.815353 36.875 38.125L 36.875 18.09375C 36.875 13.968873 33.531128 10.625 29.40625 10.625L 14.375 10.625C 13.684644 10.625 13.125 11.184644 13.125 11.875L 13.125 38.125C 13.125 38.815353 13.684644 39.375 14.375 39.375ZM 30.625 10.725L 30.625 15.625C 30.625 16.315355 31.184645 16.875 31.875 16.875L 36.775002 16.875"></path></g></g></g><g id="g-root-tx_statespe_147cyrg1hm7cax-stroke" data-item-order="1000000000" transform="translate(362, 405)"></g><g id="g-root-tx_yearendt_1uo18n01hma7lt-stroke" data-item-order="1000000000" transform="translate(92, 246)"></g><g id="g-root-tx_strategi_8zfng1hm1r0i-stroke" data-item-order="1000000000" transform="translate(398, 228)"></g><g id="g-root-plan_1qeghdo1hm1rm3-stroke" data-item-order="1000000000" transform="translate(440, 174)"><g id="plan_1qeghdo1hm1rm3-stroke" fill="none" stroke-linecap="round" stroke-linejoin="round" stroke-miterlimit="4" stroke="#484848" stroke-width="2"><g><path d="M 12.842 16.454L 32.134003 16.454C 32.134003 16.454 33.487999 16.454 33.487999 17.808001L 33.487999 29.6C 33.487999 29.6 33.487999 30.954 32.134003 30.954L 12.842 30.954C 12.842 30.954 11.488 30.954 11.488 29.6L 11.488 17.808001C 11.488 17.808001 11.488 16.454 12.842 16.454M 16.813999 16.454L 18.836 13.654C 19.489794 12.695973 20.616394 12.173759 21.77 12.294L 23.726 12.294C 24.880138 12.173891 26.007263 12.695993 26.662001 13.654L 28.684 16.454M 11.488 22.454L 20.035999 22.454M 24.987999 22.454L 33.535999 22.454M 21.035999 21.424L 23.938 21.424C 23.938 21.424 24.938 21.424 24.938 22.424L 24.938 24.986C 24.938 24.986 24.938 25.986 23.938 25.986L 21.035999 25.986C 21.035999 25.986 20.035999 25.986 20.035999 24.986L 20.035999 22.424C 20.035999 22.424 20.035999 21.424 21.035999 21.424M 35.818001 41.214001L 55.110001 41.214001C 55.110001 41.214001 56.464001 41.214001 56.464001 42.568001L 56.464001 54.360001C 56.464001 54.360001 56.464001 55.714001 55.110001 55.714001L 35.818001 55.714001C 35.818001 55.714001 34.464001 55.714001 34.464001 54.360001L 34.464001 42.568001C 34.464001 42.568001 34.464001 41.214001 35.818001 41.214001M 39.788002 41.214001L 41.809998 38.414001C 42.465809 37.457443 43.592411 36.936352 44.746002 37.056L 46.702 37.056C 47.855133 36.935776 48.981426 37.457077 49.636002 38.414001L 51.658001 41.214001M 34.464001 47.214001L 43.012001 47.214001M 47.964001 47.214001L 56.512001 47.214001M 44.012001 46.181999L 46.914001 46.181999C 46.914001 46.181999 47.914001 46.181999 47.914001 47.181999L 47.914001 49.743999C 47.914001 49.743999 47.914001 50.743999 46.914001 50.743999L 44.012001 50.743999C 44.012001 50.743999 43.012001 50.743999 43.012001 49.743999L 43.012001 47.181999C 43.012001 47.181999 43.012001 46.181999 44.012001 46.181999M 53.487999 26.6C 53.487999 21.905579 49.682419 18.1 44.987999 18.1L 40.987999 18.1M 44.987999 14.096001L 40.987999 18.096001L 44.987999 22.096001M 14.488 39.599998C 14.488 44.294422 18.293579 48.099998 22.987999 48.099998L 26.988001 48.099998M 22.987999 52.096001L 26.988001 48.096001L 22.987999 44.096001"></path></g></g></g><g id="g-root-tx_qualifie_qqa6m41hm4idk-stroke" data-item-order="1000000000" transform="translate(638, 96)"></g><g id="g-root-bulb_magoho1hm4j5t-stroke" data-item-order="1000000000" transform="translate(602, 93)"><g id="bulb_magoho1hm4j5t-stroke" fill="none" stroke-linecap="round" stroke-linejoin="round" stroke-miterlimit="4" stroke="#b42456" stroke-width="2"><g><path d="M 21.875 35.627502L 28.125 35.627502M 21.875 38.127502L 28.125 38.127502M 25 38.127502L 25 39.377502M 21.875 32.5C 21.875 32.845177 22.154823 33.125 22.5 33.125L 27.5 33.125C 27.845177 33.125 28.125 32.845177 28.125 32.5L 28.125 31.451248C 32.825676 30.274916 36.155098 26.0947 36.25 21.25C 36.072353 15.211653 31.038639 10.45759 25 10.625C 18.961361 10.45759 13.927647 15.211653 13.75 21.25C 13.844902 26.0947 17.174324 30.274916 21.875 31.451252ZM 26.875 18.125L 24.75 18.125C 24.029367 18.119448 23.391163 18.58918 23.182255 19.278889C 22.973349 19.968597 23.243652 20.713509 23.846249 21.108749L 26.14625 22.641251C 26.747648 23.035744 27.018173 23.77865 26.811264 24.467485C 26.604353 25.156321 25.969236 25.627193 25.25 25.625L 23.125 25.625M 25.625 18.127501L 25.625 16.877501M 24.375 26.877501L 24.375 25.627501"></path></g></g></g><g id="g-root-bank_1urs35o1hm8rgn-stroke" data-item-order="1000000000" transform="translate(266, 93)"><g id="bank_1urs35o1hm8rgn-stroke" fill="none" stroke-linecap="round" stroke-linejoin="round" stroke-miterlimit="4" stroke="#cccd35" stroke-width="2"><g><path d="M 25 18.125C 27.238144 17.972408 29.456505 18.629932 31.25 19.977501M 39.375 21.875C 39.375 23.255713 38.255714 24.375 36.875 24.375M 21.9375 14.725C 20.962845 12.999311 18.949862 12.144371 17.03125 12.641251C 16.811573 12.698722 16.640348 12.870819 16.583994 13.090785C 16.527637 13.310752 16.595018 13.543979 16.76 13.7C 17.36524 14.270366 17.795376 15.001423 18 15.807501C 18.065151 16.066378 17.958689 16.338058 17.735001 16.483749C 15.348071 17.947979 13.704714 20.366581 13.2225 23.125L 11.875 23.125C 11.184644 23.125 10.625 23.684643 10.625 24.375L 10.625 26.875C 10.625 27.565357 11.184644 28.125 11.875 28.125L 14 28.125C 16.188206 32.122364 20.445942 34.541534 25 34.375C 31.55875 34.375 36.875 29.89875 36.875 24.375C 36.875 17.91625 29.625 13 21.9375 14.725ZM 17.5 22.1875C 17.672588 22.1875 17.8125 22.327412 17.8125 22.5C 17.8125 22.672588 17.672588 22.8125 17.5 22.8125C 17.327412 22.8125 17.1875 22.672588 17.1875 22.5C 17.188185 22.327694 17.327696 22.188185 17.5 22.1875M 19.380001 33.182499L 18.130001 37.5M 30.629999 33.182499L 31.879999 37.5"></path></g></g></g><g id="g-root-tx_scorpora_6hjb01hm8qvi-stroke" data-item-order="1000000000" transform="translate(92, 96)"></g><g id="g-root-tx_retireme_dbpat81hm5wxv-stroke" data-item-order="1000000000" transform="translate(680, 255)"></g></g></g></svg>