<?xml version="1.0" encoding="utf-8" standalone="yes"?>
<!DOCTYPE svg PUBLIC "-//W3C//DTD SVG 1.1//EN" "http://www.w3.org/Graphics/SVG/1.1/DTD/svg11.dtd">
<svg width="852" height="537" viewBox="0 0 852 537" style="fill:none;stroke:none;fill-rule:evenodd;clip-rule:evenodd;stroke-linecap:round;stroke-linejoin:round;stroke-miterlimit:1.5;" version="1.1" xmlns="http://www.w3.org/2000/svg" xmlns:xlink="http://www.w3.org/1999/xlink"><g id="items" style="isolation: isolate"><g id="blend" style="mix-blend-mode: normal"><g id="g-root-cp_0_g-0_meuvurdxntah-fill" data-item-order="-410834" transform="translate(356, 101)"><g id="cp_0_g-0_meuvurdxntah-fill" stroke="none" fill="#ffffff"><g><path d="M 460 10L 370 64.0029L 370 118L 280 172L 280 226L 190 280L 190 334L 100 388L 10 334L 10 349.609L 100 403.609L 202 342.109L 202 288.009L 292 234L 292 180.009L 382 125.982L 382 72.0119L 460 25.2012L 460 10Z"></path></g></g><g id="cp_0_g-0_meuvurdxntah-fill" stroke="none" fill="#ffffff"><g><path d="M 370 64L 280 10L 280 64L 370 118L 370 64Z"></path></g></g><g id="cp_0_g-0_meuvurdxntah-fill" stroke="none" fill="#ffffff"><g><path d="M 280 172L 190 118L 190 172L 280 226L 280 172Z"></path></g></g><g id="cp_0_g-0_meuvurdxntah-fill" stroke="none" fill="#ffffff"><g><path d="M 190 280L 100 226L 100 281L 190 334L 190 280Z"></path></g></g></g><g id="g-root-cp_1_g-1_meuvurdxntam-fill" data-item-order="-410824" transform="translate(356, 371)"><g id="cp_1_g-1_meuvurdxntam-fill" stroke="none" fill="#efefff"><g><path d="M 100 10L 10 64L 100 118L 190 64L 100 10ZM 29 64L 100 22L 171 64L 100 106L 29 64Z"></path></g></g></g><g id="g-root-cp_2_g-2_quodz7dxnta8-fill" data-item-order="-410820" transform="translate(446, 263)"><g id="cp_2_g-2_quodz7dxnta8-fill" stroke="none" fill="#e7fae4"><g><path d="M 100 10L 10 64L 100 118L 190 64L 100 10ZM 29 64L 100 22L 171 64L 100 106L 29 64Z"></path></g></g></g><g id="g-root-cp_3_g-3_hz1dqbdxnu2y-fill" data-item-order="-410816" transform="translate(536, 155)"><g id="cp_3_g-3_hz1dqbdxnu2y-fill" stroke="none" fill="#ffffdb"><g><path d="M 100 10L 10 64L 100 118L 190 64L 100 10ZM 29 64L 100 22L 171 64L 100 106L 29 64Z"></path></g></g></g><g id="g-root-cp_4_g-4_hz1dqbdxnu30-fill" data-item-order="-410812" transform="translate(626, 47)"><g id="cp_4_g-4_hz1dqbdxnu30-fill" stroke="none" fill="#e7fbf9"><g><path d="M 100 10L 10 64L 100 118L 190 64L 100 10ZM 29 64L 100 22L 171 64L 100 106L 29 64Z"></path></g></g></g><g id="g-root-cp_2_text-2_hz1dqbdxnu32-fill" data-item-order="-410800" transform="translate(170, 269)"><g id="cp_2_text-2_hz1dqbdxnu32-fill" stroke="none" fill="#e7fae4"><g><path d="M 10 10L 16 10L 16 106L 10 106Z"></path></g></g></g><g id="g-root-cp_3_text-3_djucozdxnrpj-fill" data-item-order="-410786" transform="translate(260, 173)"><g id="cp_3_text-3_djucozdxnrpj-fill" stroke="none" fill="#ffffdb"><g><path d="M 10 10L 16 10L 16 82L 10 82Z"></path></g></g></g><g id="g-root-cp_1_text-1_djucozdxnrpk-fill" data-item-order="-410772" transform="translate(80, 395)"><g id="cp_1_text-1_djucozdxnrpk-fill" stroke="none" fill="#efefff"><g><path d="M 10 10L 16 10L 16 82L 10 82Z"></path></g></g></g><g id="g-root-cp_4_text-4_940ukjdxnsht-fill" data-item-order="-410756" transform="translate(350, 65)"><g id="cp_4_text-4_940ukjdxnsht-fill" stroke="none" fill="#e7fbf9"><g><path d="M 10 10L 16 10L 16 82L 10 82Z"></path></g></g></g><g id="g-root-tx_executel_6if2bdxrz7s-fill" data-item-order="0" transform="translate(368, 65)"><g id="tx_executel_6if2bdxrz7s-fill" stroke="none" fill="#4db6ac"><g><text style="font: bold 15px &quot;Open Sans Regular&quot;, sans-serif; white-space: pre;" font-weight="bold" font-size="15px" font-family="'Open Sans Regular', sans-serif"><tspan x="12" y="32" dominant-baseline="ideographic">Execute Legal Transfer</tspan></text></g></g></g><g id="g-root-ic_sign_1utoe6bdxqkna-fill" data-item-order="0" transform="translate(692, 77)"></g><g id="g-root-tx_4_1ursywzdxrzsy-fill" data-item-order="0" transform="translate(296, 65)"><g id="tx_4_1ursywzdxrzsy-fill" stroke="none" fill="#4db6ac"><g><text style="font: bold 15px &quot;Open Sans Regular&quot;, sans-serif; white-space: pre;" font-weight="bold" font-size="15px" font-family="'Open Sans Regular', sans-serif"><tspan x="17.71" y="32" dominant-baseline="ideographic">4</tspan></text></g></g></g><g id="g-root-tx_complete_6if2bdxrz7t-fill" data-item-order="0" transform="translate(368, 101)"><g id="tx_complete_6if2bdxrz7t-fill" stroke="none" fill="#0d0d0d"><g><text style="font: 15px &quot;Open Sans 300&quot;, sans-serif; white-space: pre;" font-size="15px" font-family="'Open Sans 300', sans-serif"><tspan x="12" y="29" dominant-baseline="ideographic">Complete legal steps to finalize </tspan><tspan x="12" y="47" dominant-baseline="ideographic">ownership transfer.</tspan></text></g></g></g><g id="g-root-tx_assessif_dhcgcjdxs0sm-fill" data-item-order="0" transform="translate(98, 431)"><g id="tx_assessif_dhcgcjdxs0sm-fill" stroke="none" fill="#0d0d0d"><g><text style="font: 15px &quot;Open Sans 300&quot;, sans-serif; white-space: pre;" font-size="15px" font-family="'Open Sans 300', sans-serif"><tspan x="12" y="29" dominant-baseline="ideographic">Assess if your LLC structure aligns </tspan><tspan x="12" y="47" dominant-baseline="ideographic">with trust ownership goals.</tspan></text></g></g></g><g id="g-root-tx_3_hx5ygzdxs00c-fill" data-item-order="0" transform="translate(206, 173)"><g id="tx_3_hx5ygzdxs00c-fill" stroke="none" fill="#cccd35"><g><text style="font: bold 15px &quot;Open Sans Regular&quot;, sans-serif; white-space: pre;" font-weight="bold" font-size="15px" font-family="'Open Sans Regular', sans-serif"><tspan x="17.71" y="32" dominant-baseline="ideographic">3</tspan></text></g></g></g><g id="g-root-tx_createtr_qssypvdxrz7m-fill" data-item-order="0" transform="translate(278, 173)"><g id="tx_createtr_qssypvdxrz7m-fill" stroke="none" fill="#cccd35"><g><text style="font: bold 15px &quot;Open Sans Regular&quot;, sans-serif; white-space: pre;" font-weight="bold" font-size="15px" font-family="'Open Sans Regular', sans-serif"><tspan x="12" y="32" dominant-baseline="ideographic">Create Trust Document</tspan></text></g></g></g><g id="g-root-ic_docu_1q6zo3ndxqn0l-fill" data-item-order="0" transform="translate(602, 185)"></g><g id="g-root-tx_draftatr_hx5ygzdxs00b-fill" data-item-order="0" transform="translate(278, 209)"><g id="tx_draftatr_hx5ygzdxs00b-fill" stroke="none" fill="#0d0d0d"><g><text style="font: 15px &quot;Open Sans 300&quot;, sans-serif; white-space: pre;" font-size="15px" font-family="'Open Sans 300', sans-serif"><tspan x="12" y="29" dominant-baseline="ideographic">Draft a trust document outlining </tspan><tspan x="12" y="47" dominant-baseline="ideographic">LLC interest management.</tspan></text></g></g></g><g id="g-root-tx_2_v7zzr7dxs1l5-fill" data-item-order="0" transform="translate(116, 269)"><g id="tx_2_v7zzr7dxs1l5-fill" stroke="none" fill="#80c476"><g><text style="font: bold 15px &quot;Open Sans Regular&quot;, sans-serif; white-space: pre;" font-weight="bold" font-size="15px" font-family="'Open Sans Regular', sans-serif"><tspan x="17.71" y="32" dominant-baseline="ideographic">2</tspan></text></g></g></g><g id="g-root-tx_prepareo_18jgi4jdxs007-fill" data-item-order="0" transform="translate(188, 269)"><g id="tx_prepareo_18jgi4jdxs007-fill" stroke="none" fill="#80c476"><g><text style="font: bold 15px &quot;Open Sans Regular&quot;, sans-serif; white-space: pre;" font-weight="bold" font-size="15px" font-family="'Open Sans Regular', sans-serif"><tspan x="12" y="32" dominant-baseline="ideographic">Prepare Operating Agreement</tspan></text></g></g></g><g id="g-root-tx_reviewan_143n003dxs0sg-fill" data-item-order="0" transform="translate(188, 305)"><g id="tx_reviewan_143n003dxs0sg-fill" stroke="none" fill="#0d0d0d"><g><text style="font: 15px &quot;Open Sans 300&quot;, sans-serif; white-space: pre;" font-size="15px" font-family="'Open Sans 300', sans-serif"><tspan x="12" y="32" dominant-baseline="ideographic">Review and amend the operating </tspan><tspan x="12" y="50" dominant-baseline="ideographic">agreement for transfer </tspan><tspan x="12" y="68" dominant-baseline="ideographic">restrictions.</tspan></text></g></g></g><g id="g-root-ic_writ_1qaqimbdxp6vg-fill" data-item-order="0" transform="translate(512, 293)"></g><g id="g-root-tx_stepstot_940ukjdxnshu-fill" data-item-order="0" transform="translate(272, -8)"><g id="tx_stepstot_940ukjdxnshu-fill" stroke="none" fill="#0d0d0d"><g><text style="font: bold 20px &quot;Poppins 300&quot;, sans-serif; white-space: pre;" font-weight="bold" font-size="20px" font-family="'Poppins 300', sans-serif"><tspan x="12.96" y="36" dominant-baseline="ideographic">Steps to Transfer LLC to Trust</tspan></text></g></g></g><g id="g-root-tx_1_4lpg3ndxs1lb-fill" data-item-order="0" transform="translate(26, 395)"><g id="tx_1_4lpg3ndxs1lb-fill" stroke="none" fill="#767ae5"><g><text style="font: bold 15px &quot;Open Sans Regular&quot;, sans-serif; white-space: pre;" font-weight="bold" font-size="15px" font-family="'Open Sans Regular', sans-serif"><tspan x="17.71" y="32" dominant-baseline="ideographic">1</tspan></text></g></g></g><g id="g-root-tx_evaluate_dhcgcjdxs0sl-fill" data-item-order="0" transform="translate(98, 395)"><g id="tx_evaluate_dhcgcjdxs0sl-fill" stroke="none" fill="#767ae5"><g><text style="font: bold 15px &quot;Open Sans Regular&quot;, sans-serif; white-space: pre;" font-weight="bold" font-size="15px" font-family="'Open Sans Regular', sans-serif"><tspan x="12" y="32" dominant-baseline="ideographic">Evaluate LLC Suitability</tspan></text></g></g></g><g id="g-root-ic_sear_8dubndxntaj-fill" data-item-order="0" transform="translate(422, 401)"></g><g id="g-root-cp_0_g-0_meuvurdxntah-stroke" data-item-order="-410834" transform="translate(356, 101)"><g id="cp_0_g-0_meuvurdxntah-stroke" fill="none" stroke-linecap="round" stroke-linejoin="round" stroke-miterlimit="4" stroke="#a3a3a3" stroke-width="2"><g><path d="M 460 10L 370 64.0029L 370 118L 280 172L 280 226L 190 280L 190 334L 100 388L 10 334L 10 349.6089L 100 403.6089L 202 342.1089L 202 288.009L 292 234L 292 180.009L 382 125.9815L 382 72.0119L 460 25.2012L 460 10Z"></path></g></g><g id="cp_0_g-0_meuvurdxntah-stroke" fill="none" stroke-linecap="round" stroke-linejoin="round" stroke-miterlimit="4" stroke="#a3a3a3" stroke-width="2"><g><path d="M 370 64L 280 10L 280 64L 370 118L 370 64Z"></path></g></g><g id="cp_0_g-0_meuvurdxntah-stroke" fill="none" stroke-linecap="round" stroke-linejoin="round" stroke-miterlimit="4" stroke="#a3a3a3" stroke-width="2"><g><path d="M 280 172L 190 118L 190 172L 280 226L 280 172Z"></path></g></g><g id="cp_0_g-0_meuvurdxntah-stroke" fill="none" stroke-linecap="round" stroke-linejoin="round" stroke-miterlimit="4" stroke="#a3a3a3" stroke-width="2"><g><path d="M 190 280L 100 226L 100 281L 190 334L 190 280Z"></path></g></g></g><g id="g-root-cp_1_g-1_meuvurdxntam-stroke" data-item-order="-410824" transform="translate(356, 371)"><g id="cp_1_g-1_meuvurdxntam-stroke" fill="none" stroke-linecap="round" stroke-linejoin="round" stroke-miterlimit="4" stroke="#767ae5" stroke-width="2"><g><path d="M 100 10L 10 64L 100 118L 190 64L 100 10ZM 29 64L 100 22L 171 64L 100 106L 29 64Z"></path></g></g></g><g id="g-root-cp_2_g-2_quodz7dxnta8-stroke" data-item-order="-410820" transform="translate(446, 263)"><g id="cp_2_g-2_quodz7dxnta8-stroke" fill="none" stroke-linecap="round" stroke-linejoin="round" stroke-miterlimit="4" stroke="#80c476" stroke-width="2"><g><path d="M 100 10L 10 64L 100 118L 190 64L 100 10ZM 29 64L 100 22L 171 64L 100 106L 29 64Z"></path></g></g></g><g id="g-root-cp_3_g-3_hz1dqbdxnu2y-stroke" data-item-order="-410816" transform="translate(536, 155)"><g id="cp_3_g-3_hz1dqbdxnu2y-stroke" fill="none" stroke-linecap="round" stroke-linejoin="round" stroke-miterlimit="4" stroke="#cccd35" stroke-width="2"><g><path d="M 100 10L 10 64L 100 118L 190 64L 100 10ZM 29 64L 100 22L 171 64L 100 106L 29 64Z"></path></g></g></g><g id="g-root-cp_4_g-4_hz1dqbdxnu30-stroke" data-item-order="-410812" transform="translate(626, 47)"><g id="cp_4_g-4_hz1dqbdxnu30-stroke" fill="none" stroke-linecap="round" stroke-linejoin="round" stroke-miterlimit="4" stroke="#4db6ac" stroke-width="2"><g><path d="M 100 10L 10 64L 100 118L 190 64L 100 10ZM 29 64L 100 22L 171 64L 100 106L 29 64Z"></path></g></g></g><g id="g-root-cp_2_text-2_hz1dqbdxnu32-stroke" data-item-order="-410800" transform="translate(170, 269)"><g id="cp_2_text-2_hz1dqbdxnu32-stroke" fill="none" stroke-linecap="round" stroke-linejoin="round" stroke-miterlimit="4" stroke="#80c476" stroke-width="2"><g><path d="M 10 10L 16 10L 16 106L 10 106Z"></path></g></g></g><g id="g-root-cp_3_text-3_djucozdxnrpj-stroke" data-item-order="-410786" transform="translate(260, 173)"><g id="cp_3_text-3_djucozdxnrpj-stroke" fill="none" stroke-linecap="round" stroke-linejoin="round" stroke-miterlimit="4" stroke="#cccd35" stroke-width="2"><g><path d="M 10 10L 16 10L 16 82L 10 82Z"></path></g></g></g><g id="g-root-cp_1_text-1_djucozdxnrpk-stroke" data-item-order="-410772" transform="translate(80, 395)"><g id="cp_1_text-1_djucozdxnrpk-stroke" fill="none" stroke-linecap="round" stroke-linejoin="round" stroke-miterlimit="4" stroke="#767ae5" stroke-width="2"><g><path d="M 10 10L 16 10L 16 82L 10 82Z"></path></g></g></g><g id="g-root-cp_4_text-4_940ukjdxnsht-stroke" data-item-order="-410756" transform="translate(350, 65)"><g id="cp_4_text-4_940ukjdxnsht-stroke" fill="none" stroke-linecap="round" stroke-linejoin="round" stroke-miterlimit="4" stroke="#4db6ac" stroke-width="2"><g><path d="M 10 10L 16 10L 16 82L 10 82Z"></path></g></g></g><g id="g-root-tx_executel_6if2bdxrz7s-stroke" data-item-order="0" transform="translate(368, 65)"></g><g id="g-root-ic_sign_1utoe6bdxqkna-stroke" data-item-order="0" transform="translate(692, 77)"><g id="ic_sign_1utoe6bdxqkna-stroke" fill="none" stroke-linecap="round" stroke-linejoin="round" stroke-miterlimit="4" stroke="#4db6ac" stroke-width="2"><g><path d="M 51 51.299999L 43.139999 52.880001M 44 44L 40.299999 45.52C 39.710167 45.760117 39.049831 45.760117 38.459999 45.52C 37.595543 45.15625 37.022171 44.322277 36.992069 43.384888C 36.961971 42.447498 37.480659 41.578461 38.32 41.16L 42 39.360001C 42.456886 39.12188 42.964787 38.998337 43.48 39C 43.868889 38.998138 44.254971 39.065872 44.620003 39.200001L 51.380001 41.779999M 29 53L 31.799999 53L 36.459999 56.540001C 36.942337 57.094124 37.780907 57.15657 38.34 56.68L 45.34 51.080002C 45.905155 50.60265 45.993374 49.764565 45.540001 49.18L 41.700001 44.939999M 38 41.360001L 37.5 40.940002C 36.998703 40.56221 36.387711 40.358547 35.760002 40.360001C 35.389034 40.36158 35.022026 40.436344 34.68 40.580002L 29 43M 23 55L 27 55C 28.10457 55 29 54.104568 29 53L 29 43C 29 41.895432 28.10457 41 27 41L 23 41M 57 55L 53 55C 51.895432 55 51 54.104568 51 53L 51 43C 51 41.895432 51.895432 41 53 41L 57 41M 44 11L 17 11C 13.686292 11 11 13.686292 11 17L 11 56C 11 56.552284 11.447716 57 12 57L 18 57M 17 19L 33 19M 17 25L 33 25M 17 31L 24 31M 39 36L 39 16C 39 13.238576 41.238579 11 44 11C 46.759998 11 49 13.24 49 17L 39 17"></path></g></g></g><g id="g-root-tx_4_1ursywzdxrzsy-stroke" data-item-order="0" transform="translate(296, 65)"></g><g id="g-root-tx_complete_6if2bdxrz7t-stroke" data-item-order="0" transform="translate(368, 101)"></g><g id="g-root-tx_assessif_dhcgcjdxs0sm-stroke" data-item-order="0" transform="translate(98, 431)"></g><g id="g-root-tx_3_hx5ygzdxs00c-stroke" data-item-order="0" transform="translate(206, 173)"></g><g id="g-root-tx_createtr_qssypvdxrz7m-stroke" data-item-order="0" transform="translate(278, 173)"></g><g id="g-root-ic_docu_1q6zo3ndxqn0l-stroke" data-item-order="0" transform="translate(602, 185)"><g id="ic_docu_1q6zo3ndxqn0l-stroke" fill="none" stroke-linecap="round" stroke-linejoin="round" stroke-miterlimit="4" stroke="#cccd35" stroke-width="2"><g><path d="M 41 36L 41 57M 25 47L 30 33L 35 47M 38 33C 38 34.656853 39.343147 36 41 36C 42.656857 36 44 34.656853 44 33C 44 31.343147 42.656857 30 41 30C 39.343147 30 38 31.343147 38 33ZM 44 33L 54 33M 28 33L 38 33M 35 57L 47 57M 35 47C 35 49.761425 32.761421 52 30 52C 27.238577 52 25 49.761425 25 47ZM 57 47L 52 33L 47 47M 47 47C 47 49.761425 49.238575 52 52 52C 54.761425 52 57 49.761425 57 47ZM 29 57L 13 57C 11.895431 57 11 56.104568 11 55L 11 13C 11 11.895431 11.895431 11 13 11L 31 11C 32.265854 11.068644 33.470314 11.567503 34.414001 12.414L 41.585999 19.586C 42.432495 20.529686 42.931355 21.734146 43 23L 43 26M 33 11.49L 33 19C 33 20.104568 33.895432 21 35 21L 42.509998 21M 17 21L 22 21M 17 27L 28 27"></path></g></g></g><g id="g-root-tx_draftatr_hx5ygzdxs00b-stroke" data-item-order="0" transform="translate(278, 209)"></g><g id="g-root-tx_2_v7zzr7dxs1l5-stroke" data-item-order="0" transform="translate(116, 269)"></g><g id="g-root-tx_prepareo_18jgi4jdxs007-stroke" data-item-order="0" transform="translate(188, 269)"></g><g id="g-root-tx_reviewan_143n003dxs0sg-stroke" data-item-order="0" transform="translate(188, 305)"></g><g id="g-root-ic_writ_1qaqimbdxp6vg-stroke" data-item-order="0" transform="translate(512, 293)"><g id="ic_writ_1qaqimbdxp6vg-stroke" fill="none" stroke-linecap="round" stroke-linejoin="round" stroke-miterlimit="4" stroke="#80c476" stroke-width="2"><g><path d="M 38 51L 13 51C 11.895431 51 11 50.104568 11 49L 11 13C 11 11.895431 11.895431 11 13 11L 41 11C 42.104568 11 43 11.895431 43 13L 43 25M 23 17L 35 17M 23 23L 35 23M 23 29L 28 29M 17 16.5C 17.276142 16.5 17.5 16.723858 17.5 17C 17.5 17.276142 17.276142 17.5 17 17.5C 16.723858 17.5 16.5 17.276142 16.5 17C 16.5 16.723858 16.723858 16.5 17 16.5M 17 22.5C 17.276142 22.5 17.5 22.723858 17.5 23C 17.5 23.276142 17.276142 23.5 17 23.5C 16.723858 23.5 16.5 23.276142 16.5 23C 16.5 22.723858 16.723858 22.5 17 22.5M 17 28.5C 17.276142 28.5 17.5 28.723858 17.5 29C 17.5 29.276142 17.276142 29.5 17 29.5C 16.723858 29.5 16.5 29.276142 16.5 29C 16.5 28.723858 16.723858 28.5 17 28.5M 44.84 30.34C 44.84 30.34 43.639999 28.34 39.620003 29.42C 33.84 30.860001 32.419998 37.279999 32.299999 38.02M 29.18 39.940002L 25.619999 45.639999L 32.299999 45.060001M 40.440002 40L 51.060001 33.5C 52.163898 32.543274 52.418209 30.930513 51.662285 29.680517C 50.906357 28.430521 49.359974 27.906717 48 28.440001L 29.18 40L 32.299999 45.119999L 36 42.82M 46.200001 41.779999L 38.580002 39.52C 37.782471 39.222481 36.88562 39.394005 36.254162 39.964817C 35.6227 40.535629 35.361794 41.410664 35.577545 42.234085C 35.793293 43.057507 36.449764 43.692173 37.279999 43.880001L 42.080002 45.459999C 42.528664 48.148449 44.574711 50.289661 47.240002 50.860001L 47.419998 50.860001L 48 57M 57 57C 57 57 54.740002 39.419998 49.119999 34.760002"></path></g></g></g><g id="g-root-tx_stepstot_940ukjdxnshu-stroke" data-item-order="0" transform="translate(272, -8)"></g><g id="g-root-tx_1_4lpg3ndxs1lb-stroke" data-item-order="0" transform="translate(26, 395)"></g><g id="g-root-tx_evaluate_dhcgcjdxs0sl-stroke" data-item-order="0" transform="translate(98, 395)"></g><g id="g-root-ic_sear_8dubndxntaj-stroke" data-item-order="0" transform="translate(422, 401)"><g id="ic_sear_8dubndxntaj-stroke" fill="none" stroke-linecap="round" stroke-linejoin="round" stroke-miterlimit="4" stroke="#767ae5" stroke-width="2"><g><path d="M 39 29.982L 39 20.982L 17 20.982L 17 46.98L 29 46.981998M 45 27.982L 45 16.982C 45 15.87743 44.104568 14.982 43 14.982L 34.104 14.982C 33.043873 12.558297 30.649412 10.992139 28.004 10.992139C 25.358589 10.992139 22.964127 12.558297 21.903999 14.982L 13 14.982C 11.895431 14.982 11 15.87743 11 16.982L 11 50.981998C 11 52.086571 11.895431 52.981998 13 52.981998L 31 52.981998M 23 26.982L 33 26.982M 23 32.982002L 33 32.982002M 23 38.982002L 29 38.982002M 35 44.042C 35 49.044594 39.055405 53.099998 44.057999 53.099998C 49.060593 53.099998 53.115997 49.044594 53.115997 44.042C 53.115997 39.039406 49.060593 34.984001 44.057999 34.984001C 39.055405 34.984001 35 39.039406 35 44.042ZM 57 56.981998L 50.504002 50.487999"></path></g></g></g></g></g></svg>