<?xml version="1.0" encoding="utf-8" standalone="yes"?>
<!DOCTYPE svg PUBLIC "-//W3C//DTD SVG 1.1//EN" "http://www.w3.org/Graphics/SVG/1.1/DTD/svg11.dtd">
<svg width="828" height="545" viewBox="0 0 828 545" style="fill:none;stroke:none;fill-rule:evenodd;clip-rule:evenodd;stroke-linecap:round;stroke-linejoin:round;stroke-miterlimit:1.5;" version="1.1" xmlns="http://www.w3.org/2000/svg" xmlns:xlink="http://www.w3.org/1999/xlink"><g id="items" style="isolation: isolate"><g id="blend" style="mix-blend-mode: normal"><g id="g-root-sy_0_cu_1ha30erflqyo9-fill" data-item-order="-150739" transform="translate(289.00885009765625, 161)"><g id="sy_0_cu_1ha30erflqyo9-fill" stroke="none" fill="#ffffff"><g><path d="M 41.8313 44.4598C 26.76 59.2893 15.5897 78.0715 10.000011 99.1266L 40.8737 130L 10 160.873C 15.625 182.062 26.9016 200.948 42.1177 215.821L 82.5012 205L 93.3555 245.509C 103.7319 248.435 114.679 250 125.991 250C 136.943 250 147.552 248.533 157.632 245.785L 168.561 205L 209.666 216.015C 224.605 201.48 235.77 183.087 241.554 162.445L 209.109 130L 241.554 97.5554C 235.807 77.0458 224.748 58.7566 209.954 44.266L 168.56 55.3574L 157.529 14.1873C 147.479 11.4571 136.905 10 125.991 10C 114.716 10 103.8049 11.5549 93.4592 14.462L 82.5017 55.3574L 41.8313 44.4598Z"></path></g></g></g><g id="g-root-sy_6_cu_1ha30erflqyoa-fill" data-item-order="-150735" transform="translate(279.5610656738281, 99.561767578125)"><g id="sy_6_cu_1ha30erflqyoa-fill" stroke="none" fill="#ffebeb"><g><path d="M 45.585069 104.372569C 33.719169 101.193169 23.066269 93.487169 16.438769 82.007969C 3.183969 59.049969 11.049969 29.693569 34.007969 16.438769C 56.966069 3.183969 86.322369 11.049969 99.577169 34.007969C 106.204669 45.486969 107.551869 58.565569 104.372469 70.431269L 91.949469 116.795969L 45.595669 104.375369C 45.592169 104.374469 45.588569 104.373469 45.585069 104.372569Z"></path></g></g></g><g id="g-root-sy_5_cu_1cu9iabflqzgj-fill" data-item-order="-150731" transform="translate(204, 233)"><g id="sy_5_cu_1cu9iabflqzgj-fill" stroke="none" fill="#fbf0ff"><g><path d="M 91.9414 91.9408C 83.2551 100.6273 71.255 106 58 106C 31.4903 106 10.000001 84.5097 10 58C 9.999999 31.4903 31.4903 10.000001 58 10C 71.2548 9.999999 83.2548 15.3726 91.9411 24.0589L 125.883 57.9997L 91.9492 91.9331C 91.9466 91.9356 91.944 91.9382 91.9414 91.9408Z"></path></g></g></g><g id="g-root-sy_4_cu_1cu9iabflqzgk-fill" data-item-order="-150727" transform="translate(279.5610656738281, 356.000244140625)"><g id="sy_4_cu_1cu9iabflqzgk-fill" stroke="none" fill="#fff3e4"><g><path d="M 104.372369 56.3644C 107.551869 68.2302 106.204669 81.309 99.577169 92.7881C 86.322369 115.746 56.966069 123.612 34.007969 110.357C 11.049969 97.1025 3.183969 67.7462 16.438769 44.7881C 23.066169 33.3091 33.718969 25.6031 45.584669 22.4237L 91.948969 10L 104.369469 56.3538C 104.370369 56.3573 104.371369 56.3609 104.372369 56.3644Z"></path></g></g></g><g id="g-root-sy_3_cu_13ymi1fflr099-fill" data-item-order="-150723" transform="translate(433.50244140625, 356.000244140625)"><g id="sy_3_cu_13ymi1fflr099-fill" stroke="none" fill="#ffffdb"><g><path d="M 11.6437 56.3644C 8.4641 68.2302 9.8113 81.309 16.4388 92.7881C 29.6936 115.746 59.05 123.612 82.008 110.357C 104.9661 97.1025 112.832 67.7462 99.5772 44.7881C 92.9498 33.3091 82.297 25.6031 70.4313 22.4237L 24.067 10L 11.6465 56.3538C 11.6456 56.3573 11.6446 56.3609 11.6437 56.3644Z"></path></g></g></g><g id="g-root-sy_2_cu_13ymi1fflr09a-fill" data-item-order="-150719" transform="translate(488.11767578125, 233)"><g id="sy_2_cu_13ymi1fflr09a-fill" stroke="none" fill="#e7fae4"><g><path d="M 43.9411 91.9408C 52.6274 100.6273 64.6276 106 77.8825 106C 104.3922 106 125.883 84.5097 125.883 58C 125.883 31.4903 104.3922 10.000001 77.8825 10C 64.6277 9.999999 52.6277 15.3726 43.9414 24.0589L 10 57.9997L 43.9333 91.9331C 43.9359 91.9356 43.9385 91.9382 43.9411 91.9408Z"></path></g></g></g><g id="g-root-sy_1_cu_13ymi1fflr09b-fill" data-item-order="-150715" transform="translate(433.50250244140625, 99.561767578125)"><g id="sy_1_cu_13ymi1fflr09b-fill" stroke="none" fill="#e7fbf9"><g><path d="M 70.430869 104.372569C 82.296769 101.193169 92.949669 93.487169 99.577169 82.007969C 112.831969 59.049969 104.966069 29.693569 82.007969 16.438769C 59.049969 3.183969 29.693569 11.049969 16.438769 34.007969C 9.811369 45.486969 8.464169 58.565569 11.643569 70.431269L 24.066469 116.795969L 70.420269 104.375369C 70.423769 104.374469 70.427369 104.373469 70.430869 104.372569Z"></path></g></g></g><g id="g-root-ic_heph_v3lyvnflqyo1-fill" data-item-order="0" transform="translate(302, 125)"></g><g id="g-root-ic_buil_1hapknnfl8r2m-fill" data-item-order="0" transform="translate(458, 125)"></g><g id="g-root-tx_thefound_1czvv83fla4nh-fill" data-item-order="0" transform="translate(548, 101)"><g id="tx_thefound_1czvv83fla4nh-fill" stroke="none" fill="#0d0d0d"><g><text style="font: 15px &quot;Open Sans 300&quot;, sans-serif; white-space: pre;" font-size="15px" font-family="'Open Sans 300', sans-serif"><tspan x="12" y="32" dominant-baseline="ideographic">The foundational </tspan><tspan x="12" y="50" dominant-baseline="ideographic">business entity </tspan><tspan x="12" y="68" dominant-baseline="ideographic">providing liability </tspan><tspan x="12" y="86" dominant-baseline="ideographic">protection and tax </tspan><tspan x="12" y="104" dominant-baseline="ideographic">benefits.</tspan></text></g></g></g><g id="g-root-tx_professi_1448uz7fla680-fill" data-item-order="0" transform="translate(38, 233)"><g id="tx_professi_1448uz7fla680-fill" stroke="none" fill="#9251ac"><g><text style="font: bold 15px &quot;Open Sans Regular&quot;, sans-serif; white-space: pre;" font-weight="bold" font-size="15px" font-family="'Open Sans Regular', sans-serif"><tspan x="18.79" y="32" dominant-baseline="ideographic">Professional Trusts</tspan></text></g></g></g><g id="g-root-ic_brie_djtqkzfl8r2f-fill" data-item-order="0" transform="translate(356, 233)"></g><g id="g-root-tx_theindiv_4l2cwjfla4ug-fill" data-item-order="0" transform="translate(92, 101)"><g id="tx_theindiv_4l2cwjfla4ug-fill" stroke="none" fill="#0d0d0d"><g><text style="font: 15px &quot;Open Sans 300&quot;, sans-serif; white-space: pre;" font-size="15px" font-family="'Open Sans 300', sans-serif"><tspan x="23.34" y="29" dominant-baseline="ideographic">The individual or entity </tspan><tspan x="55.57" y="47" dominant-baseline="ideographic">managing the LLC </tspan><tspan x="56.88" y="65" dominant-baseline="ideographic">according to trust </tspan><tspan x="133.09" y="83" dominant-baseline="ideographic">terms.</tspan></text></g></g></g><g id="g-root-tx_revocabl_18k2d3nfla5fq-fill" data-item-order="0" transform="translate(626, 233)"><g id="tx_revocabl_18k2d3nfla5fq-fill" stroke="none" fill="#80c476"><g><text style="font: bold 15px &quot;Open Sans Regular&quot;, sans-serif; white-space: pre;" font-weight="bold" font-size="15px" font-family="'Open Sans Regular', sans-serif"><tspan x="12" y="32" dominant-baseline="ideographic">Revocable Trusts</tspan></text></g></g></g><g id="g-root-tx_trustsde_58us3fla5mp-fill" data-item-order="0" transform="translate(14, 269)"><g id="tx_trustsde_58us3fla5mp-fill" stroke="none" fill="#0d0d0d"><g><text style="font: 15px &quot;Open Sans 300&quot;, sans-serif; white-space: pre;" font-size="15px" font-family="'Open Sans 300', sans-serif"><tspan x="46.16" y="29" dominant-baseline="ideographic">Trusts designed for </tspan><tspan x="39.74" y="47" dominant-baseline="ideographic">specific professional </tspan><tspan x="14.52" y="65" dominant-baseline="ideographic">practices like medical or </tspan><tspan x="103.8" y="83" dominant-baseline="ideographic">legal firms.</tspan></text></g></g></g><g id="g-root-ic_brie_1cw4xjnflqygy-fill" data-item-order="0" transform="translate(224, 257)"></g><g id="g-root-ic_repo_hv9txvfltrf1-fill" data-item-order="0" transform="translate(531, 257)"></g><g id="g-root-tx_flexible_1czvv83fla4ng-fill" data-item-order="0" transform="translate(626, 269)"><g id="tx_flexible_1czvv83fla4ng-fill" stroke="none" fill="#0d0d0d"><g><text style="font: 15px &quot;Open Sans 300&quot;, sans-serif; white-space: pre;" font-size="15px" font-family="'Open Sans 300', sans-serif"><tspan x="12" y="32" dominant-baseline="ideographic">Flexible trusts allowing </tspan><tspan x="12" y="50" dominant-baseline="ideographic">changes by the grantor </tspan><tspan x="12" y="68" dominant-baseline="ideographic">during their lifetime.</tspan></text></g></g></g><g id="g-root-tx_permanen_1lvivgzfla3ur-fill" data-item-order="0" transform="translate(548, 437)"><g id="tx_permanen_1lvivgzfla3ur-fill" stroke="none" fill="#0d0d0d"><g><text style="font: 15px &quot;Open Sans 300&quot;, sans-serif; white-space: pre;" font-size="15px" font-family="'Open Sans 300', sans-serif"><tspan x="12" y="29" dominant-baseline="ideographic">Permanent trusts </tspan><tspan x="12" y="47" dominant-baseline="ideographic">offering strong asset </tspan><tspan x="12" y="65" dominant-baseline="ideographic">protection after </tspan><tspan x="12" y="83" dominant-baseline="ideographic">creation.</tspan></text></g></g></g><g id="g-root-tx_trusteer_1448uz7fla681-fill" data-item-order="0" transform="translate(164, 65)"><g id="tx_trusteer_1448uz7fla681-fill" stroke="none" fill="#d11515"><g><text style="font: bold 15px &quot;Open Sans Regular&quot;, sans-serif; white-space: pre;" font-weight="bold" font-size="15px" font-family="'Open Sans Regular', sans-serif"><tspan x="16.68" y="32" dominant-baseline="ideographic">Trustee Role</tspan></text></g></g></g><g id="g-root-tx_assetpro_18k2d3nfla5fr-fill" data-item-order="0" transform="translate(92, 401)"><g id="tx_assetpro_18k2d3nfla5fr-fill" stroke="none" fill="#ff8b00"><g><text style="font: bold 15px &quot;Open Sans Regular&quot;, sans-serif; white-space: pre;" font-weight="bold" font-size="15px" font-family="'Open Sans Regular', sans-serif"><tspan x="14.93" y="32" dominant-baseline="ideographic">Asset Protection Trusts</tspan></text></g></g></g><g id="g-root-ic_shie_1qf34ybflqzuz-fill" data-item-order="0" transform="translate(302, 389)"></g><g id="g-root-ic_find_1qbyrirflscuc-fill" data-item-order="0" transform="translate(458, 389)"></g><g id="g-root-tx_irrevoca_v98btffla3uy-fill" data-item-order="0" transform="translate(548, 401)"><g id="tx_irrevoca_v98btffla3uy-fill" stroke="none" fill="#cccd35"><g><text style="font: bold 15px &quot;Open Sans Regular&quot;, sans-serif; white-space: pre;" font-weight="bold" font-size="15px" font-family="'Open Sans Regular', sans-serif"><tspan x="12" y="32" dominant-baseline="ideographic">Irrevocable Trusts</tspan></text></g></g></g><g id="g-root-tx_trustsco_1qapwibfla68a-fill" data-item-order="0" transform="translate(92, 437)"><g id="tx_trustsco_1qapwibfla68a-fill" stroke="none" fill="#0d0d0d"><g><text style="font: 15px &quot;Open Sans 300&quot;, sans-serif; white-space: pre;" font-size="15px" font-family="'Open Sans 300', sans-serif"><tspan x="60.16" y="29" dominant-baseline="ideographic">Trusts combining </tspan><tspan x="35.34" y="47" dominant-baseline="ideographic">benefits of revocable </tspan><tspan x="31.79" y="65" dominant-baseline="ideographic">and irrevocable types </tspan><tspan x="22.31" y="83" dominant-baseline="ideographic">for creditor protection.</tspan></text></g></g></g><g id="g-root-tx_factorsi_ziszwzflr11k-fill" data-item-order="0" transform="translate(201, -7)"><g id="tx_factorsi_ziszwzflr11k-fill" stroke="none" fill="#0d0d0d"><g><text style="font: bold 20px &quot;Poppins 300&quot;, sans-serif; white-space: pre;" font-weight="bold" font-size="20px" font-family="'Poppins 300', sans-serif"><tspan x="13.87" y="36" dominant-baseline="ideographic">Factors Influencing Trust Ownership of LLCs</tspan></text></g></g></g><g id="g-root-tx_llcstruc_v98btffla3uz-fill" data-item-order="0" transform="translate(548, 65)"><g id="tx_llcstruc_v98btffla3uz-fill" stroke="none" fill="#4db6ac"><g><text style="font: bold 15px &quot;Open Sans Regular&quot;, sans-serif; white-space: pre;" font-weight="bold" font-size="15px" font-family="'Open Sans Regular', sans-serif"><tspan x="12" y="32" dominant-baseline="ideographic">LLC Structure</tspan></text></g></g></g><g id="g-root-sy_0_cu_1ha30erflqyo9-stroke" data-item-order="-150739" transform="translate(289.00885009765625, 161)"><g id="sy_0_cu_1ha30erflqyo9-stroke" fill="none" stroke-linecap="round" stroke-linejoin="round" stroke-miterlimit="4" stroke="#a3a3a3" stroke-width="2"><g><path d="M 41.8313 44.4598C 26.76 59.2893 15.5897 78.0715 10 99.1266M 10 160.8734C 15.625 182.0616 26.9016 200.9481 42.1177 215.8211M 93.3555 245.5088C 103.7319 248.4347 114.6787 250 125.9911 250C 136.9428 250 147.5518 248.5329 157.6324 245.7846M 209.6662 216.0146C 224.6048 201.4798 235.7702 183.0868 241.5537 162.4445M 241.5536 97.5554C 235.8074 77.0458 224.748 58.7566 209.9536 44.266M 157.5289 14.1873C 147.4793 11.4571 136.9054 10 125.9911 10C 114.7164 10 103.8049 11.5549 93.4592 14.462"></path></g></g></g><g id="g-root-sy_6_cu_1ha30erflqyoa-stroke" data-item-order="-150735" transform="translate(279.5610656738281, 99.561767578125)"><g id="sy_6_cu_1ha30erflqyoa-stroke" fill="none" stroke-linecap="round" stroke-linejoin="round" stroke-miterlimit="4" stroke="#d11515" stroke-width="2"><g><path d="M 45.585069 104.372569C 33.719169 101.193169 23.066269 93.487169 16.438769 82.007969C 3.183969 59.049969 11.049969 29.693569 34.007969 16.438769C 56.966069 3.183969 86.322369 11.049969 99.577169 34.007969C 106.204669 45.486969 107.551869 58.565569 104.372469 70.431269L 91.949469 116.795869L 45.595669 104.375369C 45.592169 104.374469 45.588569 104.373469 45.585069 104.372569Z"></path></g></g></g><g id="g-root-sy_5_cu_1cu9iabflqzgj-stroke" data-item-order="-150731" transform="translate(204, 233)"><g id="sy_5_cu_1cu9iabflqzgj-stroke" fill="none" stroke-linecap="round" stroke-linejoin="round" stroke-miterlimit="4" stroke="#9251ac" stroke-width="2"><g><path d="M 91.9414 91.9408C 83.2551 100.6273 71.255 106 58 106C 31.4903 106 10 84.5097 10 58C 10 31.4903 31.4903 10 58 10C 71.2548 9.999999 83.2548 15.3726 91.9411 24.0589L 125.8825 57.9997L 91.9492 91.9331C 91.9466 91.9356 91.944 91.9382 91.9414 91.9408Z"></path></g></g></g><g id="g-root-sy_4_cu_1cu9iabflqzgk-stroke" data-item-order="-150727" transform="translate(279.5610656738281, 356.000244140625)"><g id="sy_4_cu_1cu9iabflqzgk-stroke" fill="none" stroke-linecap="round" stroke-linejoin="round" stroke-miterlimit="4" stroke="#ff8b00" stroke-width="2"><g><path d="M 104.372369 56.3644C 107.551869 68.2302 106.204669 81.309 99.577169 92.7881C 86.322369 115.7462 56.966069 123.6122 34.007969 110.3574C 11.049969 97.1025 3.183969 67.7462 16.438769 44.7881C 23.066169 33.3091 33.718969 25.6031 45.584669 22.4237L 91.948969 10L 104.369469 56.3538C 104.370369 56.3573 104.371369 56.3609 104.372369 56.3644Z"></path></g></g></g><g id="g-root-sy_3_cu_13ymi1fflr099-stroke" data-item-order="-150723" transform="translate(433.50244140625, 356.000244140625)"><g id="sy_3_cu_13ymi1fflr099-stroke" fill="none" stroke-linecap="round" stroke-linejoin="round" stroke-miterlimit="4" stroke="#cccd35" stroke-width="2"><g><path d="M 11.6437 56.3644C 8.4641 68.2302 9.8113 81.309 16.4388 92.7881C 29.6936 115.7462 59.05 123.6122 82.008 110.3574C 104.9661 97.1025 112.8321 67.7462 99.5772 44.7881C 92.9498 33.3091 82.297 25.6031 70.4313 22.4237L 24.067 10L 11.6465 56.3538C 11.6456 56.3573 11.6446 56.3609 11.6437 56.3644Z"></path></g></g></g><g id="g-root-sy_2_cu_13ymi1fflr09a-stroke" data-item-order="-150719" transform="translate(488.11767578125, 233)"><g id="sy_2_cu_13ymi1fflr09a-stroke" fill="none" stroke-linecap="round" stroke-linejoin="round" stroke-miterlimit="4" stroke="#80c476" stroke-width="2"><g><path d="M 43.9411 91.9408C 52.6274 100.6273 64.6276 106 77.8825 106C 104.3922 106 125.8825 84.5097 125.8825 58C 125.8825 31.4903 104.3922 10 77.8825 10C 64.6277 9.999999 52.6277 15.3726 43.9414 24.0589L 10 57.9997L 43.9333 91.9331C 43.9359 91.9356 43.9385 91.9382 43.9411 91.9408Z"></path></g></g></g><g id="g-root-sy_1_cu_13ymi1fflr09b-stroke" data-item-order="-150715" transform="translate(433.50250244140625, 99.561767578125)"><g id="sy_1_cu_13ymi1fflr09b-stroke" fill="none" stroke-linecap="round" stroke-linejoin="round" stroke-miterlimit="4" stroke="#4db6ac" stroke-width="2"><g><path d="M 70.430869 104.372569C 82.296769 101.193169 92.949669 93.487169 99.577169 82.007969C 112.832069 59.049969 104.966069 29.693569 82.007969 16.438769C 59.049969 3.183969 29.693569 11.049969 16.438769 34.007969C 9.811369 45.486969 8.464169 58.565569 11.643569 70.431269L 24.066469 116.795869L 70.420269 104.375369C 70.423769 104.374469 70.427369 104.373469 70.430869 104.372569Z"></path></g></g></g><g id="g-root-ic_heph_v3lyvnflqyo1-stroke" data-item-order="0" transform="translate(302, 125)"><g id="ic_heph_v3lyvnflqyo1-stroke" fill="none" stroke-linecap="round" stroke-linejoin="round" stroke-miterlimit="4" stroke="#ff6363" stroke-width="2"><g><path d="M 36.257999 44.584L 33.52 44.259998C 31.961922 44.079742 30.394451 43.992924 28.825998 43.999996C 19.542 44 14.406 46.917999 12.25 48.562C 11.458883 49.17001 10.996644 50.112236 11 51.110001L 11 56.869999M 18.576 27.535999L 18.576 30C 18.49291 35.637836 22.86869 40.339088 28.498001 40.66C 31.265892 40.744392 33.949917 39.703945 35.937752 37.776031C 37.925583 35.848114 39.047665 33.197178 39.048 30.428001L 39.048 27.535999M 28.812 24.124001C 27.948 27.129999 24.944 28.4 21.726 28.4C 20.631182 28.401018 19.551701 28.142628 18.576 27.646M 28.812 24.124001C 29.676001 27.129999 32.68 28.4 35.898003 28.4C 36.99279 28.400789 38.07222 28.142412 39.048 27.646M 35.77 44.526001C 34.211998 50.445999 28.384001 55.108002 20.984001 56.352001L 19.74 56.562M 40.188 51.411999C 38.717155 53.567539 36.845917 55.420452 34.676003 56.870003M 19.375999 34.038002L 17.6 34.038002C 14.010536 33.835773 11.25829 30.77256 11.44 27.181999C 11.375032 24.434326 12.959579 21.914173 15.464001 20.782001C 15.464001 20.632 15.424 20.487999 15.424 20.334C 15.237757 16.739655 17.992458 13.671127 21.585999 13.469999C 22.364603 13.474066 23.133743 13.640974 23.844 13.96C 24.912029 12.234287 26.78289 11.168558 28.812 11.13C 30.840698 11.168127 32.711151 12.234051 33.778 13.96C 34.489037 13.641208 35.258781 13.474317 36.038002 13.47C 39.628258 13.671169 42.381683 16.734703 42.199997 20.326C 42.200001 20.48 42.167999 20.624001 42.16 20.774C 44.664421 21.906172 46.24897 24.426327 46.184002 27.174002C 46.365685 30.765297 43.612259 33.828827 40.021999 34.029999L 38.370003 34.029999M 33.029999 32.400002C 33.306145 32.400002 33.529999 32.623856 33.529999 32.900002C 33.529999 33.17614 33.306145 33.400002 33.029999 33.400002C 32.75386 33.400002 32.529999 33.17614 32.529999 32.900002C 32.529465 32.767227 32.58197 32.63974 32.675858 32.545856C 32.769741 32.451973 32.897228 32.399467 33.029999 32.400002M 25.029999 32.400002C 25.306143 32.400002 25.529999 32.623856 25.529999 32.900002C 25.529999 33.17614 25.306143 33.400002 25.029999 33.400002C 24.753857 33.400002 24.529999 33.17614 24.529999 32.900002C 24.529465 32.767227 24.581972 32.63974 24.675858 32.545856C 24.769741 32.451973 24.897228 32.399467 25.029999 32.400002M 46.043999 56.869999L 46.043999 47.066002L 50.958 47.066002L 50.956001 56.869999M 46.501999 38.568001L 50.5 38.568001C 50.5 38.568001 52.5 38.568001 52.5 40.568001L 52.5 45.066002C 52.5 45.066002 52.5 47.066002 50.5 47.066002L 46.501999 47.066002C 46.501999 47.066002 44.501999 47.066002 44.501999 45.066002L 44.501999 40.568001C 44.501999 40.568001 44.501999 38.568001 46.501999 38.568001M 57 46.566002C 57.000534 46.698769 56.948025 46.82626 56.854141 46.920143C 56.760258 47.014027 56.632771 47.066532 56.5 47.065998L 54.5 47.066002C 53.395432 47.066002 52.5 46.17057 52.5 45.066002L 52.5 41.066002C 52.5 39.96143 53.395432 39.066002 54.5 39.066002L 56.5 39.066002C 56.776142 39.066002 57 39.289856 57 39.566002ZM 40 46.566002C 40 46.842144 40.223858 47.066002 40.5 47.066002L 42.5 47.066002C 43.604568 47.066002 44.5 46.17057 44.5 45.066002L 44.5 41.066002C 44.5 39.96143 43.604568 39.066002 42.5 39.066002L 40.5 39.066002C 40.367226 39.065464 40.239738 39.117973 40.145855 39.211857C 40.051971 39.30574 39.999466 39.433228 40 39.566002ZM 19.74 56.869999L 19.74 53.141998"></path></g></g></g><g id="g-root-ic_buil_1hapknnfl8r2m-stroke" data-item-order="0" transform="translate(458, 125)"><g id="ic_buil_1hapknnfl8r2m-stroke" fill="none" stroke-linecap="round" stroke-linejoin="round" stroke-miterlimit="4" stroke="#4db6ac" stroke-width="2"><g><path d="M 13.09 27.219999L 54.908001 27.219999L 54.908001 32.139999L 13.09 32.139999ZM 30.202 32.139999L 37.795998 32.139999L 37.795998 46.989998L 30.202 46.989998ZM 15.182 32.139999L 22.776001 32.139999L 22.776001 46.989998L 15.182 46.989998ZM 45.223999 32.139999L 52.818001 32.139999L 52.818001 46.989998L 45.223999 46.989998ZM 13.09 46.992001L 54.908001 46.992001L 54.908001 52.818001L 13.09 52.818001ZM 11 57L 11 52.818001L 57 52.818001L 57 57M 57 22.422001L 57 27.219999L 11 27.219999L 11 22.422001L 34 11L 57 22.422001ZM 45.990002 22.922001L 34 16.572001L 22.01 22.922001L 45.990002 22.922001Z"></path></g></g></g><g id="g-root-tx_thefound_1czvv83fla4nh-stroke" data-item-order="0" transform="translate(548, 101)"></g><g id="g-root-tx_professi_1448uz7fla680-stroke" data-item-order="0" transform="translate(38, 233)"></g><g id="g-root-ic_brie_djtqkzfl8r2f-stroke" data-item-order="0" transform="translate(356, 233)"><g id="ic_brie_djtqkzfl8r2f-stroke" fill="none" stroke-linecap="round" stroke-linejoin="round" stroke-miterlimit="4" stroke="#777be7" stroke-width="2"><g><path d="M 59 67L 99 67C 101.400002 67 103 68.599998 103 71L 103 99C 103 101.400002 101.400002 103 99 103L 59 103C 56.599998 103 55 101.400002 55 99L 55 71C 55 68.599998 56.599998 67 59 67ZM 55 81.8004L 103 81.8004M 79 81.8004L 79 89.8004M 69.800003 67L 69.800003 62.200001C 69.800003 57.400002 73.800003 53.400002 78.599998 53.400002C 83.400002 53.400002 87.400002 57.400002 87.400002 62.200001L 87.400002 67M 91 44.10004L 55.799999 14.5C 53.400002 12.5 50.200001 12.5 48.200081 14.5L 12.999588 44.10004M 73 14.0996L 83 14.0996L 83 24.0996M 43 76.899597L 33 76.899597C 29.799999 76.899597 27 74.099602 27 70.899597L 27 32.25"></path></g></g></g><g id="g-root-tx_theindiv_4l2cwjfla4ug-stroke" data-item-order="0" transform="translate(92, 101)"></g><g id="g-root-tx_revocabl_18k2d3nfla5fq-stroke" data-item-order="0" transform="translate(626, 233)"></g><g id="g-root-tx_trustsde_58us3fla5mp-stroke" data-item-order="0" transform="translate(14, 269)"></g><g id="g-root-ic_brie_1cw4xjnflqygy-stroke" data-item-order="0" transform="translate(224, 257)"><g id="ic_brie_1cw4xjnflqygy-stroke" fill="none" stroke-linecap="round" stroke-linejoin="round" stroke-miterlimit="4" stroke="#cc76ef" stroke-width="2"><g><path d="M 42 38L 57 38C 57.001141 33.788216 54.363194 30.027195 50.40274 28.594034C 46.442291 27.160873 42.008404 28.362823 39.314003 31.6M 41 17L 41 18C 41 21.313709 43.686291 24 47 24C 50.313709 24 53 21.313709 53 18L 53 17M 38 17L 56 17M 41 17L 41.722 12.672C 41.882332 11.707601 42.716366 11.00045 43.694 11L 50.306 11C 51.283634 11.00045 52.117668 11.707601 52.278 12.672L 53 17M 15 37L 35 37C 35 37 39 37 39 41L 39 53C 39 53 39 57 35 57L 15 57C 15 57 11 57 11 53L 11 41C 11 41 11 37 15 37M 20 37L 20 33C 20 31.89543 20.895432 31 22 31L 28 31C 29.10457 31 30 31.89543 30 33L 30 37M 31.030001 43.445999C 32.152534 45.349133 31.519409 47.801933 29.615999 48.924L 24.445999 51.970001C 22.542274 53.091694 20.089691 52.457729 18.968 50.554005C 17.84631 48.650276 18.480274 46.197693 20.384001 45.076004L 25.554001 42.029999C 27.457216 40.909172 29.908674 41.543076 31.030001 43.445999ZM 22.970001 43.554001L 27.030001 50.445999"></path></g></g></g><g id="g-root-ic_repo_hv9txvfltrf1-stroke" data-item-order="0" transform="translate(531, 257)"><g id="ic_repo_hv9txvfltrf1-stroke" fill="none" stroke-linecap="round" stroke-linejoin="round" stroke-miterlimit="4" stroke="#71b866" stroke-width="2"><g><path d="M 52 51.5L 33.2812 51.5M 16 47C 16 48.193401 16.4741 49.338001 17.31802 50.181999C 18.16194 51.025799 19.30652 51.5 20.5 51.5L 23.21876 51.5M 22 11.5C 18.732 11.5 16 14.232 16 17.5L 16 47C 16 44.549 18.049 42.5 20.5 42.5L 50.5 42.5C 51.295601 42.5 52 41.795601 52 41L 52 13C 52 12.20436 51.295601 11.5 50.5 11.5L 22 11.5ZM 49 51.5L 49 42.5M 23.75 34C 23.335781 34 23 33.6642 23 33.25C 23 32.8358 23.335781 32.5 23.75 32.5M 23.75 34C 24.164219 34 24.5 33.6642 24.5 33.25C 24.5 32.8358 24.164219 32.5 23.75 32.5M 23.75 27C 23.335781 27 23 26.664221 23 26.25C 23 25.835781 23.335781 25.5 23.75 25.5M 23.75 27C 24.164219 27 24.5 26.664221 24.5 26.25C 24.5 25.835781 24.164219 25.5 23.75 25.5M 23.75 20C 23.335781 20 23 19.664219 23 19.25C 23 18.835781 23.335781 18.5 23.75 18.5M 23.75 20C 24.164219 20 24.5 19.664219 24.5 19.25C 24.5 18.835781 24.164219 18.5 23.75 18.5M 23.25 47.5L 23.25 56.5L 28.25 52.875L 33.25 56.5L 33.25 47.5"></path></g></g></g><g id="g-root-tx_flexible_1czvv83fla4ng-stroke" data-item-order="0" transform="translate(626, 269)"></g><g id="g-root-tx_permanen_1lvivgzfla3ur-stroke" data-item-order="0" transform="translate(548, 437)"></g><g id="g-root-tx_trusteer_1448uz7fla681-stroke" data-item-order="0" transform="translate(164, 65)"></g><g id="g-root-tx_assetpro_18k2d3nfla5fr-stroke" data-item-order="0" transform="translate(92, 401)"></g><g id="g-root-ic_shie_1qf34ybflqzuz-stroke" data-item-order="0" transform="translate(302, 389)"><g id="ic_shie_1qf34ybflqzuz-stroke" fill="none" stroke-linecap="round" stroke-linejoin="round" stroke-miterlimit="4" stroke="#ffa02f" stroke-width="2"><g><path d="M 55 11.059999C 56.104568 11.059999 57 11.955431 57 13.059999L 56.984001 28.200001C 57.075123 41.99398 47.563793 53.996471 34.113998 57.060001C 20.639263 54.11869 11.02043 42.205975 10.984 28.414L 11.01 13.07C 11.01 11.96543 11.905431 11.07 13.01 11.07ZM 43.032001 39.02C 43.03466 39.552162 42.825123 40.063446 42.44976 40.440681C 42.074398 40.817921 41.564171 41.030006 41.031998 41.029999L 27.032 41.091999C 25.931324 41.092014 25.037502 40.20266 25.032 39.101997L 24.978001 27.354C 24.978001 26.24943 25.87343 25.354 26.978001 25.354L 40.978001 25.292C 42.078674 25.291986 42.972496 26.181337 42.978001 27.282ZM 33.931999 17.059999L 33.931999 17.059999C 30.618277 17.075428 27.9445 19.774277 27.960001 23.088001L 27.959999 25.34L 39.959999 25.285999L 39.959999 23.034C 39.945675 19.719494 37.246502 17.044502 33.931999 17.060001ZM 31.506001 33.186001C 31.506001 34.566711 32.62529 35.686001 34.006001 35.686001C 35.386711 35.686001 36.506001 34.566711 36.506001 33.186001C 36.506001 31.805288 35.386711 30.686001 34.006001 30.686001C 32.62529 30.686001 31.506001 31.805288 31.506001 33.186001Z"></path></g></g></g><g id="g-root-ic_find_1qbyrirflscuc-stroke" data-item-order="0" transform="translate(458, 389)"><g id="ic_find_1qbyrirflscuc-stroke" fill="none" stroke-linecap="round" stroke-linejoin="round" stroke-miterlimit="4" stroke="#dbdc38" stroke-width="2"><g><path d="M 51 19C 51 14.581722 47.418278 11 43 11L 19 11C 14.581722 11 11 14.581722 11 19L 11 23L 51 23L 51 19ZM 27 11C 21 11 21 19 21 19L 21 23M 35 11C 41 11 41 19 41 19L 41 23M 51 30L 51 23L 11 23L 11 41C 11 43.209141 12.790861 45 15 45L 29 45M 11 27L 27 27L 27 29C 27 31.209139 28.790861 33 31 33L 31 33C 33.209137 33 35 31.209139 35 29L 35 27L 51 27M 31 27L 31 29M 21 27L 21 45M 33 45C 33 51.627419 38.372581 57 45 57C 51.627419 57 57 51.627419 57 45C 57 38.372581 51.627419 33 45 33C 38.372581 33 33 38.372581 33 45ZM 50.348 41.512001L 44.537998 49.257999C 44.276516 49.605347 43.877514 49.822548 43.443855 49.853607C 43.010197 49.884663 42.584312 49.72654 42.276001 49.419998L 39.276001 46.419998"></path></g></g></g><g id="g-root-tx_irrevoca_v98btffla3uy-stroke" data-item-order="0" transform="translate(548, 401)"></g><g id="g-root-tx_trustsco_1qapwibfla68a-stroke" data-item-order="0" transform="translate(92, 437)"></g><g id="g-root-tx_factorsi_ziszwzflr11k-stroke" data-item-order="0" transform="translate(201, -7)"></g><g id="g-root-tx_llcstruc_v98btffla3uz-stroke" data-item-order="0" transform="translate(548, 65)"></g></g></g></svg>