<?xml version="1.0" encoding="utf-8" standalone="yes"?>
<!DOCTYPE svg PUBLIC "-//W3C//DTD SVG 1.1//EN" "http://www.w3.org/Graphics/SVG/1.1/DTD/svg11.dtd">
<svg width="732" height="340" viewBox="0 0 732 340" style="fill:none;stroke:none;fill-rule:evenodd;clip-rule:evenodd;stroke-linecap:round;stroke-linejoin:round;stroke-miterlimit:1.5;" version="1.1" xmlns="http://www.w3.org/2000/svg" xmlns:xlink="http://www.w3.org/1999/xlink"><g id="items" style="isolation: isolate"><g id="blend" style="mix-blend-mode: normal"><g id="g-root-sy_3_line_1lw5vjkgf8xl4-fill" data-item-order="-38843" transform="translate(266, 138)"></g><g id="g-root-sy_1_line_1hgcdf4gf8ydd-fill" data-item-order="-38837" transform="translate(265.9999084472656, 30)"></g><g id="g-root-sy_2_line_1hgcdf4gf8yde-fill" data-item-order="-38831" transform="translate(265.9997863769531, 138)"></g><g id="g-root-sy_0_line_1hgcdf4gf8ydf-fill" data-item-order="-38827" transform="translate(194, 138)"></g><g id="g-root-ic_docu_1d0ivaogfd3ba-fill" data-item-order="0" transform="translate(386, 12)"></g><g id="g-root-tx_filetaxe_7ra40gf8ydl-fill" data-item-order="0" transform="translate(434, 18)"><g id="tx_filetaxe_7ra40gf8ydl-fill" stroke="none" fill="#767ae5"><g><text style="font: bold 15px &quot;Open Sans Regular&quot;, sans-serif; white-space: pre;" font-weight="bold" font-size="15px" font-family="'Open Sans Regular', sans-serif"><tspan x="12" y="32" dominant-baseline="ideographic">File Taxes</tspan></text></g></g></g><g id="g-root-ic_loca_13zw2cwgfbrbh-fill" data-item-order="0" transform="translate(50, 66)"></g><g id="g-root-tx_determin_93eacwgf8xkw-fill" data-item-order="0" transform="translate(434, 54)"><g id="tx_determin_93eacwgf8xkw-fill" stroke="none" fill="#0d0d0d"><g><text style="font: 15px &quot;Open Sans 300&quot;, sans-serif; white-space: pre;" font-size="15px" font-family="'Open Sans 300', sans-serif"><tspan x="12" y="29" dominant-baseline="ideographic">Determine if tax filing is necessary for </tspan><tspan x="12" y="47" dominant-baseline="ideographic">compliance</tspan></text></g></g></g><g id="g-root-ic_1_18jgf00gfab5w-fill" data-item-order="0" transform="translate(386, 120)"></g><g id="g-root-tx_whatshou_7ra40gf8ydm-fill" data-item-order="0" transform="translate(-10, 138)"><g id="tx_whatshou_7ra40gf8ydm-fill" stroke="none" fill="#0d0d0d"><g><text style="font: bold 20px &quot;Poppins 300&quot;, sans-serif; white-space: pre;" font-weight="bold" font-size="20px" font-family="'Poppins 300', sans-serif"><tspan x="14.16" y="36" dominant-baseline="ideographic">What should I do </tspan><tspan x="18.71" y="60" dominant-baseline="ideographic">with my unused </tspan><tspan x="76.01" y="84" dominant-baseline="ideographic">LLC?</tspan></text></g></g></g><g id="g-root-tx_paystate_4nks8ggf8xlb-fill" data-item-order="0" transform="translate(434, 126)"><g id="tx_paystate_4nks8ggf8xlb-fill" stroke="none" fill="#80c476"><g><text style="font: bold 15px &quot;Open Sans Regular&quot;, sans-serif; white-space: pre;" font-weight="bold" font-size="15px" font-family="'Open Sans Regular', sans-serif"><tspan x="12" y="32" dominant-baseline="ideographic">Pay State Fees</tspan></text></g></g></g><g id="g-root-tx_assessan_hz1alsgf8w0e-fill" data-item-order="0" transform="translate(434, 162)"><g id="tx_assessan_hz1alsgf8w0e-fill" stroke="none" fill="#0d0d0d"><g><text style="font: 15px &quot;Open Sans 300&quot;, sans-serif; white-space: pre;" font-size="15px" font-family="'Open Sans 300', sans-serif"><tspan x="12" y="29" dominant-baseline="ideographic">Assess and pay state-required fees to </tspan><tspan x="12" y="47" dominant-baseline="ideographic">maintain status</tspan></text></g></g></g><g id="g-root-ic_hamm_1utob1sgf8vsz-fill" data-item-order="0" transform="translate(386, 228)"></g><g id="g-root-tx_dissolve_v9vbw0gf8xl9-fill" data-item-order="0" transform="translate(434, 234)"><g id="tx_dissolve_v9vbw0gf8xl9-fill" stroke="none" fill="#ec4100"><g><text style="font: bold 15px &quot;Open Sans Regular&quot;, sans-serif; white-space: pre;" font-weight="bold" font-size="15px" font-family="'Open Sans Regular', sans-serif"><tspan x="12" y="32" dominant-baseline="ideographic">Dissolve LLC</tspan></text></g></g></g><g id="g-root-tx_official_1hgcdf4gf8ydg-fill" data-item-order="0" transform="translate(434, 270)"><g id="tx_official_1hgcdf4gf8ydg-fill" stroke="none" fill="#0d0d0d"><g><text style="font: 15px &quot;Open Sans 300&quot;, sans-serif; white-space: pre;" font-size="15px" font-family="'Open Sans 300', sans-serif"><tspan x="12" y="29" dominant-baseline="ideographic">Officially close the LLC to avoid future </tspan><tspan x="12" y="47" dominant-baseline="ideographic">obligations</tspan></text></g></g></g><g id="g-root-sy_3_line_1lw5vjkgf8xl4-stroke" data-item-order="-38843" transform="translate(266, 138)"><g id="sy_3_line_1lw5vjkgf8xl4-stroke" fill="none" stroke-linecap="round" stroke-linejoin="round" stroke-miterlimit="4" stroke="#ec4100" stroke-width="2"><g><path d="M 116 118L 57.95 118C 44.7 118 33.95 107.25 33.95 94L 33.95 33.95C 33.95 20.72 23.23 10 10 10"></path><path d="M 110 124.5L 116.5 118L 110 111.5" stroke-dasharray="none"></path></g></g></g><g id="g-root-sy_1_line_1hgcdf4gf8ydd-stroke" data-item-order="-38837" transform="translate(265.9999084472656, 30)"><g id="sy_1_line_1hgcdf4gf8ydd-stroke" fill="none" stroke-linecap="round" stroke-linejoin="round" stroke-miterlimit="4" stroke="#767ae5" stroke-width="2"><g><path d="M 116.000092 10L 58.950092 10C 45.700092 10 34.950092 20.75 34.950092 34L 34.950092 94.05C 34.950092 107.28 24.230092 118 11.000092 118L 10.000092 118"></path><path d="M 110.000092 16.5L 116.500092 10L 110.000092 3.5" stroke-dasharray="none"></path></g></g></g><g id="g-root-sy_2_line_1hgcdf4gf8yde-stroke" data-item-order="-38831" transform="translate(265.9997863769531, 138)"><g id="sy_2_line_1hgcdf4gf8yde-stroke" fill="none" stroke-linecap="round" stroke-linejoin="round" stroke-miterlimit="4" stroke="#80c476" stroke-width="2"><g><path d="M 116.000214 10L 10.000214 10"></path><path d="M 110.000214 16.5L 116.500214 10L 110.000214 3.5" stroke-dasharray="none"></path></g></g></g><g id="g-root-sy_0_line_1hgcdf4gf8ydf-stroke" data-item-order="-38827" transform="translate(194, 138)"><g id="sy_0_line_1hgcdf4gf8ydf-stroke" fill="none" stroke-linecap="round" stroke-linejoin="round" stroke-miterlimit="4" stroke="#a3a3a3" stroke-width="2"><g><path d="M 82 10L 10 10"></path></g></g></g><g id="g-root-ic_docu_1d0ivaogfd3ba-stroke" data-item-order="0" transform="translate(386, 12)"><g id="ic_docu_1d0ivaogfd3ba-stroke" fill="none" stroke-linecap="round" stroke-linejoin="round" stroke-miterlimit="4" stroke="#767ae5" stroke-width="2"><g><path d="M 22 37L 34.375 37M 22 31L 22 23.5M 20.5 23.5L 23.5 23.5M 26.5 31L 26.5 25C 26.5 24.171572 27.171572 23.5 28 23.5C 28.828428 23.5 29.5 24.171572 29.5 25L 29.5 31M 26.5 28L 29.5 28M 32.5 23.5L 35.5 31M 35.5 23.5L 32.5 31M 40.75 45.25C 41.578426 45.25 42.25 44.578426 42.25 43.75L 42.25 19.7125C 42.25 14.762648 38.23735 10.75 33.287498 10.75L 15.25 10.75C 14.421573 10.75 13.75 11.421573 13.75 12.25L 13.75 43.75C 13.75 44.578426 14.421573 45.25 15.25 45.25ZM 34.75 10.87L 34.75 16.75C 34.75 17.578426 35.421574 18.25 36.25 18.25L 42.130001 18.25"></path></g></g></g><g id="g-root-tx_filetaxe_7ra40gf8ydl-stroke" data-item-order="0" transform="translate(434, 18)"></g><g id="g-root-ic_loca_13zw2cwgfbrbh-stroke" data-item-order="0" transform="translate(50, 66)"><g id="ic_loca_13zw2cwgfbrbh-stroke" fill="none" stroke-linecap="round" stroke-linejoin="round" stroke-miterlimit="4" stroke="#484848" stroke-width="2"><g><path d="M 30.663074 42.866749C 33.299225 42.866749 35.436253 40.729748 35.436253 38.093498C 35.436253 35.457253 33.299225 33.320301 30.663074 33.320301C 28.026926 33.320301 25.8899 35.457253 25.8899 38.093498C 25.8899 40.729748 28.026926 42.866749 30.663074 42.866749ZM 11.875 68.125L 68.125 68.125M 10 10M 57.554497 28.7265L 44.204498 31.431501C 43.655502 31.549576 43.136497 31.778751 42.679249 32.104977C 42.222248 32.431175 41.83675 32.8475 41.546501 33.3283C 41.256248 33.809097 41.067501 34.344223 40.992001 34.9007C 40.9165 35.457253 40.955502 36.023251 41.106998 36.563999L 41.106998 36.563999C 41.38525 37.560249 42.0285 38.415501 42.908749 38.958748C 43.789001 39.502251 44.841499 39.694248 45.857002 39.496502L 49.457001 39.016499C 52.637001 42.016499 60.457001 41.328999 63.456997 38.139L 68.124496 39.289001M 10 10M 41.963749 19.327351L 43.231998 17.980675C 44.315498 16.92745 45.65625 16.17675 47.120499 15.80345C 48.584751 15.43015 50.12125 15.4473 51.577 15.853149L 67.576996 20.303175M 48.296249 39.21875L 48.296249 40.209499C 48.296249 54.316502 34.714352 65.901497 31.39105 67.919754C 31.169149 68.054253 30.918076 68.125 30.662624 68.125C 30.40715 68.125 30.156099 68.054253 29.934175 67.919754C 26.6187 65.899498 13.031 54.3125 13.031 40.209499C 13.031 35.236248 14.888725 30.466549 18.195475 26.94985C 21.502226 23.433174 25.98715 21.457525 30.663601 21.457525C 35.34 21.457525 39.825001 23.433174 43.131748 26.94985C 44.2505 28.139574 45.203251 29.472675 45.974499 30.908548L 46.045002 31.064451"></path></g></g></g><g id="g-root-tx_determin_93eacwgf8xkw-stroke" data-item-order="0" transform="translate(434, 54)"></g><g id="g-root-ic_1_18jgf00gfab5w-stroke" data-item-order="0" transform="translate(386, 120)"><g id="ic_1_18jgf00gfab5w-stroke" fill="none" stroke-linecap="round" stroke-linejoin="round" stroke-miterlimit="4" stroke="#80c476" stroke-width="2"><g><path d="M 35.5 32.605C 35.5 33.019215 35.164215 33.355 34.75 33.355L 22.75 33.355C 22.335787 33.355 22 33.019215 22 32.605L 22 17.605C 22 17.190786 22.335787 16.855 22.75 16.855L 31 16.855L 35.5 21.355ZM 28.75 22.855L 28.75 21.355M 28.75 29.605L 28.75 28.105M 30.25 22.855L 27.25 22.855C 26.835787 22.855 26.5 23.190786 26.5 23.605C 26.5 25.105 30.25 25.855 30.25 27.355C 30.25 27.769215 29.914213 28.105 29.5 28.105L 26.5 28.105M 28 10.855C 31.245266 10.850803 34.424488 11.771789 37.164997 13.51C 44.290001 18.01 44.814999 27.355 39.145 34.18C 35.905788 38.074123 32.337639 41.682423 28.48 44.965C 28.201914 45.196625 27.798086 45.196625 27.52 44.965C 23.662361 41.682423 20.094212 38.074123 16.855 34.18C 11.185 27.355 11.71 18.040001 18.834999 13.51C 21.57551 11.771789 24.754732 10.850803 28 10.855Z"></path></g></g></g><g id="g-root-tx_whatshou_7ra40gf8ydm-stroke" data-item-order="0" transform="translate(-10, 138)"></g><g id="g-root-tx_paystate_4nks8ggf8xlb-stroke" data-item-order="0" transform="translate(434, 126)"></g><g id="g-root-tx_assessan_hz1alsgf8w0e-stroke" data-item-order="0" transform="translate(434, 162)"></g><g id="g-root-ic_hamm_1utob1sgf8vsz-stroke" data-item-order="0" transform="translate(386, 228)"><g id="ic_hamm_1utob1sgf8vsz-stroke" fill="none" stroke-linecap="round" stroke-linejoin="round" stroke-miterlimit="4" stroke="#ec4100" stroke-width="2"><g><path d="M 11.285714 44.174286L 30.571428 44.174286M 28 44.174286L 28 37.745712L 13.857142 37.745712L 13.857142 44.174286M 20.8043 21.795586L 30.022951 12.576932C 30.022951 12.576932 31.841225 10.758658 33.6595 12.576932L 37.732433 16.649866C 37.732433 16.649866 39.550709 18.468142 37.732433 20.286417L 28.513781 29.50507C 28.513781 29.50507 26.695505 31.323345 24.877232 29.50507L 20.8043 25.432137C 20.8043 25.432137 18.986025 23.613861 20.8043 21.795586M 33.142857 24.888571L 44.714287 36.459999"></path></g></g></g><g id="g-root-tx_dissolve_v9vbw0gf8xl9-stroke" data-item-order="0" transform="translate(434, 234)"></g><g id="g-root-tx_official_1hgcdf4gf8ydg-stroke" data-item-order="0" transform="translate(434, 270)"></g></g></g></svg>